0
SECTION
2
HEADER
9
$INSUNITS
70
4
9
$ACADVER
1
AC1014
9
$HANDSEED
5
FFFF
0
ENDSEC
0
SECTION
2
TABLES
0
TABLE
2
VPORT
5
8
100
AcDbSymbolTable
0
ENDTAB
0
TABLE
2
LTYPE
5
5
100
AcDbSymbolTable
0
LTYPE
5
14
100
AcDbSymbolTableRecord
100
AcDbLinetypeTableRecord
2
BYBLOCK
70
0
0
LTYPE
5
15
100
AcDbSymbolTableRecord
100
AcDbLinetypeTableRecord
2
BYLAYER
70
0
0
ENDTAB
0
TABLE
2
LAYER
5
2
100
AcDbSymbolTable
70
2
0
LAYER
5
50
100
AcDbSymbolTableRecord
100
AcDbLayerTableRecord
2
0
70
0
6
CONTINUOUS
0
ENDTAB
0
TABLE
2
STYLE
5
3
100
AcDbSymbolTable
70
1
0
STYLE
5
11
100
AcDbSymbolTableRecord
100
AcDbTextStyleTableRecord
2
STANDARD
70
0
0
ENDTAB
0
TABLE
2
VIEW
5
6
100
AcDbSymbolTable
70
0
0
ENDTAB
0
TABLE
2
UCS
5
7
100
AcDbSymbolTable
70
0
0
ENDTAB
0
TABLE
2
APPID
5
9
100
AcDbSymbolTable
70
2
0
APPID
5
12
100
AcDbSymbolTableRecord
100
AcDbRegAppTableRecord
2
ACAD
70
0
0
ENDTAB
0
TABLE
2
DIMSTYLE
5
A
100
AcDbSymbolTable
70
1
0
ENDTAB
0
TABLE
2
BLOCK_RECORD
5
1
100
AcDbSymbolTable
70
1
0
BLOCK_RECORD
5
1F
100
AcDbSymbolTableRecord
100
AcDbBlockTableRecord
2
*MODEL_SPACE
0
BLOCK_RECORD
5
1B
100
AcDbSymbolTableRecord
100
AcDbBlockTableRecord
2
*PAPER_SPACE
0
ENDTAB
0
ENDSEC
0
SECTION
2
BLOCKS
0
BLOCK
5
20
100
AcDbEntity
100
AcDbBlockBegin
2
*MODEL_SPACE
0
ENDBLK
5
21
100
AcDbEntity
100
AcDbBlockEnd
0
BLOCK
5
1C
100
AcDbEntity
100
AcDbBlockBegin
2
*PAPER_SPACE
0
ENDBLK
5
1D
100
AcDbEntity
100
AcDbBlockEnd
0
ENDSEC
0
SECTION
2
ENTITIES
0
LWPOLYLINE
5
100
100
AcDbEntity
8
0
100
AcDbPolyline
90
16
70
1
43
0.0
10
179.23750000000001
20
-59.675000000000004
10
187.76249999999999
20
-59.675000000000004
42
0.41421356237312101
10
188.26250000000002
20
-59.175000000000004
10
188.26249999999999
20
-41.125
42
-0.41421356237309503
10
188.76249999999999
20
-40.625
10
201.76249999999999
20
-40.624999999999993
42
-0.41421356237309503
10
202.26249999999999
20
-41.125
10
202.26249999999999
20
-54.125000000000007
42
-0.41421356237309503
10
201.76249999999999
20
-54.625
10
193.23750000000004
20
-54.625000000000021
42
0.41421356237312101
10
192.73750000000004
20
-55.125
10
192.73750000000004
20
-73.174999999999997
42
-0.41421356237309503
10
192.23750000000001
20
-73.674999999999997
10
179.23750000000001
20
-73.675000000000011
42
-0.41421356237309503
10
178.73750000000001
20
-73.174999999999997
10
178.73750000000001
20
-60.174999999999997
42
-0.41421356237309503
0
LWPOLYLINE
5
101
100
AcDbEntity
8
0
100
AcDbPolyline
90
8
70
1
43
0.0
10
160.1875
20
-59.675000000000004
42
0.41421356237309503
10
159.6875
20
-60.174999999999997
10
159.6875
20
-73.174999999999997
42
0.41421356237309503
10
160.1875
20
-73.674999999999997
10
173.1875
20
-73.674999999999997
42
0.41421356237309503
10
173.68750000000003
20
-73.174999999999997
10
173.68750000000003
20
-60.174999999999997
42
0.41421356237309503
10
173.1875
20
-59.675000000000004
0
LWPOLYLINE
5
102
100
AcDbEntity
8
0
100
AcDbPolyline
90
8
70
1
43
0.0
10
198.28749999999999
20
-59.675000000000004
42
0.41421356237309503
10
197.78750000000002
20
-60.174999999999997
10
197.78750000000002
20
-73.174999999999997
42
0.41421356237309503
10
198.28749999999999
20
-73.674999999999997
10
211.28749999999999
20
-73.674999999999997
42
0.41421356237309503
10
211.78750000000002
20
-73.174999999999997
10
211.78750000000002
20
-60.174999999999997
42
0.41421356237309503
10
211.28749999999999
20
-59.675000000000004
0
LWPOLYLINE
5
103
100
AcDbEntity
8
0
100
AcDbPolyline
90
8
70
1
43
0.0
10
184.46875000000003
20
-80.224999999999994
42
0.41421356237309503
10
183.96875
20
-79.724999999999994
10
177.96875
20
-79.724999999999994
42
0.41421356237309503
10
177.46875
20
-80.224999999999994
10
177.46875
20
-94.224999999999994
42
0.41421356237309503
10
177.96875
20
-94.724999999999994
10
183.96875
20
-94.724999999999994
42
0.41421356237309503
10
184.46875000000003
20
-94.224999999999994
0
LWPOLYLINE
5
104
100
AcDbEntity
8
0
100
AcDbPolyline
90
8
70
1
43
0.0
10
182.71250000000003
20
-54.625
42
0.41421356237309503
10
183.21250000000003
20
-54.125000000000007
10
183.21250000000003
20
-41.125
42
0.41421356237309503
10
182.71250000000003
20
-40.625
10
169.71250000000001
20
-40.625
42
0.41421356237309503
10
169.21250000000001
20
-41.125
10
169.21250000000001
20
-54.125000000000007
42
0.41421356237309503
10
169.71250000000001
20
-54.625
0
LWPOLYLINE
5
105
100
AcDbEntity
8
0
100
AcDbPolyline
90
8
70
1
43
0.0
10
163.66250000000002
20
-54.625
42
0.41421356237309503
10
164.16250000000002
20
-54.125000000000007
10
164.16250000000002
20
-41.125
42
0.41421356237309503
10
163.66250000000002
20
-40.625
10
150.66249999999999
20
-40.625
42
0.41421356237309503
10
150.16249999999999
20
-41.125
10
150.16249999999999
20
-54.125000000000007
42
0.41421356237309503
10
150.66249999999999
20
-54.625
0
LWPOLYLINE
5
106
100
AcDbEntity
8
0
100
AcDbPolyline
90
8
70
1
43
0.0
10
195.40625000000003
20
-92.224999999999994
42
0.41421356237309503
10
195.90625000000003
20
-92.724999999999994
10
208.90625
20
-92.724999999999994
42
0.41421356237309503
10
209.40625
20
-92.224999999999994
10
209.40625
20
-79.224999999999994
42
0.41421356237309503
10
208.90625
20
-78.724999999999994
10
195.90625000000003
20
-78.724999999999994
42
0.41421356237309503
10
195.40625000000003
20
-79.224999999999994
0
LWPOLYLINE
5
107
100
AcDbEntity
8
0
100
AcDbPolyline
90
8
70
1
43
0.0
10
219.21875
20
-92.224999999999994
42
0.41421356237309503
10
219.71875
20
-92.724999999999994
10
232.71875
20
-92.724999999999994
42
0.41421356237309503
10
233.21875000000003
20
-92.224999999999994
10
233.21875000000003
20
-79.224999999999994
42
0.41421356237309503
10
232.71875
20
-78.724999999999994
10
219.71875
20
-78.724999999999994
42
0.41421356237309503
10
219.21875
20
-79.224999999999994
0
LWPOLYLINE
5
108
100
AcDbEntity
8
0
100
AcDbPolyline
90
8
70
1
43
0.0
10
230.83750000000003
20
-60.174999999999997
10
230.83750000000003
20
-73.174999999999997
42
-0.41421356237309503
10
230.33750000000001
20
-73.674999999999997
10
217.33750000000001
20
-73.675000000000011
42
-0.41421356237309503
10
216.83750000000001
20
-73.174999999999997
10
216.83750000000001
20
-60.174999999999997
42
-0.41421356237309503
10
217.33750000000001
20
-59.675000000000004
10
230.33750000000001
20
-59.674999999999997
42
-0.41421356237309503
0
LWPOLYLINE
5
109
100
AcDbEntity
8
0
100
AcDbPolyline
90
8
70
1
43
0.0
10
220.8125
20
-54.625
42
0.41421356237309503
10
221.3125
20
-54.125000000000007
10
221.3125
20
-41.125
42
0.41421356237309503
10
220.8125
20
-40.625
10
207.8125
20
-40.625
42
0.41421356237309503
10
207.3125
20
-41.125
10
207.31250000000003
20
-54.125000000000007
42
0.41421356237309503
10
207.8125
20
-54.625
0
LWPOLYLINE
5
110
100
AcDbEntity
8
0
100
AcDbPolyline
90
8
70
1
43
0.0
10
226.36250000000004
20
-54.125000000000007
42
0.41421356237309503
10
226.86250000000001
20
-54.625
10
239.86250000000001
20
-54.625
42
0.41421356237309503
10
240.36250000000001
20
-54.125000000000007
10
240.36250000000001
20
-41.125
42
0.41421356237309503
10
239.86250000000001
20
-40.625
10
226.86250000000001
20
-40.625
42
0.41421356237309503
10
226.36250000000004
20
-41.125
0
LWPOLYLINE
5
111
100
AcDbEntity
8
0
100
AcDbPolyline
90
8
70
1
43
0.0
10
64.9375
20
-59.675000000000004
10
77.9375
20
-59.675000000000004
42
-0.41421356237309503
10
78.4375
20
-60.174999999999997
10
78.4375
20
-73.174999999999997
42
-0.41421356237309503
10
77.9375
20
-73.674999999999997
10
64.9375
20
-73.674999999999997
42
-0.41421356237309503
10
64.4375
20
-73.174999999999997
10
64.4375
20
-60.174999999999997
42
-0.41421356237309503
0
LWPOLYLINE
5
112
100
AcDbEntity
8
0
100
AcDbPolyline
90
8
70
1
43
0.0
10
20.787500000000001
20
-35.575000000000003
42
0.41421356237309503
10
21.287500000000001
20
-35.075000000000003
10
21.287500000000001
20
-22.074999999999999
42
0.41421356237309503
10
20.787500000000001
20
-21.575000000000003
10
7.7875000000000005
20
-21.575000000000003
42
0.41421356237309503
10
7.2874999999999996
20
-22.074999999999999
10
7.2874999999999996
20
-35.075000000000003
42
0.41421356237309503
10
7.7875000000000005
20
-35.575000000000003
0
LWPOLYLINE
5
113
100
AcDbEntity
8
0
100
AcDbPolyline
90
8
70
1
43
0.0
10
50.150000000000006
20
-35.075000000000003
42
0.41421356237309503
10
50.650000000000006
20
-35.575000000000003
10
63.650000000000006
20
-35.575000000000003
42
0.41421356237309503
10
64.150000000000006
20
-35.075000000000003
10
64.150000000000006
20
-22.074999999999999
42
0.41421356237309503
10
63.650000000000006
20
-21.575000000000003
10
50.650000000000006
20
-21.575000000000003
42
0.41421356237309503
10
50.150000000000006
20
-22.074999999999999
0
LWPOLYLINE
5
114
100
AcDbEntity
8
0
100
AcDbPolyline
90
8
70
1
43
0.0
10
135.58750000000001
20
-60.174999999999997
42
0.41421356237309503
10
135.08750000000001
20
-59.675000000000004
10
122.08750000000002
20
-59.675000000000004
42
0.41421356237309503
10
121.58750000000001
20
-60.174999999999997
10
121.58750000000001
20
-73.174999999999997
42
0.41421356237309503
10
122.08750000000002
20
-73.674999999999997
10
135.08750000000001
20
-73.674999999999997
42
0.41421356237309503
10
135.58750000000001
20
-73.174999999999997
0
LWPOLYLINE
5
115
100
AcDbEntity
8
0
100
AcDbPolyline
90
8
70
1
43
0.0
10
79.224999999999994
20
-2.5249999999999999
42
0.41421356237309503
10
78.724999999999994
20
-3.0249999999999999
10
78.724999999999994
20
-16.024999999999999
42
0.41421356237309503
10
79.224999999999994
20
-16.525000000000002
10
92.224999999999994
20
-16.524999999999999
42
0.41421356237309503
10
92.724999999999994
20
-16.024999999999999
10
92.724999999999994
20
-3.0249999999999999
42
0.41421356237309503
10
92.224999999999994
20
-2.5249999999999999
0
LWPOLYLINE
5
116
100
AcDbEntity
8
0
100
AcDbPolyline
90
8
70
1
43
0.0
10
187.47499999999999
20
-16.525000000000002
42
0.41421356237309503
10
187.97499999999999
20
-16.024999999999999
10
187.97499999999999
20
-3.0249999999999999
42
0.41421356237309503
10
187.47499999999999
20
-2.5249999999999999
10
174.47500000000002
20
-2.5249999999999999
42
0.41421356237309503
10
173.97500000000002
20
-3.0249999999999999
10
173.97500000000002
20
-16.024999999999999
42
0.41421356237309503
10
174.47500000000002
20
-16.525000000000002
0
LWPOLYLINE
5
117
100
AcDbEntity
8
0
100
AcDbPolyline
90
8
70
1
43
0.0
10
264.46249999999998
20
-35.075000000000003
42
0.41421356237309503
10
264.96249999999998
20
-35.575000000000003
10
277.96249999999998
20
-35.575000000000003
42
0.41421356237309503
10
278.46249999999998
20
-35.075000000000003
10
278.46249999999998
20
-22.074999999999999
42
0.41421356237309503
10
277.96249999999998
20
-21.575000000000003
10
264.96249999999998
20
-21.575000000000003
42
0.41421356237309503
10
264.46249999999998
20
-22.074999999999999
0
LWPOLYLINE
5
118
100
AcDbEntity
8
0
100
AcDbPolyline
90
8
70
1
43
0.0
10
66.03125
20
-92.724999999999994
42
0.41421356237309503
10
66.53125
20
-92.224999999999994
10
66.53125
20
-79.224999999999994
42
0.41421356237309503
10
66.03125
20
-78.724999999999994
10
53.031250000000007
20
-78.724999999999994
42
0.41421356237309503
10
52.531250000000007
20
-79.224999999999994
10
52.531250000000007
20
-92.224999999999994
42
0.41421356237309503
10
53.031250000000007
20
-92.724999999999994
0
LWPOLYLINE
5
119
100
AcDbEntity
8
0
100
AcDbPolyline
90
8
70
1
43
0.0
10
258.262
20
-4.0250000000000004
10
258.26200000000006
20
-18.024999999999999
42
-0.41421356237309503
10
257.76200000000006
20
-18.524999999999999
10
251.762
20
-18.525000000000006
42
-0.41421356237309503
10
251.262
20
-18.024999999999999
10
251.262
20
-4.0250000000000004
42
-0.41421356237309503
10
251.762
20
-3.5250000000000004
10
257.76200000000006
20
-3.5250000000000292
42
-0.41421356237309503
0
LWPOLYLINE
5
120
100
AcDbEntity
8
0
100
AcDbPolyline
90
8
70
1
43
0.0
10
226.07500000000002
20
-3.0249999999999999
10
226.07500000000002
20
-16.024999999999999
42
-0.41421356237309503
10
225.57500000000002
20
-16.525000000000002
10
212.57499999999999
20
-16.525000000000006
42
-0.41421356237309503
10
212.07499999999999
20
-16.024999999999999
10
212.07499999999999
20
-3.0249999999999999
42
-0.41421356237309503
10
212.57499999999999
20
-2.5249999999999999
10
225.57500000000002
20
-2.5249999999999928
42
-0.41421356237309503
0
LWPOLYLINE
5
121
100
AcDbEntity
8
0
100
AcDbPolyline
90
8
70
1
43
0.0
10
55.412500000000009
20
-40.625
42
0.41421356237309503
10
54.912500000000009
20
-41.125
10
54.912500000000009
20
-54.125000000000007
42
0.41421356237309503
10
55.412500000000009
20
-54.625
10
68.412499999999994
20
-54.625
42
0.41421356237309503
10
68.912499999999994
20
-54.125000000000007
10
68.912499999999994
20
-41.125
42
0.41421356237309503
10
68.412499999999994
20
-40.625
0
LWPOLYLINE
5
122
100
AcDbEntity
8
0
100
AcDbPolyline
90
8
70
1
43
0.0
10
302.27499999999998
20
-41.125
42
0.41421356237309503
10
301.77499999999998
20
-40.625
10
288.77499999999998
20
-40.625
42
0.41421356237309503
10
288.27499999999998
20
-41.125
10
288.27499999999998
20
-54.125000000000007
42
0.41421356237309503
10
288.77499999999998
20
-54.625
10
301.77499999999998
20
-54.625
42
0.41421356237309503
10
302.27499999999998
20
-54.125000000000007
0
LWPOLYLINE
5
123
100
AcDbEntity
8
0
100
AcDbPolyline
90
8
70
1
43
0.0
10
241.15000000000003
20
-21.575000000000003
42
0.41421356237309503
10
240.65000000000001
20
-22.074999999999999
10
240.65000000000001
20
-35.075000000000003
42
0.41421356237309503
10
241.15000000000003
20
-35.575000000000003
10
254.15000000000003
20
-35.575000000000003
42
0.41421356237309503
10
254.65000000000003
20
-35.075000000000003
10
254.65000000000003
20
-22.074999999999999
42
0.41421356237309503
10
254.15000000000003
20
-21.575000000000003
0
LWPOLYLINE
5
124
100
AcDbEntity
8
0
100
AcDbPolyline
90
8
70
1
43
0.0
10
245.12500000000003
20
-3.0249999999999999
10
245.12500000000003
20
-16.024999999999999
42
-0.41421356237309503
10
244.62500000000003
20
-16.524999999999999
10
231.625
20
-16.525000000000006
42
-0.41421356237309503
10
231.125
20
-16.024999999999999
10
231.125
20
-3.0249999999999999
42
-0.41421356237309503
10
231.625
20
-2.5249999999999999
10
244.62500000000003
20
-2.5249999999999928
42
-0.41421356237309503
0
LWPOLYLINE
5
125
100
AcDbEntity
8
0
100
AcDbPolyline
90
8
70
1
43
0.0
10
216.55000000000004
20
-22.074999999999999
10
216.55000000000004
20
-35.075000000000003
42
-0.41421356237309503
10
216.05000000000004
20
-35.575000000000003
10
203.05000000000004
20
-35.57500000000001
42
-0.41421356237309503
10
202.55000000000001
20
-35.075000000000003
10
202.55000000000001
20
-22.074999999999999
42
-0.41421356237309503
10
203.05000000000004
20
-21.575000000000003
10
216.05000000000004
20
-21.574999999999992
42
-0.41421356237309503
0
LWPOLYLINE
5
126
100
AcDbEntity
8
0
100
AcDbPolyline
90
8
70
1
43
0.0
10
273.69999999999999
20
-3.0249999999999999
42
0.41421356237309503
10
273.19999999999999
20
-2.5249999999999999
10
260.19999999999999
20
-2.5249999999999999
42
0.41421356237309503
10
259.69999999999999
20
-3.0249999999999999
10
259.69999999999999
20
-16.024999999999999
42
0.41421356237309503
10
260.19999999999999
20
-16.524999999999999
10
273.19999999999999
20
-16.524999999999999
42
0.41421356237309503
10
273.69999999999999
20
-16.024999999999999
0
LWPOLYLINE
5
127
100
AcDbEntity
8
0
100
AcDbPolyline
90
8
70
1
43
0.0
10
54.625
20
-3.0249999999999999
42
0.41421356237309503
10
54.125000000000007
20
-2.5249999999999999
10
41.125
20
-2.5249999999999999
42
0.41421356237309503
10
40.625
20
-3.0249999999999999
10
40.625
20
-16.024999999999999
42
0.41421356237309503
10
41.125
20
-16.525000000000002
10
54.125000000000007
20
-16.524999999999999
42
0.41421356237309503
10
54.625
20
-16.024999999999999
0
LWPOLYLINE
5
128
100
AcDbEntity
8
0
100
AcDbPolyline
90
8
70
1
43
0.0
10
243.03125
20
-73.174999999999997
42
0.41421356237309503
10
243.53125000000003
20
-73.674999999999997
10
256.53125
20
-73.674999999999997
42
0.41421356237309503
10
257.03125
20
-73.174999999999997
10
257.03125000000006
20
-60.174999999999997
42
0.41421356237309503
10
256.53125
20
-59.675000000000004
10
243.53125000000003
20
-59.675000000000004
42
0.41421356237309503
10
243.03125
20
-60.174999999999997
0
LWPOLYLINE
5
129
100
AcDbEntity
8
0
100
AcDbPolyline
90
8
70
1
43
0.0
10
197.00000000000003
20
-35.575000000000003
42
0.41421356237309503
10
197.5
20
-35.075000000000003
10
197.50000000000003
20
-22.074999999999999
42
0.41421356237309503
10
197.00000000000003
20
-21.575000000000003
10
184.00000000000003
20
-21.575000000000003
42
0.41421356237309503
10
183.5
20
-22.074999999999999
10
183.5
20
-35.075000000000003
42
0.41421356237309503
10
184.00000000000003
20
-35.575000000000003
0
LWPOLYLINE
5
130
100
AcDbEntity
8
0
100
AcDbPolyline
90
8
70
1
43
0.0
10
250.17500000000001
20
-92.224999999999994
42
0.41421356237309503
10
250.67500000000001
20
-92.725000000000009
10
263.67500000000001
20
-92.725000000000009
42
0.41421356237309503
10
264.17500000000007
20
-92.224999999999994
10
264.17500000000007
20
-79.224999999999994
42
0.41421356237309503
10
263.67500000000001
20
-78.724999999999994
10
250.67500000000001
20
-78.724999999999994
42
0.41421356237309503
10
250.17500000000001
20
-79.224999999999994
0
LWPOLYLINE
5
131
100
AcDbEntity
8
0
100
AcDbPolyline
90
8
70
1
43
0.0
10
35.575000000000003
20
-3.0249999999999999
42
0.41421356237309503
10
35.075000000000003
20
-2.5249999999999999
10
22.074999999999999
20
-2.5249999999999999
42
0.41421356237309503
10
21.575000000000003
20
-3.0249999999999999
10
21.575000000000003
20
-16.024999999999999
42
0.41421356237309503
10
22.074999999999999
20
-16.525000000000002
10
35.075000000000003
20
-16.525000000000002
42
0.41421356237309503
10
35.575000000000003
20
-16.024999999999999
0
LWPOLYLINE
5
132
100
AcDbEntity
8
0
100
AcDbPolyline
90
8
70
1
43
0.0
10
255.88075000000003
20
-42.125
42
0.41421356237309503
10
255.38075000000003
20
-41.625000000000007
10
249.38075000000001
20
-41.625000000000007
42
0.41421356237309503
10
248.88075000000001
20
-42.125
10
248.88075000000001
20
-56.125000000000007
42
0.41421356237309503
10
249.38075000000001
20
-56.625000000000007
10
255.38075000000003
20
-56.625000000000007
42
0.41421356237309503
10
255.88075000000003
20
-56.125000000000007
0
LWPOLYLINE
5
133
100
AcDbEntity
8
0
100
AcDbPolyline
90
16
70
1
43
0.0
10
117.03749999999999
20
-54.625
10
125.5625
20
-54.625
42
0.41421356237309503
10
126.06250000000001
20
-54.125000000000007
10
126.06250000000001
20
-41.125
42
0.41421356237309503
10
125.5625
20
-40.625
10
112.56250000000001
20
-40.625
42
0.41421356237309503
10
112.0625
20
-41.125
10
112.0625
20
-59.175000000000004
42
-0.41421356237310542
10
111.5625
20
-59.675000000000004
10
103.03750000000001
20
-59.675000000000004
42
0.41421356237309503
10
102.53749999999999
20
-60.174999999999997
10
102.53749999999999
20
-73.174999999999997
42
0.41421356237309503
10
103.03750000000001
20
-73.674999999999997
10
116.03749999999999
20
-73.674999999999997
42
0.41421356237309503
10
116.53750000000001
20
-73.174999999999997
10
116.53750000000001
20
-55.125
42
-0.41421356237305862
0
LWPOLYLINE
5
134
100
AcDbEntity
8
0
100
AcDbPolyline
90
8
70
1
43
0.0
10
193.02500000000003
20
-3.0249999999999999
10
193.02500000000003
20
-16.024999999999999
42
0.41421356237309503
10
193.52500000000003
20
-16.525000000000002
10
206.52500000000003
20
-16.524999999999999
42
0.41421356237309503
10
207.02500000000001
20
-16.024999999999999
10
207.02500000000003
20
-3.0249999999999999
42
0.41421356237309503
10
206.52500000000003
20
-2.5249999999999999
10
193.52500000000003
20
-2.5249999999999999
42
0.41421356237309503
0
LWPOLYLINE
5
135
100
AcDbEntity
8
0
100
AcDbPolyline
90
8
70
1
43
0.0
10
124.46875
20
-92.724999999999994
10
137.46875
20
-92.725000000000009
42
0.41421356237309503
10
137.96875000000003
20
-92.224999999999994
10
137.96875000000003
20
-79.224999999999994
42
0.41421356237309503
10
137.46875
20
-78.724999999999994
10
124.46875
20
-78.724999999999994
42
0.41421356237309503
10
123.96875000000001
20
-79.224999999999994
10
123.96875000000001
20
-92.224999999999994
42
0.41421356237309503
0
LWPOLYLINE
5
136
100
AcDbEntity
8
0
100
AcDbPolyline
90
8
70
1
43
0.0
10
31.600000000000001
20
-21.575000000000003
10
44.600000000000001
20
-21.575000000000003
42
-0.41421356237309503
10
45.099999999999994
20
-22.074999999999999
10
45.099999999999994
20
-35.075000000000003
42
-0.41421356237309503
10
44.600000000000001
20
-35.575000000000003
10
31.600000000000001
20
-35.575000000000003
42
-0.41421356237309503
10
31.100000000000001
20
-35.075000000000003
10
31.100000000000001
20
-22.074999999999999
42
-0.41421356237309503
0
LWPOLYLINE
5
137
100
AcDbEntity
8
0
100
AcDbPolyline
90
8
70
1
43
0.0
10
73.674999999999997
20
-3.0249999999999999
42
0.41421356237309503
10
73.174999999999997
20
-2.5249999999999999
10
60.174999999999997
20
-2.5249999999999999
42
0.41421356237309503
10
59.675000000000004
20
-3.0249999999999999
10
59.675000000000004
20
-16.024999999999999
42
0.41421356237309503
10
60.174999999999997
20
-16.525000000000002
10
73.174999999999997
20
-16.525000000000002
42
0.41421356237309503
10
73.674999999999997
20
-16.024999999999999
0
LWPOLYLINE
5
138
100
AcDbEntity
8
0
100
AcDbPolyline
90
8
70
1
43
0.0
10
272.75675000000001
20
-56.125000000000007
42
0.41421356237309503
10
273.25675000000001
20
-56.625000000000007
10
279.25675000000001
20
-56.625000000000007
42
0.41421356237309503
10
279.75675000000001
20
-56.125000000000007
10
279.75675000000001
20
-42.125
42
0.41421356237309503
10
279.25675000000001
20
-41.625000000000007
10
273.25675000000001
20
-41.625000000000007
42
0.41421356237309503
10
272.75675000000001
20
-42.125
0
LWPOLYLINE
5
139
100
AcDbEntity
8
0
100
AcDbPolyline
90
8
70
1
43
0.0
10
58.88750000000001
20
-73.674999999999997
42
0.41421356237309503
10
59.387500000000003
20
-73.174999999999997
10
59.387500000000003
20
-60.174999999999997
42
0.41421356237309503
10
58.88750000000001
20
-59.675000000000004
10
45.887500000000003
20
-59.675000000000004
42
0.41421356237309503
10
45.387500000000003
20
-60.174999999999997
10
45.387500000000003
20
-73.174999999999997
42
0.41421356237309503
10
45.887500000000003
20
-73.674999999999997
0
LWPOLYLINE
5
140
100
AcDbEntity
8
0
100
AcDbPolyline
90
8
70
1
43
0.0
10
269.72500000000002
20
-78.724999999999994
10
282.72500000000002
20
-78.724999999999994
42
-0.41421356237309503
10
283.22500000000002
20
-79.224999999999994
10
283.22500000000002
20
-92.224999999999994
42
-0.41421356237309503
10
282.72500000000002
20
-92.725000000000009
10
269.72500000000002
20
-92.725000000000009
42
-0.41421356237309503
10
269.22500000000002
20
-92.224999999999994
10
269.22500000000002
20
-79.224999999999994
42
-0.41421356237309503
0
LWPOLYLINE
5
141
100
AcDbEntity
8
0
100
AcDbPolyline
90
8
70
1
43
0.0
10
257.81875000000002
20
-40.625
42
0.41421356237309503
10
257.31875000000002
20
-41.125
10
257.31875000000002
20
-54.125000000000007
42
0.41421356237309503
10
257.81875000000002
20
-54.625
10
270.81875000000002
20
-54.625
42
0.41421356237309503
10
271.31875000000002
20
-54.125000000000007
10
271.31875000000002
20
-41.125
42
0.41421356237309503
10
270.81875000000002
20
-40.625
0
LWPOLYLINE
5
142
100
AcDbEntity
8
0
100
AcDbPolyline
90
8
70
1
43
0.0
10
140.63749999999999
20
-60.174999999999997
10
140.63749999999999
20
-73.174999999999997
42
0.41421356237309503
10
141.13749999999999
20
-73.674999999999997
10
154.13749999999999
20
-73.674999999999997
42
0.41421356237309503
10
154.63749999999999
20
-73.174999999999997
10
154.63749999999999
20
-60.174999999999997
42
0.41421356237309503
10
154.13749999999999
20
-59.675000000000004
10
141.13749999999999
20
-59.675000000000004
42
0.41421356237309503
0
LWPOLYLINE
5
143
100
AcDbEntity
8
0
100
AcDbPolyline
90
8
70
1
43
0.0
10
222.10000000000002
20
-21.575000000000003
10
235.10000000000002
20
-21.574999999999992
42
-0.41421356237309503
10
235.60000000000002
20
-22.074999999999999
10
235.60000000000002
20
-35.075000000000003
42
-0.41421356237309503
10
235.10000000000002
20
-35.575000000000003
10
222.10000000000002
20
-35.57500000000001
42
-0.41421356237309503
10
221.59999999999999
20
-35.075000000000003
10
221.59999999999999
20
-22.074999999999999
42
-0.41421356237309503
0
LWPOLYLINE
5
144
100
AcDbEntity
8
0
100
AcDbPolyline
90
8
70
1
43
0.0
10
16.024999999999999
20
-16.525000000000002
42
0.41421356237309503
10
16.525000000000002
20
-16.024999999999999
10
16.525000000000002
20
-3.0249999999999999
42
0.41421356237309503
10
16.024999999999999
20
-2.5249999999999999
10
3.0249999999999999
20
-2.5249999999999999
42
0.41421356237309503
10
2.5249999999999999
20
-3.0249999999999999
10
2.5249999999999999
20
-16.024999999999999
42
0.41421356237309503
10
3.0249999999999999
20
-16.525000000000002
0
LWPOLYLINE
5
145
100
AcDbEntity
8
0
100
AcDbPolyline
90
8
70
1
43
0.0
10
164.95000000000002
20
-21.575000000000003
10
177.94999999999999
20
-21.574999999999992
42
-0.41421356237309503
10
178.44999999999999
20
-22.074999999999999
10
178.44999999999999
20
-35.075000000000003
42
-0.41421356237309503
10
177.94999999999999
20
-35.575000000000003
10
164.95000000000002
20
-35.57500000000001
42
-0.41421356237309503
10
164.44999999999999
20
-35.075000000000003
10
164.44999999999999
20
-22.074999999999999
42
-0.41421356237309503
0
LWPOLYLINE
5
146
100
AcDbEntity
8
0
100
AcDbPolyline
90
8
70
1
43
0.0
10
23.668749999999999
20
-41.125
10
23.668749999999999
20
-54.125000000000007
42
-0.41421356237309503
10
23.168749999999999
20
-54.625
10
10.168749999999999
20
-54.625
42
-0.41421356237309503
10
9.6687499999999993
20
-54.125000000000007
10
9.6687500000000011
20
-41.125
42
-0.41421356237309503
10
10.168749999999999
20
-40.625
10
23.168749999999999
20
-40.625
42
-0.41421356237309503
0
LWPOLYLINE
5
147
100
AcDbEntity
8
0
100
AcDbPolyline
90
8
70
1
43
0.0
10
49.862499999999997
20
-41.125
10
49.862499999999997
20
-54.125000000000007
42
-0.41421356237309503
10
49.362500000000004
20
-54.625
10
36.362499999999997
20
-54.625
42
-0.41421356237309503
10
35.862500000000004
20
-54.125000000000007
10
35.862500000000004
20
-41.125
42
-0.41421356237309503
10
36.362499999999997
20
-40.625
10
49.362500000000004
20
-40.625
42
-0.41421356237309503
0
LWPOLYLINE
5
148
100
AcDbEntity
8
0
100
AcDbPolyline
90
8
70
1
43
0.0
10
158.90000000000001
20
-35.575000000000003
42
0.41421356237309503
10
159.40000000000001
20
-35.075000000000003
10
159.40000000000001
20
-22.074999999999999
42
0.41421356237309503
10
158.90000000000001
20
-21.575000000000003
10
145.90000000000001
20
-21.575000000000003
42
0.41421356237309503
10
145.40000000000001
20
-22.074999999999999
10
145.40000000000001
20
-35.075000000000003
42
0.41421356237309503
10
145.90000000000001
20
-35.575000000000003
0
LWPOLYLINE
5
149
100
AcDbEntity
8
0
100
AcDbPolyline
90
8
70
1
43
0.0
10
69.700000000000003
20
-35.575000000000003
10
82.700000000000017
20
-35.575000000000003
42
0.41421356237309503
10
83.200000000000003
20
-35.075000000000003
10
83.200000000000003
20
-22.074999999999999
42
0.41421356237309503
10
82.700000000000017
20
-21.575000000000003
10
69.700000000000003
20
-21.575000000000003
42
0.41421356237309503
10
69.200000000000003
20
-22.074999999999999
10
69.200000000000003
20
-35.075000000000003
42
0.41421356237309503
0
LWPOLYLINE
5
150
100
AcDbEntity
8
0
100
AcDbPolyline
90
8
70
1
43
0.0
10
73.962500000000006
20
-41.125
10
73.962500000000006
20
-54.125000000000007
42
0.41421356237309503
10
74.462500000000006
20
-54.625
10
87.46250000000002
20
-54.625
42
0.41421356237309503
10
87.96250000000002
20
-54.125000000000007
10
87.96250000000002
20
-41.125
42
0.41421356237309503
10
87.46250000000002
20
-40.625
10
74.462500000000006
20
-40.625
42
0.41421356237309503
0
LWPOLYLINE
5
151
100
AcDbEntity
8
0
100
AcDbPolyline
90
8
70
1
43
0.0
10
107.01250000000002
20
-41.125
10
107.01250000000002
20
-54.125000000000007
42
-0.41421356237309503
10
106.51250000000002
20
-54.625
10
93.512500000000003
20
-54.624999999999993
42
-0.41421356237309503
10
93.012500000000017
20
-54.125000000000007
10
93.012499999999989
20
-41.125
42
-0.41421356237309503
10
93.512500000000003
20
-40.625
10
106.51250000000002
20
-40.624999999999993
42
-0.41421356237309503
0
LWPOLYLINE
5
152
100
AcDbEntity
8
0
100
AcDbPolyline
90
8
70
1
43
0.0
10
168.42500000000001
20
-16.525000000000002
42
0.41421356237309503
10
168.92500000000001
20
-16.024999999999999
10
168.92500000000001
20
-3.0249999999999999
42
0.41421356237309503
10
168.42500000000001
20
-2.5249999999999999
10
155.42500000000001
20
-2.5249999999999999
42
0.41421356237309503
10
154.92500000000001
20
-3.0249999999999999
10
154.92500000000001
20
-16.024999999999999
42
0.41421356237309503
10
155.42500000000001
20
-16.525000000000002
0
LWPOLYLINE
5
153
100
AcDbEntity
8
0
100
AcDbPolyline
90
8
70
1
43
0.0
10
29.21875
20
-78.724999999999994
10
42.21875
20
-78.724999999999994
42
-0.41421356237309503
10
42.71875
20
-79.224999999999994
10
42.718750000000007
20
-92.224999999999994
42
-0.41421356237309503
10
42.21875
20
-92.725000000000009
10
29.21875
20
-92.725000000000009
42
-0.41421356237309503
10
28.71875
20
-92.224999999999994
10
28.71875
20
-79.224999999999994
42
-0.41421356237309503
0
LWPOLYLINE
5
154
100
AcDbEntity
8
0
100
AcDbPolyline
90
8
70
1
43
0.0
10
269.72500000000002
20
-73.674999999999997
10
282.72500000000002
20
-73.674999999999997
42
0.41421356237309503
10
283.22500000000002
20
-73.174999999999997
10
283.22500000000002
20
-60.174999999999997
42
0.41421356237309503
10
282.72500000000002
20
-59.675000000000004
10
269.72500000000002
20
-59.675000000000004
42
0.41421356237309503
10
269.22500000000002
20
-60.174999999999997
10
269.22500000000002
20
-73.174999999999997
42
0.41421356237309503
0
LWPOLYLINE
5
155
100
AcDbEntity
8
0
100
AcDbPolyline
90
8
70
1
43
0.0
10
145.11250000000001
20
-41.125
10
145.11250000000001
20
-54.125000000000007
42
-0.41421356237309503
10
144.61250000000001
20
-54.625
10
131.61250000000001
20
-54.625000000000014
42
-0.41421356237309503
10
131.11250000000001
20
-54.125000000000007
10
131.11250000000001
20
-41.125
42
-0.41421356237309503
10
131.61250000000001
20
-40.625
10
144.61250000000001
20
-40.624999999999993
42
-0.41421356237309503
0
LWPOLYLINE
5
156
100
AcDbEntity
8
0
100
AcDbPolyline
90
8
70
1
43
0.0
10
282.13799999999998
20
-4.0250000000000004
10
282.13799999999998
20
-18.024999999999999
42
-0.41421356237309503
10
281.63799999999998
20
-18.524999999999999
10
275.63800000000003
20
-18.525000000000006
42
-0.41421356237309503
10
275.13799999999998
20
-18.024999999999999
10
275.13799999999998
20
-4.0250000000000004
42
-0.41421356237309503
10
275.63800000000003
20
-3.5250000000000004
10
281.63799999999998
20
-3.5249999999999937
42
-0.41421356237309503
0
LWPOLYLINE
5
157
100
AcDbEntity
8
0
100
AcDbPolyline
90
8
70
1
43
0.0
10
77.96875
20
-79.724999999999994
10
83.96875
20
-79.72499999999998
42
-0.41421356237309503
10
84.46875
20
-80.224999999999994
10
84.46875
20
-94.224999999999994
42
-0.41421356237309503
10
83.96875
20
-94.724999999999994
10
77.96875
20
-94.724999999999994
42
-0.41421356237309503
10
77.46875
20
-94.224999999999994
10
77.468750000000014
20
-80.224999999999994
42
-0.41421356237309503
0
LWPOLYLINE
5
158
100
AcDbEntity
8
0
100
AcDbPolyline
90
8
70
1
43
0.0
10
140.34999999999999
20
-22.074999999999999
10
140.34999999999999
20
-35.075000000000003
42
-0.41421356237309503
10
139.84999999999999
20
-35.575000000000003
10
126.85000000000001
20
-35.57500000000001
42
-0.41421356237309503
10
126.34999999999999
20
-35.075000000000003
10
126.35000000000002
20
-22.074999999999999
42
-0.41421356237309503
10
126.85000000000001
20
-21.575000000000003
10
139.84999999999999
20
-21.574999999999992
42
-0.41421356237309503
0
LWPOLYLINE
5
159
100
AcDbEntity
8
0
100
AcDbPolyline
90
8
70
1
43
0.0
10
302.27499999999998
20
-22.074999999999999
10
302.27499999999998
20
-35.075000000000003
42
-0.41421356237309503
10
301.77499999999998
20
-35.575000000000003
10
288.77499999999998
20
-35.574999999999974
42
-0.41421356237309503
10
288.27499999999998
20
-35.075000000000003
10
288.27499999999998
20
-22.074999999999999
42
-0.41421356237309503
10
288.77499999999998
20
-21.575000000000003
10
301.77499999999998
20
-21.574999999999992
42
-0.41421356237309503
0
LWPOLYLINE
5
160
100
AcDbEntity
8
0
100
AcDbPolyline
90
8
70
1
43
0.0
10
130.82499999999999
20
-3.0249999999999999
42
0.41421356237309503
10
130.32499999999999
20
-2.5249999999999999
10
117.32500000000002
20
-2.5249999999999999
42
0.41421356237309503
10
116.82500000000002
20
-3.0249999999999999
10
116.82500000000002
20
-16.024999999999999
42
0.41421356237309503
10
117.32500000000002
20
-16.524999999999999
10
130.32499999999999
20
-16.524999999999999
42
0.41421356237309503
10
130.82499999999999
20
-16.024999999999999
0
LWPOLYLINE
5
161
100
AcDbEntity
8
0
100
AcDbPolyline
90
8
70
1
43
0.0
10
120.8
20
-35.575000000000003
42
0.41421356237309503
10
121.30000000000001
20
-35.075000000000003
10
121.30000000000001
20
-22.074999999999999
42
0.41421356237309503
10
120.8
20
-21.575000000000003
10
107.80000000000001
20
-21.575000000000003
42
0.41421356237309503
10
107.30000000000001
20
-22.074999999999999
10
107.30000000000001
20
-35.075000000000003
42
0.41421356237309503
10
107.80000000000001
20
-35.575000000000003
0
LWPOLYLINE
5
162
100
AcDbEntity
8
0
100
AcDbPolyline
90
8
70
1
43
0.0
10
149.375
20
-16.525000000000002
42
0.41421356237309503
10
149.875
20
-16.024999999999999
10
149.875
20
-3.0249999999999999
42
0.41421356237309503
10
149.375
20
-2.5249999999999999
10
136.375
20
-2.5249999999999999
42
0.41421356237309503
10
135.875
20
-3.0249999999999999
10
135.875
20
-16.024999999999999
42
0.41421356237309503
10
136.375
20
-16.525000000000002
0
LWPOLYLINE
5
163
100
AcDbEntity
8
0
100
AcDbPolyline
90
8
70
1
43
0.0
10
302.27499999999998
20
-3.0249999999999999
42
0.41421356237309503
10
301.77499999999998
20
-2.5249999999999999
10
288.77499999999998
20
-2.5249999999999999
42
0.41421356237309503
10
288.27499999999998
20
-3.0249999999999999
10
288.27499999999998
20
-16.024999999999999
42
0.41421356237309503
10
288.77499999999998
20
-16.525000000000002
10
301.77499999999998
20
-16.525000000000002
42
0.41421356237309503
10
302.27499999999998
20
-16.024999999999999
0
LWPOLYLINE
5
164
100
AcDbEntity
8
0
100
AcDbPolyline
90
8
70
1
43
0.0
10
288.77499999999998
20
-59.675000000000004
42
0.41421356237309503
10
288.27499999999998
20
-60.174999999999997
10
288.27499999999998
20
-73.174999999999997
42
0.41421356237309503
10
288.77499999999998
20
-73.674999999999997
10
301.77499999999998
20
-73.674999999999997
42
0.41421356237309503
10
302.27499999999998
20
-73.174999999999997
10
302.27499999999998
20
-60.174999999999997
42
0.41421356237309503
10
301.77499999999998
20
-59.675000000000004
0
LWPOLYLINE
5
165
100
AcDbEntity
8
0
100
AcDbPolyline
90
8
70
1
43
0.0
10
83.487500000000011
20
-73.174999999999997
42
0.41421356237309503
10
83.987499999999997
20
-73.674999999999997
10
96.987500000000011
20
-73.674999999999997
42
0.41421356237309503
10
97.487500000000011
20
-73.174999999999997
10
97.487500000000011
20
-60.174999999999997
42
0.41421356237309503
10
96.987500000000011
20
-59.675000000000004
10
83.987499999999997
20
-59.675000000000004
42
0.41421356237309503
10
83.487500000000011
20
-60.174999999999997
0
LWPOLYLINE
5
166
100
AcDbEntity
8
0
100
AcDbPolyline
90
8
70
1
43
0.0
10
18.90625
20
-79.224999999999994
10
18.906250000000007
20
-92.224999999999994
42
-0.41421356237309503
10
18.40625
20
-92.725000000000009
10
5.40625
20
-92.725000000000009
42
-0.41421356237309503
10
4.90625
20
-92.224999999999994
10
4.9062500000000018
20
-79.224999999999994
42
-0.41421356237309503
10
5.40625
20
-78.724999999999994
10
18.40625
20
-78.724999999999994
42
-0.41421356237309503
0
LWPOLYLINE
5
167
100
AcDbEntity
8
0
100
AcDbPolyline
90
8
70
1
43
0.0
10
302.27499999999998
20
-79.224999999999994
42
0.41421356237309503
10
301.77499999999998
20
-78.724999999999994
10
288.77499999999998
20
-78.724999999999994
42
0.41421356237309503
10
288.27499999999998
20
-79.224999999999994
10
288.27499999999998
20
-92.224999999999994
42
0.41421356237309503
10
288.77499999999998
20
-92.724999999999994
10
301.77499999999998
20
-92.724999999999994
42
0.41421356237309503
10
302.27499999999998
20
-92.224999999999994
0
LWPOLYLINE
5
168
100
AcDbEntity
8
0
100
AcDbPolyline
90
8
70
1
43
0.0
10
14.93125
20
-73.674999999999997
10
27.931249999999999
20
-73.674999999999997
42
0.41421356237309503
10
28.431250000000002
20
-73.174999999999997
10
28.431250000000002
20
-60.174999999999997
42
0.41421356237309503
10
27.931249999999999
20
-59.675000000000004
10
14.93125
20
-59.675000000000004
42
0.41421356237309503
10
14.431250000000002
20
-60.174999999999997
10
14.431250000000002
20
-73.174999999999997
42
0.41421356237309503
0
LWPOLYLINE
5
169
100
AcDbEntity
8
0
100
AcDbPolyline
90
8
70
1
43
0.0
10
29.869250000000001
20
-75.174999999999997
42
0.41421356237309503
10
30.369250000000001
20
-75.674999999999997
10
36.369250000000001
20
-75.674999999999997
42
0.41421356237309503
10
36.869250000000008
20
-75.174999999999997
10
36.869250000000008
20
-61.174999999999997
42
0.41421356237309503
10
36.369250000000001
20
-60.674999999999997
10
30.369250000000001
20
-60.674999999999997
42
0.41421356237309503
10
29.869250000000001
20
-61.174999999999997
0
LWPOLYLINE
5
170
100
AcDbEntity
8
0
100
AcDbPolyline
90
8
70
1
43
0.0
10
6.4932500000000006
20
-60.674999999999997
42
0.41421356237309503
10
5.9932499999999997
20
-61.174999999999997
10
5.9932499999999997
20
-75.174999999999997
42
0.41421356237309503
10
6.4932500000000006
20
-75.674999999999997
10
12.49325
20
-75.674999999999997
42
0.41421356237309503
10
12.99325
20
-75.174999999999997
10
12.99325
20
-61.174999999999997
42
0.41421356237309503
10
12.49325
20
-60.674999999999997
0
LWPOLYLINE
5
171
100
AcDbEntity
8
0
100
AcDbPolyline
90
8
70
1
43
0.0
10
88.75
20
-21.575000000000003
42
0.41421356237309503
10
88.250000000000014
20
-22.074999999999999
10
88.250000000000014
20
-35.075000000000003
42
0.41421356237309503
10
88.75
20
-35.575000000000003
10
101.75
20
-35.575000000000003
42
0.41421356237309503
10
102.25000000000001
20
-35.075000000000003
10
102.25000000000001
20
-22.074999999999999
42
0.41421356237309503
10
101.75
20
-21.575000000000003
0
LWPOLYLINE
5
172
100
AcDbEntity
8
0
100
AcDbPolyline
90
8
70
1
43
0.0
10
97.77500000000002
20
-3.0249999999999999
10
97.77500000000002
20
-16.024999999999999
42
0.41421356237309503
10
98.275000000000006
20
-16.524999999999999
10
111.27500000000001
20
-16.524999999999999
42
0.41421356237309503
10
111.77500000000002
20
-16.024999999999999
10
111.77500000000002
20
-3.0249999999999999
42
0.41421356237309503
10
111.27500000000001
20
-2.5249999999999999
10
98.275000000000006
20
-2.5249999999999999
42
0.41421356237309503
0
LINE
5
173
100
AcDbEntity
8
0
100
AcDbLine
10
-0.47500000000000037
20
-94.224999999999994
30
0
11
-0.47500000000000037
21
-1.0249999999999915
31
0
0
LINE
5
174
100
AcDbEntity
8
0
100
AcDbLine
10
305.27499999999998
20
-94.224999999999994
30
0
11
305.27499999999998
21
-1.0249999999999915
31
0
0
LINE
5
175
100
AcDbEntity
8
0
100
AcDbLine
10
146.40000000000001
20
-96.224999999999994
30
0
11
146.40000000000001
21
-95.224999999999994
31
0
0
LINE
5
176
100
AcDbEntity
8
0
100
AcDbLine
10
158.40000000000001
20
-96.224999999999994
30
0
11
158.40000000000001
21
-95.224999999999994
31
0
0
LINE
5
177
100
AcDbEntity
8
0
100
AcDbLine
10
134.64999999999998
20
-97.22499999999998
30
0
11
145.40000000000001
21
-97.22499999999998
31
0
0
LINE
5
178
100
AcDbEntity
8
0
100
AcDbLine
10
159.40000000000001
20
-97.22499999999998
30
0
11
170.14999999999998
21
-97.22499999999998
31
0
0
LINE
5
179
100
AcDbEntity
8
0
100
AcDbLine
10
133.64999999999998
20
-98.22499999999998
30
0
11
133.64999999999998
21
-98.22499999999998
31
0
0
LINE
5
180
100
AcDbEntity
8
0
100
AcDbLine
10
171.14999999999995
20
-98.22499999999998
30
0
11
171.14999999999998
21
-98.22499999999998
31
0
0
LINE
5
181
100
AcDbEntity
8
0
100
AcDbLine
10
170.14999999999998
20
-99.224999999999994
30
0
11
134.64999999999998
21
-99.22499999999998
31
0
0
ARC
5
182
100
AcDbEntity
8
0
100
AcDbCircle
10
134.64999999999998
20
-98.22499999999998
30
0
40
0.99999999999999645
210
0
220
-0
230
1
100
AcDbArc
50
90
51
180
0
ARC
5
183
100
AcDbEntity
8
0
100
AcDbCircle
10
134.64999999999998
20
-98.22499999999998
30
0
40
0.99999999999999645
210
0
220
0
230
1
100
AcDbArc
50
180
51
270
0
ARC
5
184
100
AcDbEntity
8
0
100
AcDbCircle
10
170.14999999999992
20
-98.224999999999937
30
0
40
1.0000000000000497
210
-0
220
0
230
1
100
AcDbArc
50
270.00000000000324
51
360
0
ARC
5
185
100
AcDbEntity
8
0
100
AcDbCircle
10
170.14999999999992
20
-98.225000000000023
30
0
40
1.0000000000000142
210
0
220
-0
230
1
100
AcDbArc
50
0
51
89.999999999996746
0
ARC
5
186
100
AcDbEntity
8
0
100
AcDbCircle
10
159.40000000000001
20
-96.224999999999994
30
0
40
0.99999999999999645
210
0
220
0
230
1
100
AcDbArc
50
180
51
270
0
ARC
5
187
100
AcDbEntity
8
0
100
AcDbCircle
10
145.40000000000001
20
-96.224999999999994
30
0
40
0.99999999999999645
210
-0
220
0
230
1
100
AcDbArc
50
-90
51
0
0
ARC
5
188
100
AcDbEntity
8
0
100
AcDbCircle
10
235.14999999999992
20
-98.225000000000023
30
0
40
1.0000000000000142
210
0
220
-0
230
1
100
AcDbArc
50
0
51
89.999999999996746
0
LINE
5
189
100
AcDbEntity
8
0
100
AcDbLine
10
198.64999999999998
20
-98.22499999999998
30
0
11
198.64999999999998
21
-98.22499999999998
31
0
0
ARC
5
190
100
AcDbEntity
8
0
100
AcDbCircle
10
224.39999999999998
20
-96.224999999999994
30
0
40
0.99999999999997868
210
0
220
0
230
1
100
AcDbArc
50
180
51
270
0
LINE
5
191
100
AcDbEntity
8
0
100
AcDbLine
10
223.40000000000001
20
-96.224999999999994
30
0
11
223.40000000000001
21
-95.224999999999994
31
0
0
LINE
5
192
100
AcDbEntity
8
0
100
AcDbLine
10
211.40000000000001
20
-96.224999999999994
30
0
11
211.40000000000001
21
-95.224999999999994
31
0
0
LINE
5
193
100
AcDbEntity
8
0
100
AcDbLine
10
236.14999999999995
20
-98.22499999999998
30
0
11
236.14999999999998
21
-98.22499999999998
31
0
0
LINE
5
194
100
AcDbEntity
8
0
100
AcDbLine
10
224.39999999999998
20
-97.22499999999998
30
0
11
235.14999999999998
21
-97.22499999999998
31
0
0
ARC
5
195
100
AcDbEntity
8
0
100
AcDbCircle
10
199.64999999999998
20
-98.22499999999998
30
0
40
0.99999999999999645
210
0
220
-0
230
1
100
AcDbArc
50
90
51
180
0
ARC
5
196
100
AcDbEntity
8
0
100
AcDbCircle
10
235.14999999999992
20
-98.224999999999937
30
0
40
1.0000000000000497
210
-0
220
0
230
1
100
AcDbArc
50
270.00000000000324
51
360
0
ARC
5
197
100
AcDbEntity
8
0
100
AcDbCircle
10
210.39999999999998
20
-96.224999999999994
30
0
40
0.99999999999999645
210
-0
220
0
230
1
100
AcDbArc
50
-90
51
0
0
ARC
5
198
100
AcDbEntity
8
0
100
AcDbCircle
10
199.64999999999998
20
-98.22499999999998
30
0
40
0.99999999999997868
210
0
220
0
230
1
100
AcDbArc
50
180
51
270
0
LINE
5
199
100
AcDbEntity
8
0
100
AcDbLine
10
199.64999999999998
20
-97.22499999999998
30
0
11
210.39999999999998
21
-97.22499999999998
31
0
0
LINE
5
200
100
AcDbEntity
8
0
100
AcDbLine
10
235.14999999999998
20
-99.224999999999994
30
0
11
199.64999999999998
21
-99.22499999999998
31
0
0
ARC
5
201
100
AcDbEntity
8
0
100
AcDbCircle
10
289.39999999999998
20
-96.224999999999994
30
0
40
0.99999999999997868
210
0
220
0
230
1
100
AcDbArc
50
180
51
270
0
LINE
5
202
100
AcDbEntity
8
0
100
AcDbLine
10
288.39999999999998
20
-96.224999999999994
30
0
11
288.39999999999998
21
-95.224999999999994
31
0
0
ARC
5
203
100
AcDbEntity
8
0
100
AcDbCircle
10
300.14999999999992
20
-98.224999999999937
30
0
40
1.0000000000000497
210
-0
220
0
230
1
100
AcDbArc
50
270.00000000000324
51
360
0
LINE
5
204
100
AcDbEntity
8
0
100
AcDbLine
10
289.39999999999998
20
-97.22499999999998
30
0
11
300.14999999999998
21
-97.22499999999998
31
0
0
ARC
5
205
100
AcDbEntity
8
0
100
AcDbCircle
10
264.64999999999998
20
-98.22499999999998
30
0
40
0.99999999999999645
210
0
220
-0
230
1
100
AcDbArc
50
90
51
180
0
ARC
5
206
100
AcDbEntity
8
0
100
AcDbCircle
10
264.64999999999998
20
-98.22499999999998
30
0
40
0.99999999999997868
210
0
220
0
230
1
100
AcDbArc
50
180
51
270
0
ARC
5
207
100
AcDbEntity
8
0
100
AcDbCircle
10
275.39999999999998
20
-96.224999999999994
30
0
40
0.99999999999999645
210
-0
220
0
230
1
100
AcDbArc
50
-90
51
0
0
LINE
5
208
100
AcDbEntity
8
0
100
AcDbLine
10
300.14999999999998
20
-99.224999999999994
30
0
11
264.64999999999998
21
-99.22499999999998
31
0
0
LINE
5
209
100
AcDbEntity
8
0
100
AcDbLine
10
276.39999999999998
20
-96.224999999999994
30
0
11
276.39999999999998
21
-95.224999999999994
31
0
0
ARC
5
210
100
AcDbEntity
8
0
100
AcDbCircle
10
300.14999999999992
20
-98.225000000000023
30
0
40
1.0000000000000142
210
0
220
-0
230
1
100
AcDbArc
50
0
51
89.999999999996746
0
LINE
5
211
100
AcDbEntity
8
0
100
AcDbLine
10
264.64999999999998
20
-97.22499999999998
30
0
11
275.39999999999998
21
-97.22499999999998
31
0
0
LINE
5
212
100
AcDbEntity
8
0
100
AcDbLine
10
105.14999999999998
20
-99.224999999999994
30
0
11
69.649999999999977
21
-99.22499999999998
31
0
0
ARC
5
213
100
AcDbEntity
8
0
100
AcDbCircle
10
80.400000000000006
20
-96.224999999999994
30
0
40
0.99999999999999645
210
-0
220
0
230
1
100
AcDbArc
50
-90
51
0
0
ARC
5
214
100
AcDbEntity
8
0
100
AcDbCircle
10
69.649999999999977
20
-98.22499999999998
30
0
40
0.99999999999999645
210
0
220
0
230
1
100
AcDbArc
50
180
51
270
0
LINE
5
215
100
AcDbEntity
8
0
100
AcDbLine
10
68.649999999999977
20
-98.22499999999998
30
0
11
68.649999999999977
21
-98.22499999999998
31
0
0
LINE
5
216
100
AcDbEntity
8
0
100
AcDbLine
10
69.649999999999977
20
-97.22499999999998
30
0
11
80.400000000000006
21
-97.22499999999998
31
0
0
LINE
5
217
100
AcDbEntity
8
0
100
AcDbLine
10
133.64999999999998
20
-98.22499999999998
30
0
11
133.64999999999998
21
-98.22499999999998
31
0
0
LINE
5
218
100
AcDbEntity
8
0
100
AcDbLine
10
81.400000000000006
20
-96.224999999999994
30
0
11
81.400000000000006
21
-95.224999999999994
31
0
0
ARC
5
219
100
AcDbEntity
8
0
100
AcDbCircle
10
69.649999999999977
20
-98.22499999999998
30
0
40
0.99999999999999645
210
0
220
-0
230
1
100
AcDbArc
50
90
51
180
0
LINE
5
220
100
AcDbEntity
8
0
100
AcDbLine
10
93.400000000000006
20
-96.224999999999994
30
0
11
93.400000000000006
21
-95.224999999999994
31
0
0
ARC
5
221
100
AcDbEntity
8
0
100
AcDbCircle
10
94.399999999999991
20
-96.224999999999994
30
0
40
0.99999999999999645
210
0
220
0
230
1
100
AcDbArc
50
180
51
270
0
LINE
5
222
100
AcDbEntity
8
0
100
AcDbLine
10
171.14999999999995
20
-98.22499999999998
30
0
11
171.14999999999998
21
-98.22499999999998
31
0
0
LINE
5
223
100
AcDbEntity
8
0
100
AcDbLine
10
94.399999999999991
20
-97.22499999999998
30
0
11
105.14999999999998
21
-97.22499999999998
31
0
0
ARC
5
224
100
AcDbEntity
8
0
100
AcDbCircle
10
105.14999999999993
20
-98.224999999999937
30
0
40
1.0000000000000497
210
-0
220
0
230
1
100
AcDbArc
50
270.00000000000244
51
360
0
LINE
5
225
100
AcDbEntity
8
0
100
AcDbLine
10
106.14999999999995
20
-98.22499999999998
30
0
11
106.14999999999998
21
-98.22499999999998
31
0
0
ARC
5
226
100
AcDbEntity
8
0
100
AcDbCircle
10
105.14999999999993
20
-98.225000000000023
30
0
40
1.0000000000000142
210
0
220
-0
230
1
100
AcDbArc
50
0
51
89.999999999997556
0
ARC
5
227
100
AcDbEntity
8
0
100
AcDbCircle
10
4.6499999999999808
20
-98.22499999999998
30
0
40
0.99999999999999645
210
0
220
-0
230
1
100
AcDbArc
50
90
51
180
0
LINE
5
228
100
AcDbEntity
8
0
100
AcDbLine
10
4.6499999999999808
20
-97.22499999999998
30
0
11
15.400000000000009
21
-97.22499999999998
31
0
0
LINE
5
229
100
AcDbEntity
8
0
100
AcDbLine
10
40.14999999999997
20
-99.224999999999994
30
0
11
4.6499999999999808
21
-99.22499999999998
31
0
0
ARC
5
230
100
AcDbEntity
8
0
100
AcDbCircle
10
15.400000000000009
20
-96.224999999999994
30
0
40
0.99999999999999645
210
-0
220
0
230
1
100
AcDbArc
50
-90
51
0
0
LINE
5
231
100
AcDbEntity
8
0
100
AcDbLine
10
29.399999999999995
20
-97.22499999999998
30
0
11
40.14999999999997
21
-97.22499999999998
31
0
0
ARC
5
232
100
AcDbEntity
8
0
100
AcDbCircle
10
40.149999999999935
20
-98.224999999999937
30
0
40
1.0000000000000497
210
-0
220
0
230
1
100
AcDbArc
50
270.00000000000205
51
360
0
ARC
5
233
100
AcDbEntity
8
0
100
AcDbCircle
10
4.6499999999999808
20
-98.22499999999998
30
0
40
0.99999999999999645
210
0
220
0
230
1
100
AcDbArc
50
180
51
270
0
ARC
5
234
100
AcDbEntity
8
0
100
AcDbCircle
10
40.149999999999935
20
-98.225000000000023
30
0
40
1.0000000000000142
210
0
220
-0
230
1
100
AcDbArc
50
0
51
89.999999999997954
0
LINE
5
235
100
AcDbEntity
8
0
100
AcDbLine
10
16.400000000000006
20
-96.224999999999994
30
0
11
16.400000000000006
21
-95.224999999999994
31
0
0
ARC
5
236
100
AcDbEntity
8
0
100
AcDbCircle
10
29.399999999999995
20
-96.224999999999994
30
0
40
0.99999999999999645
210
0
220
0
230
1
100
AcDbArc
50
180
51
270
0
LINE
5
237
100
AcDbEntity
8
0
100
AcDbLine
10
28.399999999999999
20
-96.224999999999994
30
0
11
28.399999999999999
21
-95.224999999999994
31
0
0
LINE
5
238
100
AcDbEntity
8
0
100
AcDbLine
10
159.40000000000001
20
1.9749999999999979
30
0
11
170.14999999999998
21
1.9749999999999979
31
0
0
ARC
5
239
100
AcDbEntity
8
0
100
AcDbCircle
10
170.14999999999992
20
2.9750000000000298
30
0
40
1.000000000000032
210
-0
220
0
230
1
100
AcDbArc
50
270.00000000000324
51
360
0
ARC
5
240
100
AcDbEntity
8
0
100
AcDbCircle
10
199.64999999999998
20
2.9749999999999943
30
0
40
0.99999999999997868
210
0
220
0
230
1
100
AcDbArc
50
180
51
270
0
LINE
5
241
100
AcDbEntity
8
0
100
AcDbLine
10
133.64999999999998
20
2.9749999999999943
30
0
11
133.64999999999998
21
2.9749999999999943
31
0
0
ARC
5
242
100
AcDbEntity
8
0
100
AcDbCircle
10
264.64999999999998
20
2.9749999999999943
30
0
40
0.99999999999997868
210
0
220
0
230
1
100
AcDbArc
50
180
51
270
0
LINE
5
243
100
AcDbEntity
8
0
100
AcDbLine
10
133.64999999999998
20
2.9749999999999943
30
0
11
133.64999999999998
21
2.9749999999999943
31
0
0
LINE
5
244
100
AcDbEntity
8
0
100
AcDbLine
10
199.64999999999998
20
1.9749999999999979
30
0
11
210.39999999999998
21
1.9749999999999979
31
0
0
LINE
5
245
100
AcDbEntity
8
0
100
AcDbLine
10
170.14999999999998
20
3.9750000000000085
30
0
11
134.64999999999998
21
3.9749999999999908
31
0
0
LINE
5
246
100
AcDbEntity
8
0
100
AcDbLine
10
29.399999999999995
20
1.9749999999999979
30
0
11
40.14999999999997
21
1.9749999999999979
31
0
0
LINE
5
247
100
AcDbEntity
8
0
100
AcDbLine
10
93.400000000000006
20
0.97500000000000142
30
0
11
93.400000000000006
21
-0.024999999999995026
31
0
0
LINE
5
248
100
AcDbEntity
8
0
100
AcDbLine
10
146.40000000000001
20
0.97500000000000142
30
0
11
146.40000000000001
21
-0.024999999999995026
31
0
0
LINE
5
249
100
AcDbEntity
8
0
100
AcDbLine
10
94.399999999999991
20
1.9749999999999979
30
0
11
105.14999999999998
21
1.9749999999999979
31
0
0
LINE
5
250
100
AcDbEntity
8
0
100
AcDbLine
10
300.14999999999998
20
3.9750000000000085
30
0
11
264.64999999999998
21
3.9749999999999908
31
0
0
LINE
5
251
100
AcDbEntity
8
0
100
AcDbLine
10
81.400000000000006
20
0.97500000000000142
30
0
11
81.400000000000006
21
-0.024999999999995026
31
0
0
ARC
5
252
100
AcDbEntity
8
0
100
AcDbCircle
10
300.14999999999992
20
2.9750000000000298
30
0
40
1.000000000000032
210
-0
220
0
230
1
100
AcDbArc
50
270.00000000000324
51
360
0
LINE
5
253
100
AcDbEntity
8
0
100
AcDbLine
10
40.14999999999997
20
3.9750000000000085
30
0
11
4.6499999999999817
21
3.9749999999999908
31
0
0
LINE
5
254
100
AcDbEntity
8
0
100
AcDbLine
10
171.14999999999995
20
2.9749999999999943
30
0
11
171.14999999999998
21
2.9749999999999943
31
0
0
LINE
5
255
100
AcDbEntity
8
0
100
AcDbLine
10
235.14999999999998
20
3.9750000000000085
30
0
11
199.64999999999998
21
3.9749999999999908
31
0
0
ARC
5
256
100
AcDbEntity
8
0
100
AcDbCircle
10
80.400000000000006
20
0.97500000000000142
30
0
40
0.99999999999999645
210
-0
220
0
230
1
100
AcDbArc
50
0
51
90
0
LINE
5
257
100
AcDbEntity
8
0
100
AcDbLine
10
105.14999999999998
20
3.9750000000000085
30
0
11
69.649999999999977
21
3.9749999999999908
31
0
0
LINE
5
258
100
AcDbEntity
8
0
100
AcDbLine
10
171.14999999999995
20
2.9749999999999943
30
0
11
171.14999999999998
21
2.9749999999999943
31
0
0
LINE
5
259
100
AcDbEntity
8
0
100
AcDbLine
10
106.14999999999995
20
2.9749999999999943
30
0
11
106.14999999999998
21
2.9749999999999943
31
0
0
LINE
5
260
100
AcDbEntity
8
0
100
AcDbLine
10
264.64999999999998
20
1.9749999999999979
30
0
11
275.39999999999998
21
1.9749999999999979
31
0
0
ARC
5
261
100
AcDbEntity
8
0
100
AcDbCircle
10
199.64999999999998
20
2.9749999999999943
30
0
40
0.99999999999999645
210
0
220
-0
230
1
100
AcDbArc
50
90
51
180
0
LINE
5
262
100
AcDbEntity
8
0
100
AcDbLine
10
158.40000000000001
20
0.97500000000000142
30
0
11
158.40000000000001
21
-0.024999999999995026
31
0
0
LINE
5
263
100
AcDbEntity
8
0
100
AcDbLine
10
68.649999999999977
20
2.9749999999999943
30
0
11
68.649999999999977
21
2.9749999999999943
31
0
0
LINE
5
264
100
AcDbEntity
8
0
100
AcDbLine
10
198.64999999999998
20
2.9749999999999943
30
0
11
198.64999999999998
21
2.9749999999999943
31
0
0
LINE
5
265
100
AcDbEntity
8
0
100
AcDbLine
10
236.14999999999995
20
2.9749999999999943
30
0
11
236.14999999999998
21
2.9749999999999943
31
0
0
ARC
5
266
100
AcDbEntity
8
0
100
AcDbCircle
10
40.149999999999935
20
2.9749999999999588
30
0
40
1.0000000000000497
210
-0
220
0
230
1
100
AcDbArc
50
0
51
89.999999999997954
0
ARC
5
267
100
AcDbEntity
8
0
100
AcDbCircle
10
264.64999999999998
20
2.9749999999999943
30
0
40
0.99999999999999645
210
0
220
-0
230
1
100
AcDbArc
50
90
51
180
0
LINE
5
268
100
AcDbEntity
8
0
100
AcDbLine
10
134.64999999999998
20
1.9749999999999979
30
0
11
145.40000000000001
21
1.9749999999999979
31
0
0
LINE
5
269
100
AcDbEntity
8
0
100
AcDbLine
10
288.39999999999998
20
0.97500000000000142
30
0
11
288.39999999999998
21
-0.024999999999995026
31
0
0
ARC
5
270
100
AcDbEntity
8
0
100
AcDbCircle
10
224.39999999999998
20
0.97500000000000142
30
0
40
0.99999999999999645
210
0
220
-0
230
1
100
AcDbArc
50
90
51
180
0
ARC
5
271
100
AcDbEntity
8
0
100
AcDbCircle
10
94.399999999999991
20
0.97500000000000142
30
0
40
0.99999999999999645
210
0
220
-0
230
1
100
AcDbArc
50
90
51
180
0
ARC
5
272
100
AcDbEntity
8
0
100
AcDbCircle
10
134.64999999999998
20
2.9749999999999943
30
0
40
0.99999999999999645
210
0
220
0
230
1
100
AcDbArc
50
180
51
270
0
LINE
5
273
100
AcDbEntity
8
0
100
AcDbLine
10
276.39999999999998
20
0.97500000000000142
30
0
11
276.39999999999998
21
-0.024999999999995026
31
0
0
ARC
5
274
100
AcDbEntity
8
0
100
AcDbCircle
10
69.649999999999977
20
2.9749999999999943
30
0
40
0.99999999999999645
210
0
220
-0
230
1
100
AcDbArc
50
90
51
180
0
ARC
5
275
100
AcDbEntity
8
0
100
AcDbCircle
10
289.39999999999998
20
0.97500000000000142
30
0
40
0.99999999999999645
210
0
220
-0
230
1
100
AcDbArc
50
90
51
180
0
ARC
5
276
100
AcDbEntity
8
0
100
AcDbCircle
10
134.64999999999998
20
2.9749999999999943
30
0
40
0.99999999999999645
210
0
220
-0
230
1
100
AcDbArc
50
90
51
180
0
ARC
5
277
100
AcDbEntity
8
0
100
AcDbCircle
10
159.40000000000001
20
0.97500000000000142
30
0
40
0.99999999999999645
210
0
220
-0
230
1
100
AcDbArc
50
90
51
180
0
ARC
5
278
100
AcDbEntity
8
0
100
AcDbCircle
10
105.14999999999993
20
2.9749999999999588
30
0
40
1.0000000000000497
210
-0
220
0
230
1
100
AcDbArc
50
0
51
89.999999999997556
0
ARC
5
279
100
AcDbEntity
8
0
100
AcDbCircle
10
170.14999999999992
20
2.9749999999999588
30
0
40
1.0000000000000497
210
-0
220
0
230
1
100
AcDbArc
50
0
51
89.999999999996746
0
ARC
5
280
100
AcDbEntity
8
0
100
AcDbCircle
10
300.14999999999992
20
2.9749999999999588
30
0
40
1.0000000000000497
210
-0
220
0
230
1
100
AcDbArc
50
0
51
89.999999999996746
0
ARC
5
281
100
AcDbEntity
8
0
100
AcDbCircle
10
275.39999999999998
20
0.97500000000000142
30
0
40
1.0000000000000142
210
-0
220
0
230
1
100
AcDbArc
50
0
51
90
0
LINE
5
282
100
AcDbEntity
8
0
100
AcDbLine
10
16.400000000000006
20
0.97500000000000142
30
0
11
16.400000000000006
21
-0.024999999999995026
31
0
0
LINE
5
283
100
AcDbEntity
8
0
100
AcDbLine
10
289.39999999999998
20
1.9749999999999979
30
0
11
300.14999999999998
21
1.9749999999999979
31
0
0
LINE
5
284
100
AcDbEntity
8
0
100
AcDbLine
10
223.40000000000001
20
0.97500000000000142
30
0
11
223.40000000000001
21
-0.024999999999995026
31
0
0
ARC
5
285
100
AcDbEntity
8
0
100
AcDbCircle
10
40.149999999999935
20
2.9750000000000298
30
0
40
1.000000000000032
210
-0
220
0
230
1
100
AcDbArc
50
270.00000000000205
51
360
0
ARC
5
286
100
AcDbEntity
8
0
100
AcDbCircle
10
235.14999999999992
20
2.9750000000000298
30
0
40
1.000000000000032
210
-0
220
0
230
1
100
AcDbArc
50
270.00000000000324
51
360
0
ARC
5
287
100
AcDbEntity
8
0
100
AcDbCircle
10
145.40000000000001
20
0.97500000000000142
30
0
40
0.99999999999999645
210
-0
220
0
230
1
100
AcDbArc
50
0
51
90
0
LINE
5
288
100
AcDbEntity
8
0
100
AcDbLine
10
224.39999999999998
20
1.9749999999999979
30
0
11
235.14999999999998
21
1.9749999999999979
31
0
0
ARC
5
289
100
AcDbEntity
8
0
100
AcDbCircle
10
105.14999999999993
20
2.9750000000000298
30
0
40
1.000000000000032
210
-0
220
0
230
1
100
AcDbArc
50
270.00000000000244
51
360
0
LINE
5
290
100
AcDbEntity
8
0
100
AcDbLine
10
69.649999999999977
20
1.9749999999999979
30
0
11
80.400000000000006
21
1.9749999999999979
31
0
0
ARC
5
291
100
AcDbEntity
8
0
100
AcDbCircle
10
235.14999999999992
20
2.9749999999999588
30
0
40
1.0000000000000497
210
-0
220
0
230
1
100
AcDbArc
50
0
51
89.999999999996746
0
ARC
5
292
100
AcDbEntity
8
0
100
AcDbCircle
10
4.6499999999999817
20
2.9749999999999943
30
0
40
0.99999999999999645
210
0
220
-0
230
1
100
AcDbArc
50
90
51
180
0
ARC
5
293
100
AcDbEntity
8
0
100
AcDbCircle
10
4.6499999999999817
20
2.9749999999999943
30
0
40
0.999999999999997
210
0
220
0
230
1
100
AcDbArc
50
180
51
270
0
ARC
5
294
100
AcDbEntity
8
0
100
AcDbCircle
10
69.649999999999977
20
2.9749999999999943
30
0
40
0.99999999999999645
210
0
220
0
230
1
100
AcDbArc
50
180
51
270
0
LINE
5
295
100
AcDbEntity
8
0
100
AcDbLine
10
28.399999999999999
20
0.97500000000000142
30
0
11
28.399999999999999
21
-0.024999999999995026
31
0
0
LINE
5
296
100
AcDbEntity
8
0
100
AcDbLine
10
4.6499999999999817
20
1.9749999999999979
30
0
11
15.400000000000009
21
1.9749999999999979
31
0
0
LINE
5
297
100
AcDbEntity
8
0
100
AcDbLine
10
211.40000000000001
20
0.97500000000000142
30
0
11
211.40000000000001
21
-0.024999999999995026
31
0
0
ARC
5
298
100
AcDbEntity
8
0
100
AcDbCircle
10
29.399999999999995
20
0.97500000000000142
30
0
40
0.99999999999999645
210
0
220
-0
230
1
100
AcDbArc
50
90
51
180
0
ARC
5
299
100
AcDbEntity
8
0
100
AcDbCircle
10
15.400000000000009
20
0.97500000000000142
30
0
40
0.99999999999999645
210
-0
220
0
230
1
100
AcDbArc
50
0
51
90
0
ARC
5
300
100
AcDbEntity
8
0
100
AcDbCircle
10
210.39999999999998
20
0.97500000000000142
30
0
40
1.0000000000000142
210
-0
220
0
230
1
100
AcDbArc
50
0
51
90
0
LINE
5
301
100
AcDbEntity
8
0
100
AcDbLine
10
0.52499999999999958
20
-95.224999999999994
30
0
11
16.400000000000006
21
-95.224999999999994
31
0
0
LINE
5
302
100
AcDbEntity
8
0
100
AcDbLine
10
28.399999999999999
20
-95.224999999999994
30
0
11
81.400000000000006
21
-95.224999999999994
31
0
0
LINE
5
303
100
AcDbEntity
8
0
100
AcDbLine
10
93.400000000000006
20
-95.224999999999994
30
0
11
146.40000000000001
21
-95.224999999999994
31
0
0
LINE
5
304
100
AcDbEntity
8
0
100
AcDbLine
10
158.40000000000001
20
-95.224999999999994
30
0
11
211.40000000000001
21
-95.224999999999994
31
0
0
LINE
5
305
100
AcDbEntity
8
0
100
AcDbLine
10
223.40000000000001
20
-95.224999999999994
30
0
11
276.39999999999998
21
-95.224999999999994
31
0
0
LINE
5
306
100
AcDbEntity
8
0
100
AcDbLine
10
288.39999999999998
20
-95.224999999999994
30
0
11
304.27499999999998
21
-95.225000000000009
31
0
0
LINE
5
307
100
AcDbEntity
8
0
100
AcDbLine
10
304.27499999999998
20
-0.02500000000000252
30
0
11
288.39999999999998
21
-0.024999999999995026
31
0
0
LINE
5
308
100
AcDbEntity
8
0
100
AcDbLine
10
276.39999999999998
20
-0.024999999999995026
30
0
11
223.40000000000001
21
-0.024999999999995026
31
0
0
LINE
5
309
100
AcDbEntity
8
0
100
AcDbLine
10
211.40000000000001
20
-0.024999999999995026
30
0
11
158.40000000000001
21
-0.024999999999995026
31
0
0
LINE
5
310
100
AcDbEntity
8
0
100
AcDbLine
10
146.40000000000001
20
-0.024999999999995026
30
0
11
93.400000000000006
21
-0.024999999999995026
31
0
0
LINE
5
311
100
AcDbEntity
8
0
100
AcDbLine
10
81.400000000000006
20
-0.024999999999995026
30
0
11
28.399999999999999
21
-0.024999999999995026
31
0
0
LINE
5
312
100
AcDbEntity
8
0
100
AcDbLine
10
16.400000000000006
20
-0.024999999999995026
30
0
11
0.5249999999999998
21
-0.024999999999999745
31
0
0
CIRCLE
5
313
100
AcDbEntity
8
0
100
AcDbCircle
10
38.100000000000009
20
-11.525
30
0
40
1.9999999999999996
210
0
220
0
230
1
0
CIRCLE
5
314
100
AcDbEntity
8
0
100
AcDbCircle
10
114.30000000000001
20
-11.525
30
0
40
1.9999999999999996
210
0
220
0
230
1
0
CIRCLE
5
315
100
AcDbEntity
8
0
100
AcDbCircle
10
190.50000000000006
20
-11.525
30
0
40
1.9999999999999996
210
0
220
0
230
1
0
CIRCLE
5
316
100
AcDbEntity
8
0
100
AcDbCircle
10
285.75000000000006
20
-11.525
30
0
40
1.9999999999999996
210
0
220
0
230
1
0
CIRCLE
5
317
100
AcDbEntity
8
0
100
AcDbCircle
10
285.75
20
-57.149999999999999
30
0
40
2.000000000000008
210
0
220
0
230
1
0
CIRCLE
5
318
100
AcDbEntity
8
0
100
AcDbCircle
10
25.025000000000006
20
-57.149999999999999
30
0
40
2.0000000000000018
210
0
220
0
230
1
0
LWPOLYLINE
5
319
100
AcDbEntity
8
0
100
AcDbPolyline
90
16
70
1
43
0.0
10
19.050000000000001
20
-2.524999999999999
10
19.050000000000001
20
-2.5249999999999995
42
-0.41421356237309243
10
19.550000000000001
20
-3.0249999999999999
10
19.550000000000001
20
-9.4036796564403566
42
0.31783724519578738
10
19.716666666666669
20
-9.6393819168358714
42
-0.70710678118654791
10
19.716666666666669
20
-13.410618083164129
42
0.31783724519577788
10
19.550000000000001
20
-13.646320343559644
10
19.550000000000001
20
-16.024999999999995
42
-0.41421356237308982
10
19.050001000000002
20
-16.524999999999999
10
19.050000000000001
20
-16.524999999999999
42
-0.41421356237309115
10
18.550000000000001
20
-16.024999999999999
10
18.550000000000001
20
-13.646320343559644
42
0.31783724519577788
10
18.383333333333333
20
-13.410618083164128
42
-0.70710678118654757
10
18.383333333333333
20
-9.6393819168358732
42
0.31783724519578738
10
18.550000000000001
20
-9.4036796564403584
10
18.550000000000001
20
-3.0249999999999995
42
-0.41421356237309243
0
LINE
5
320
100
AcDbEntity
8
0
100
AcDbLine
10
228.60000000000008
20
-2.524999999999999
30
0
11
228.60000000000008
21
-2.5249999999999995
31
0
0
LINE
5
321
100
AcDbEntity
8
0
100
AcDbLine
10
228.60000000000008
20
-16.524999999999999
30
0
11
228.60000000000008
21
-16.524999999999999
31
0
0
LINE
5
322
100
AcDbEntity
8
0
100
AcDbLine
10
147.63750000000002
20
-40.625
30
0
11
147.63750000000002
21
-40.625
31
0
0
LINE
5
323
100
AcDbEntity
8
0
100
AcDbLine
10
147.63750000000002
20
-54.625
30
0
11
147.63750000000002
21
-54.625
31
0
0
ARC
5
324
100
AcDbEntity
8
0
100
AcDbCircle
10
61.912500000000001
20
-68.674999999999997
30
0
40
2.0000000000000013
210
-0
220
0
230
1
100
AcDbArc
50
-70.528779365509408
51
70.528779365509436
0
ARC
5
325
100
AcDbEntity
8
0
100
AcDbCircle
10
61.912500000000001
20
-73.174999999999983
30
0
40
0.50000000000000711
210
-0
220
0
230
1
100
AcDbArc
50
-90
51
0
0
ARC
5
326
100
AcDbEntity
8
0
100
AcDbCircle
10
62.662500000000009
20
-66.553679656440352
30
0
40
0.25000000000000355
210
0
220
0
230
1
100
AcDbArc
50
180
51
250.52877936550701
0
ARC
5
327
100
AcDbEntity
8
0
100
AcDbCircle
10
61.162500000000009
20
-66.553679656440352
30
0
40
0.24999999999999239
210
-0
220
0
230
1
100
AcDbArc
50
-70.528779365510132
51
0
0
ARC
5
328
100
AcDbEntity
8
0
100
AcDbCircle
10
61.912500000000001
20
-60.174999999999997
30
0
40
0.50000000000000711
210
0
220
-0
230
1
100
AcDbArc
50
90
51
180
0
ARC
5
329
100
AcDbEntity
8
0
100
AcDbCircle
10
61.912500000000001
20
-68.674999999999997
30
0
40
2.0000000000000013
210
0
220
0
230
1
100
AcDbArc
50
109.47122063449058
51
250.52877936550942
0
LINE
5
330
100
AcDbEntity
8
0
100
AcDbLine
10
61.412500000000009
20
-66.553679656440352
30
0
11
61.412500000000009
21
-60.174999999999997
31
0
0
LINE
5
331
100
AcDbEntity
8
0
100
AcDbLine
10
62.412500000000009
20
-66.553679656440352
30
0
11
62.412500000000009
21
-60.174999999999997
31
0
0
ARC
5
332
100
AcDbEntity
8
0
100
AcDbCircle
10
62.662500000000009
20
-70.796320343559643
30
0
40
0.25000000000000672
210
0
220
0
230
1
100
AcDbArc
50
109.47122063449297
51
180
0
ARC
5
333
100
AcDbEntity
8
0
100
AcDbCircle
10
61.912500000000001
20
-60.174999999999997
30
0
40
0.50000000000000711
210
0
220
-0
230
1
100
AcDbArc
50
0
51
90
0
ARC
5
334
100
AcDbEntity
8
0
100
AcDbCircle
10
61.162500000000009
20
-70.796320343559643
30
0
40
0.25000000000000355
210
0
220
-0
230
1
100
AcDbArc
50
0
51
70.528779365510118
0
ARC
5
335
100
AcDbEntity
8
0
100
AcDbCircle
10
61.912500000000001
20
-73.174999999999983
30
0
40
0.49999999999998934
210
0
220
0
230
1
100
AcDbArc
50
180
51
270
0
LINE
5
336
100
AcDbEntity
8
0
100
AcDbLine
10
61.412500000000009
20
-73.174999999999997
30
0
11
61.412500000000009
21
-70.796320343559643
31
0
0
LINE
5
337
100
AcDbEntity
8
0
100
AcDbLine
10
62.412500000000009
20
-73.174999999999983
30
0
11
62.412500000000009
21
-70.796320343559643
31
0
0
ARC
5
338
100
AcDbEntity
8
0
100
AcDbCircle
10
263.87812500000001
20
-70.796320343559643
30
0
40
0.25000000000000078
210
0
220
0
230
1
100
AcDbArc
50
109.47122063448681
51
180
0
ARC
5
339
100
AcDbEntity
8
0
100
AcDbCircle
10
263.12812500000001
20
-68.674999999999997
30
0
40
2.0000000000000013
210
0
220
0
230
1
100
AcDbArc
50
109.47122063448963
51
250.52877936551039
0
LINE
5
340
100
AcDbEntity
8
0
100
AcDbLine
10
263.62812500000007
20
-73.174999999999983
30
0
11
263.62812500000007
21
-70.796320343559643
31
0
0
ARC
5
341
100
AcDbEntity
8
0
100
AcDbCircle
10
263.12812500000001
20
-73.174999999999983
30
0
40
0.50000000000000711
210
0
220
0
230
1
100
AcDbArc
50
180
51
270
0
LINE
5
342
100
AcDbEntity
8
0
100
AcDbLine
10
262.62812500000001
20
-73.174999999999997
30
0
11
262.62812500000001
21
-70.796320343559643
31
0
0
ARC
5
343
100
AcDbEntity
8
0
100
AcDbCircle
10
263.12812500000001
20
-60.174999999999997
30
0
40
0.50000000000000711
210
0
220
-0
230
1
100
AcDbArc
50
90
51
180
0
LINE
5
344
100
AcDbEntity
8
0
100
AcDbLine
10
263.62812500000007
20
-66.553679656440352
30
0
11
263.62812500000007
21
-60.174999999999997
31
0
0
ARC
5
345
100
AcDbEntity
8
0
100
AcDbCircle
10
263.12812500000001
20
-73.174999999999983
30
0
40
0.50000000000000711
210
-0
220
0
230
1
100
AcDbArc
50
-90
51
0
0
ARC
5
346
100
AcDbEntity
8
0
100
AcDbCircle
10
262.37812500000007
20
-66.553679656440352
30
0
40
0.24999999999999239
210
-0
220
0
230
1
100
AcDbArc
50
-70.528779365513188
51
0
0
ARC
5
347
100
AcDbEntity
8
0
100
AcDbCircle
10
263.12812500000001
20
-60.174999999999997
30
0
40
0.50000000000000711
210
0
220
-0
230
1
100
AcDbArc
50
0
51
90
0
ARC
5
348
100
AcDbEntity
8
0
100
AcDbCircle
10
263.12812500000001
20
-68.674999999999997
30
0
40
2.0000000000000013
210
-0
220
0
230
1
100
AcDbArc
50
-70.528779365508868
51
70.528779365508868
0
ARC
5
349
100
AcDbEntity
8
0
100
AcDbCircle
10
262.37812500000007
20
-70.796320343559643
30
0
40
0.24999999999998579
210
0
220
-0
230
1
100
AcDbArc
50
0
51
70.528779365513188
0
LINE
5
350
100
AcDbEntity
8
0
100
AcDbLine
10
262.62812500000001
20
-66.553679656440352
30
0
11
262.62812500000001
21
-60.174999999999997
31
0
0
ARC
5
351
100
AcDbEntity
8
0
100
AcDbCircle
10
263.87812500000001
20
-66.553679656440352
30
0
40
0.24999999999998579
210
0
220
0
230
1
100
AcDbArc
50
180
51
250.52877936551317
0
ARC
5
352
100
AcDbEntity
8
0
100
AcDbCircle
10
0.52499999999999836
20
-1.0249999999999984
30
0
40
0.99999999999999867
210
0
220
-0
230
1
100
AcDbArc
50
89.999999999999929
51
180
0
ARC
5
353
100
AcDbEntity
8
0
100
AcDbCircle
10
304.27499999999998
20
-1.0250000000000523
30
0
40
1.0000000000000497
210
0
220
-0
230
1
100
AcDbArc
50
0
51
90
0
ARC
5
354
100
AcDbEntity
8
0
100
AcDbCircle
10
304.27499999999998
20
-94.224999999999966
30
0
40
1.0000000000000497
210
-0
220
0
230
1
100
AcDbArc
50
270
51
360
0
ARC
5
355
100
AcDbEntity
8
0
100
AcDbCircle
10
0.52499999999998914
20
-94.224999999999994
30
0
40
0.99999999999998956
210
0
220
0
230
1
100
AcDbArc
50
180
51
270.00000000000063
0
LINE
5
356
100
AcDbEntity
8
0
100
AcDbLine
10
228.60000000000008
20
-11.525
30
0
11
231.125
21
-11.525
31
0
0
LINE
5
357
100
AcDbEntity
8
0
100
AcDbLine
10
147.63750000000002
20
-49.625
30
0
11
151.00000225007534
21
-49.625
31
0
0
ENDSEC
0
SECTION
2
OBJECTS
0
DICTIONARY
5
C
100
AcDbDictionary
3
ACAD_GROUP
350
D
3
ACAD_MLINESTYLE
350
17
0
DICTIONARY
5
D
100
AcDbDictionary
0
DICTIONARY
5
1A
330
C
100
AcDbDictionary
0
DICTIONARY
5
17
100
AcDbDictionary
0
ENDSEC
0
EOF
