0
SECTION
2
HEADER
9
$INSUNITS
70
4
9
$ACADVER
1
AC1014
9
$HANDSEED
5
FFFF
0
ENDSEC
0
SECTION
2
TABLES
0
TABLE
2
VPORT
5
8
100
AcDbSymbolTable
0
ENDTAB
0
TABLE
2
LTYPE
5
5
100
AcDbSymbolTable
0
LTYPE
5
14
100
AcDbSymbolTableRecord
100
AcDbLinetypeTableRecord
2
BYBLOCK
70
0
0
LTYPE
5
15
100
AcDbSymbolTableRecord
100
AcDbLinetypeTableRecord
2
BYLAYER
70
0
0
ENDTAB
0
TABLE
2
LAYER
5
2
100
AcDbSymbolTable
70
2
0
LAYER
5
50
100
AcDbSymbolTableRecord
100
AcDbLayerTableRecord
2
0
70
0
6
CONTINUOUS
0
ENDTAB
0
TABLE
2
STYLE
5
3
100
AcDbSymbolTable
70
1
0
STYLE
5
11
100
AcDbSymbolTableRecord
100
AcDbTextStyleTableRecord
2
STANDARD
70
0
0
ENDTAB
0
TABLE
2
VIEW
5
6
100
AcDbSymbolTable
70
0
0
ENDTAB
0
TABLE
2
UCS
5
7
100
AcDbSymbolTable
70
0
0
ENDTAB
0
TABLE
2
APPID
5
9
100
AcDbSymbolTable
70
2
0
APPID
5
12
100
AcDbSymbolTableRecord
100
AcDbRegAppTableRecord
2
ACAD
70
0
0
ENDTAB
0
TABLE
2
DIMSTYLE
5
A
100
AcDbSymbolTable
70
1
0
ENDTAB
0
TABLE
2
BLOCK_RECORD
5
1
100
AcDbSymbolTable
70
1
0
BLOCK_RECORD
5
1F
100
AcDbSymbolTableRecord
100
AcDbBlockTableRecord
2
*MODEL_SPACE
0
BLOCK_RECORD
5
1B
100
AcDbSymbolTableRecord
100
AcDbBlockTableRecord
2
*PAPER_SPACE
0
ENDTAB
0
ENDSEC
0
SECTION
2
BLOCKS
0
BLOCK
5
20
100
AcDbEntity
100
AcDbBlockBegin
2
*MODEL_SPACE
0
ENDBLK
5
21
100
AcDbEntity
100
AcDbBlockEnd
0
BLOCK
5
1C
100
AcDbEntity
100
AcDbBlockBegin
2
*PAPER_SPACE
0
ENDBLK
5
1D
100
AcDbEntity
100
AcDbBlockEnd
0
ENDSEC
0
SECTION
2
ENTITIES
0
LWPOLYLINE
5
100
100
AcDbEntity
8
0
100
AcDbPolyline
90
4
70
1
43
0.0
10
153.21088053230011
20
-28.603284044017681
10
139.21088053229991
20
-28.603284044017681
10
139.21088053229991
20
-14.603284044018469
10
153.21088053230011
20
-14.603284044018469
0
LWPOLYLINE
5
101
100
AcDbEntity
8
0
100
AcDbPolyline
90
4
70
1
43
0.0
10
148.44838053230029
20
-66.689584044015049
10
134.44838053230015
20
-66.689584044015049
10
134.44838053230015
20
-52.689584044016478
10
148.44838053230029
20
-52.689584044016478
0
LWPOLYLINE
5
102
100
AcDbEntity
8
0
100
AcDbPolyline
90
4
70
1
43
0.0
10
198.74395553264191
20
-90.802964044012128
10
212.74395553264182
20
-90.802964044012128
10
212.74395553264182
20
-104.80296404401074
10
198.74395553264191
20
-104.80296404401074
0
SPLINE
5
103
100
AcDbEntity
8
0
100
AcDbSpline
70
0
71
3
72
11
73
7
74
0
42
0.000000001
43
0.0000000001
44
0.0000000001
40
12
40
12
40
12
40
12
40
13
40
13
40
13
40
14
40
14
40
14
40
14
10
202.92676543805069
20
-109.05027215743613
30
0
10
202.3744806973059
20
-109.05035395136355
30
0
10
201.9268317615813
20
-109.49813550124595
30
0
10
201.92691355550838
20
-110.05042024199111
30
0
10
201.92699534087069
20
-110.60264714872415
30
0
10
202.3746866317511
20
-111.05027213852856
30
0
10
202.92691354454018
20
-111.05027213550036
30
0
0
LWPOLYLINE
5
104
100
AcDbEntity
8
0
100
AcDbPolyline
90
4
70
1
43
0.0
10
215.12614433961096
20
-71.739145885750972
10
215.12614433961096
20
-85.739145885749537
10
201.12614433961116
20
-85.739145885749537
10
201.12614433961116
20
-71.739145885750972
0
SPLINE
5
105
100
AcDbEntity
8
0
100
AcDbSpline
70
0
71
3
72
10
73
6
74
0
42
0.000000001
43
0.0000000001
44
0.0000000001
40
5
40
5
40
5
40
5
40
6
40
6
40
7
40
7
40
7
40
7
10
199.15117343715383
20
-85.189142648815022
30
0
10
199.15117343620039
20
-85.492899261222206
30
0
10
198.90493004610818
20
-85.739142647269659
30
0
10
198.29741682129409
20
-85.739142643456034
30
0
10
198.05117343524657
20
-85.492899254316868
30
0
10
198.05117343715352
20
-85.189142641909683
30
0
0
SPLINE
5
106
100
AcDbEntity
8
0
100
AcDbSpline
70
0
71
3
72
10
73
6
74
0
42
0.000000001
43
0.0000000001
44
0.0000000001
40
5
40
5
40
5
40
5
40
6
40
6
40
7
40
7
40
7
40
7
10
189.62338053230047
20
-66.139584047469455
30
0
10
189.62338053134692
20
-66.443340659876
30
0
10
189.3771371412542
20
-66.689584045923468
30
0
10
188.76962391644008
20
-66.689584042109203
30
0
10
188.52338053039296
20
-66.443340652970036
30
0
10
188.52338053230011
20
-66.139584040563491
30
0
0
SPLINE
5
107
100
AcDbEntity
8
0
100
AcDbSpline
70
0
71
3
72
11
73
7
74
0
42
0.000000001
43
0.0000000001
44
0.0000000001
40
0
40
0
40
0
40
0
40
1
40
1
40
1
40
2
40
2
40
2
40
2
10
202.01073498905032
20
-69.852089069555191
30
0
10
201.65175004526196
20
-69.852086557610832
30
0
10
201.36073722845811
20
-69.561069832795681
30
0
10
201.36073953729027
20
-69.2020848890064
30
0
10
201.36074184612352
20
-68.843099801593979
30
0
10
201.6517586304299
20
-68.552086760645324
30
0
10
202.01074371784165
20
-68.552089069478455
30
0
0
LINE
5
108
100
AcDbEntity
8
0
100
AcDbLine
10
198.05117343715352
20
-85.189142641909683
30
0
11
198.05117343715352
21
-72.289142648814874
31
0
0
LWPOLYLINE
5
109
100
AcDbEntity
8
0
100
AcDbPolyline
90
9
70
1
43
0.0
10
205.59838053230033
20
-66.689584044015703
10
196.07614433961248
20
-66.689584044015703
10
196.07614433961089
20
-71.739145885750972
10
196.07614433961089
20
-85.73914588575019
10
182.07614433961101
20
-85.73914588575019
10
182.07614433961101
20
-71.739145885750972
10
191.59838053229979
20
-71.739145885750972
10
191.5983805323005
20
-52.689584044016478
10
205.59838053230033
20
-52.689584044016478
0
SPLINE
5
110
100
AcDbEntity
8
0
100
AcDbSpline
70
0
71
3
72
10
73
6
74
0
42
0.000000001
43
0.0000000001
44
0.0000000001
40
6
40
6
40
6
40
6
40
7
40
7
40
8
40
8
40
8
40
8
10
217.10111524206937
20
-72.28914264190955
30
0
10
217.10111524302278
20
-71.985386029502365
30
0
10
217.34735863311499
20
-71.739142643454898
30
0
10
217.95487185792908
20
-71.739142647268523
30
0
10
218.20111524397646
20
-71.985386036407689
30
0
10
218.20111524206965
20
-72.289142648814874
30
0
0
LINE
5
111
100
AcDbEntity
8
0
100
AcDbLine
10
217.10111524206937
20
-85.189142641909683
30
0
11
217.10111524206937
21
-72.289142648814874
31
0
0
LWPOLYLINE
5
112
100
AcDbEntity
8
0
100
AcDbPolyline
90
4
70
1
43
0.0
10
267.79845553237959
20
-33.653284044696932
10
281.79845553237982
20
-33.653284044696932
10
281.79845553237982
20
-47.653284044696136
10
267.79845553237959
20
-47.653284044696136
0
LINE
5
113
100
AcDbEntity
8
0
100
AcDbLine
10
21.825915241844314
20
-21.017911908579631
30
0
11
21.825915241844029
21
-15.13914264881495
31
0
0
SPLINE
5
114
100
AcDbEntity
8
0
100
AcDbSpline
70
0
71
3
72
11
73
7
74
0
42
0.000000001
43
0.0000000001
44
0.0000000001
40
0
40
0
40
0
40
0
40
1
40
1
40
1
40
2
40
2
40
2
40
2
10
22.936476164180917
20
-30.471430039841106
30
0
10
22.577491076770428
20
-30.471432552825025
30
0
10
22.286478201319824
20
-30.762449502627561
30
0
10
22.286480714303352
20
-31.121434590037413
30
0
10
22.28648322728624
20
-31.480419535293606
30
0
10
22.577499955233407
20
-31.771432351863858
30
0
10
22.936484900490797
20
-31.771430039917192
30
0
0
SPLINE
5
115
100
AcDbEntity
8
0
100
AcDbSpline
70
0
71
3
72
11
73
7
74
0
42
0.000000001
43
0.0000000001
44
0.0000000001
40
3
40
3
40
3
40
3
40
4
40
4
40
4
40
5
40
5
40
5
40
5
10
288.49033739461544
20
-31.252508915809983
30
0
10
288.49033737820105
20
-30.893971904242569
30
0
10
288.78065312344802
20
-30.603142804227122
30
0
10
289.13918957550612
20
-30.602509393217844
30
0
10
289.49817438279575
20
-30.60187519011901
30
0
10
289.78970319153296
20
-30.892375752469889
30
0
10
289.79033739463182
20
-31.251360559760144
30
0
0
LINE
5
116
100
AcDbEntity
8
0
100
AcDbLine
10
21.825915241844669
20
-28.039142641909759
30
0
11
21.825915241843745
21
-26.205836984003867
31
0
0
LWPOLYLINE
5
117
100
AcDbEntity
8
0
100
AcDbPolyline
90
4
70
1
43
0.0
10
10.623280532299333
20
-33.639584044018214
10
24.623280532299319
20
-33.639584044018214
10
24.623280532299319
20
-47.639584044016779
10
10.623280532299333
20
-47.639584044016779
0
LINE
5
118
100
AcDbEntity
8
0
100
AcDbLine
10
22.925915241845658
20
-26.211166839153577
30
0
11
22.925915241844734
21
-28.039142641909759
31
0
0
SPLINE
5
119
100
AcDbEntity
8
0
100
AcDbSpline
70
0
71
3
72
8
73
4
74
0
42
0.000000001
43
0.0000000001
44
0.0000000001
40
11
40
11
40
11
40
11
40
12
40
12
40
12
40
12
10
27.14828052878417
20
-47.639584044017418
30
0
10
26.844523916394323
20
-47.639584043055194
30
0
10
26.598280530375362
20
-47.393340652953803
30
0
10
26.598280532299867
20
-47.089584040564588
30
0
0
LINE
5
120
100
AcDbEntity
8
0
100
AcDbLine
10
7.548280532300069
20
-47.089584040564588
30
0
11
7.5482805323003532
21
-34.189584047469772
31
0
0
LWPOLYLINE
5
121
100
AcDbEntity
8
0
100
AcDbPolyline
90
4
70
1
43
0.0
10
263.03516421388031
20
-28.603292038605268
10
263.03516421388031
20
-14.60329203860606
10
277.03516421388042
20
-14.60329203860606
10
277.03516421388042
20
-28.603292038605268
0
SPLINE
5
122
100
AcDbEntity
8
0
100
AcDbSpline
70
0
71
3
72
10
73
6
74
0
42
0.000000001
43
0.0000000001
44
0.0000000001
40
1
40
1
40
1
40
1
40
2
40
2
40
3
40
3
40
3
40
3
10
5.159921108592016
20
-53.264584040562809
30
0
10
5.1599211095452802
20
-52.960827428156264
30
0
10
5.4061644996376401
20
-52.71458404210879
30
0
10
6.0136777244513695
20
-52.714584045922415
30
0
10
6.2599211104988939
20
-52.960827435060942
30
0
10
6.2599211085919393
20
-53.264584047468126
30
0
0
LWPOLYLINE
5
123
100
AcDbEntity
8
0
100
AcDbPolyline
90
4
70
1
43
0.0
10
19.860880532299632
20
-14.603284044018469
10
19.860880532299632
20
-28.603284044017681
10
5.8608805322997881
20
-28.603284044017681
10
5.8608805322997881
20
-14.603284044018469
0
LWPOLYLINE
5
124
100
AcDbEntity
8
0
100
AcDbPolyline
90
4
70
1
43
0.0
10
305.61095553229882
20
-28.59349855200804
10
291.61095553229899
20
-28.59349855200804
10
291.61095553229865
20
-14.59349855200947
10
305.61095553229882
20
-14.59349855200947
0
SPLINE
5
125
100
AcDbEntity
8
0
100
AcDbSpline
70
0
71
3
72
17
73
13
74
0
42
0.000000001
43
0.0000000001
44
0.0000000001
40
9
40
9
40
9
40
9
40
10
40
10
40
10
40
11
40
11
40
11
40
12
40
12
40
12
40
13
40
13
40
13
40
13
10
22.925915241844734
20
-21.012582053429277
30
0
10
22.925915241844734
20
-21.377611733754527
30
0
10
23.115496311794814
20
-21.716447049241872
30
0
10
23.426584466299332
20
-21.907420418185374
30
0
10
23.694654582480794
20
-22.071985518009104
30
0
10
23.9201290602103
20
-22.297459995738514
30
0
10
24.084694160034772
20
-22.565530111920395
30
0
10
24.662574178980066
20
-23.506874078431338
30
0
10
24.367928432810686
20
-24.738448455453113
30
0
10
23.426584466299687
20
-25.316328474398766
30
0
10
23.115496311795454
20
-25.507301843341622
30
0
10
22.925915241845658
20
-25.846137158828327
30
0
10
22.925915241845658
20
-26.211166839153577
30
0
0
SPLINE
5
126
100
AcDbEntity
8
0
100
AcDbSpline
70
0
71
3
72
17
73
13
74
0
42
0.000000001
43
0.0000000001
44
0.0000000001
40
0
40
0
40
0
40
0
40
1
40
1
40
1
40
2
40
2
40
2
40
3
40
3
40
3
40
4
40
4
40
4
40
4
10
21.825915241843745
20
-26.205836984003867
30
0
10
21.825915241844029
20
-25.842052200082684
30
0
10
21.637615319178991
20
-25.504187252490205
30
0
10
21.328223810562008
20
-25.312833487415112
30
0
10
21.064532623298149
20
-25.149744649826449
30
0
10
20.842369928393012
20
-24.927581954921919
30
0
10
20.679281090804977
20
-24.663890767657847
30
0
10
20.098268519941414
20
-23.72447702915915
30
0
10
20.388810072062569
20
-22.491927976032375
30
0
10
21.328223810561653
20
-21.910915405168385
30
0
10
21.637615319178636
20
-21.719561640093289
30
0
10
21.825915241844029
20
-21.381696692500817
30
0
10
21.825915241844314
20
-21.017911908579631
30
0
0
SPLINE
5
127
100
AcDbEntity
8
0
100
AcDbSpline
70
0
71
3
72
10
73
6
74
0
42
0.000000001
43
0.0000000001
44
0.0000000001
40
6
40
6
40
6
40
6
40
7
40
7
40
8
40
8
40
8
40
8
10
88.510880532300291
20
-34.189584040563808
30
0
10
88.510880533253768
20
-33.885827428156624
30
0
10
88.757123923345986
20
-33.639584042109803
30
0
10
89.364637148160398
20
-33.639584045923421
30
0
10
89.610880534207524
20
-33.885827435061948
30
0
10
89.610880532300641
20
-34.189584047469133
30
0
0
LWPOLYLINE
5
128
100
AcDbEntity
8
0
100
AcDbPolyline
90
4
70
1
43
0.0
10
275.75370786794292
20
-52.702964555580024
10
283.43115625161806
20
-52.702964555580024
10
283.43115625161806
20
-68.702877772402701
10
275.75370786794292
20
-68.702877772402701
0
SPLINE
5
129
100
AcDbEntity
8
0
100
AcDbSpline
70
0
71
3
72
10
73
6
74
0
42
0.000000001
43
0.0000000001
44
0.0000000001
40
91
40
91
40
91
40
91
40
92
40
92
40
93
40
93
40
93
40
93
10
8.1140947906023086
20
-8.3574662551100012
30
0
10
7.5618100407724143
20
-8.3574662551100012
30
0
10
7.1140947906033603
20
-8.8051815052797178
30
0
10
7.1140947906036445
20
-9.9097510049422688
30
0
10
7.561810040773338
20
-10.35746625511071
30
0
10
8.114094790604014
20
-10.35746625511071
30
0
0
SPLINE
5
130
100
AcDbEntity
8
0
100
AcDbSpline
70
0
71
3
72
10
73
6
74
0
42
0.000000001
43
0.0000000001
44
0.0000000001
40
5
40
5
40
5
40
5
40
6
40
6
40
7
40
7
40
7
40
7
10
8.6482805323001344
20
-47.089584047469906
30
0
10
8.648280531346515
20
-47.39334065987709
30
0
10
8.402037141254155
20
-47.639584045924565
30
0
10
7.7945239164403546
20
-47.639584042110286
30
0
10
7.5482805303932565
20
-47.393340652971773
30
0
10
7.548280532300069
20
-47.089584040564588
30
0
0
LINE
5
131
100
AcDbEntity
8
0
100
AcDbLine
10
22.925915241844379
20
-15.13914264881495
30
0
11
22.925915241844734
21
-21.012582053429277
31
0
0
SPLINE
5
132
100
AcDbEntity
8
0
100
AcDbSpline
70
0
71
3
72
8
73
4
74
0
42
0.000000001
43
0.0000000001
44
0.0000000001
40
97
40
97
40
97
40
97
40
98
40
98
40
98
40
98
10
3.8600545742028913
20
-12.248827379268407
30
0
10
3.2801538475174397
20
-12.24882969045467
30
0
10
2.8100526736813691
20
-12.718932804925318
30
0
10
2.8100527563898225
20
-13.298833531615257
30
0
0
SPLINE
5
133
100
AcDbEntity
8
0
100
AcDbSpline
70
0
71
3
72
10
73
6
74
0
42
0.000000001
43
0.0000000001
44
0.0000000001
40
15
40
15
40
15
40
15
40
16
40
16
40
17
40
17
40
17
40
17
10
22.925915241844734
20
-28.039142648815726
30
0
10
22.925915240891115
20
-28.342899261222271
30
0
10
22.679671850798755
20
-28.589142647269732
30
0
10
22.072158625985026
20
-28.589142643455471
30
0
10
21.825915239937856
20
-28.342899254316944
30
0
10
21.825915241844669
20
-28.039142641909759
30
0
0
SPLINE
5
134
100
AcDbEntity
8
0
100
AcDbSpline
70
0
71
3
72
11
73
7
74
0
42
0.000000001
43
0.0000000001
44
0.0000000001
40
43
40
43
40
43
40
43
40
44
40
44
40
44
40
45
40
45
40
45
40
45
10
267.86456354650863
20
-8.3574662550631587
30
0
10
267.31227879971522
20
-8.3574662520266365
30
0
10
266.86456354954652
20
-8.8051814972719598
30
0
10
266.86456354650994
20
-9.3574662440657477
30
0
10
266.86456354347371
20
-9.9096930772189964
30
0
10
267.31218840900419
20
-10.357384335107396
30
0
10
267.86441523608471
20
-10.357466233067072
30
0
0
SPLINE
5
135
100
AcDbEntity
8
0
100
AcDbSpline
70
0
71
3
72
10
73
6
74
0
42
0.000000001
43
0.0000000001
44
0.0000000001
40
6
40
6
40
6
40
6
40
7
40
7
40
8
40
8
40
8
40
8
10
264.72345553237994
20
-34.203284041243165
30
0
10
264.72345553333349
20
-33.89952742883662
30
0
10
264.96969892342588
20
-33.653284042789167
30
0
10
265.57721214823925
20
-33.653284046603424
30
0
10
265.82345553428638
20
-33.899527435742591
30
0
10
265.82345553237928
20
-34.203284048149136
30
0
0
LWPOLYLINE
5
136
100
AcDbEntity
8
0
100
AcDbPolyline
90
4
70
1
43
0.0
10
8.2349211085924168
20
-52.714584044015922
10
27.002130532299304
20
-52.714584044015922
10
27.002130532299304
20
-66.664584044014973
10
8.2349211085924168
20
-66.664584044014973
0
SPLINE
5
137
100
AcDbEntity
8
0
100
AcDbSpline
70
0
71
3
72
11
73
7
74
0
42
0.000000001
43
0.0000000001
44
0.0000000001
40
1
40
1
40
1
40
1
40
2
40
2
40
2
40
3
40
3
40
3
40
3
10
11.423276041459616
20
-49.527265990825349
30
0
10
11.064290954048701
20
-49.527268546283956
30
0
10
10.773278113030287
20
-49.818285530518793
30
0
10
10.773280668488852
20
-50.177270617929288
30
0
10
10.773283223946635
20
-50.536255624923342
30
0
10
11.064300082678287
20
-50.827268432633019
30
0
10
11.423285089673314
20
-50.827265990901438
30
0
0
SPLINE
5
138
100
AcDbEntity
8
0
100
AcDbSpline
70
0
71
3
72
8
73
4
74
0
42
0.000000001
43
0.0000000001
44
0.0000000001
40
5
40
5
40
5
40
5
40
6
40
6
40
6
40
6
10
31.910880535754202
20
-33.639584044016289
30
0
10
32.214637148160818
20
-33.639584044970178
30
0
10
32.460880534207206
20
-33.885827435062588
30
0
10
32.46088053230018
20
-34.189584047469133
30
0
0
SPLINE
5
139
100
AcDbEntity
8
0
100
AcDbSpline
70
0
71
3
72
8
73
4
74
0
42
0.000000001
43
0.0000000001
44
0.0000000001
40
2
40
2
40
2
40
2
40
3
40
3
40
3
40
3
10
26.598280532299867
20
-34.189584043893582
30
0
10
26.598280532325234
20
-33.885827431504367
30
0
10
26.844523919970484
20
-33.639584043966238
30
0
10
27.148280532359976
20
-33.639584044017575
30
0
0
LINE
5
140
100
AcDbEntity
8
0
100
AcDbLine
10
27.148280532359976
20
-33.639584044017575
30
0
11
31.910880532300894
21
-33.639584044016289
31
0
0
SPLINE
5
141
100
AcDbEntity
8
0
100
AcDbSpline
70
0
71
3
72
11
73
7
74
0
42
0.000000001
43
0.0000000001
44
0.0000000001
40
3
40
3
40
3
40
3
40
4
40
4
40
4
40
5
40
5
40
5
40
5
10
76.35818323073309
20
-31.771430039903073
30
0
10
76.717168318143578
20
-31.771427526919158
30
0
10
77.00818119359414
20
-31.480410577116618
30
0
10
77.008178680610257
20
-31.121425489706127
30
0
10
77.00817616762734
20
-30.762440544450577
30
0
10
76.717159439680671
20
-30.471427727880961
30
0
10
76.358174494423594
20
-30.471430039826988
30
0
0
SPLINE
5
142
100
AcDbEntity
8
0
100
AcDbSpline
70
0
71
3
72
8
73
4
74
0
42
0.000000001
43
0.0000000001
44
0.0000000001
40
2
40
2
40
2
40
2
40
3
40
3
40
3
40
3
10
28.977130532299853
20
-53.239584044015693
30
0
10
28.977130532299853
20
-52.935827431605951
30
0
10
29.223373919889681
20
-52.689584044015838
30
0
10
29.527130532292674
20
-52.689584044015838
30
0
0
LINE
5
143
100
AcDbEntity
8
0
100
AcDbLine
10
140.9011152420689
20
-85.189142641909683
30
0
11
140.90111524206858
21
-72.289142648814874
31
0
0
LWPOLYLINE
5
144
100
AcDbEntity
8
0
100
AcDbPolyline
90
4
70
1
43
0.0
10
40.55028123317534
20
-71.739206929930532
10
40.55028123317534
20
-87.739120146752583
10
32.872832849499858
20
-87.739120146752583
10
32.872832849499858
20
-71.739206929930532
0
SPLINE
5
145
100
AcDbEntity
8
0
100
AcDbSpline
70
0
71
3
72
10
73
6
74
0
42
0.000000001
43
0.0000000001
44
0.0000000001
40
1
40
1
40
1
40
1
40
2
40
2
40
3
40
3
40
3
40
3
10
241.07286524206893
20
-84.939141865922764
30
0
10
241.07286524082349
20
-85.380969665787518
30
0
10
240.71469303742339
20
-85.739141863903995
30
0
10
239.83103743769391
20
-85.739141858921855
30
0
10
239.47286523957769
20
-85.380969656767149
30
0
10
239.47286524206851
20
-84.939141856903035
30
0
0
LINE
5
146
100
AcDbEntity
8
0
100
AcDbLine
10
65.790549951571791
20
-72.27500125015915
30
0
11
65.790549951572359
21
-78.148440654773481
31
0
0
LWPOLYLINE
5
147
100
AcDbEntity
8
0
100
AcDbPolyline
90
4
70
1
43
0.0
10
238.9358805323013
20
-47.639584044016139
10
224.93588053230141
20
-47.639584044016139
10
224.93588053230141
20
-33.639584044016935
10
238.9358805323013
20
-33.639584044016935
0
LWPOLYLINE
5
148
100
AcDbEntity
8
0
100
AcDbPolyline
90
8
70
1
43
0.0
10
105.87614433961015
20
-71.739145885750972
10
115.39838053229929
20
-71.739145885750972
10
115.3983805323
20
-52.689584044016478
10
129.39838053230019
20
-52.689584044016478
10
129.39838053230019
20
-66.689584044015703
10
119.87614433961039
20
-66.689584044015703
10
119.87614433961039
20
-85.73914588575019
10
105.87614433961015
20
-85.73914588575019
0
LWPOLYLINE
5
149
100
AcDbEntity
8
0
100
AcDbPolyline
90
4
70
1
43
0.0
10
55.866305532299094
20
-104.80319904401696
10
55.866305532299094
20
-90.803199044017759
10
69.866305532299293
20
-90.803199044017759
10
69.866305532299293
20
-104.80319904401696
0
LWPOLYLINE
5
150
100
AcDbEntity
8
0
100
AcDbPolyline
90
4
70
1
43
0.0
10
127.30269553229988
20
-90.802929044013965
10
141.30269553229996
20
-90.802929044013965
10
141.30269553229996
20
-104.80292904401317
10
127.30269553229988
20
-104.80292904401317
0
SPLINE
5
151
100
AcDbEntity
8
0
100
AcDbSpline
70
0
71
3
72
11
73
7
74
0
42
0.000000001
43
0.0000000001
44
0.0000000001
40
3
40
3
40
3
40
3
40
4
40
4
40
4
40
5
40
5
40
5
40
5
10
289.79033857289812
20
-76.858123552944591
30
0
10
289.79005102482074
20
-76.499138523105401
30
0
10
289.49880305509089
20
-76.208356760922669
30
0
10
289.13981802525109
20
-76.208644308999695
30
0
10
288.78103553965394
20
-76.20893169483854
30
0
10
288.49033748986312
20
-76.499863566016714
30
0
10
288.49033857278732
20
-76.858646166710272
30
0
0
SPLINE
5
152
100
AcDbEntity
8
0
100
AcDbSpline
70
0
71
3
72
10
73
6
74
0
42
0.000000001
43
0.0000000001
44
0.0000000001
40
5
40
5
40
5
40
5
40
6
40
6
40
7
40
7
40
7
40
7
10
222.96088053230108
20
-47.089584047469906
30
0
10
222.96088053134753
20
-47.39334065987709
30
0
10
222.71463714125508
20
-47.639584045923911
30
0
10
222.10712391644165
20
-47.639584042110286
30
0
10
221.86088053039455
20
-47.393340652971133
30
0
10
221.86088053230174
20
-47.089584040564588
30
0
0
LWPOLYLINE
5
153
100
AcDbEntity
8
0
100
AcDbPolyline
90
4
70
1
43
0.0
10
236.5690555325636
20
-90.793498552008316
10
236.5690555325636
20
-104.79349855200752
10
222.56905553256382
20
-104.79349855200752
10
222.56905553256382
20
-90.793498552008316
0
SPLINE
5
154
100
AcDbEntity
8
0
100
AcDbSpline
70
0
71
3
72
11
73
7
74
0
42
0.000000001
43
0.0000000001
44
0.0000000001
40
0
40
0
40
0
40
0
40
1
40
1
40
1
40
2
40
2
40
2
40
2
10
55.584757398671769
20
-69.852089069555191
30
0
10
55.225772454883213
20
-69.852086557610832
30
0
10
54.934759638079349
20
-69.561069832795681
30
0
10
54.934761946911834
20
-69.202084889005761
30
0
10
54.934764255745101
20
-68.843099801593979
30
0
10
55.225781040052055
20
-68.552086760645324
30
0
10
55.584766127463787
20
-68.552089069479095
30
0
0
SPLINE
5
155
100
AcDbEntity
8
0
100
AcDbSpline
70
0
71
3
72
10
73
6
74
0
42
0.000000001
43
0.0000000001
44
0.0000000001
40
6
40
6
40
6
40
6
40
7
40
7
40
8
40
8
40
8
40
8
10
265.33654995135089
20
-72.275001243254479
30
0
10
265.33654995230415
20
-71.971244630847295
30
0
10
265.5827933423962
20
-71.725001244799827
30
0
10
266.19030656721031
20
-71.725001248613438
30
0
10
266.43654995325767
20
-71.97124463775198
30
0
10
266.43654995135125
20
-72.27500125015915
30
0
0
LINE
5
156
100
AcDbEntity
8
0
100
AcDbLine
10
265.33654995135089
20
-78.153770509923845
30
0
11
265.33654995135089
21
-72.27500125015915
31
0
0
SPLINE
5
157
100
AcDbEntity
8
0
100
AcDbSpline
70
0
71
3
72
10
73
6
74
0
42
0.000000001
43
0.0000000001
44
0.0000000001
40
6
40
6
40
6
40
6
40
7
40
7
40
8
40
8
40
8
40
8
10
245.67338053230159
20
-53.239584040562718
30
0
10
245.67338053325503
20
-52.935827428155534
30
0
10
245.91962392334756
20
-52.689584042108066
30
0
10
246.5271371481617
20
-52.689584045922331
30
0
10
246.7733805342088
20
-52.935827435061498
30
0
10
246.77338053230201
20
-53.239584047468682
30
0
0
SPLINE
5
158
100
AcDbEntity
8
0
100
AcDbSpline
70
0
71
3
72
10
73
6
74
0
42
0.000000001
43
0.0000000001
44
0.0000000001
40
5
40
5
40
5
40
5
40
6
40
6
40
7
40
7
40
7
40
7
10
113.42338053229966
20
-66.139584047470109
30
0
10
113.42338053134597
20
-66.443340659877293
30
0
10
113.17713714125304
20
-66.689584045924107
30
0
10
112.56962391643955
20
-66.689584042109203
30
0
10
112.32338053039288
20
-66.443340652970036
30
0
10
112.32338053230026
20
-66.139584040563491
30
0
0
LWPOLYLINE
5
159
100
AcDbEntity
8
0
100
AcDbPolyline
90
4
70
1
43
0.0
10
234.1761443396112
20
-71.739145885750972
10
234.1761443396112
20
-85.739145885749537
10
220.1761443396114
20
-85.739145885749537
10
220.1761443396114
20
-71.739145885750972
0
LWPOLYLINE
5
160
100
AcDbEntity
8
0
100
AcDbPolyline
90
4
70
1
43
0.0
10
124.92614433961137
20
-85.739145885749537
10
124.92614433961137
20
-71.739145885750972
10
138.92614433961117
20
-71.739145885750972
10
138.92614433961117
20
-85.739145885749537
0
LINE
5
161
100
AcDbEntity
8
0
100
AcDbLine
10
266.43654995135125
20
-72.27500125015915
30
0
11
266.43654995135148
21
-78.148440654773481
31
0
0
SPLINE
5
162
100
AcDbEntity
8
0
100
AcDbSpline
70
0
71
3
72
10
73
6
74
0
42
0.000000001
43
0.0000000001
44
0.0000000001
40
1
40
1
40
1
40
1
40
2
40
2
40
3
40
3
40
3
40
3
10
226.62338053230053
20
-53.239584040563997
30
0
10
226.62338053325374
20
-52.935827428156813
30
0
10
226.86962392334578
20
-52.689584042109352
30
0
10
227.47713714815987
20
-52.68958404592297
30
0
10
227.72338053420731
20
-52.935827435061498
30
0
10
227.7233805323005
20
-53.239584047468682
30
0
0
LWPOLYLINE
5
163
100
AcDbEntity
8
0
100
AcDbPolyline
90
4
70
1
43
0.0
10
260.3696152420676
20
-85.739145885746964
10
246.36961524206751
20
-85.739145885746964
10
246.36961524206751
20
-71.7391458857484
10
260.3696152420676
20
-71.7391458857484
0
SPLINE
5
164
100
AcDbEntity
8
0
100
AcDbSpline
70
0
71
3
72
10
73
6
74
0
42
0.000000001
43
0.0000000001
44
0.0000000001
40
2
40
2
40
2
40
2
40
3
40
3
40
4
40
4
40
4
40
4
10
132.47338053229993
20
-66.139584047469455
30
0
10
132.47338053134632
20
-66.443340659876
30
0
10
132.22713714125388
20
-66.689584045923468
30
0
10
131.61962391643988
20
-66.689584042109203
30
0
10
131.37338053039309
20
-66.443340652970036
30
0
10
131.37338053229979
20
-66.139584040563491
30
0
0
SPLINE
5
165
100
AcDbEntity
8
0
100
AcDbSpline
70
0
71
3
72
8
73
4
74
0
42
0.000000001
43
0.0000000001
44
0.0000000001
40
8
40
8
40
8
40
8
40
9
40
9
40
9
40
9
10
37.223380532299828
20
-66.139584044036368
30
0
10
37.223380532299828
20
-66.443340656423672
30
0
10
36.977137144706873
20
-66.689584044016343
30
0
10
36.673380532299689
20
-66.689584044016343
30
0
0
SPLINE
5
166
100
AcDbEntity
8
0
100
AcDbSpline
70
0
71
3
72
10
73
6
74
0
42
0.000000001
43
0.0000000001
44
0.0000000001
40
1
40
1
40
1
40
1
40
2
40
2
40
3
40
3
40
3
40
3
10
241.06976851773163
20
-104.00319826457334
30
0
10
241.06976851648639
20
-104.44502606443808
30
0
10
240.71159631308711
20
-104.80319826255456
30
0
10
239.82794071335761
20
-104.8031982575737
30
0
10
239.46976851524082
20
-104.44502605541967
30
0
10
239.46976851773121
20
-104.00319825555488
30
0
0
SPLINE
5
167
100
AcDbEntity
8
0
100
AcDbSpline
70
0
71
3
72
17
73
13
74
0
42
0.000000001
43
0.0000000001
44
0.0000000001
40
9
40
9
40
9
40
9
40
10
40
10
40
10
40
11
40
11
40
11
40
12
40
12
40
12
40
13
40
13
40
13
40
13
10
65.790549951572359
20
-78.148440654773481
30
0
10
65.790549951572359
20
-78.513470335099385
30
0
10
65.980131021522482
20
-78.852305650586743
30
0
10
66.29121917602734
20
-79.043279019529578
30
0
10
66.559289292208348
20
-79.207844119353311
30
0
10
66.784763769937683
20
-79.433318597082732
30
0
10
66.949328869761686
20
-79.701388713263967
30
0
10
67.527208888707378
20
-80.642732679774909
30
0
10
67.232563142537956
20
-81.874307056797321
30
0
10
66.291219176027056
20
-82.452187075742984
30
0
10
65.980131021523079
20
-82.643160444686487
30
0
10
65.79054995157324
20
-82.981995760172538
30
0
10
65.79054995157324
20
-83.347025440497788
30
0
0
LWPOLYLINE
5
168
100
AcDbEntity
8
0
100
AcDbPolyline
90
4
70
1
43
0.0
10
48.726144339610613
20
-71.739145885750972
10
62.726144339610457
20
-71.739145885750972
10
62.726144339610457
20
-85.73914588575019
10
48.726144339610613
20
-85.73914588575019
0
LINE
5
169
100
AcDbEntity
8
0
100
AcDbLine
10
64.69054995157137
20
-78.153770509923845
30
0
11
64.69054995157137
21
-72.27500125015915
31
0
0
SPLINE
5
170
100
AcDbEntity
8
0
100
AcDbSpline
70
0
71
3
72
10
73
6
74
0
42
0.000000001
43
0.0000000001
44
0.0000000001
40
2
40
2
40
2
40
2
40
3
40
3
40
4
40
4
40
4
40
4
10
242.01088053230131
20
-47.089584047469906
30
0
10
242.01088053134777
20
-47.39334065987709
30
0
10
241.76463714125529
20
-47.639584045923911
30
0
10
241.1571239164422
20
-47.639584042109647
30
0
10
240.91088053039505
20
-47.393340652971133
30
0
10
240.9108805323022
20
-47.089584040564588
30
0
0
LINE
5
171
100
AcDbEntity
8
0
100
AcDbLine
10
222.96088053230108
20
-34.189584047469133
30
0
11
222.96088053230108
21
-47.089584040564588
31
0
0
LINE
5
172
100
AcDbEntity
8
0
100
AcDbLine
10
64.690549951571683
20
-85.175001243254627
30
0
11
64.69054995157137
21
-83.341695585348702
31
0
0
LINE
5
173
100
AcDbEntity
8
0
100
AcDbLine
10
239.46976851773121
20
-104.00319825555488
30
0
11
239.46976851773121
21
-91.603199832472754
31
0
0
LWPOLYLINE
5
174
100
AcDbEntity
8
0
100
AcDbPolyline
90
4
70
1
43
0.0
10
115.11118053229758
20
-14.603284044030659
10
115.11118053229758
20
-28.60328404402987
10
101.11118053229738
20
-28.60328404402987
10
101.11118053229738
20
-14.603284044030659
0
LWPOLYLINE
5
175
100
AcDbEntity
8
0
100
AcDbPolyline
90
4
70
1
43
0.0
10
305.61095553229882
20
-66.693498552008421
10
291.61095553229865
20
-66.693498552008421
10
291.61095553229865
20
-52.693498552009217
10
305.61095553229882
20
-52.693498552009217
0
LWPOLYLINE
5
176
100
AcDbEntity
8
0
100
AcDbPolyline
90
4
70
1
43
0.0
10
253.51095553229928
20
-104.79349855200816
10
253.51095553229928
20
-90.793498552008955
10
267.51095553229953
20
-90.793498552008955
10
267.51095553229953
20
-104.79349855200816
0
SPLINE
5
177
100
AcDbEntity
8
0
100
AcDbSpline
70
0
71
3
72
11
73
7
74
0
42
0.000000001
43
0.0000000001
44
0.0000000001
40
18
40
18
40
18
40
18
40
19
40
19
40
19
40
20
40
20
40
20
40
20
10
226.62230554060159
20
-109.05027217939571
30
0
10
226.10043610107908
20
-109.05011271662936
30
0
10
225.67734183526051
20
-108.62723632363604
30
0
10
225.67691356611988
20
-108.1053670354794
30
0
10
225.67648495569608
20
-107.58308187552075
30
0
10
226.0995332757868
20
-107.15933864063034
30
0
10
226.62181843574581
20
-107.15891003020658
30
0
0
SPLINE
5
178
100
AcDbEntity
8
0
100
AcDbSpline
70
0
71
3
72
10
73
6
74
0
42
0.000000001
43
0.0000000001
44
0.0000000001
40
1
40
1
40
1
40
1
40
2
40
2
40
3
40
3
40
3
40
3
10
221.86088053230174
20
-34.189584040564455
30
0
10
221.86088053325491
20
-33.88582742815791
30
0
10
222.10712392334668
20
-33.639584042110442
30
0
10
222.71463714816051
20
-33.63958404592406
30
0
10
222.9608805342076
20
-33.885827435062588
30
0
10
222.96088053230108
20
-34.189584047469133
30
0
0
SPLINE
5
179
100
AcDbEntity
8
0
100
AcDbSpline
70
0
71
3
72
10
73
6
74
0
42
0.000000001
43
0.0000000001
44
0.0000000001
40
6
40
6
40
6
40
6
40
7
40
7
40
8
40
8
40
8
40
8
10
64.690549951571683
20
-72.275001243254479
30
0
10
64.690549952524918
20
-71.971244630847934
30
0
10
64.936793342616994
20
-71.725001244800467
30
0
10
65.544306567430652
20
-71.725001248613438
30
0
10
65.790549953478177
20
-71.97124463775198
30
0
10
65.790549951571791
20
-72.27500125015915
30
0
0
LINE
5
180
100
AcDbEntity
8
0
100
AcDbLine
10
122.95117343715401
20
-72.289142648814874
30
0
11
122.95117343715401
21
-85.189142641909683
31
0
0
LWPOLYLINE
5
181
100
AcDbEntity
8
0
100
AcDbPolyline
90
4
70
1
43
0.0
10
46.053805532299137
20
-90.803199044015173
10
46.053805532299137
20
-104.80319904401441
10
32.053805532299151
20
-104.80319904401441
10
32.053805532299151
20
-90.803199044015173
0
SPLINE
5
182
100
AcDbEntity
8
0
100
AcDbSpline
70
0
71
3
72
11
73
7
74
0
42
0.000000001
43
0.0000000001
44
0.0000000001
40
0
40
0
40
0
40
0
40
1
40
1
40
1
40
2
40
2
40
2
40
2
10
133.32988556518757
20
-30.471430039841746
30
0
10
133.68887051044317
20
-30.471432552824382
30
0
10
133.97988332701283
20
-30.762449280771026
30
0
10
133.97988101506698
20
-31.121434226027858
30
0
10
133.97987870312008
20
-31.48041931343964
30
0
10
133.6888619162896
20
-31.771432351864497
30
0
10
133.32987682887764
20
-31.771430039917835
30
0
0
LWPOLYLINE
5
183
100
AcDbEntity
8
0
100
AcDbPolyline
90
4
70
1
43
0.0
10
272.5636152420426
20
-71.7391458857484
10
286.56361524204243
20
-71.7391458857484
10
286.56361524204277
20
-85.739145885747604
10
272.5636152420426
20
-85.739145885747604
0
SPLINE
5
184
100
AcDbEntity
8
0
100
AcDbSpline
70
0
71
3
72
11
73
7
74
0
42
0.000000001
43
0.0000000001
44
0.0000000001
40
3
40
3
40
3
40
3
40
4
40
4
40
4
40
5
40
5
40
5
40
5
10
129.62670344833009
20
-68.55208506533549
30
0
10
129.26771836091987
20
-68.552087577281142
30
0
10
128.97670548462767
20
-68.843104526241774
30
0
10
128.9767079965734
20
-69.202089613652262
30
0
10
128.97671050851798
20
-69.56107455744025
30
0
10
129.26772723333247
20
-69.852087374243439
30
0
10
129.62671217712182
20
-69.852085065411572
30
0
0
LINE
5
185
100
AcDbEntity
8
0
100
AcDbLine
10
239.47286524206851
20
-84.939141856903035
30
0
11
239.47286524206851
21
-72.539143433820882
31
0
0
LWPOLYLINE
5
186
100
AcDbEntity
8
0
100
AcDbPolyline
90
4
70
1
43
0.0
10
67.776144339611648
20
-85.73914588575019
10
67.776144339611648
20
-71.739145885750972
10
81.776144339611605
20
-71.739145885750972
10
81.776144339611605
20
-85.73914588575019
0
SPLINE
5
187
100
AcDbEntity
8
0
100
AcDbSpline
70
0
71
3
72
11
73
7
74
0
42
0.000000001
43
0.0000000001
44
0.0000000001
40
116
40
116
40
116
40
116
40
117
40
117
40
117
40
118
40
118
40
118
40
118
10
73.051596546153448
20
-109.05027215732511
30
0
10
72.499311805425677
20
-109.05035402852721
30
0
10
72.051662932358482
20
-109.49813564103945
30
0
10
72.051744803560638
20
-110.05042038176725
30
0
10
72.051826666181597
20
-110.60264723384742
30
0
10
72.499517934424134
20
-111.05027213838162
30
0
10
73.051744792571782
20
-111.05027213534765
30
0
0
LINE
5
188
100
AcDbEntity
8
0
100
AcDbLine
10
221.86088053230174
20
-47.089584040564588
30
0
11
221.86088053230174
21
-34.189584047469133
31
0
0
LWPOLYLINE
5
189
100
AcDbEntity
8
0
100
AcDbPolyline
90
4
70
1
43
0.0
10
257.98588053230151
20
-33.639584044016935
10
257.98588053230151
20
-47.639584044016139
10
243.98588053230156
20
-47.639584044016139
10
243.98588053230156
20
-33.639584044016935
0
LINE
5
190
100
AcDbEntity
8
0
100
AcDbLine
10
65.79054995157324
20
-83.347025440497788
30
0
11
65.790549951572004
21
-85.175001243254627
31
0
0
CIRCLE
5
191
100
AcDbEntity
8
0
100
AcDbCircle
10
289.08574719904686
20
-69.20192600193954
30
0
40
1.9999999999999898
210
0
220
0
230
1
0
SPLINE
5
192
100
AcDbEntity
8
0
100
AcDbSpline
70
0
71
3
72
10
73
6
74
0
42
0.000000001
43
0.0000000001
44
0.0000000001
40
6
40
6
40
6
40
6
40
7
40
7
40
8
40
8
40
8
40
8
10
131.3733805323005
20
-53.239584040562718
30
0
10
131.37338053325405
20
-52.935827428155534
30
0
10
131.61962392334641
20
-52.689584042108713
30
0
10
132.2271371481599
20
-52.68958404592297
30
0
10
132.47338053420697
20
-52.935827435061498
30
0
10
132.47338053229993
20
-53.239584047468682
30
0
0
SPLINE
5
193
100
AcDbEntity
8
0
100
AcDbSpline
70
0
71
3
72
11
73
7
74
0
42
0.000000001
43
0.0000000001
44
0.0000000001
40
0
40
0
40
0
40
0
40
1
40
1
40
1
40
2
40
2
40
2
40
2
10
289.790338634259
20
-61.553115156434366
30
0
10
289.79009349112681
20
-61.9119275524098
30
0
10
289.49914923332807
20
-62.202672227847472
30
0
10
289.14033675361247
20
-62.20267114785451
30
0
10
288.78135162430226
20
-62.20267006734241
30
0
10
288.4903375536374
20
-61.911654244820284
30
0
10
288.49033863415013
20
-61.552669115510042
30
0
0
SPLINE
5
194
100
AcDbEntity
8
0
100
AcDbSpline
70
0
71
3
72
10
73
6
74
0
42
0.000000001
43
0.0000000001
44
0.0000000001
40
6
40
6
40
6
40
6
40
7
40
7
40
8
40
8
40
8
40
8
10
240.91088053230192
20
-34.189584040563169
30
0
10
240.91088053325529
20
-33.885827428156624
30
0
10
241.15712392334757
20
-33.639584042109803
30
0
10
241.76463714816128
20
-33.639584045923421
30
0
10
242.01088053420807
20
-33.885827435062588
30
0
10
242.01088053230131
20
-34.189584047469133
30
0
0
SPLINE
5
195
100
AcDbEntity
8
0
100
AcDbSpline
70
0
71
3
72
10
73
6
74
0
42
0.000000001
43
0.0000000001
44
0.0000000001
40
1
40
1
40
1
40
1
40
2
40
2
40
3
40
3
40
3
40
3
10
112.32338053230026
20
-53.239584040561425
30
0
10
112.32338053325395
20
-52.935827428154894
30
0
10
112.56962392334688
20
-52.689584042108066
30
0
10
113.17713714816034
20
-52.689584045922331
30
0
10
113.42338053420704
20
-52.935827435061498
30
0
10
113.42338053229994
20
-53.239584047468682
30
0
0
LINE
5
196
100
AcDbEntity
8
0
100
AcDbLine
10
242.01088053230131
20
-34.189584047469133
30
0
11
242.01088053230131
21
-47.089584040564588
31
0
0
CIRCLE
5
197
100
AcDbEntity
8
0
100
AcDbCircle
10
28.338705532298505
20
-69.201895487274044
30
0
40
2.0000000000000702
210
0
220
0
230
1
0
LWPOLYLINE
5
198
100
AcDbEntity
8
0
100
AcDbPolyline
90
4
70
1
43
0.0
10
134.16118053229781
20
-14.603284044030021
10
134.16118053229781
20
-28.60328404402987
10
120.16118053229764
20
-28.60328404402987
10
120.16118053229764
20
-14.603284044030021
0
LINE
5
199
100
AcDbEntity
8
0
100
AcDbLine
10
238.42629510094093
20
-109.05027215743999
30
0
11
226.62230554060159
21
-109.05027217939571
31
0
0
SPLINE
5
200
100
AcDbEntity
8
0
100
AcDbSpline
70
0
71
3
72
17
73
13
74
0
42
0.000000001
43
0.0000000001
44
0.0000000001
40
0
40
0
40
0
40
0
40
1
40
1
40
1
40
2
40
2
40
2
40
3
40
3
40
3
40
4
40
4
40
4
40
4
10
64.69054995157137
20
-83.341695585348702
30
0
10
64.69054995157137
20
-82.977910801426887
30
0
10
64.502250028906303
20
-82.640045853834437
30
0
10
64.192858520289278
20
-82.44869208875933
30
0
10
63.929167333025525
20
-82.285603251171295
30
0
10
63.707004638120388
20
-82.063440556266144
30
0
10
63.543915800532353
20
-81.799749369002058
30
0
10
62.962903229668683
20
-80.860335630503357
30
0
10
63.253444781789874
20
-79.627786577376582
30
0
10
64.192858520288993
20
-79.046774006513232
30
0
10
64.502250028905934
20
-78.855420241438139
30
0
10
64.69054995157137
20
-78.517555293845035
30
0
10
64.69054995157137
20
-78.153770509923845
30
0
0
SPLINE
5
201
100
AcDbEntity
8
0
100
AcDbSpline
70
0
71
3
72
17
73
13
74
0
42
0.000000001
43
0.0000000001
44
0.0000000001
40
0
40
0
40
0
40
0
40
1
40
1
40
1
40
2
40
2
40
2
40
3
40
3
40
3
40
4
40
4
40
4
40
4
10
265.33654995135061
20
-83.341695585348077
30
0
10
265.33654995135061
20
-82.977910801426887
30
0
10
265.14825002868548
20
-82.640045853834437
30
0
10
264.83885852006847
20
-82.44869208875933
30
0
10
264.57516733280505
20
-82.285603251171295
30
0
10
264.3530046379002
20
-82.063440556266144
30
0
10
264.18991580031189
20
-81.799749369002711
30
0
10
263.60890322944817
20
-80.860335630503997
30
0
10
263.89944478156917
20
-79.627786577377222
30
0
10
264.83885852006824
20
-79.046774006513232
30
0
10
265.1482500286852
20
-78.855420241438139
30
0
10
265.33654995135061
20
-78.517555293845035
30
0
10
265.33654995135089
20
-78.153770509923845
30
0
0
SPLINE
5
202
100
AcDbEntity
8
0
100
AcDbSpline
70
0
71
3
72
10
73
6
74
0
42
0.000000001
43
0.0000000001
44
0.0000000001
40
5
40
5
40
5
40
5
40
6
40
6
40
7
40
7
40
7
40
7
10
6.2599211085923656
20
-66.164584047469532
30
0
10
6.2599211076386041
20
-66.468340659876731
30
0
10
6.0136777175457468
20
-66.714584045923544
30
0
10
5.4061644927316621
20
-66.714584042109294
30
0
10
5.1599211066848483
20
-66.468340652969459
30
0
10
5.159921108592016
20
-66.164584040562943
30
0
0
SPLINE
5
203
100
AcDbEntity
8
0
100
AcDbSpline
70
0
71
3
72
11
73
7
74
0
42
0.000000001
43
0.0000000001
44
0.0000000001
40
4
40
4
40
4
40
4
40
5
40
5
40
5
40
6
40
6
40
6
40
6
10
257.43328496523509
20
-50.826531471953032
30
0
10
257.79227005269598
20
-50.826528915313048
30
0
10
258.08328289279729
20
-50.53551193007975
30
0
10
258.08328033615732
20
-50.17652684261855
30
0
10
258.08327778271718
20
-49.817991032219965
30
0
10
257.79296161606459
20
-49.527164623021214
30
0
10
257.43442636292741
20
-49.526532481970911
30
0
0
SPLINE
5
204
100
AcDbEntity
8
0
100
AcDbSpline
70
0
71
3
72
10
73
6
74
0
42
0.000000001
43
0.0000000001
44
0.0000000001
40
5
40
5
40
5
40
5
40
6
40
6
40
7
40
7
40
7
40
7
10
239.46976851773121
20
-91.60319668766104
30
0
10
239.46976941987361
20
-91.161368887796357
30
0
10
239.8279422902724
20
-90.803197391651054
30
0
10
240.71159789000191
20
-90.80319912848266
30
0
10
241.06976938614707
20
-91.161372032607972
30
0
10
241.06976851773163
20
-91.603199832472754
30
0
0
SPLINE
5
205
100
AcDbEntity
8
0
100
AcDbSpline
70
0
71
3
72
10
73
6
74
0
42
0.000000001
43
0.0000000001
44
0.0000000001
40
1
40
1
40
1
40
1
40
2
40
2
40
3
40
3
40
3
40
3
10
83.751173437154307
20
-72.28914264190891
30
0
10
83.751173438107855
20
-71.985386029501711
30
0
10
83.997416828200187
20
-71.739142643454898
30
0
10
84.604930053013874
20
-71.739142647269162
30
0
10
84.851173439061114
20
-71.985386036407689
30
0
10
84.851173437153875
20
-72.289142648814874
30
0
0
LWPOLYLINE
5
206
100
AcDbEntity
8
0
100
AcDbPolyline
90
4
70
1
43
0.0
10
87.80313467370739
20
-104.80341600396568
10
80.803084574979493
20
-104.80341600396568
10
80.803084574979138
20
-88.449417809583537
10
87.80313467370739
20
-88.449417809583537
0
SPLINE
5
207
100
AcDbEntity
8
0
100
AcDbSpline
70
0
71
3
72
10
73
6
74
0
42
0.000000001
43
0.0000000001
44
0.0000000001
40
15
40
15
40
15
40
15
40
16
40
16
40
17
40
17
40
17
40
17
10
266.43654995135125
20
-85.175001250159937
30
0
10
266.43654995039765
20
-85.478757862566482
30
0
10
266.19030656030526
20
-85.72500124861395
30
0
10
265.5827933354912
20
-85.725001244800325
30
0
10
265.33654994944368
20
-85.478757855661172
30
0
10
265.33654995135089
20
-85.175001243253973
30
0
0
LWPOLYLINE
5
208
100
AcDbEntity
8
0
100
AcDbPolyline
90
4
70
1
43
0.0
10
291.61095553229865
20
-71.743498552009399
10
305.61095553229882
20
-71.743498552009399
10
305.61095553229882
20
-85.743498552007964
10
291.61095553229865
20
-85.743498552007964
0
SPLINE
5
209
100
AcDbEntity
8
0
100
AcDbSpline
70
0
71
3
72
11
73
7
74
0
42
0.000000001
43
0.0000000001
44
0.0000000001
40
67
40
67
40
67
40
67
40
68
40
68
40
68
40
69
40
69
40
69
40
69
10
137.98939479454037
20
-8.3574662551106407
30
0
10
137.4371100477469
20
-8.3574662520741185
30
0
10
136.98939479757809
20
-8.8051814973194489
30
0
10
136.98939479454157
20
-9.3574662441126009
30
0
10
136.98939479150508
20
-9.9096930761313153
30
0
10
137.43701965526409
20
-10.357384333548712
30
0
10
137.98924648120942
20
-10.357466233113911
30
0
0
SPLINE
5
210
100
AcDbEntity
8
0
100
AcDbSpline
70
0
71
3
72
10
73
6
74
0
42
0.000000001
43
0.0000000001
44
0.0000000001
40
6
40
6
40
6
40
6
40
7
40
7
40
8
40
8
40
8
40
8
10
140.90111524206858
20
-72.289142641908271
30
0
10
140.90111524302213
20
-71.985386029501711
30
0
10
141.14735863311455
20
-71.739142643454898
30
0
10
141.75487185792801
20
-71.739142647269162
30
0
10
142.00111524397511
20
-71.985386036407689
30
0
10
142.00111524206795
20
-72.289142648814874
30
0
0
LINE
5
211
100
AcDbEntity
8
0
100
AcDbLine
10
241.06976851773163
20
-91.603199832472754
30
0
11
241.06976851773163
21
-104.00319825555488
31
0
0
LWPOLYLINE
5
212
100
AcDbEntity
8
0
100
AcDbPolyline
90
4
70
1
43
0.0
10
124.63588053230012
20
-33.639584044016935
10
124.63588053230012
20
-47.639584044016139
10
110.63588053230028
20
-47.639584044016139
10
110.63588053230028
20
-33.639584044016935
0
LWPOLYLINE
5
213
100
AcDbEntity
8
0
100
AcDbPolyline
90
4
70
1
43
0.0
10
53.198380532300398
20
-66.689584044015703
10
39.198380532300163
20
-66.689584044015703
10
39.198380532300163
20
-52.689584044016478
10
53.198380532300398
20
-52.689584044016478
0
SPLINE
5
214
100
AcDbEntity
8
0
100
AcDbSpline
70
0
71
3
72
10
73
6
74
0
42
0.000000001
43
0.0000000001
44
0.0000000001
40
2
40
2
40
2
40
2
40
3
40
3
40
4
40
4
40
4
40
4
10
94.373380532300473
20
-66.139584047469455
30
0
10
94.373380531346882
20
-66.443340659876654
30
0
10
94.127137141254053
20
-66.689584045923468
30
0
10
93.519623916440082
20
-66.689584042109203
30
0
10
93.27338053039287
20
-66.443340652970036
30
0
10
93.273380532300081
20
-66.139584040563491
30
0
0
SPLINE
5
215
100
AcDbEntity
8
0
100
AcDbSpline
70
0
71
3
72
10
73
6
74
0
42
0.000000001
43
0.0000000001
44
0.0000000001
40
6
40
6
40
6
40
6
40
7
40
7
40
8
40
8
40
8
40
8
10
102.80111524206919
20
-72.28914264190891
30
0
10
102.80111524302274
20
-71.985386029501711
30
0
10
103.04735863311521
20
-71.739142643454898
30
0
10
103.65487185792851
20
-71.739142647269162
30
0
10
103.90111524397565
20
-71.985386036407689
30
0
10
103.90111524206858
20
-72.289142648814874
30
0
0
LINE
5
216
100
AcDbEntity
8
0
100
AcDbLine
10
240.9108805323022
20
-47.089584040564588
30
0
11
240.91088053230158
21
-34.189584047469133
31
0
0
LINE
5
217
100
AcDbEntity
8
0
100
AcDbLine
10
17.918715956129532
20
-109.05027217555386
30
0
11
8.1140947906296645
21
-109.05027213530008
31
0
0
LWPOLYLINE
5
218
100
AcDbEntity
8
0
100
AcDbPolyline
90
4
70
1
43
0.0
10
48.435880532300644
20
-47.639584044016779
10
34.435880532300445
20
-47.639584044016779
10
34.435880532300445
20
-33.639584044017575
10
48.435880532300644
20
-33.639584044017575
0
LWPOLYLINE
5
219
100
AcDbEntity
8
0
100
AcDbPolyline
90
4
70
1
43
0.0
10
31.773580514207822
20
-71.739153889883184
10
31.773580514207822
20
-85.739153889882402
10
17.773580514207836
20
-85.739153889882402
10
17.773580514207836
20
-71.739153889883184
0
SPLINE
5
220
100
AcDbEntity
8
0
100
AcDbSpline
70
0
71
3
72
11
73
7
74
0
42
0.000000001
43
0.0000000001
44
0.0000000001
40
15
40
15
40
15
40
15
40
16
40
16
40
16
40
17
40
17
40
17
40
17
10
238.42614698091438
20
-111.05027213550036
30
0
10
238.97843172771587
20
-111.05027213852919
30
0
10
239.42614697788429
20
-110.60255689327101
30
0
10
239.42614698091319
20
-110.05027214646951
30
0
10
239.42614698394129
20
-109.49804523896647
30
0
10
238.9785220023866
20
-109.05035395027653
30
0
10
238.42629510094093
20
-109.05027215743999
30
0
0
SPLINE
5
221
100
AcDbEntity
8
0
100
AcDbSpline
70
0
71
3
72
10
73
6
74
0
42
0.000000001
43
0.0000000001
44
0.0000000001
40
2
40
2
40
2
40
2
40
3
40
3
40
4
40
4
40
4
40
4
10
127.7108805323001
20
-47.089584047469259
30
0
10
127.71088053134669
20
-47.393340659876451
30
0
10
127.46463714125451
20
-47.639584045923911
30
0
10
126.85712391644039
20
-47.639584042110286
30
0
10
126.61088053039296
20
-47.393340652971133
30
0
10
126.61088053229977
20
-47.089584040564588
30
0
0
LINE
5
222
100
AcDbEntity
8
0
100
AcDbLine
10
241.07286524206921
20
-72.539143433820882
30
0
11
241.07286524206893
21
-84.939141856903035
31
0
0
LINE
5
223
100
AcDbEntity
8
0
100
AcDbLine
10
289.79033739463182
20
-104.1599547224607
30
0
11
289.79033857289812
21
-76.858123552944591
31
0
0
LINE
5
224
100
AcDbEntity
8
0
100
AcDbLine
10
142.00111524206795
20
-72.289142648814874
30
0
11
142.00111524206795
21
-85.189142641909683
31
0
0
SPLINE
5
225
100
AcDbEntity
8
0
100
AcDbSpline
70
0
71
3
72
10
73
6
74
0
42
0.000000001
43
0.0000000001
44
0.0000000001
40
2
40
2
40
2
40
2
40
3
40
3
40
4
40
4
40
4
40
4
10
218.20111524206965
20
-85.189142648815022
30
0
10
218.20111524111627
20
-85.492899261222206
30
0
10
217.95487185102411
20
-85.739142647269659
30
0
10
217.34735862621
20
-85.739142643456034
30
0
10
217.10111524016247
20
-85.492899254316868
30
0
10
217.10111524206937
20
-85.189142641909683
30
0
0
SPLINE
5
226
100
AcDbEntity
8
0
100
AcDbSpline
70
0
71
3
72
10
73
6
74
0
42
0.000000001
43
0.0000000001
44
0.0000000001
40
2
40
2
40
2
40
2
40
3
40
3
40
4
40
4
40
4
40
4
10
208.67338053230159
20
-66.139584047469455
30
0
10
208.67338053134804
20
-66.443340659876
30
0
10
208.42713714125529
20
-66.689584045923468
30
0
10
207.8196239164416
20
-66.689584042109203
30
0
10
207.57338053039436
20
-66.443340652970036
30
0
10
207.5733805323016
20
-66.139584040563491
30
0
0
SPLINE
5
227
100
AcDbEntity
8
0
100
AcDbSpline
70
0
71
3
72
11
73
7
74
0
42
0.000000001
43
0.0000000001
44
0.0000000001
40
9
40
9
40
9
40
9
40
10
40
10
40
10
40
11
40
11
40
11
40
11
10
214.73190635423549
20
-107.15891012892941
30
0
10
215.25381524429136
20
-107.15928220077934
30
0
10
215.67675357710542
20
-107.58239265256873
30
0
10
215.67691329611091
20
-108.10430165081122
30
0
10
215.67707313026438
20
-108.62658691338397
30
0
10
215.25380684077106
20
-109.05011234524153
30
0
10
214.73152157819834
20
-109.05027217939507
30
0
0
SPLINE
5
228
100
AcDbEntity
8
0
100
AcDbSpline
70
0
71
3
72
10
73
6
74
0
42
0.000000001
43
0.0000000001
44
0.0000000001
40
1
40
1
40
1
40
1
40
2
40
2
40
3
40
3
40
3
40
3
10
198.05117343715352
20
-72.289142641910189
30
0
10
198.05117343810693
20
-71.985386029503005
30
0
10
198.29741682819906
20
-71.739142643455551
30
0
10
198.90493005301292
20
-71.739142647269162
30
0
10
199.1511734390603
20
-71.985386036407689
30
0
10
199.15117343715349
20
-72.289142648814874
30
0
0
LINE
5
229
100
AcDbEntity
8
0
100
AcDbLine
10
199.15117343715349
20
-72.289142648814874
30
0
11
199.15117343715383
21
-85.189142641909683
31
0
0
LINE
5
230
100
AcDbEntity
8
0
100
AcDbLine
10
214.73152157819834
20
-109.05027217939507
30
0
11
202.92676543805069
21
-109.05027215743613
31
0
0
LINE
5
231
100
AcDbEntity
8
0
100
AcDbLine
10
218.20111524206965
20
-72.289142648814874
30
0
11
218.20111524206965
21
-85.189142641909683
31
0
0
LWPOLYLINE
5
232
100
AcDbEntity
8
0
100
AcDbPolyline
90
4
70
1
43
0.0
10
187.80320132155919
20
-88.449417809583537
10
187.8032013215595
20
-104.80341600396568
10
180.80315122283116
20
-104.80341600396568
10
180.80315122283116
20
-88.449417809583537
0
SPLINE
5
233
100
AcDbEntity
8
0
100
AcDbSpline
70
0
71
3
72
17
73
13
74
0
42
0.000000001
43
0.0000000001
44
0.0000000001
40
9
40
9
40
9
40
9
40
10
40
10
40
10
40
11
40
11
40
11
40
12
40
12
40
12
40
13
40
13
40
13
40
13
10
151.51281524187797
20
-59.098882053427303
30
0
10
151.51281524187797
20
-59.463911733753193
30
0
10
151.70239631182818
20
-59.80274704924053
30
0
10
152.01348446633278
20
-59.993720418183393
30
0
10
152.28155458251396
20
-60.158285518007766
30
0
10
152.5070290602431
20
-60.383759995736533
30
0
10
152.67159416006706
20
-60.651830111917775
30
0
10
153.24947417901279
20
-61.593174078428717
30
0
10
152.95482843284367
20
-62.824748455451136
30
0
10
152.01348446633247
20
-63.402628474396785
30
0
10
151.70239631182849
20
-63.593601843340281
30
0
10
151.51281524187868
20
-63.932437158826986
30
0
10
151.51281524187868
20
-64.29746683915161
30
0
0
LWPOLYLINE
5
234
100
AcDbEntity
8
0
100
AcDbPolyline
90
4
70
1
43
0.0
10
143.97614433961155
20
-71.739145885750972
10
157.97614433961141
20
-71.739145885750972
10
157.97614433961141
20
-85.739145885749537
10
143.97614433961155
20
-85.739145885749537
0
SPLINE
5
235
100
AcDbEntity
8
0
100
AcDbSpline
70
0
71
3
72
10
73
6
74
0
42
0.000000001
43
0.0000000001
44
0.0000000001
40
6
40
6
40
6
40
6
40
7
40
7
40
8
40
8
40
8
40
8
10
179.00111524206898
20
-72.28914264190955
30
0
10
179.00111524302241
20
-71.985386029503005
30
0
10
179.24735863311469
20
-71.739142643455551
30
0
10
179.85487185792866
20
-71.739142647268523
30
0
10
180.1011152439761
20
-71.985386036407689
30
0
10
180.10111524206931
20
-72.289142648814874
30
0
0
LWPOLYLINE
5
236
100
AcDbEntity
8
0
100
AcDbPolyline
90
4
70
1
43
0.0
10
163.02614433961168
20
-71.739145885750972
10
177.02614433961159
20
-71.739145885750972
10
177.02614433961159
20
-85.739145885749537
10
163.02614433961168
20
-85.739145885749537
0
SPLINE
5
237
100
AcDbEntity
8
0
100
AcDbSpline
70
0
71
3
72
17
73
13
74
0
42
0.000000001
43
0.0000000001
44
0.0000000001
40
0
40
0
40
0
40
0
40
1
40
1
40
1
40
2
40
2
40
2
40
3
40
3
40
3
40
4
40
4
40
4
40
4
10
150.4128152418771
20
-64.292136984002539
30
0
10
150.4128152418771
20
-63.928352200080703
30
0
10
150.224515319212
20
-63.590487252488224
30
0
10
149.91512381059499
20
-63.399133487413131
30
0
10
149.65143262333146
20
-63.236044649825104
30
0
10
149.42926992842641
20
-63.013881954919938
30
0
10
149.26618109083833
20
-62.75019076765652
30
0
10
148.68516851997441
20
-61.810777029157805
30
0
10
148.97571007209561
20
-60.57822797603103
30
0
10
149.91512381059459
20
-59.99721540516704
30
0
10
150.22451531921166
20
-59.805861640091948
30
0
10
150.4128152418771
20
-59.467996692499476
30
0
10
150.4128152418771
20
-59.104211908577646
30
0
0
SPLINE
5
238
100
AcDbEntity
8
0
100
AcDbSpline
70
0
71
3
72
10
73
6
74
0
42
0.000000001
43
0.0000000001
44
0.0000000001
40
15
40
15
40
15
40
15
40
16
40
16
40
17
40
17
40
17
40
17
10
151.51281524187738
20
-66.125442648813092
30
0
10
151.51281524092414
20
-66.429199261220276
30
0
10
151.26657185083207
20
-66.675442647267744
30
0
10
150.65905862601795
20
-66.675442643454133
30
0
10
150.41281523997083
20
-66.429199254314966
30
0
10
150.41281524187767
20
-66.125442641908421
30
0
0
LWPOLYLINE
5
239
100
AcDbEntity
8
0
100
AcDbPolyline
90
4
70
1
43
0.0
10
167.49838053230062
20
-66.689584044015049
10
153.49838053230042
20
-66.689584044015049
10
153.49838053230042
20
-52.689584044016478
10
167.49838053230062
20
-52.689584044016478
0
SPLINE
5
240
100
AcDbEntity
8
0
100
AcDbSpline
70
0
71
3
72
10
73
6
74
0
42
0.000000001
43
0.0000000001
44
0.0000000001
40
1
40
1
40
1
40
1
40
2
40
2
40
3
40
3
40
3
40
3
10
159.95117343715498
20
-72.28914264190891
30
0
10
159.95117343810841
20
-71.985386029502365
30
0
10
160.19741682820057
20
-71.739142643454898
30
0
10
160.80493005301437
20
-71.739142647269162
30
0
10
161.05117343906147
20
-71.985386036407689
30
0
10
161.05117343715466
20
-72.289142648814874
30
0
0
SPLINE
5
241
100
AcDbEntity
8
0
100
AcDbSpline
70
0
71
3
72
10
73
6
74
0
42
0.000000001
43
0.0000000001
44
0.0000000001
40
2
40
2
40
2
40
2
40
3
40
3
40
4
40
4
40
4
40
4
10
170.57338053230026
20
-66.139584047469455
30
0
10
170.57338053134686
20
-66.443340659876
30
0
10
170.32713714125458
20
-66.689584045922828
30
0
10
169.71962391644115
20
-66.689584042109203
30
0
10
169.47338053039437
20
-66.443340652970036
30
0
10
169.47338053230115
20
-66.139584040563491
30
0
0
LINE
5
242
100
AcDbEntity
8
0
100
AcDbLine
10
151.51281524187868
20
-64.29746683915161
30
0
11
151.51281524187738
21
-66.125442641908421
31
0
0
SPLINE
5
243
100
AcDbEntity
8
0
100
AcDbSpline
70
0
71
3
72
11
73
7
74
0
42
0.000000001
43
0.0000000001
44
0.0000000001
40
125
40
125
40
125
40
125
40
126
40
126
40
126
40
127
40
127
40
127
40
127
10
149.79442965118696
20
-107.15891019067115
30
0
10
150.31632219191692
20
-107.15930544676276
30
0
10
150.73923495521282
20
-107.58240922311168
30
0
10
150.73939454617332
20
-108.10430188911448
30
0
10
150.73955425718438
20
-108.62658714315972
30
0
10
150.316287874778
20
-109.05011246827834
30
0
10
149.79400262073241
20
-109.05027217928919
30
0
0
SPLINE
5
244
100
AcDbEntity
8
0
100
AcDbSpline
70
0
71
3
72
11
73
7
74
0
42
0.000000001
43
0.0000000001
44
0.0000000001
40
6
40
6
40
6
40
6
40
7
40
7
40
7
40
8
40
8
40
8
40
8
10
161.68478699831468
20
-109.05027217928983
30
0
10
161.16293276870209
20
-109.05011284377238
30
0
10
160.73984471450299
20
-108.62726026825968
30
0
10
160.73939484907217
20
-108.10540620822636
30
0
10
160.73894461203332
20
-107.58312107445413
30
0
10
161.1619753790599
20
-107.15936032895672
30
0
10
161.6842605128322
20
-107.15891009191814
30
0
0
SPLINE
5
245
100
AcDbEntity
8
0
100
AcDbSpline
70
0
71
3
72
11
73
7
74
0
42
0.000000001
43
0.0000000001
44
0.0000000001
40
0
40
0
40
0
40
0
40
1
40
1
40
1
40
2
40
2
40
2
40
2
10
182.8917121770277
20
-69.852089069555191
30
0
10
183.25069726443817
20
-69.852086557609539
30
0
10
183.54171014073071
20
-69.561069608648907
30
0
10
183.5417076287851
20
-69.202084521238419
30
0
10
183.54170511684072
20
-68.843099577450431
30
0
10
183.25068839202589
20
-68.552086760646603
30
0
10
182.89170344823631
20
-68.552089069478455
30
0
0
SPLINE
5
246
100
AcDbEntity
8
0
100
AcDbSpline
70
0
71
3
72
11
73
7
74
0
42
0.000000001
43
0.0000000001
44
0.0000000001
40
3
40
3
40
3
40
3
40
4
40
4
40
4
40
5
40
5
40
5
40
5
10
173.48862823091457
20
-111.05027213530013
30
0
10
174.04091297770648
20
-111.05027213833793
30
0
10
174.48862822787518
20
-110.60255689309456
30
0
10
174.48862823091306
20
-110.05027214630269
30
0
10
174.48862823395089
20
-109.49804532722962
30
0
10
174.04100339039383
20
-109.05035407517553
30
0
10
173.48877657739666
20
-109.05027215730652
30
0
0
LINE
5
247
100
AcDbEntity
8
0
100
AcDbLine
10
150.41281524187767
20
-66.125442641908421
30
0
11
150.4128152418771
21
-64.292136984002539
31
0
0
SPLINE
5
248
100
AcDbEntity
8
0
100
AcDbSpline
70
0
71
3
72
10
73
6
74
0
42
0.000000001
43
0.0000000001
44
0.0000000001
40
5
40
5
40
5
40
5
40
6
40
6
40
7
40
7
40
7
40
7
10
161.05117343715435
20
-85.189142648815022
30
0
10
161.05117343620097
20
-85.492899261222206
30
0
10
160.80493004610869
20
-85.739142647269659
30
0
10
160.19741682129438
20
-85.739142643456034
30
0
10
159.9511734352472
20
-85.492899254316868
30
0
10
159.95117343715401
20
-85.189142641909683
30
0
0
LINE
5
249
100
AcDbEntity
8
0
100
AcDbLine
10
56.273380532299981
20
-53.239584047468682
30
0
11
56.273380532299981
21
-66.139584040563491
31
0
0
LINE
5
250
100
AcDbEntity
8
0
100
AcDbLine
10
28.977130532298858
20
-66.139584040562852
30
0
11
28.977130532299853
21
-53.239584047468682
31
0
0
SPLINE
5
251
100
AcDbEntity
8
0
100
AcDbSpline
70
0
71
3
72
10
73
6
74
0
42
0.000000001
43
0.0000000001
44
0.0000000001
40
2
40
2
40
2
40
2
40
3
40
3
40
4
40
4
40
4
40
4
10
56.273380532299981
20
-66.139584047470109
30
0
10
56.273380531346433
20
-66.443340659877293
30
0
10
56.027137141253363
20
-66.689584045924107
30
0
10
55.419623916439349
20
-66.689584042109843
30
0
10
55.173380530392571
20
-66.443340652970036
30
0
10
55.173380532299667
20
-66.139584040563491
30
0
0
LINE
5
252
100
AcDbEntity
8
0
100
AcDbLine
10
93.273380532300081
20
-66.139584040563491
30
0
11
93.273380532301076
21
-53.239584047468682
31
0
0
SPLINE
5
253
100
AcDbEntity
8
0
100
AcDbSpline
70
0
71
3
72
10
73
6
74
0
42
0.000000001
43
0.0000000001
44
0.0000000001
40
2
40
2
40
2
40
2
40
3
40
3
40
4
40
4
40
4
40
4
10
142.00111524206795
20
-85.189142648815661
30
0
10
142.00111524111458
20
-85.492899261222206
30
0
10
141.75487185102227
20
-85.73914264726902
30
0
10
141.1473586262089
20
-85.739142643455395
30
0
10
140.90111524016208
20
-85.492899254316228
30
0
10
140.9011152420689
20
-85.189142641909683
30
0
0
LINE
5
254
100
AcDbEntity
8
0
100
AcDbLine
10
94.373380532300473
20
-53.239584047468682
30
0
11
94.373380532300473
21
-66.139584040563491
31
0
0
LINE
5
255
100
AcDbEntity
8
0
100
AcDbLine
10
75.323380532300632
20
-53.239584047468682
30
0
11
75.323380532300177
21
-66.139584040563491
31
0
0
LINE
5
256
100
AcDbEntity
8
0
100
AcDbLine
10
121.85117343715459
20
-85.189142641909683
30
0
11
121.85117343715459
21
-72.289142648814874
31
0
0
LINE
5
257
100
AcDbEntity
8
0
100
AcDbLine
10
112.32338053230026
20
-66.139584040563491
30
0
11
112.32338053230026
21
-53.239584047468682
31
0
0
LINE
5
258
100
AcDbEntity
8
0
100
AcDbLine
10
289.79033739463182
20
-31.251360559760144
30
0
11
289.790338634259
21
-61.553115156434366
31
0
0
LWPOLYLINE
5
259
100
AcDbEntity
8
0
100
AcDbPolyline
90
4
70
1
43
0.0
10
251.87775481368357
20
-68.702877772402701
10
251.87775481368357
20
-52.702964555580024
10
259.55520319735899
20
-52.702964555580024
10
259.55520319735899
20
-68.702877772402701
0
SPLINE
5
260
100
AcDbEntity
8
0
100
AcDbSpline
70
0
71
3
72
10
73
6
74
0
42
0.000000001
43
0.0000000001
44
0.0000000001
40
1
40
1
40
1
40
1
40
2
40
2
40
3
40
3
40
3
40
3
10
121.85117343715459
20
-72.28914264190955
30
0
10
121.85117343810799
20
-71.985386029502365
30
0
10
122.09741682820027
20
-71.739142643455551
30
0
10
122.70493005301368
20
-71.739142647269162
30
0
10
122.95117343906082
20
-71.985386036407689
30
0
10
122.95117343715401
20
-72.289142648814874
30
0
0
LWPOLYLINE
5
261
100
AcDbEntity
8
0
100
AcDbPolyline
90
4
70
1
43
0.0
10
243.69838053230126
20
-66.689584044015049
10
229.6983805323012
20
-66.689584044015049
10
229.6983805323012
20
-52.689584044016478
10
243.69838053230126
20
-52.689584044016478
0
SPLINE
5
262
100
AcDbEntity
8
0
100
AcDbSpline
70
0
71
3
72
11
73
7
74
0
42
0.000000001
43
0.0000000001
44
0.0000000001
40
107
40
107
40
107
40
107
40
108
40
108
40
108
40
109
40
109
40
109
40
109
10
43.61332822697662
20
-111.05027213530013
30
0
10
44.165612973770791
20
-111.05027213833665
30
0
10
44.61332822393949
20
-110.60255689309072
30
0
10
44.613328226975639
20
-110.05027214629627
30
0
10
44.613328230011646
20
-109.49804530901304
30
0
10
44.165703358036836
20
-109.05035404941452
30
0
10
43.613476526825821
20
-109.05027215729302
30
0
0
LINE
5
263
100
AcDbEntity
8
0
100
AcDbLine
10
2.8100527563898225
20
-13.298833531615257
30
0
11
2.8100541400785062
21
-106.10890485879553
31
0
0
LINE
5
264
100
AcDbEntity
8
0
100
AcDbLine
10
226.62338053230081
20
-66.139584040563491
30
0
11
226.62338053230053
21
-53.239584047468682
31
0
0
LWPOLYLINE
5
265
100
AcDbEntity
8
0
100
AcDbPolyline
90
4
70
1
43
0.0
10
58.248380532300352
20
-66.689584044015703
10
58.248380532300352
20
-52.689584044016478
10
72.248380532300445
20
-52.689584044016478
10
72.248380532300445
20
-66.689584044015703
0
LINE
5
266
100
AcDbEntity
8
0
100
AcDbLine
10
37.223380532300183
20
-53.239584047468682
30
0
11
37.223380532299828
21
-66.139584040562852
31
0
0
LWPOLYLINE
5
267
100
AcDbEntity
8
0
100
AcDbPolyline
90
4
70
1
43
0.0
10
110.34838053230101
20
-52.689584044016478
10
110.34838053230101
20
-66.689584044015049
10
96.348380532300766
20
-66.689584044015049
10
96.348380532300766
20
-52.689584044016478
0
LINE
5
268
100
AcDbEntity
8
0
100
AcDbLine
10
132.47338053229993
20
-53.239584047468682
30
0
11
132.47338053229993
21
-66.139584040563491
31
0
0
LINE
5
269
100
AcDbEntity
8
0
100
AcDbLine
10
246.77338053230201
20
-53.239584047468682
30
0
11
246.77338053230201
21
-66.139584040563491
31
0
0
SPLINE
5
270
100
AcDbEntity
8
0
100
AcDbSpline
70
0
71
3
72
10
73
6
74
0
42
0.000000001
43
0.0000000001
44
0.0000000001
40
5
40
5
40
5
40
5
40
6
40
6
40
7
40
7
40
7
40
7
10
227.72338053230095
20
-66.13958404746883
30
0
10
227.72338053134752
20
-66.443340659876
30
0
10
227.4771371412549
20
-66.689584045923468
30
0
10
226.86962391644116
20
-66.689584042109203
30
0
10
226.623380530394
20
-66.443340652970036
30
0
10
226.62338053230081
20
-66.139584040563491
30
0
0
LWPOLYLINE
5
271
100
AcDbEntity
8
0
100
AcDbPolyline
90
4
70
1
43
0.0
10
274.6544555326509
20
-52.702911515533302
10
274.6544555326509
20
-66.702911515532506
10
260.65445553265107
20
-66.702911515532506
10
260.65445553265107
20
-52.702911515533302
0
LINE
5
272
100
AcDbEntity
8
0
100
AcDbLine
10
288.49033863415013
20
-61.552669115510042
30
0
11
288.49033739461544
21
-31.252508915809987
31
0
0
LWPOLYLINE
5
273
100
AcDbEntity
8
0
100
AcDbPolyline
90
4
70
1
43
0.0
10
77.298380532300655
20
-66.689584044015703
10
77.298380532300655
20
-52.689584044016478
10
91.29838053230074
20
-52.689584044016478
10
91.29838053230074
20
-66.689584044015703
0
LINE
5
274
100
AcDbEntity
8
0
100
AcDbLine
10
245.67338053230159
20
-66.139584040563491
30
0
11
245.67338053230159
21
-53.239584047468682
31
0
0
LINE
5
275
100
AcDbEntity
8
0
100
AcDbLine
10
74.223380532300638
20
-66.139584040563491
30
0
11
74.22338053230078
21
-53.239584047468682
31
0
0
LINE
5
276
100
AcDbEntity
8
0
100
AcDbLine
10
6.2599211085919393
20
-53.264584047468126
30
0
11
6.2599211085919393
21
-66.164584040562943
31
0
0
LINE
5
277
100
AcDbEntity
8
0
100
AcDbLine
10
55.173380532299667
20
-66.139584040563491
30
0
11
55.173380532300627
21
-53.239584047468682
31
0
0
LINE
5
278
100
AcDbEntity
8
0
100
AcDbLine
10
5.159921108592016
20
-66.164584040562943
30
0
11
5.159921108592016
21
-53.264584047468126
31
0
0
SPLINE
5
279
100
AcDbEntity
8
0
100
AcDbSpline
70
0
71
3
72
10
73
6
74
0
42
0.000000001
43
0.0000000001
44
0.0000000001
40
5
40
5
40
5
40
5
40
6
40
6
40
7
40
7
40
7
40
7
10
122.95117343715401
20
-85.189142648815661
30
0
10
122.95117343620061
20
-85.492899261222206
30
0
10
122.70493004610839
20
-85.739142647269659
30
0
10
122.09741682129459
20
-85.739142643455395
30
0
10
121.8511734352478
20
-85.492899254316868
30
0
10
121.85117343715459
20
-85.189142641909683
30
0
0
SPLINE
5
280
100
AcDbEntity
8
0
100
AcDbSpline
70
0
71
3
72
10
73
6
74
0
42
0.000000001
43
0.0000000001
44
0.0000000001
40
2
40
2
40
2
40
2
40
3
40
3
40
4
40
4
40
4
40
4
10
246.77338053230201
20
-66.13958404746883
30
0
10
246.77338053134847
20
-66.443340659876
30
0
10
246.52713714125568
20
-66.689584045923468
30
0
10
245.91962391644171
20
-66.689584042109203
30
0
10
245.6733805303945
20
-66.443340652970036
30
0
10
245.67338053230159
20
-66.139584040563491
30
0
0
SPLINE
5
281
100
AcDbEntity
8
0
100
AcDbSpline
70
0
71
3
72
11
73
7
74
0
42
0.000000001
43
0.0000000001
44
0.0000000001
40
3
40
3
40
3
40
3
40
4
40
4
40
4
40
5
40
5
40
5
40
5
10
247.27618343385771
20
-68.552085365998437
30
0
10
247.63499582983252
20
-68.552330509130911
30
0
10
247.9257405052698
20
-68.843274766929369
30
0
10
247.92573942527719
20
-69.202087246644609
30
0
10
247.92573834476508
20
-69.561072375954836
30
0
10
247.63472252224361
20
-69.852086446619978
30
0
10
247.27573739293308
20
-69.852085366107261
30
0
0
SPLINE
5
282
100
AcDbEntity
8
0
100
AcDbSpline
70
0
71
3
72
10
73
6
74
0
42
0.000000001
43
0.0000000001
44
0.0000000001
40
5
40
5
40
5
40
5
40
6
40
6
40
7
40
7
40
7
40
7
10
239.47286524206851
20
-72.539140289009183
30
0
10
239.47286607682832
20
-72.097312489144358
30
0
10
239.83103901461027
20
-71.739140992998557
30
0
10
240.71469461433978
20
-71.739142729830149
30
0
10
241.07286611048499
20
-72.097315633956114
30
0
10
241.07286524206921
20
-72.539143433820882
30
0
0
LINE
5
283
100
AcDbEntity
8
0
100
AcDbLine
10
226.62181843574581
20
-107.15891003020658
30
0
11
279.66951149714657
21
-107.15891006709144
31
0
0
SPLINE
5
284
100
AcDbEntity
8
0
100
AcDbSpline
70
0
71
3
72
10
73
6
74
0
42
0.000000001
43
0.0000000001
44
0.0000000001
40
15
40
15
40
15
40
15
40
16
40
16
40
17
40
17
40
17
40
17
10
65.790549951572004
20
-85.175001250159937
30
0
10
65.790549950618413
20
-85.478757862567122
30
0
10
65.544306560526138
20
-85.725001248614575
30
0
10
64.936793335712011
20
-85.725001244800325
30
0
10
64.690549949664586
20
-85.478757855661172
30
0
10
64.690549951571683
20
-85.175001243254627
30
0
0
SPLINE
5
285
100
AcDbEntity
8
0
100
AcDbSpline
70
0
71
3
72
11
73
7
74
0
42
0.000000001
43
0.0000000001
44
0.0000000001
40
0
40
0
40
0
40
0
40
1
40
1
40
1
40
2
40
2
40
2
40
2
10
137.98924648123605
20
-109.05027215729689
30
0
10
137.43696174051632
20
-109.05035406543647
30
0
10
136.98931289739946
20
-109.49813570788589
30
0
10
136.98939480553901
20
-110.05042044860537
30
0
10
136.98947670508946
20
-110.60264727456131
30
0
10
137.43716796251138
20
-111.05027213833665
30
0
10
137.98939479454037
20
-111.05027213530013
30
0
0
LINE
5
286
100
AcDbEntity
8
0
100
AcDbLine
10
214.73190635708983
20
-12.248828261481389
30
0
11
161.68426051279141
21
-12.24882829849266
31
0
0
LWPOLYLINE
5
287
100
AcDbEntity
8
0
100
AcDbPolyline
90
4
70
1
43
0.0
10
158.26088053230009
20
-14.603284044018469
10
172.26088053230029
20
-14.603284044018469
10
172.26088053230029
20
-28.603284044017681
10
158.26088053230009
20
-28.603284044017681
0
LWPOLYLINE
5
288
100
AcDbEntity
8
0
100
AcDbPolyline
90
4
70
1
43
0.0
10
172.5483805323006
20
-66.689584044015049
10
172.5483805323006
20
-52.689584044016478
10
186.5483805323008
20
-52.689584044016478
10
186.5483805323008
20
-66.689584044015049
0
LWPOLYLINE
5
289
100
AcDbEntity
8
0
100
AcDbPolyline
90
4
70
1
43
0.0
10
177.31118054010895
20
-14.60328404399216
10
191.31118054010915
20
-14.60328404399216
10
191.31118054010915
20
-28.603284043992012
10
177.31118054010895
20
-28.603284043992012
0
SPLINE
5
290
100
AcDbEntity
8
0
100
AcDbSpline
70
0
71
3
72
11
73
7
74
0
42
0.000000001
43
0.0000000001
44
0.0000000001
40
64
40
64
40
64
40
64
40
65
40
65
40
65
40
66
40
66
40
66
40
66
10
173.48877657742707
20
-10.357466233104288
30
0
10
174.04106131814279
20
-10.35738430662559
30
0
10
174.48871014638917
20
-9.9096026493125002
30
0
10
174.48862821991082
20
-9.3573179085968796
30
0
10
174.48854630202507
20
-8.8050910956115871
30
0
10
174.0408550499759
20
-8.3574662520728396
30
0
10
173.48862823091457
20
-8.3574662551106407
30
0
0
LINE
5
291
100
AcDbEntity
8
0
100
AcDbLine
10
140.42988556526606
20
-31.771430039917835
30
0
11
190.30158789962681
21
-31.771430039903073
31
0
0
LINE
5
292
100
AcDbEntity
8
0
100
AcDbLine
10
96.746573380037972
20
-107.15891015373046
30
0
11
149.79442965118696
21
-107.15891019067115
31
0
0
LINE
5
293
100
AcDbEntity
8
0
100
AcDbLine
10
257.43442636292741
20
-49.526532481970911
30
0
11
201.25577594818932
21
-49.526709095400548
31
0
0
LINE
5
294
100
AcDbEntity
8
0
100
AcDbLine
10
55.584766127463787
20
-68.552089069479095
30
0
11
108.84976612737006
21
-68.55208506533549
31
0
0
LINE
5
295
100
AcDbEntity
8
0
100
AcDbLine
10
137.9782850274934
20
-50.826894727284909
30
0
11
194.1557849963252
21
-50.826717103761311
31
0
0
LWPOLYLINE
5
296
100
AcDbEntity
8
0
100
AcDbPolyline
90
4
70
1
43
0.0
10
210.64838053230102
20
-66.689584044015049
10
210.64838053230102
20
-52.689584044016478
10
224.64838053230119
20
-52.689584044016478
10
224.64838053230119
20
-66.689584044015049
0
LINE
5
297
100
AcDbEntity
8
0
100
AcDbLine
10
169.47338053230115
20
-66.139584040563491
30
0
11
169.47338053230089
21
-53.239584047468682
31
0
0
LINE
5
298
100
AcDbEntity
8
0
100
AcDbLine
10
182.89170344823631
20
-68.552089069478455
30
0
11
129.62670344833009
21
-68.55208506533549
31
0
0
LINE
5
299
100
AcDbEntity
8
0
100
AcDbLine
10
149.79442966491769
20
-12.24882819973967
30
0
11
96.746573380106355
21
-12.24882823668036
31
0
0
LINE
5
300
100
AcDbEntity
8
0
100
AcDbLine
10
137.98924648120942
20
-10.357466233113911
30
0
11
149.79400262066437
21
-10.357466211120961
31
0
0
LINE
5
301
100
AcDbEntity
8
0
100
AcDbLine
10
150.4128152418771
20
-59.104211908577646
30
0
11
150.4128152418771
21
-53.225442648812958
31
0
0
LINE
5
302
100
AcDbEntity
8
0
100
AcDbLine
10
137.98939479454037
20
-111.05027213530013
30
0
11
173.48862823091457
21
-111.05027213530013
31
0
0
LINE
5
303
100
AcDbEntity
8
0
100
AcDbLine
10
190.30157916331717
20
-30.471430039826988
30
0
11
140.42987682895628
21
-30.471430039841746
31
0
0
LINE
5
304
100
AcDbEntity
8
0
100
AcDbLine
10
151.51281524187709
20
-53.225442648812958
30
0
11
151.51281524187797
21
-59.098882053427303
31
0
0
LINE
5
305
100
AcDbEntity
8
0
100
AcDbLine
10
208.67338053230159
20
-53.239584047468682
30
0
11
208.67338053230159
21
-66.139584040563491
31
0
0
LWPOLYLINE
5
306
100
AcDbEntity
8
0
100
AcDbPolyline
90
4
70
1
43
0.0
10
63.010880532300391
20
-14.603284044018469
10
77.010880532300263
20
-14.603284044018469
10
77.010880532300263
20
-28.603284044017681
10
63.010880532300391
20
-28.603284044017681
0
LINE
5
307
100
AcDbEntity
8
0
100
AcDbLine
10
194.15692639401749
20
-49.526718113779182
30
0
11
137.97827597927937
21
-49.526894727208827
31
0
0
LINE
5
308
100
AcDbEntity
8
0
100
AcDbLine
10
189.62338053230047
20
-53.239584047468682
30
0
11
189.62338053230047
21
-66.139584040563491
31
0
0
LINE
5
309
100
AcDbEntity
8
0
100
AcDbLine
10
149.79400262073241
20
-109.05027217928919
30
0
11
137.98924648123605
21
-109.05027215729689
31
0
0
LINE
5
310
100
AcDbEntity
8
0
100
AcDbLine
10
170.57338053230026
20
-53.239584047468682
30
0
11
170.57338053230026
21
-66.139584040563491
31
0
0
LWPOLYLINE
5
311
100
AcDbEntity
8
0
100
AcDbPolyline
90
4
70
1
43
0.0
10
215.41088053230069
20
-14.603284044018469
10
229.41088053230089
20
-14.603284044018469
10
229.41088053230089
20
-28.603284044017681
10
215.41088053230069
20
-28.603284044017681
0
LINE
5
312
100
AcDbEntity
8
0
100
AcDbLine
10
31.808887729908122
20
-107.15891021552156
30
0
11
84.856819350194144
21
-107.15891025245391
31
0
0
LINE
5
313
100
AcDbEntity
8
0
100
AcDbLine
10
197.40158789972043
20
-30.471430039826988
30
0
11
250.823286229963
21
-30.471430039841106
31
0
0
LINE
5
314
100
AcDbEntity
8
0
100
AcDbLine
10
131.37338053229979
20
-66.139584040563491
30
0
11
131.3733805323005
21
-53.239584047468682
31
0
0
LWPOLYLINE
5
315
100
AcDbEntity
8
0
100
AcDbPolyline
90
4
70
1
43
0.0
10
72.535880532300894
20
-33.639584044017575
10
86.535880532300979
20
-33.639584044017575
10
86.535880532300979
20
-47.639584044016779
10
72.535880532300894
20
-47.639584044016779
0
LINE
5
316
100
AcDbEntity
8
0
100
AcDbLine
10
201.25578499640341
20
-50.826709095476645
30
0
11
257.43328496523509
21
-50.826531471953032
31
0
0
LINE
5
317
100
AcDbEntity
8
0
100
AcDbLine
10
227.7233805323005
20
-53.239584047468682
30
0
11
227.72338053230095
21
-66.139584040563491
31
0
0
LINE
5
318
100
AcDbEntity
8
0
100
AcDbLine
10
188.52338053230011
20
-66.139584040563491
30
0
11
188.52338053230011
21
-53.239584047468682
31
0
0
LINE
5
319
100
AcDbEntity
8
0
100
AcDbLine
10
113.42338053229994
20
-53.239584047468682
30
0
11
113.42338053229966
21
-66.139584040563491
31
0
0
LINE
5
320
100
AcDbEntity
8
0
100
AcDbLine
10
247.27573739293308
20
-69.852085366107261
30
0
11
202.01073498905032
21
-69.852089069555191
31
0
0
LINE
5
321
100
AcDbEntity
8
0
100
AcDbLine
10
22.936484900490797
20
-31.771430039917192
30
0
11
76.35818323073309
21
-31.771430039903073
31
0
0
LINE
5
322
100
AcDbEntity
8
0
100
AcDbLine
10
73.051744792571782
20
-111.05027213534765
30
0
11
108.55097822894606
21
-111.05027213534765
31
0
0
LINE
5
323
100
AcDbEntity
8
0
100
AcDbLine
10
73.051596546070357
20
-10.357466233085679
30
0
11
84.856352682195507
21
-10.35746621110235
31
0
0
LINE
5
324
100
AcDbEntity
8
0
100
AcDbLine
10
84.856352682291771
20
-109.05027217930844
30
0
11
73.051596546153448
21
-109.05027215732511
31
0
0
LINE
5
325
100
AcDbEntity
8
0
100
AcDbLine
10
202.01074371784165
20
-68.552089069478455
30
0
11
247.27618343385771
21
-68.552085365998437
31
0
0
LINE
5
326
100
AcDbEntity
8
0
100
AcDbLine
10
207.5733805323016
20
-66.139584040563491
30
0
11
207.57338053230117
21
-53.239584047468682
31
0
0
LINE
5
327
100
AcDbEntity
8
0
100
AcDbLine
10
238.42614698091438
20
-8.3574662549104275
30
0
11
202.92691354454018
21
-8.3574662549104275
31
0
0
LINE
5
328
100
AcDbEntity
8
0
100
AcDbLine
10
250.82327749365308
20
-31.771430039917835
30
0
11
197.4015791634105
21
-31.771430039903073
31
0
0
LINE
5
329
100
AcDbEntity
8
0
100
AcDbLine
10
108.55097822894606
20
-8.3574662550631587
30
0
11
73.051744792571782
21
-8.3574662550631587
31
0
0
LINE
5
330
100
AcDbEntity
8
0
100
AcDbLine
10
76.358174494423594
20
-30.471430039826988
30
0
11
22.936476164180917
21
-30.471430039841106
31
0
0
LINE
5
331
100
AcDbEntity
8
0
100
AcDbLine
10
202.92691354454018
20
-111.05027213550036
30
0
11
238.42614698091438
21
-111.05027213550036
31
0
0
LINE
5
332
100
AcDbEntity
8
0
100
AcDbLine
10
84.856819349272172
20
-12.248828137956892
30
0
11
31.808887729834296
21
-12.248828174889228
31
0
0
LINE
5
333
100
AcDbEntity
8
0
100
AcDbLine
10
307.66796888537635
20
-106.10890485879551
30
0
11
307.6679702690646
21
-13.298833531615237
31
0
0
LINE
5
334
100
AcDbEntity
8
0
100
AcDbLine
10
108.84975739857825
20
-69.852085065411572
30
0
11
55.584757398671769
21
-69.852089069555191
31
0
0
SPLINE
5
335
100
AcDbEntity
8
0
100
AcDbSpline
70
0
71
3
72
10
73
6
74
0
42
0.000000001
43
0.0000000001
44
0.0000000001
40
2
40
2
40
2
40
2
40
3
40
3
40
4
40
4
40
4
40
4
10
203.91088053230092
20
-47.089584047469906
30
0
10
203.91088053134735
20
-47.39334065987709
30
0
10
203.6646371412549
20
-47.639584045923911
30
0
10
203.0571239164419
20
-47.639584042109647
30
0
10
202.81088053039468
20
-47.393340652971133
30
0
10
202.81088053230189
20
-47.089584040564588
30
0
0
LWPOLYLINE
5
336
100
AcDbEntity
8
0
100
AcDbPolyline
90
4
70
1
43
0.0
10
219.88588053230109
20
-47.639584044016139
10
205.88588053230114
20
-47.639584044016139
10
205.88588053230114
20
-33.639584044016935
10
219.88588053230109
20
-33.639584044016935
0
SPLINE
5
337
100
AcDbEntity
8
0
100
AcDbSpline
70
0
71
3
72
11
73
7
74
0
42
0.000000001
43
0.0000000001
44
0.0000000001
40
1
40
1
40
1
40
1
40
2
40
2
40
2
40
3
40
3
40
3
40
3
10
201.25577594818932
20
-49.526709095400548
30
0
10
200.89679086077882
20
-49.526711650859177
30
0
10
200.60577801976081
20
-49.817728635094639
30
0
10
200.6057805752194
20
-50.176713722505148
30
0
10
200.60578313067739
20
-50.535698729498563
30
0
10
200.89679998940898
20
-50.826711537207586
30
0
10
201.25578499640341
20
-50.826709095476645
30
0
0
LWPOLYLINE
5
338
100
AcDbEntity
8
0
100
AcDbPolyline
90
4
70
1
43
0.0
10
196.36118054010819
20
-28.603284043991369
10
196.36118054010819
20
-14.60328404399216
10
210.36118054010842
20
-14.60328404399216
10
210.36118054010842
20
-28.603284043991369
0
SPLINE
5
339
100
AcDbEntity
8
0
100
AcDbSpline
70
0
71
3
72
11
73
7
74
0
42
0.000000001
43
0.0000000001
44
0.0000000001
40
58
40
58
40
58
40
58
40
59
40
59
40
59
40
60
40
60
40
60
40
60
10
214.73152157812677
20
-10.357466211015717
30
0
10
215.25343057528289
20
-10.357625929982357
30
0
10
215.67654102665315
20
-10.780564261068941
30
0
10
215.67691310007817
20
-11.302473150037123
30
0
10
215.67728544174594
20
-11.824758304344369
30
0
10
215.25419151139729
20
-12.248455919813679
30
0
10
214.73190635708983
20
-12.248828261481389
30
0
0
SPLINE
5
340
100
AcDbEntity
8
0
100
AcDbSpline
70
0
71
3
72
11
73
7
74
0
42
0.000000001
43
0.0000000001
44
0.0000000001
40
0
40
0
40
0
40
0
40
1
40
1
40
1
40
2
40
2
40
2
40
2
10
190.30158789962681
20
-31.771430039903073
30
0
10
190.66057298703728
20
-31.771427526919158
30
0
10
190.95158586248789
20
-31.480410577117262
30
0
10
190.95158334950401
20
-31.121425489706766
30
0
10
190.95158083652126
20
-30.762440544450577
30
0
10
190.66056410857442
20
-30.471427727880961
30
0
10
190.30157916331717
20
-30.471430039826988
30
0
0
SPLINE
5
341
100
AcDbEntity
8
0
100
AcDbSpline
70
0
71
3
72
11
73
7
74
0
42
0.000000001
43
0.0000000001
44
0.0000000001
40
3
40
3
40
3
40
3
40
4
40
4
40
4
40
5
40
5
40
5
40
5
10
197.4015791634105
20
-31.771430039903073
30
0
10
197.04259421815533
20
-31.771427526919798
30
0
10
196.7515814015857
20
-31.48041079897315
30
0
10
196.75158371353143
20
-31.121425853716964
30
0
10
196.75158602547799
20
-30.762440766305183
30
0
10
197.04260281230859
20
-30.471427727880318
30
0
10
197.40158789972043
20
-30.471430039826988
30
0
0
SPLINE
5
342
100
AcDbEntity
8
0
100
AcDbSpline
70
0
71
3
72
11
73
7
74
0
42
0.000000001
43
0.0000000001
44
0.0000000001
40
55
40
55
40
55
40
55
40
56
40
56
40
56
40
57
40
57
40
57
40
57
10
202.92691354454018
20
-8.3574662549104275
30
0
10
202.37462879773841
20
-8.3574662518822596
30
0
10
201.9269135475696
20
-8.8051814971410494
30
0
10
201.92691354454141
20
-9.3574662439431897
30
0
10
201.92691354151356
20
-9.9096931567537396
30
0
10
202.37453853135096
20
-10.357384447642799
30
0
10
202.9267654381056
20
-10.357466232974657
30
0
0
SPLINE
5
343
100
AcDbEntity
8
0
100
AcDbSpline
70
0
71
3
72
10
73
6
74
0
42
0.000000001
43
0.0000000001
44
0.0000000001
40
6
40
6
40
6
40
6
40
7
40
7
40
8
40
8
40
8
40
8
10
202.8108805323015
20
-34.189584040564455
30
0
10
202.8108805332549
20
-33.88582742815727
30
0
10
203.05712392334686
20
-33.639584042110442
30
0
10
203.66463714816058
20
-33.63958404592406
30
0
10
203.91088053420765
20
-33.885827435062588
30
0
10
203.91088053230092
20
-34.189584047469133
30
0
0
LWPOLYLINE
5
344
100
AcDbEntity
8
0
100
AcDbPolyline
90
4
70
1
43
0.0
10
129.68588053230039
20
-33.639584044016935
10
143.68588053230027
20
-33.639584044016935
10
143.68588053230027
20
-47.639584044016139
10
129.68588053230039
20
-47.639584044016139
0
SPLINE
5
345
100
AcDbEntity
8
0
100
AcDbSpline
70
0
71
3
72
11
73
7
74
0
42
0.000000001
43
0.0000000001
44
0.0000000001
40
4
40
4
40
4
40
4
40
5
40
5
40
5
40
6
40
6
40
6
40
6
10
194.1557849963252
20
-50.826717103761311
30
0
10
194.514770083786
20
-50.826714547121306
30
0
10
194.80578292388768
20
-50.535697561888
30
0
10
194.80578036724768
20
-50.176712474426814
30
0
10
194.80577781380759
20
-49.818176664028243
30
0
10
194.51546164715498
20
-49.527350254829479
30
0
10
194.15692639401749
20
-49.526718113779182
30
0
0
LINE
5
346
100
AcDbEntity
8
0
100
AcDbLine
10
202.9267654381056
20
-10.357466232974657
30
0
11
214.73152157812677
21
-10.357466211015717
31
0
0
LWPOLYLINE
5
347
100
AcDbEntity
8
0
100
AcDbPolyline
90
4
70
1
43
0.0
10
186.83588053230099
20
-47.639584044016139
10
186.83588053230099
20
-33.639584044016935
10
200.83588053230091
20
-33.639584044016935
10
200.83588053230091
20
-47.639584044016139
0
LINE
5
348
100
AcDbEntity
8
0
100
AcDbLine
10
202.81088053230189
20
-47.089584040564588
30
0
11
202.8108805323015
21
-34.189584047469133
31
0
0
LINE
5
349
100
AcDbEntity
8
0
100
AcDbLine
10
203.91088053230092
20
-34.189584047469133
30
0
11
203.91088053230092
21
-47.089584040564588
31
0
0
SPLINE
5
350
100
AcDbEntity
8
0
100
AcDbSpline
70
0
71
3
72
10
73
6
74
0
42
0.000000001
43
0.0000000001
44
0.0000000001
40
1
40
1
40
1
40
1
40
2
40
2
40
3
40
3
40
3
40
3
10
188.52338053230011
20
-53.239584040563358
30
0
10
188.52338053325352
20
-52.935827428156813
30
0
10
188.76962392334579
20
-52.689584042109352
30
0
10
189.37713714815982
20
-52.689584045922331
30
0
10
189.62338053420729
20
-52.935827435061498
30
0
10
189.62338053230047
20
-53.239584047468682
30
0
0
SPLINE
5
351
100
AcDbEntity
8
0
100
AcDbSpline
70
0
71
3
72
10
73
6
74
0
42
0.000000001
43
0.0000000001
44
0.0000000001
40
2
40
2
40
2
40
2
40
3
40
3
40
4
40
4
40
4
40
4
10
180.10111524206931
20
-85.189142648815022
30
0
10
180.10111524111591
20
-85.492899261222206
30
0
10
179.85487185102369
20
-85.739142647269659
30
0
10
179.24735862620929
20
-85.739142643456034
30
0
10
179.00111524016216
20
-85.492899254316868
30
0
10
179.00111524206898
20
-85.189142641909683
30
0
0
LINE
5
352
100
AcDbEntity
8
0
100
AcDbLine
10
179.00111524206898
20
-85.189142641909683
30
0
11
179.00111524206898
21
-72.289142648814874
31
0
0
LINE
5
353
100
AcDbEntity
8
0
100
AcDbLine
10
180.10111524206931
20
-72.289142648814874
30
0
11
180.10111524206931
21
-85.189142641909683
31
0
0
LINE
5
354
100
AcDbEntity
8
0
100
AcDbLine
10
173.48877657739666
20
-109.05027215730652
30
0
11
161.68478699831468
21
-109.05027217928983
31
0
0
LINE
5
355
100
AcDbEntity
8
0
100
AcDbLine
10
159.95117343715401
20
-85.189142641909683
30
0
11
159.95117343715498
21
-72.289142648814874
31
0
0
LINE
5
356
100
AcDbEntity
8
0
100
AcDbLine
10
161.05117343715466
20
-72.289142648814874
30
0
11
161.05117343715435
21
-85.189142641909683
31
0
0
LINE
5
357
100
AcDbEntity
8
0
100
AcDbLine
10
161.6842605128322
20
-107.15891009191814
30
0
11
214.73190635423549
21
-107.15891012892941
31
0
0
SPLINE
5
358
100
AcDbEntity
8
0
100
AcDbSpline
70
0
71
3
72
10
73
6
74
0
42
0.000000001
43
0.0000000001
44
0.0000000001
40
6
40
6
40
6
40
6
40
7
40
7
40
8
40
8
40
8
40
8
10
207.57338053230117
20
-53.239584040563358
30
0
10
207.57338053325466
20
-52.935827428156813
30
0
10
207.81962392334691
20
-52.689584042109352
30
0
10
208.42713714816099
20
-52.689584045922331
30
0
10
208.67338053420841
20
-52.935827435061498
30
0
10
208.67338053230159
20
-53.239584047468682
30
0
0
CIRCLE
5
359
100
AcDbEntity
8
0
100
AcDbCircle
10
193.8363305401727
20
-23.603284044018142
30
0
40
2.0000000000000302
210
0
220
0
230
1
0
SPLINE
5
360
100
AcDbEntity
8
0
100
AcDbSpline
70
0
71
3
72
10
73
6
74
0
42
0.000000001
43
0.0000000001
44
0.0000000001
40
1
40
1
40
1
40
1
40
2
40
2
40
3
40
3
40
3
40
3
10
183.76088053230134
20
-34.189584040564455
30
0
10
183.76088053325458
20
-33.88582742815727
30
0
10
184.00712392334668
20
-33.639584042110442
30
0
10
184.61463714816037
20
-33.63958404592406
30
0
10
184.86088053420747
20
-33.885827435062588
30
0
10
184.86088053230065
20
-34.189584047469133
30
0
0
LINE
5
361
100
AcDbEntity
8
0
100
AcDbLine
10
164.71088053230019
20
-47.089584040564588
30
0
11
164.71088053230019
21
-34.189584047469133
31
0
0
SPLINE
5
362
100
AcDbEntity
8
0
100
AcDbSpline
70
0
71
3
72
10
73
6
74
0
42
0.000000001
43
0.0000000001
44
0.0000000001
40
1
40
1
40
1
40
1
40
2
40
2
40
3
40
3
40
3
40
3
10
145.6608805323016
20
-34.189584040565094
30
0
10
145.66088053325501
20
-33.88582742815791
30
0
10
145.9071239233472
20
-33.639584042110442
30
0
10
146.51463714816131
20
-33.639584045923421
30
0
10
146.76088053420867
20
-33.885827435061948
30
0
10
146.76088053230231
20
-34.189584047469133
30
0
0
SPLINE
5
363
100
AcDbEntity
8
0
100
AcDbSpline
70
0
71
3
72
10
73
6
74
0
42
0.000000001
43
0.0000000001
44
0.0000000001
40
6
40
6
40
6
40
6
40
7
40
7
40
8
40
8
40
8
40
8
10
150.4128152418771
20
-53.22544264190828
30
0
10
150.41281524283045
20
-52.921686029501096
30
0
10
150.65905863292267
20
-52.675442643453621
30
0
10
151.26657185773638
20
-52.675442647267246
30
0
10
151.5128152437839
20
-52.921686036406413
30
0
10
151.51281524187709
20
-53.225442648812958
30
0
0
SPLINE
5
364
100
AcDbEntity
8
0
100
AcDbSpline
70
0
71
3
72
10
73
6
74
0
42
0.000000001
43
0.0000000001
44
0.0000000001
40
6
40
6
40
6
40
6
40
7
40
7
40
8
40
8
40
8
40
8
10
169.47338053230089
20
-53.239584040562718
30
0
10
169.47338053325444
20
-52.935827428155534
30
0
10
169.71962392334683
20
-52.689584042108713
30
0
10
170.32713714816029
20
-52.68958404592297
30
0
10
170.57338053420739
20
-52.935827435061498
30
0
10
170.57338053230026
20
-53.239584047468682
30
0
0
LINE
5
365
100
AcDbEntity
8
0
100
AcDbLine
10
129.62671217712182
20
-69.852085065411572
30
0
11
182.8917121770277
21
-69.852089069555191
31
0
0
SPLINE
5
366
100
AcDbEntity
8
0
100
AcDbSpline
70
0
71
3
72
10
73
6
74
0
42
0.000000001
43
0.0000000001
44
0.0000000001
40
5
40
5
40
5
40
5
40
6
40
6
40
7
40
7
40
7
40
7
10
184.86088053230065
20
-47.089584047469906
30
0
10
184.86088053134711
20
-47.39334065987709
30
0
10
184.61463714125478
20
-47.639584045923911
30
0
10
184.0071239164414
20
-47.639584042110286
30
0
10
183.76088053039413
20
-47.393340652971133
30
0
10
183.76088053230094
20
-47.089584040564588
30
0
0
LWPOLYLINE
5
367
100
AcDbEntity
8
0
100
AcDbPolyline
90
4
70
1
43
0.0
10
162.73588053230139
20
-33.639584044016935
10
162.73588053230139
20
-47.639584044016139
10
148.73588053230156
20
-47.639584044016139
10
148.73588053230156
20
-33.639584044016935
0
SPLINE
5
368
100
AcDbEntity
8
0
100
AcDbSpline
70
0
71
3
72
10
73
6
74
0
42
0.000000001
43
0.0000000001
44
0.0000000001
40
5
40
5
40
5
40
5
40
6
40
6
40
7
40
7
40
7
40
7
10
146.76088053230231
20
-47.089584047469259
30
0
10
146.76088053134885
20
-47.393340659876451
30
0
10
146.51463714125657
20
-47.639584045923911
30
0
10
145.90712391644246
20
-47.639584042110286
30
0
10
145.66088053039536
20
-47.393340652971133
30
0
10
145.66088053230217
20
-47.089584040564588
30
0
0
SPLINE
5
369
100
AcDbEntity
8
0
100
AcDbSpline
70
0
71
3
72
10
73
6
74
0
42
0.000000001
43
0.0000000001
44
0.0000000001
40
2
40
2
40
2
40
2
40
3
40
3
40
4
40
4
40
4
40
4
10
165.81088053230047
20
-47.089584047469259
30
0
10
165.81088053134707
20
-47.393340659876451
30
0
10
165.56463714125493
20
-47.639584045923911
30
0
10
164.95712391644079
20
-47.639584042110286
30
0
10
164.71088053039327
20
-47.393340652971133
30
0
10
164.71088053230019
20
-47.089584040564588
30
0
0
LWPOLYLINE
5
370
100
AcDbEntity
8
0
100
AcDbPolyline
90
4
70
1
43
0.0
10
167.78588053230081
20
-47.639584044016139
10
167.78588053230081
20
-33.639584044016935
10
181.78588053230069
20
-33.639584044016935
10
181.78588053230069
20
-47.639584044016139
0
LINE
5
371
100
AcDbEntity
8
0
100
AcDbLine
10
184.86088053230065
20
-34.189584047469133
30
0
11
184.86088053230065
21
-47.089584040564588
31
0
0
LINE
5
372
100
AcDbEntity
8
0
100
AcDbLine
10
145.66088053230217
20
-47.089584040564588
30
0
11
145.6608805323016
21
-34.189584047469133
31
0
0
LINE
5
373
100
AcDbEntity
8
0
100
AcDbLine
10
146.76088053230231
20
-34.189584047469133
30
0
11
146.76088053230202
21
-47.089584040564588
31
0
0
LINE
5
374
100
AcDbEntity
8
0
100
AcDbLine
10
165.81088053230047
20
-34.189584047469133
30
0
11
165.81088053230047
21
-47.089584040564588
31
0
0
LINE
5
375
100
AcDbEntity
8
0
100
AcDbLine
10
183.76088053230094
20
-47.089584040564588
30
0
11
183.76088053230134
21
-34.189584047469133
31
0
0
SPLINE
5
376
100
AcDbEntity
8
0
100
AcDbSpline
70
0
71
3
72
10
73
6
74
0
42
0.000000001
43
0.0000000001
44
0.0000000001
40
6
40
6
40
6
40
6
40
7
40
7
40
8
40
8
40
8
40
8
10
164.71088053230019
20
-34.189584040565094
30
0
10
164.71088053325337
20
-33.88582742815791
30
0
10
164.95712392334519
20
-33.639584042110442
30
0
10
165.56463714815919
20
-33.639584045923421
30
0
10
165.810880534207
20
-33.885827435061948
30
0
10
165.81088053230047
20
-34.189584047469133
30
0
0
LINE
5
377
100
AcDbEntity
8
0
100
AcDbLine
10
161.68478699828
20
-10.357466211120961
30
0
11
173.48877657742707
21
-10.357466233104288
31
0
0
LINE
5
378
100
AcDbEntity
8
0
100
AcDbLine
10
173.48862823091457
20
-8.3574662551106407
30
0
11
137.98939479454037
21
-8.3574662551106407
31
0
0
SPLINE
5
379
100
AcDbEntity
8
0
100
AcDbSpline
70
0
71
3
72
11
73
7
74
0
42
0.000000001
43
0.0000000001
44
0.0000000001
40
70
40
70
40
70
40
70
40
71
40
71
40
71
40
72
40
72
40
72
40
72
10
149.79400262066437
20
-10.357466211120961
30
0
10
150.31589528133182
20
-10.357625802045531
30
0
10
150.73899905549698
20
-10.78053855698869
30
0
10
150.73939431916546
20
-11.302431092376853
30
0
10
150.73978988017041
20
-11.82471622105207
30
0
10
150.31671479359289
20
-12.248432638734458
30
0
10
149.79442966491769
20
-12.24882819973967
30
0
0
SPLINE
5
380
100
AcDbEntity
8
0
100
AcDbSpline
70
0
71
3
72
11
73
7
74
0
42
0.000000001
43
0.0000000001
44
0.0000000001
40
61
40
61
40
61
40
61
40
62
40
62
40
62
40
63
40
63
40
63
40
63
10
161.68426051279141
20
-12.24882829849266
30
0
10
161.16240645278759
20
-12.248378433039511
30
0
10
160.73955387730564
20
-11.825290378867642
30
0
10
160.73939454176838
20
-11.303436149285236
30
0
10
160.73923507461342
20
-10.781150845793876
30
0
10
161.16250169478838
20
-10.357625678275909
30
0
10
161.68478699828
20
-10.357466211120961
30
0
0
LWPOLYLINE
5
381
100
AcDbEntity
8
0
100
AcDbPolyline
90
4
70
1
43
0.0
10
285.81186493284758
20
-14.603345078653419
10
285.81186493284758
20
-30.603258295475456
10
278.1344165491725
20
-30.603258295475456
10
278.1344165491725
20
-14.603345078653419
0
LINE
5
382
100
AcDbEntity
8
0
100
AcDbLine
10
264.72345553238057
20
-47.103284041243938
30
0
11
264.72345553237994
21
-34.203284048149136
31
0
0
SPLINE
5
383
100
AcDbEntity
8
0
100
AcDbSpline
70
0
71
3
72
10
73
6
74
0
42
0.000000001
43
0.0000000001
44
0.0000000001
40
6
40
6
40
6
40
6
40
7
40
7
40
8
40
8
40
8
40
8
10
21.825915241844029
20
-15.139142641909631
30
0
10
21.825915242797436
20
-14.835386029503079
30
0
10
22.072158632889654
20
-14.58914264345562
30
0
10
22.679671857703809
20
-14.589142647268591
30
0
10
22.925915243751191
20
-14.835386036407758
30
0
10
22.925915241844379
20
-15.13914264881495
30
0
0
SPLINE
5
384
100
AcDbEntity
8
0
100
AcDbSpline
70
0
71
3
72
11
73
7
74
0
42
0.000000001
43
0.0000000001
44
0.0000000001
40
94
40
94
40
94
40
94
40
95
40
95
40
95
40
96
40
96
40
96
40
96
10
17.918715956041353
20
-10.357466214856929
30
0
10
18.440492267620385
20
-10.357633143638264
30
0
10
18.863541815210993
20
-10.780370399791979
30
0
10
18.864094056772842
20
-11.302146445830559
30
0
10
18.864646837004742
20
-11.824431445296462
30
0
10
18.441699306537487
20
-12.248275209598978
30
0
10
17.919414307071975
20
-12.248827989830929
30
0
0
LINE
5
385
100
AcDbEntity
8
0
100
AcDbLine
10
306.61826946021358
20
-12.248827955549451
30
0
11
293.55940187080137
21
-12.248828586394138
31
0
0
LINE
5
386
100
AcDbEntity
8
0
100
AcDbLine
10
265.82345553237928
20
-34.203284048149136
30
0
11
265.82345553237928
21
-47.103284041243938
31
0
0
LINE
5
387
100
AcDbEntity
8
0
100
AcDbLine
10
17.919414307071975
20
-12.248827989830929
30
0
11
3.8600545742028913
21
-12.248827379268407
31
0
0
SPLINE
5
388
100
AcDbEntity
8
0
100
AcDbSpline
70
0
71
3
72
11
73
7
74
0
42
0.000000001
43
0.0000000001
44
0.0000000001
40
82
40
82
40
82
40
82
40
83
40
83
40
83
40
84
40
84
40
84
40
84
10
84.856352682195507
20
-10.35746621110235
30
0
10
85.378229826586889
20
-10.357625823812606
30
0
10
85.801327141879852
20
-10.78051440392967
30
0
10
85.801744286312982
20
-11.302391406013987
30
0
10
85.802161756947655
20
-11.824676509111079
30
0
10
85.37910445236939
20
-12.248410667322549
30
0
10
84.856819349272172
20
-12.248828137956892
30
0
0
LWPOLYLINE
5
389
100
AcDbEntity
8
0
100
AcDbPolyline
90
4
70
1
43
0.0
10
305.61095553229882
20
-33.64349855200966
10
305.61095553229882
20
-47.643498552008232
10
291.61095553229865
20
-47.643498552008232
10
291.61095553229865
20
-33.64349855200966
0
LWPOLYLINE
5
390
100
AcDbEntity
8
0
100
AcDbPolyline
90
4
70
1
43
0.0
10
105.58588053229994
20
-33.639584044016935
10
105.58588053229994
20
-47.639584044016139
10
91.585880532300081
20
-47.639584044016139
10
91.585880532300081
20
-33.639584044016935
0
LINE
5
391
100
AcDbEntity
8
0
100
AcDbLine
10
8.6482805323001344
20
-34.189584047469772
30
0
11
8.6482805323001344
21
-47.089584040564588
31
0
0
LINE
5
392
100
AcDbEntity
8
0
100
AcDbLine
10
32.46088053230018
20
-34.189584047469133
30
0
11
32.46088053230018
21
-47.089584040563935
31
0
0
LINE
5
393
100
AcDbEntity
8
0
100
AcDbLine
10
293.55994239267164
20
-10.357466214812018
30
0
11
303.36379698285657
21
-10.357466255063228
31
0
0
SPLINE
5
394
100
AcDbEntity
8
0
100
AcDbSpline
70
0
71
3
72
11
73
7
74
0
42
0.000000001
43
0.0000000001
44
0.0000000001
40
85
40
85
40
85
40
85
40
86
40
86
40
86
40
87
40
87
40
87
40
87
10
31.808887729834296
20
-12.248828174889228
30
0
10
31.287062123223492
20
-12.248338190560377
30
0
10
30.864253861391973
20
-11.825261926566871
30
0
10
30.864094537843201
20
-11.303436114235641
30
0
10
30.8639350740075
20
-10.781150826787396
30
0
10
31.287201683867707
20
-10.357625674966657
30
0
10
31.809486971315621
20
-10.357466211131229
30
0
0
LINE
5
395
100
AcDbEntity
8
0
100
AcDbLine
10
31.910880532317023
20
-47.639584044017418
30
0
11
27.148280532361326
21
-47.639584044017418
31
0
0
LINE
5
396
100
AcDbEntity
8
0
100
AcDbLine
10
26.598280532299867
20
-47.089584040564588
30
0
11
26.598280532299867
21
-34.189584047469772
31
0
0
SPLINE
5
397
100
AcDbEntity
8
0
100
AcDbSpline
70
0
71
3
72
10
73
6
74
0
42
0.000000001
43
0.0000000001
44
0.0000000001
40
6
40
6
40
6
40
6
40
7
40
7
40
8
40
8
40
8
40
8
10
50.410880532299984
20
-34.189584040564455
30
0
10
50.41088053325339
20
-33.88582742815727
30
0
10
50.657123923345608
20
-33.639584042109803
30
0
10
51.264637148159693
20
-33.639584045923421
30
0
10
51.510880534207217
20
-33.885827435061948
30
0
10
51.510880532300263
20
-34.189584047469133
30
0
0
LINE
5
398
100
AcDbEntity
8
0
100
AcDbLine
10
267.86441523608471
20
-10.357466233067072
30
0
11
279.66917140186723
21
-10.357466211086949
31
0
0
SPLINE
5
399
100
AcDbEntity
8
0
100
AcDbSpline
70
0
71
3
72
10
73
6
74
0
42
0.000000001
43
0.0000000001
44
0.0000000001
40
40
40
40
40
40
40
40
40
41
40
41
40
42
40
42
40
42
40
42
10
303.36379698285657
20
-10.357466255063228
30
0
10
303.91608173271288
20
-10.357466255063228
30
0
10
304.36379698288198
20
-9.9097510048941508
30
0
10
304.36379698289608
20
-8.8051815052578988
30
0
10
303.91608173273823
20
-8.3574662550772683
30
0
10
303.36379698290762
20
-8.3574662550631587
30
0
0
LWPOLYLINE
5
400
100
AcDbEntity
8
0
100
AcDbPolyline
90
4
70
1
43
0.0
10
53.485880532300634
20
-33.639584044017575
10
67.485880532300769
20
-33.639584044017575
10
67.485880532300769
20
-47.639584044016779
10
53.485880532300634
20
-47.639584044016779
0
SPLINE
5
401
100
AcDbEntity
8
0
100
AcDbSpline
70
0
71
3
72
10
73
6
74
0
42
0.000000001
43
0.0000000001
44
0.0000000001
40
1
40
1
40
1
40
1
40
2
40
2
40
3
40
3
40
3
40
3
10
7.5482805323003532
20
-34.189584040564455
30
0
10
7.5482805332539726
20
-33.88582742815727
30
0
10
7.7945239233460484
20
-33.639584042110442
30
0
10
8.4020371481597067
20
-33.63958404592406
30
0
10
8.6482805342068048
20
-33.885827435063227
30
0
10
8.6482805323001344
20
-34.189584047469772
30
0
0
SPLINE
5
402
100
AcDbEntity
8
0
100
AcDbSpline
70
0
71
3
72
11
73
7
74
0
42
0.000000001
43
0.0000000001
44
0.0000000001
40
37
40
37
40
37
40
37
40
38
40
38
40
38
40
39
40
39
40
39
40
39
10
293.55940187080137
20
-12.248828586394138
30
0
10
293.03756377035995
20
-12.248363532228259
30
0
10
292.61473008564849
20
-11.825288099882481
30
0
10
292.61456329791611
20
-11.303449818871121
30
0
10
292.61439636728159
20
-10.781164431393551
30
0
10
293.03765700519472
20
-10.35763314544657
30
0
10
293.55994239267164
20
-10.357466214812018
30
0
0
SPLINE
5
403
100
AcDbEntity
8
0
100
AcDbSpline
70
0
71
3
72
10
73
6
74
0
42
0.000000001
43
0.0000000001
44
0.0000000001
40
5
40
5
40
5
40
5
40
6
40
6
40
7
40
7
40
7
40
7
10
261.06088053230047
20
-47.089584047470552
30
0
10
261.06088053134692
20
-47.39334065987709
30
0
10
260.81463714125459
20
-47.639584045923911
30
0
10
260.20712391644076
20
-47.639584042110286
30
0
10
259.96088053039398
20
-47.393340652971133
30
0
10
259.96088053230079
20
-47.089584040564588
30
0
0
SPLINE
5
404
100
AcDbEntity
8
0
100
AcDbSpline
70
0
71
3
72
10
73
6
74
0
42
0.000000001
43
0.0000000001
44
0.0000000001
40
1
40
1
40
1
40
1
40
2
40
2
40
3
40
3
40
3
40
3
10
259.96088053230108
20
-34.189584040563169
30
0
10
259.96088053325451
20
-33.885827428156624
30
0
10
260.20712392334678
20
-33.639584042109803
30
0
10
260.8146371481605
20
-33.639584045923421
30
0
10
261.0608805342074
20
-33.885827435062588
30
0
10
261.06088053230047
20
-34.189584047469133
30
0
0
LWPOLYLINE
5
405
100
AcDbEntity
8
0
100
AcDbPolyline
90
4
70
1
43
0.0
10
261.93591187858823
20
-14.603345078653419
10
261.93591187858823
20
-30.60325829547546
10
254.25846349491309
20
-30.603258295475456
10
254.25846349491309
20
-14.603345078653419
0
LWPOLYLINE
5
406
100
AcDbEntity
8
0
100
AcDbPolyline
90
4
70
1
43
0.0
10
24.911180532297976
20
-28.60328404402987
10
24.911180532297976
20
-14.603284044030659
10
38.91118053229782
20
-14.603284044030659
10
38.91118053229782
20
-28.60328404402987
0
LINE
5
407
100
AcDbEntity
8
0
100
AcDbLine
10
96.747136932842324
20
-10.357466211101709
30
0
11
108.55112647982492
21
-10.357466233084391
31
0
0
LWPOLYLINE
5
408
100
AcDbEntity
8
0
100
AcDbPolyline
90
4
70
1
43
0.0
10
96.060880532299507
20
-14.603284044018469
10
96.060880532299507
20
-28.603284044017681
10
82.060880532299649
20
-28.603284044017681
10
82.060880532299649
20
-14.603284044018469
0
LINE
5
409
100
AcDbEntity
8
0
100
AcDbLine
10
8.114094790604014
20
-10.35746625511071
30
0
11
17.918715956041353
21
-10.357466214856929
31
0
0
SPLINE
5
410
100
AcDbEntity
8
0
100
AcDbSpline
70
0
71
3
72
11
73
7
74
0
42
0.000000001
43
0.0000000001
44
0.0000000001
40
1
40
1
40
1
40
1
40
2
40
2
40
2
40
3
40
3
40
3
40
3
10
74.700776010369481
20
-49.527080359017077
30
0
10
74.341790922958637
20
-49.527082914475699
30
0
10
74.050778081940621
20
-49.818099898711161
30
0
10
74.050780637399143
20
-50.177084986121656
30
0
10
74.050783192857494
20
-50.536069993115724
30
0
10
74.341800051589104
20
-50.827082800824748
30
0
10
74.700785058583506
20
-50.827080359093173
30
0
0
SPLINE
5
411
100
AcDbEntity
8
0
100
AcDbSpline
70
0
71
3
72
8
73
4
74
0
42
0.000000001
43
0.0000000001
44
0.0000000001
40
8
40
8
40
8
40
8
40
9
40
9
40
9
40
9
10
32.460880532300465
20
-47.089584044017556
30
0
10
32.460880532300465
20
-47.39334065643181
30
0
10
32.214637144714473
20
-47.639584044017418
30
0
10
31.910880532317023
20
-47.639584044017418
30
0
0
SPLINE
5
412
100
AcDbEntity
8
0
100
AcDbSpline
70
0
71
3
72
10
73
6
74
0
42
0.000000001
43
0.0000000001
44
0.0000000001
40
2
40
2
40
2
40
2
40
3
40
3
40
4
40
4
40
4
40
4
10
265.82345553237928
20
-47.103284048150549
30
0
10
265.82345553142574
20
-47.407040660557101
30
0
10
265.57721214133335
20
-47.653284046603908
30
0
10
264.96969891651992
20
-47.653284042789664
30
0
10
264.72345553047342
20
-47.407040653651137
30
0
10
264.72345553238057
20
-47.103284041243938
30
0
0
SPLINE
5
413
100
AcDbEntity
8
0
100
AcDbSpline
70
0
71
3
72
10
73
6
74
0
42
0.000000001
43
0.0000000001
44
0.0000000001
40
6
40
6
40
6
40
6
40
7
40
7
40
8
40
8
40
8
40
8
10
55.173380532300627
20
-53.239584040562718
30
0
10
55.17338053325421
20
-52.935827428156173
30
0
10
55.419623923346641
20
-52.689584042108713
30
0
10
56.027137148160122
20
-52.68958404592297
30
0
10
56.273380534207185
20
-52.935827435061498
30
0
10
56.273380532299981
20
-53.239584047468682
30
0
0
SPLINE
5
414
100
AcDbEntity
8
0
100
AcDbSpline
70
0
71
3
72
11
73
7
74
0
42
0.000000001
43
0.0000000001
44
0.0000000001
40
46
40
46
40
46
40
46
40
47
40
47
40
47
40
48
40
48
40
48
40
48
10
279.66917140186723
20
-10.357466211086949
30
0
10
280.19109798115983
20
-10.357625845565558
30
0
10
280.61421579801083
20
-10.780591523887486
30
0
10
280.61456313295992
20
-11.302518012019087
30
0
10
280.61491070661333
20
-11.824803191904461
30
0
10
280.19179667708738
20
-12.248480749665621
30
0
10
279.66951149720239
20
-12.248828323319358
30
0
0
LINE
5
415
100
AcDbEntity
8
0
100
AcDbLine
10
259.96088053230079
20
-47.089584040564588
30
0
11
259.96088053230108
21
-34.189584047469133
31
0
0
LWPOLYLINE
5
416
100
AcDbEntity
8
0
100
AcDbPolyline
90
4
70
1
43
0.0
10
272.56125553229833
20
-90.804455405292799
10
286.56125553229822
20
-90.804455405292799
10
286.56125553229822
20
-104.804455405292
10
272.56125553229833
20
-104.804455405292
0
LWPOLYLINE
5
417
100
AcDbEntity
8
0
100
AcDbPolyline
90
4
70
1
43
0.0
10
234.46088053230022
20
-28.603284044017038
10
234.46088053230022
20
-14.603284044018469
10
248.46088053230008
20
-14.603284044018469
10
248.46088053230008
20
-28.603284044017038
0
CIRCLE
5
418
100
AcDbEntity
8
0
100
AcDbCircle
10
117.63603053229851
20
-23.603284044018302
30
0
40
1.9999999999996689
210
0
220
0
230
1
0
LINE
5
419
100
AcDbEntity
8
0
100
AcDbLine
10
50.410880532299984
20
-47.089584040563935
30
0
11
50.410880532299984
21
-34.189584047469133
31
0
0
SPLINE
5
420
100
AcDbEntity
8
0
100
AcDbSpline
70
0
71
3
72
11
73
7
74
0
42
0.000000001
43
0.0000000001
44
0.0000000001
40
113
40
113
40
113
40
113
40
114
40
114
40
114
40
115
40
115
40
115
40
115
10
84.856819350194144
20
-107.15891025245391
30
0
10
85.37869635188045
20
-107.15932739739583
30
0
10
85.801584931420649
20
-107.58242471248096
30
0
10
85.80174454418362
20
-108.10430185647445
30
0
10
85.801904281762091
20
-108.6265871019896
30
0
10
85.378637927806864
20
-109.05011244172996
30
0
10
84.856352682291771
20
-109.05027217930844
30
0
0
SPLINE
5
421
100
AcDbEntity
8
0
100
AcDbSpline
70
0
71
3
72
11
73
7
74
0
42
0.000000001
43
0.0000000001
44
0.0000000001
40
3
40
3
40
3
40
3
40
4
40
4
40
4
40
5
40
5
40
5
40
5
10
140.42987682895628
20
-30.471430039841746
30
0
10
140.07089174154606
20
-30.471432552825025
30
0
10
139.77987886609552
20
-30.762449502627561
30
0
10
139.77988137907909
20
-31.121434590038053
30
0
10
139.779883892062
20
-31.480419535293606
30
0
10
140.07090062000898
20
-31.771432351863858
30
0
10
140.42988556526606
20
-31.771430039917835
30
0
0
SPLINE
5
422
100
AcDbEntity
8
0
100
AcDbSpline
70
0
71
3
72
11
73
7
74
0
42
0.000000001
43
0.0000000001
44
0.0000000001
40
3
40
3
40
3
40
3
40
4
40
4
40
4
40
5
40
5
40
5
40
5
10
108.84976612737006
20
-68.55208506533549
30
0
10
109.2087510711584
20
-68.552087577279863
30
0
10
109.4997638879619
20
-68.843104302095014
30
0
10
109.49976157912964
20
-69.202089245884281
30
0
10
109.49975927029691
20
-69.561074333296048
30
0
10
109.20874248599009
20
-69.852087374244718
30
0
10
108.84975739857825
20
-69.852085065411572
30
0
0
SPLINE
5
423
100
AcDbEntity
8
0
100
AcDbSpline
70
0
71
3
72
10
73
6
74
0
42
0.000000001
43
0.0000000001
44
0.0000000001
40
104
40
104
40
104
40
104
40
105
40
105
40
106
40
106
40
106
40
106
10
8.1140947906296645
20
-109.05027213530008
30
0
10
7.5618100407724143
20
-109.05027213530008
30
0
10
7.1140947906033603
20
-109.49798738546981
30
0
10
7.1140947905889362
20
-110.60255688510478
30
0
10
7.5618100407461242
20
-111.05027213528606
30
0
10
8.1140947905769423
20
-111.05027213530013
30
0
0
SPLINE
5
424
100
AcDbEntity
8
0
100
AcDbSpline
70
0
71
3
72
10
73
6
74
0
42
0.000000001
43
0.0000000001
44
0.0000000001
40
5
40
5
40
5
40
5
40
6
40
6
40
7
40
7
40
7
40
7
10
84.851173437153705
20
-85.189142648813728
30
0
10
84.851173436200398
20
-85.492899261220913
30
0
10
84.604930046108606
20
-85.73914264726838
30
0
10
83.997416821294479
20
-85.739142643455395
30
0
10
83.751173435246784
20
-85.492899254316868
30
0
10
83.751173437153312
20
-85.189142641909683
30
0
0
LINE
5
425
100
AcDbEntity
8
0
100
AcDbLine
10
43.613476526825821
20
-109.05027215729302
30
0
11
31.809486971167331
21
-109.05027217927955
31
0
0
LWPOLYLINE
5
426
100
AcDbEntity
8
0
100
AcDbPolyline
90
4
70
1
43
0.0
10
305.60859582255364
20
-104.80880807155238
10
291.60859582255375
20
-104.80880807155238
10
291.60859582255375
20
-90.808808071553131
10
305.60859582255364
20
-90.808808071553131
0
LINE
5
427
100
AcDbEntity
8
0
100
AcDbLine
10
8.1140947905769423
20
-111.05027213530013
30
0
11
43.61332822697662
21
-111.05027213530013
31
0
0
SPLINE
5
428
100
AcDbEntity
8
0
100
AcDbSpline
70
0
71
3
72
10
73
6
74
0
42
0.000000001
43
0.0000000001
44
0.0000000001
40
5
40
5
40
5
40
5
40
6
40
6
40
7
40
7
40
7
40
7
10
70.560880532300445
20
-47.089584047470552
30
0
10
70.560880531346896
20
-47.39334065987709
30
0
10
70.31463714125448
20
-47.639584045923911
30
0
10
69.707123916440821
20
-47.639584042110286
30
0
10
69.460880530393965
20
-47.393340652971133
30
0
10
69.460880532301132
20
-47.089584040564588
30
0
0
LINE
5
429
100
AcDbEntity
8
0
100
AcDbLine
10
74.700785058583506
20
-50.827080359093173
30
0
11
130.87828502741516
21
-50.826902735569568
31
0
0
LINE
5
430
100
AcDbEntity
8
0
100
AcDbLine
10
267.86456354650863
20
-111.05027213534765
30
0
11
303.36379698288289
21
-111.05027213534765
31
0
0
LINE
5
431
100
AcDbEntity
8
0
100
AcDbLine
10
102.80111524206919
20
-85.189142641909683
30
0
11
102.80111524206919
21
-72.289142648814874
31
0
0
LINE
5
432
100
AcDbEntity
8
0
100
AcDbLine
10
108.55112647975776
20
-109.05027215732642
30
0
11
96.747136932855085
21
-109.05027217930844
31
0
0
LINE
5
433
100
AcDbEntity
8
0
100
AcDbLine
10
226.6223055408025
20
-10.357466211015078
30
0
11
238.42629510082205
21
-10.357466232970808
31
0
0
LWPOLYLINE
5
434
100
AcDbEntity
8
0
100
AcDbPolyline
90
4
70
1
43
0.0
10
86.826144339610991
20
-85.73914588575019
10
86.826144339610991
20
-71.739145885750972
10
100.82614433961083
20
-71.739145885750972
10
100.82614433961083
20
-85.73914588575019
0
SPLINE
5
435
100
AcDbEntity
8
0
100
AcDbSpline
70
0
71
3
72
11
73
7
74
0
42
0.000000001
43
0.0000000001
44
0.0000000001
40
119
40
119
40
119
40
119
40
120
40
120
40
120
40
121
40
121
40
121
40
121
10
108.55097822894606
20
-111.05027213534765
30
0
10
109.10326297574208
20
-111.05027213838162
30
0
10
109.5509782259106
20
-110.60255689313243
30
0
10
109.55097822894452
20
-110.0502721463367
30
0
10
109.55097823197846
20
-109.49804528990455
30
0
10
109.10335333012182
20
-109.05035402237269
30
0
10
108.55112647975776
20
-109.05027215732642
30
0
0
SPLINE
5
436
100
AcDbEntity
8
0
100
AcDbSpline
70
0
71
3
72
10
73
6
74
0
42
0.000000001
43
0.0000000001
44
0.0000000001
40
6
40
6
40
6
40
6
40
7
40
7
40
8
40
8
40
8
40
8
10
126.61088053229977
20
-34.189584040565094
30
0
10
126.61088053325301
20
-33.88582742815791
30
0
10
126.85712392334509
20
-33.639584042110442
30
0
10
127.46463714815889
20
-33.639584045923421
30
0
10
127.71088053420655
20
-33.885827435061948
30
0
10
127.7108805323001
20
-34.189584047469133
30
0
0
LINE
5
437
100
AcDbEntity
8
0
100
AcDbLine
10
3.8600544656713964
20
-107.15890935838939
30
0
11
17.919420239793808
21
-107.15891039077469
31
0
0
LWPOLYLINE
5
438
100
AcDbEntity
8
0
100
AcDbPolyline
90
4
70
1
43
0.0
10
8.9968797952407442
20
-71.739206929930532
10
16.6743281789158
20
-71.739206929930532
10
16.6743281789158
20
-87.739120146752583
10
8.9968797952407442
20
-87.739120146752583
0
SPLINE
5
439
100
AcDbEntity
8
0
100
AcDbSpline
70
0
71
3
72
11
73
7
74
0
42
0.000000001
43
0.0000000001
44
0.0000000001
40
4
40
4
40
4
40
4
40
5
40
5
40
5
40
6
40
6
40
6
40
6
10
130.87828502741516
20
-50.826902735569568
30
0
10
131.23727011487608
20
-50.826900178929577
30
0
10
131.5282829549775
20
-50.535883193696272
30
0
10
131.5282803983375
20
-50.176898106235086
30
0
10
131.5282778448973
20
-49.818362295837147
30
0
10
131.23796167824469
20
-49.52753588663839
30
0
10
130.87942642510717
20
-49.526903745588072
30
0
0
SPLINE
5
440
100
AcDbEntity
8
0
100
AcDbSpline
70
0
71
3
72
8
73
4
74
0
42
0.000000001
43
0.0000000001
44
0.0000000001
40
11
40
11
40
11
40
11
40
12
40
12
40
12
40
12
10
29.527130528804832
20
-66.689584044016343
30
0
10
29.223373916409088
20
-66.689584043057323
30
0
10
28.977130530380606
20
-66.443340652959137
30
0
10
28.977130532298858
20
-66.139584040562852
30
0
0
LINE
5
441
100
AcDbEntity
8
0
100
AcDbLine
10
36.673380532299689
20
-66.689584044016343
30
0
11
29.52713053225736
21
-66.689584044016343
31
0
0
SPLINE
5
442
100
AcDbEntity
8
0
100
AcDbSpline
70
0
71
3
72
11
73
7
74
0
42
0.000000001
43
0.0000000001
44
0.0000000001
40
30
40
30
40
30
40
30
40
31
40
31
40
31
40
32
40
32
40
32
40
32
10
293.55994239261071
20
-109.05027217559878
30
0
10
293.03808501829781
20
-109.05010538983228
30
0
10
292.61500166413788
20
-108.62724192490504
30
0
10
292.61456358282987
20
-108.10538470781705
30
0
10
292.6141251422265
20
-107.58309948580478
30
0
10
293.03716554368589
20
-107.15934823167598
30
0
10
293.55945076569787
20
-107.15890979107229
30
0
0
LINE
5
443
100
AcDbEntity
8
0
100
AcDbLine
10
265.33654995135089
20
-85.175001243253973
30
0
11
265.33654995135061
21
-83.341695585348077
31
0
0
LWPOLYLINE
5
444
100
AcDbEntity
8
0
100
AcDbPolyline
90
4
70
1
43
0.0
10
8.2416055322988058
20
-104.8031990440131
10
8.2416055322988058
20
-90.803199044013894
10
22.241605532298649
20
-90.803199044013894
10
22.241605532298649
20
-104.8031990440131
0
SPLINE
5
445
100
AcDbEntity
8
0
100
AcDbSpline
70
0
71
3
72
11
73
7
74
0
42
0.000000001
43
0.0000000001
44
0.0000000001
40
49
40
49
40
49
40
49
40
50
40
50
40
50
40
51
40
51
40
51
40
51
10
226.62181843564917
20
-12.248828360204218
30
0
10
226.09994914745181
20
-12.248400091009676
30
0
10
225.67707275448521
20
-11.82530582508458
30
0
10
225.67691329182978
20
-11.303436385521611
30
0
10
225.6767537021004
20
-10.781151074076389
30
0
10
226.10002022935731
20
-10.357625800744806
30
0
10
226.6223055408025
20
-10.357466211015078
30
0
0
LINE
5
446
100
AcDbEntity
8
0
100
AcDbLine
10
127.7108805323001
20
-34.189584047469133
30
0
11
127.7108805323001
21
-47.089584040564588
31
0
0
LINE
5
447
100
AcDbEntity
8
0
100
AcDbLine
10
232.47531524180482
20
-26.211166839153577
30
0
11
232.47531524180346
21
-28.039142641909759
31
0
0
SPLINE
5
448
100
AcDbEntity
8
0
100
AcDbSpline
70
0
71
3
72
11
73
7
74
0
42
0.000000001
43
0.0000000001
44
0.0000000001
40
1
40
1
40
1
40
1
40
2
40
2
40
2
40
3
40
3
40
3
40
3
10
137.97827597927937
20
-49.526894727208827
30
0
10
137.6192908918685
20
-49.526897282667441
30
0
10
137.3282780508508
20
-49.817914266902918
30
0
10
137.32828060630936
20
-50.176899354313406
30
0
10
137.32828316176767
20
-50.535884361306813
30
0
10
137.61930002049908
20
-50.826897169015851
30
0
10
137.9782850274934
20
-50.826894727284909
30
0
0
LINE
5
449
100
AcDbEntity
8
0
100
AcDbLine
10
126.61088053229977
20
-47.089584040564588
30
0
11
126.61088053229977
21
-34.189584047469133
31
0
0
SPLINE
5
450
100
AcDbEntity
8
0
100
AcDbSpline
70
0
71
3
72
11
73
7
74
0
42
0.000000001
43
0.0000000001
44
0.0000000001
40
101
40
101
40
101
40
101
40
102
40
102
40
102
40
103
40
103
40
103
40
103
10
17.919420239793808
20
-107.15891039077469
30
0
10
18.441193964269615
20
-107.15946590766632
30
0
10
18.863927605515087
20
-107.58251449162076
30
0
10
18.86409453804589
20
-108.10428848511438
30
0
10
18.864261634150594
20
-108.62657375482797
30
0
10
18.441001225843152
20
-109.05010507944887
30
0
10
17.918715956129532
20
-109.05027217555386
30
0
0
SPLINE
5
451
100
AcDbEntity
8
0
100
AcDbSpline
70
0
71
3
72
10
73
6
74
0
42
0.000000001
43
0.0000000001
44
0.0000000001
40
5
40
5
40
5
40
5
40
6
40
6
40
7
40
7
40
7
40
7
10
75.323380532300177
20
-66.139584047470748
30
0
10
75.323380531346487
20
-66.443340659877293
30
0
10
75.077137141253587
20
-66.689584045924107
30
0
10
74.469623916439616
20
-66.689584042109203
30
0
10
74.22338053039276
20
-66.443340652970036
30
0
10
74.223380532300638
20
-66.139584040563491
30
0
0
SPLINE
5
452
100
AcDbEntity
8
0
100
AcDbSpline
70
0
71
3
72
11
73
7
74
0
42
0.000000001
43
0.0000000001
44
0.0000000001
40
24
40
24
40
24
40
24
40
25
40
25
40
25
40
26
40
26
40
26
40
26
10
267.86441523611131
20
-109.05027215734373
30
0
10
267.31213049539122
20
-109.05035406387779
30
0
10
266.86448165097295
20
-109.49813570502648
30
0
10
266.86456355750704
20
-110.05042044574657
30
0
10
266.86464545545255
20
-110.60264727283771
30
0
10
267.31233671334451
20
-111.05027213838353
30
0
10
267.86456354650863
20
-111.05027213534765
30
0
0
LINE
5
453
100
AcDbEntity
8
0
100
AcDbLine
10
133.32987682887764
20
-31.771430039917835
30
0
11
83.458174494517152
21
-31.771430039903073
31
0
0
SPLINE
5
454
100
AcDbEntity
8
0
100
AcDbSpline
70
0
71
3
72
8
73
4
74
0
42
0.000000001
43
0.0000000001
44
0.0000000001
40
33
40
33
40
33
40
33
40
34
40
34
40
34
40
34
10
306.61811906426414
20
-107.15890909373218
30
0
10
307.19795985917614
20
-107.15882327184897
30
0
10
307.66796834126308
20
-106.68874566005876
30
0
10
307.66796888537635
20
-106.10890485879551
30
0
0
LINE
5
455
100
AcDbEntity
8
0
100
AcDbLine
10
43.61332822697662
20
-8.3574662551106407
30
0
11
8.1140947906023086
21
-8.3574662551100012
31
0
0
LINE
5
456
100
AcDbEntity
8
0
100
AcDbLine
10
103.90111524206858
20
-72.289142648814874
30
0
11
103.90111524206858
21
-85.189142641909683
31
0
0
LINE
5
457
100
AcDbEntity
8
0
100
AcDbLine
10
84.851173437153875
20
-72.289142648814874
30
0
11
84.851173437153705
21
-85.189142641909683
31
0
0
SPLINE
5
458
100
AcDbEntity
8
0
100
AcDbSpline
70
0
71
3
72
11
73
7
74
0
42
0.000000001
43
0.0000000001
44
0.0000000001
40
88
40
88
40
88
40
88
40
89
40
89
40
89
40
90
40
90
40
90
40
90
10
43.613476526971127
20
-10.35746623311776
30
0
10
44.165761267692147
20
-10.357384332328202
30
0
10
44.61341011676879
20
-9.9096026958356767
30
0
10
44.613328215979564
20
-9.3573179551149224
30
0
10
44.6132463237781
20
-8.8050911239605725
30
0
10
44.165555064202948
20
-8.357466252074758
30
0
10
43.61332822697662
20
-8.3574662551106407
30
0
0
LINE
5
459
100
AcDbEntity
8
0
100
AcDbLine
10
231.37531524180338
20
-28.039142641909759
30
0
11
231.37531524180275
21
-26.205836984003867
31
0
0
LINE
5
460
100
AcDbEntity
8
0
100
AcDbLine
10
107.56088053230044
20
-47.089584040564588
30
0
11
107.56088053230044
21
-34.189584047469133
31
0
0
LINE
5
461
100
AcDbEntity
8
0
100
AcDbLine
10
83.751173437153312
20
-85.189142641909683
30
0
11
83.751173437154307
21
-72.289142648814874
31
0
0
SPLINE
5
462
100
AcDbEntity
8
0
100
AcDbSpline
70
0
71
3
72
10
73
6
74
0
42
0.000000001
43
0.0000000001
44
0.0000000001
40
2
40
2
40
2
40
2
40
3
40
3
40
4
40
4
40
4
40
4
10
103.90111524206858
20
-85.189142648815022
30
0
10
103.90111524111511
20
-85.492899261222206
30
0
10
103.65487185102289
20
-85.73914264726902
30
0
10
103.04735862620944
20
-85.739142643455395
30
0
10
102.80111524016228
20
-85.492899254316868
30
0
10
102.80111524206919
20
-85.189142641909683
30
0
0
SPLINE
5
463
100
AcDbEntity
8
0
100
AcDbSpline
70
0
71
3
72
10
73
6
74
0
42
0.000000001
43
0.0000000001
44
0.0000000001
40
6
40
6
40
6
40
6
40
7
40
7
40
8
40
8
40
8
40
8
10
231.37531524180309
20
-15.139142641909631
30
0
10
231.37531524275653
20
-14.835386029503079
30
0
10
231.6215586328488
20
-14.58914264345562
30
0
10
232.2290718576628
20
-14.589142647268591
30
0
10
232.47531524371027
20
-14.835386036407758
30
0
10
232.47531524180346
20
-15.13914264881495
30
0
0
SPLINE
5
464
100
AcDbEntity
8
0
100
AcDbSpline
70
0
71
3
72
11
73
7
74
0
42
0.000000001
43
0.0000000001
44
0.0000000001
40
21
40
21
40
21
40
21
40
22
40
22
40
22
40
23
40
23
40
23
40
23
10
279.66951149714657
20
-107.15891006709144
30
0
10
280.19143798524738
20
-107.15925740200939
30
0
10
280.61440366358147
20
-107.58237521878719
30
0
10
280.6145632981345
20
-108.10430179804841
30
0
10
280.61472304239601
20
-108.62658706915707
30
0
10
280.1914566731113
20
-109.05011243506209
30
0
10
279.66917140200292
20
-109.05027217932385
30
0
0
SPLINE
5
465
100
AcDbEntity
8
0
100
AcDbSpline
70
0
71
3
72
10
73
6
74
0
42
0.000000001
43
0.0000000001
44
0.0000000001
40
2
40
2
40
2
40
2
40
3
40
3
40
4
40
4
40
4
40
4
10
51.510880532300263
20
-47.089584047469906
30
0
10
51.510880531346714
20
-47.39334065987709
30
0
10
51.264637141254106
20
-47.639584045923911
30
0
10
50.65712391644027
20
-47.639584042110286
30
0
10
50.410880530392745
20
-47.393340652971133
30
0
10
50.410880532299984
20
-47.089584040563935
30
0
0
SPLINE
5
466
100
AcDbEntity
8
0
100
AcDbSpline
70
0
71
3
72
17
73
13
74
0
42
0.000000001
43
0.0000000001
44
0.0000000001
40
0
40
0
40
0
40
0
40
1
40
1
40
1
40
2
40
2
40
2
40
3
40
3
40
3
40
4
40
4
40
4
40
4
10
231.37531524180275
20
-26.205836984003867
30
0
10
231.37531524180275
20
-25.842052200082684
30
0
10
231.1870153191378
20
-25.504187252490205
30
0
10
230.8776238105207
20
-25.312833487414473
30
0
10
230.61393262325703
20
-25.149744649826449
30
0
10
230.39176992835181
20
-24.927581954921276
30
0
10
230.22868109076376
20
-24.663890767657847
30
0
10
229.64766851990007
20
-23.724477029158507
30
0
10
229.93821007202169
20
-22.491927976032375
30
0
10
230.8776238105207
20
-21.910915405168385
30
0
10
231.1870153191378
20
-21.719561640093289
30
0
10
231.37531524180309
20
-21.381696692500817
30
0
10
231.37531524180309
20
-21.017911908578991
30
0
0
LINE
5
467
100
AcDbEntity
8
0
100
AcDbLine
10
83.458183230826677
20
-30.471430039826988
30
0
11
133.32988556518757
21
-30.471430039841746
31
0
0
LINE
5
468
100
AcDbEntity
8
0
100
AcDbLine
10
232.47531524180346
20
-15.13914264881495
30
0
11
232.4753152418038
21
-21.012582053429277
31
0
0
SPLINE
5
469
100
AcDbEntity
8
0
100
AcDbSpline
70
0
71
3
72
11
73
7
74
0
42
0.000000001
43
0.0000000001
44
0.0000000001
40
0
40
0
40
0
40
0
40
1
40
1
40
1
40
2
40
2
40
2
40
2
10
250.823286229963
20
-30.471430039841106
30
0
10
251.18227117521946
20
-30.471432552823742
30
0
10
251.4732839917898
20
-30.762449280771026
30
0
10
251.47328167984341
20
-31.121434226029141
30
0
10
251.47327936789608
20
-31.480419313440919
30
0
10
251.18226258106489
20
-31.771432351864497
30
0
10
250.82327749365308
20
-31.771430039917835
30
0
0
SPLINE
5
470
100
AcDbEntity
8
0
100
AcDbSpline
70
0
71
3
72
10
73
6
74
0
42
0.000000001
43
0.0000000001
44
0.0000000001
40
5
40
5
40
5
40
5
40
6
40
6
40
7
40
7
40
7
40
7
10
108.66088053230087
20
-47.089584047469259
30
0
10
108.66088053134746
20
-47.393340659875811
30
0
10
108.41463714125517
20
-47.639584045923264
30
0
10
107.80712391644116
20
-47.639584042110286
30
0
10
107.5608805303938
20
-47.393340652971133
30
0
10
107.56088053230044
20
-47.089584040564588
30
0
0
SPLINE
5
471
100
AcDbEntity
8
0
100
AcDbSpline
70
0
71
3
72
11
73
7
74
0
42
0.000000001
43
0.0000000001
44
0.0000000001
40
52
40
52
40
52
40
52
40
53
40
53
40
53
40
54
40
54
40
54
40
54
10
238.42629510082205
20
-10.357466232970808
30
0
10
238.9785798415657
20
-10.357384431633051
30
0
10
239.4262287712817
20
-9.9096028757443388
30
0
10
239.42614696994434
20
-9.3573181350011261
30
0
10
239.42606517717351
20
-8.805091233508854
30
0
10
238.97837388846369
20
-8.3574662518816076
30
0
10
238.42614698091438
20
-8.3574662549104275
30
0
0
SPLINE
5
472
100
AcDbEntity
8
0
100
AcDbSpline
70
0
71
3
72
8
73
4
74
0
42
0.000000001
43
0.0000000001
44
0.0000000001
40
5
40
5
40
5
40
5
40
6
40
6
40
6
40
6
10
36.673380535750795
20
-52.689584044015838
30
0
10
36.977137148158192
20
-52.689584044969081
30
0
10
37.223380534206356
20
-52.935827435060851
30
0
10
37.223380532300183
20
-53.239584047468682
30
0
0
SPLINE
5
473
100
AcDbEntity
8
0
100
AcDbSpline
70
0
71
3
72
11
73
7
74
0
42
0.000000001
43
0.0000000001
44
0.0000000001
40
0
40
0
40
0
40
0
40
1
40
1
40
1
40
2
40
2
40
2
40
2
10
288.49033739461544
20
-104.15880636641089
30
0
10
288.49033737818053
20
-104.51779173391017
30
0
10
288.78135250454039
20
-104.80880688691627
30
0
10
289.14033787203971
20
-104.80880690335144
30
0
10
289.49887488360741
20
-104.80880691976611
30
0
10
289.78970398362287
20
-104.51849117451917
30
0
10
289.79033739463182
20
-104.1599547224607
30
0
0
LINE
5
474
100
AcDbEntity
8
0
100
AcDbLine
10
130.87942642510717
20
-49.526903745588072
30
0
11
74.700776010369481
21
-49.527080359017077
31
0
0
SPLINE
5
475
100
AcDbEntity
8
0
100
AcDbSpline
70
0
71
3
72
17
73
13
74
0
42
0.000000001
43
0.0000000001
44
0.0000000001
40
9
40
9
40
9
40
9
40
10
40
10
40
10
40
11
40
11
40
11
40
12
40
12
40
12
40
13
40
13
40
13
40
13
10
266.43654995135148
20
-78.148440654773481
30
0
10
266.43654995135148
20
-78.513470335098745
30
0
10
266.62613102130138
20
-78.852305650586089
30
0
10
266.93721917580615
20
-79.043279019529578
30
0
10
267.20528929198747
20
-79.207844119353311
30
0
10
267.43076376971658
20
-79.433318597082732
30
0
10
267.59532886954071
20
-79.701388713263967
30
0
10
268.17320888848627
20
-80.642732679774909
30
0
10
267.87856314231715
20
-81.874307056797321
30
0
10
266.93721917580615
20
-82.452187075742984
30
0
10
266.62613102130229
20
-82.643160444685847
30
0
10
266.4365499513525
20
-82.981995760172538
30
0
10
266.4365499513525
20
-83.347025440497788
30
0
0
SPLINE
5
476
100
AcDbEntity
8
0
100
AcDbSpline
70
0
71
3
72
8
73
4
74
0
42
0.000000001
43
0.0000000001
44
0.0000000001
40
99
40
99
40
99
40
99
40
100
40
100
40
100
40
100
10
2.8100541400785062
20
-106.10890485879551
30
0
10
2.8100547432057255
20
-106.68880445130486
30
0
10
3.2801548731687546
20
-107.15890645002773
30
0
10
3.8600544656713964
20
-107.15890935838939
30
0
0
LINE
5
477
100
AcDbEntity
8
0
100
AcDbLine
10
288.49033857278732
20
-76.858646166710272
30
0
11
288.49033739461544
21
-104.15880636641089
31
0
0
LINE
5
478
100
AcDbEntity
8
0
100
AcDbLine
10
266.4365499513525
20
-83.347025440497788
30
0
11
266.43654995135125
21
-85.175001243253973
31
0
0
LWPOLYLINE
5
479
100
AcDbEntity
8
0
100
AcDbPolyline
90
4
70
1
43
0.0
10
43.961180532297846
20
-14.6032840440313
10
57.96118053229808
20
-14.6032840440313
10
57.96118053229808
20
-28.60328404402987
10
43.961180532297846
20
-28.60328404402987
0
SPLINE
5
480
100
AcDbEntity
8
0
100
AcDbSpline
70
0
71
3
72
10
73
6
74
0
42
0.000000001
43
0.0000000001
44
0.0000000001
40
27
40
27
40
27
40
27
40
28
40
28
40
29
40
29
40
29
40
29
10
303.36379698288289
20
-111.05027213534765
30
0
10
303.91608173271288
20
-111.05027213534765
30
0
10
304.36379698288198
20
-110.60255688517854
30
0
10
304.3637969828813
20
-109.497987385516
30
0
10
303.91608173271197
20
-109.05027213534692
30
0
10
303.36379698288101
20
-109.05027213534758
30
0
0
LINE
5
481
100
AcDbEntity
8
0
100
AcDbLine
10
11.423285089673314
20
-50.827265990901438
30
0
11
67.600785058505295
21
-50.827088367377833
31
0
0
LINE
5
482
100
AcDbEntity
8
0
100
AcDbLine
10
279.66917140200292
20
-109.05027217932385
30
0
11
267.86441523611131
21
-109.05027215734373
31
0
0
SPLINE
5
483
100
AcDbEntity
8
0
100
AcDbSpline
70
0
71
3
72
10
73
6
74
0
42
0.000000001
43
0.0000000001
44
0.0000000001
40
2
40
2
40
2
40
2
40
3
40
3
40
4
40
4
40
4
40
4
10
89.610880532300641
20
-47.089584047469259
30
0
10
89.610880531347277
20
-47.393340659875811
30
0
10
89.364637141255088
20
-47.639584045923264
30
0
10
88.757123916441287
20
-47.639584042110286
30
0
10
88.510880530393877
20
-47.393340652971133
30
0
10
88.510880532300689
20
-47.089584040564588
30
0
0
LINE
5
484
100
AcDbEntity
8
0
100
AcDbLine
10
231.37531524180309
20
-21.017911908578991
30
0
11
231.37531524180309
21
-15.13914264881495
31
0
0
LINE
5
485
100
AcDbEntity
8
0
100
AcDbLine
10
303.36379698288101
20
-109.05027213534758
30
0
11
293.55994239261071
21
-109.05027217559878
31
0
0
SPLINE
5
486
100
AcDbEntity
8
0
100
AcDbSpline
70
0
71
3
72
11
73
7
74
0
42
0.000000001
43
0.0000000001
44
0.0000000001
40
4
40
4
40
4
40
4
40
5
40
5
40
5
40
6
40
6
40
6
40
6
10
67.600785058505295
20
-50.827088367377833
30
0
10
67.959770145966161
20
-50.827085810737842
30
0
10
68.25078298606752
20
-50.536068825504536
30
0
10
68.250780429427635
20
-50.177083738043336
30
0
10
68.250777875987325
20
-49.818547927644765
30
0
10
67.960461709334794
20
-49.527721518446015
30
0
10
67.601926456197276
20
-49.527089377395697
30
0
0
SPLINE
5
487
100
AcDbEntity
8
0
100
AcDbSpline
70
0
71
3
72
11
73
7
74
0
42
0.000000001
43
0.0000000001
44
0.0000000001
40
122
40
122
40
122
40
122
40
123
40
123
40
123
40
124
40
124
40
124
40
124
10
96.747136932855085
20
-109.05027217930844
30
0
10
96.225297221656092
20
-109.05011282119804
30
0
10
95.802215214038355
20
-108.62728286266767
30
0
10
95.801744879835198
20
-108.10544333909274
30
0
10
95.801274144026564
20
-107.58315823141646
30
0
10
96.224288272362088
20
-107.15938088953877
30
0
10
96.746573380037972
20
-107.15891015373046
30
0
0
SPLINE
5
488
100
AcDbEntity
8
0
100
AcDbSpline
70
0
71
3
72
10
73
6
74
0
42
0.000000001
43
0.0000000001
44
0.0000000001
40
1
40
1
40
1
40
1
40
2
40
2
40
3
40
3
40
3
40
3
10
69.460880532301132
20
-34.189584040563169
30
0
10
69.46088053325451
20
-33.885827428156624
30
0
10
69.707123923347112
20
-33.639584042109803
30
0
10
70.314637148160486
20
-33.639584045923421
30
0
10
70.560880534207655
20
-33.885827435062588
30
0
10
70.560880532300445
20
-34.189584047469133
30
0
0
SPLINE
5
489
100
AcDbEntity
8
0
100
AcDbSpline
70
0
71
3
72
11
73
7
74
0
42
0.000000001
43
0.0000000001
44
0.0000000001
40
110
40
110
40
110
40
110
40
111
40
111
40
111
40
112
40
112
40
112
40
112
10
31.809486971167331
20
-109.05027217927955
30
0
10
31.287661158864708
20
-109.0501128556496
30
0
10
30.864584894949161
20
-108.62730459379731
30
0
10
30.864094910661137
20
-108.10547898721467
30
0
10
30.863604494934833
20
-107.5831939056684
30
0
10
31.286602648362205
20
-107.15940063124734
30
0
10
31.808887729908122
20
-107.15891021552156
30
0
0
LINE
5
490
100
AcDbEntity
8
0
100
AcDbLine
10
31.809486971315621
20
-10.357466211131229
30
0
11
43.613476526971127
21
-10.35746623311776
31
0
0
LINE
5
491
100
AcDbEntity
8
0
100
AcDbLine
10
89.610880532300641
20
-34.189584047469133
30
0
11
89.610880532300641
21
-47.089584040564588
31
0
0
LINE
5
492
100
AcDbEntity
8
0
100
AcDbLine
10
67.601926456197276
20
-49.527089377395697
30
0
11
11.423276041459616
21
-49.527265990825349
31
0
0
LINE
5
493
100
AcDbEntity
8
0
100
AcDbLine
10
293.55945076569787
20
-107.15890979107229
30
0
11
306.61811906426414
21
-107.15890909373218
31
0
0
SPLINE
5
494
100
AcDbEntity
8
0
100
AcDbSpline
70
0
71
3
72
10
73
6
74
0
42
0.000000001
43
0.0000000001
44
0.0000000001
40
15
40
15
40
15
40
15
40
16
40
16
40
17
40
17
40
17
40
17
10
232.47531524180346
20
-28.039142648815087
30
0
10
232.47531524085008
20
-28.342899261222271
30
0
10
232.22907185075746
20
-28.589142647269732
30
0
10
231.62155862594381
20
-28.58914264345611
30
0
10
231.37531523989628
20
-28.342899254316944
30
0
10
231.37531524180338
20
-28.039142641909759
30
0
0
LINE
5
495
100
AcDbEntity
8
0
100
AcDbLine
10
108.66088053230087
20
-34.189584047469133
30
0
11
108.66088053230087
21
-47.089584040564588
31
0
0
LINE
5
496
100
AcDbEntity
8
0
100
AcDbLine
10
303.36379698290762
20
-8.3574662550631587
30
0
11
267.86456354650863
21
-8.3574662550631587
31
0
0
LINE
5
497
100
AcDbEntity
8
0
100
AcDbLine
10
69.460880532301132
20
-47.089584040564588
30
0
11
69.460880532301132
21
-34.189584047469133
31
0
0
LINE
5
498
100
AcDbEntity
8
0
100
AcDbLine
10
279.66951149720239
20
-12.248828323319358
30
0
11
226.62181843564917
21
-12.248828360204218
31
0
0
SPLINE
5
499
100
AcDbEntity
8
0
100
AcDbSpline
70
0
71
3
72
17
73
13
74
0
42
0.000000001
43
0.0000000001
44
0.0000000001
40
9
40
9
40
9
40
9
40
10
40
10
40
10
40
11
40
11
40
11
40
12
40
12
40
12
40
13
40
13
40
13
40
13
10
232.4753152418038
20
-21.012582053429277
30
0
10
232.4753152418038
20
-21.377611733754527
30
0
10
232.66489631175389
20
-21.716447049241872
30
0
10
232.97598446625847
20
-21.907420418184735
30
0
10
233.24405458244007
20
-22.071985518009104
30
0
10
233.46952906016921
20
-22.297459995738514
30
0
10
233.6340941599932
20
-22.565530111919756
30
0
10
234.2119741789389
20
-23.506874078430698
30
0
10
233.91732843276981
20
-24.738448455453113
30
0
10
232.97598446625875
20
-25.316328474398766
30
0
10
232.6648963117546
20
-25.507301843341622
30
0
10
232.47531524180482
20
-25.846137158828327
30
0
10
232.47531524180482
20
-26.211166839153577
30
0
0
LINE
5
500
100
AcDbEntity
8
0
100
AcDbLine
10
51.510880532300263
20
-34.189584047469133
30
0
11
51.510880532300263
21
-47.089584040564588
31
0
0
SPLINE
5
501
100
AcDbEntity
8
0
100
AcDbSpline
70
0
71
3
72
11
73
7
74
0
42
0.000000001
43
0.0000000001
44
0.0000000001
40
3
40
3
40
3
40
3
40
4
40
4
40
4
40
5
40
5
40
5
40
5
10
83.458174494517152
20
-31.771430039903073
30
0
10
83.099189549261325
20
-31.771427526920437
30
0
10
82.808176732691663
20
-31.48041079897315
30
0
10
82.808179044637342
20
-31.121425853716321
30
0
10
82.808181356584356
20
-30.762440766304543
30
0
10
83.099198143414839
20
-30.471427727880318
30
0
10
83.458183230826677
20
-30.471430039826988
30
0
0
SPLINE
5
502
100
AcDbEntity
8
0
100
AcDbSpline
70
0
71
3
72
10
73
6
74
0
42
0.000000001
43
0.0000000001
44
0.0000000001
40
1
40
1
40
1
40
1
40
2
40
2
40
3
40
3
40
3
40
3
10
107.56088053230044
20
-34.189584040564455
30
0
10
107.56088053325374
20
-33.88582742815727
30
0
10
107.80712392334618
20
-33.639584042109803
30
0
10
108.41463714816015
20
-33.639584045923421
30
0
10
108.66088053420768
20
-33.885827435061948
30
0
10
108.66088053230087
20
-34.189584047469133
30
0
0
SPLINE
5
503
100
AcDbEntity
8
0
100
AcDbSpline
70
0
71
3
72
11
73
7
74
0
42
0.000000001
43
0.0000000001
44
0.0000000001
40
76
40
76
40
76
40
76
40
77
40
77
40
77
40
78
40
78
40
78
40
78
10
108.55112647982492
20
-10.357466233084391
30
0
10
109.1034112205524
20
-10.357384359419449
30
0
10
109.55106009162196
20
-9.9096027449102486
30
0
10
109.55097821795668
20
-9.3573180041830781
30
0
10
109.55089635287315
20
-8.8050911538451295
30
0
10
109.10320508535193
20
-8.3574662520291945
30
0
10
108.55097822894606
20
-8.3574662550631587
30
0
0
LINE
5
504
100
AcDbEntity
8
0
100
AcDbLine
10
29.527130532292674
20
-52.689584044015838
30
0
11
36.673380532299689
21
-52.689584044015838
31
0
0
SPLINE
5
505
100
AcDbEntity
8
0
100
AcDbSpline
70
0
71
3
72
11
73
7
74
0
42
0.000000001
43
0.0000000001
44
0.0000000001
40
73
40
73
40
73
40
73
40
74
40
74
40
74
40
75
40
75
40
75
40
75
10
96.746573380106355
20
-12.24882823668036
30
0
10
96.224733856509602
20
-12.248357902514673
30
0
10
95.801903897939411
20
-11.825275894893805
30
0
10
95.801744539821954
20
-11.303436183673252
30
0
10
95.801585045632891
20
-10.78115088821276
30
0
10
96.224851637382187
20
-10.35762570529079
30
0
10
96.747136932842324
20
-10.357466211101709
30
0
0
SPLINE
5
506
100
AcDbEntity
8
0
100
AcDbSpline
70
0
71
3
72
11
73
7
74
0
42
0.000000001
43
0.0000000001
44
0.0000000001
40
79
40
79
40
79
40
79
40
80
40
80
40
80
40
81
40
81
40
81
40
81
10
73.051744792571782
20
-8.3574662550631587
30
0
10
72.499460045775777
20
-8.3574662520291945
30
0
10
72.051744795607107
20
-8.8051814972783795
30
0
10
72.051744792573089
20
-9.357466244074736
30
0
10
72.051744789539356
20
-9.9096931021900758
30
0
10
72.499369694022846
20
-10.357384370419449
30
0
10
73.051596546070357
20
-10.357466233085679
30
0
0
CIRCLE
5
507
100
AcDbEntity
8
0
100
AcDbCircle
10
289.08570165197125
20
-23.603253528833356
30
0
40
2.0000000000000702
210
0
220
0
230
1
0
LINE
5
508
100
AcDbEntity
8
0
100
AcDbLine
10
70.560880532300445
20
-34.189584047469133
30
0
11
70.560880532300445
21
-47.089584040563935
31
0
0
SPLINE
5
509
100
AcDbEntity
8
0
100
AcDbSpline
70
0
71
3
72
10
73
6
74
0
42
0.000000001
43
0.0000000001
44
0.0000000001
40
1
40
1
40
1
40
1
40
2
40
2
40
3
40
3
40
3
40
3
10
74.22338053230078
20
-53.239584040562718
30
0
10
74.223380533254399
20
-52.935827428155534
30
0
10
74.46962392334683
20
-52.689584042108713
30
0
10
75.077137148160602
20
-52.68958404592297
30
0
10
75.323380534207374
20
-52.935827435061498
30
0
10
75.323380532300632
20
-53.239584047468682
30
0
0
SPLINE
5
510
100
AcDbEntity
8
0
100
AcDbSpline
70
0
71
3
72
10
73
6
74
0
42
0.000000001
43
0.0000000001
44
0.0000000001
40
6
40
6
40
6
40
6
40
7
40
7
40
8
40
8
40
8
40
8
10
93.273380532301076
20
-53.239584040562079
30
0
10
93.273380533254624
20
-52.935827428154894
30
0
10
93.519623923346984
20
-52.689584042108066
30
0
10
94.127137148160813
20
-52.68958404592297
30
0
10
94.373380534207598
20
-52.935827435061498
30
0
10
94.373380532300473
20
-53.239584047468682
30
0
0
CIRCLE
5
511
100
AcDbEntity
8
0
100
AcDbCircle
10
41.436030532298389
20
-23.603284044018142
30
0
40
1.9999999999999503
210
0
220
0
230
1
0
SPLINE
5
512
100
AcDbEntity
8
0
100
AcDbSpline
70
0
71
3
72
8
73
4
74
0
42
0.000000001
43
0.0000000001
44
0.0000000001
40
35
40
35
40
35
40
35
40
36
40
36
40
36
40
36
10
307.6679702690646
20
-13.298833531615257
30
0
10
307.66797041260753
20
-12.719050413539211
30
0
10
307.19805255390185
20
-12.248996120188567
30
0
10
306.61826946021358
20
-12.248827955549451
30
0
0
LINE
5
513
100
AcDbEntity
8
0
100
AcDbLine
10
88.510880532300689
20
-47.089584040564588
30
0
11
88.510880532300291
21
-34.189584047469133
31
0
0
LINE
5
514
100
AcDbEntity
8
0
100
AcDbLine
10
261.06088053230047
20
-34.189584047469133
30
0
11
261.06088053230047
21
-47.089584040564588
31
0
0
ENDSEC
0
SECTION
2
OBJECTS
0
DICTIONARY
5
C
100
AcDbDictionary
3
ACAD_GROUP
350
D
3
ACAD_MLINESTYLE
350
17
0
DICTIONARY
5
D
100
AcDbDictionary
0
DICTIONARY
5
1A
330
C
100
AcDbDictionary
0
DICTIONARY
5
17
100
AcDbDictionary
0
ENDSEC
0
EOF
