0
SECTION
2
HEADER
9
$INSUNITS
70
4
9
$ACADVER
1
AC1014
9
$HANDSEED
5
FFFF
0
ENDSEC
0
SECTION
2
TABLES
0
TABLE
2
VPORT
5
8
100
AcDbSymbolTable
0
ENDTAB
0
TABLE
2
LTYPE
5
5
100
AcDbSymbolTable
0
LTYPE
5
14
100
AcDbSymbolTableRecord
100
AcDbLinetypeTableRecord
2
BYBLOCK
70
0
0
LTYPE
5
15
100
AcDbSymbolTableRecord
100
AcDbLinetypeTableRecord
2
BYLAYER
70
0
0
ENDTAB
0
TABLE
2
LAYER
5
2
100
AcDbSymbolTable
70
2
0
LAYER
5
50
100
AcDbSymbolTableRecord
100
AcDbLayerTableRecord
2
0
70
0
6
CONTINUOUS
0
ENDTAB
0
TABLE
2
STYLE
5
3
100
AcDbSymbolTable
70
1
0
STYLE
5
11
100
AcDbSymbolTableRecord
100
AcDbTextStyleTableRecord
2
STANDARD
70
0
0
ENDTAB
0
TABLE
2
VIEW
5
6
100
AcDbSymbolTable
70
0
0
ENDTAB
0
TABLE
2
UCS
5
7
100
AcDbSymbolTable
70
0
0
ENDTAB
0
TABLE
2
APPID
5
9
100
AcDbSymbolTable
70
2
0
APPID
5
12
100
AcDbSymbolTableRecord
100
AcDbRegAppTableRecord
2
ACAD
70
0
0
ENDTAB
0
TABLE
2
DIMSTYLE
5
A
100
AcDbSymbolTable
70
1
0
ENDTAB
0
TABLE
2
BLOCK_RECORD
5
1
100
AcDbSymbolTable
70
1
0
BLOCK_RECORD
5
1F
100
AcDbSymbolTableRecord
100
AcDbBlockTableRecord
2
*MODEL_SPACE
0
BLOCK_RECORD
5
1B
100
AcDbSymbolTableRecord
100
AcDbBlockTableRecord
2
*PAPER_SPACE
0
ENDTAB
0
ENDSEC
0
SECTION
2
BLOCKS
0
BLOCK
5
20
100
AcDbEntity
100
AcDbBlockBegin
2
*MODEL_SPACE
0
ENDBLK
5
21
100
AcDbEntity
100
AcDbBlockEnd
0
BLOCK
5
1C
100
AcDbEntity
100
AcDbBlockBegin
2
*PAPER_SPACE
0
ENDBLK
5
1D
100
AcDbEntity
100
AcDbBlockEnd
0
ENDSEC
0
SECTION
2
ENTITIES
0
LWPOLYLINE
5
100
100
AcDbEntity
8
0
100
AcDbPolyline
90
4
70
1
43
0.0
10
32.053805532299151
20
-90.803199044015173
10
46.053805532299137
20
-90.803199044015173
10
46.053805532299137
20
-104.80319904401441
10
32.053805532299151
20
-104.80319904401441
0
LWPOLYLINE
5
101
100
AcDbEntity
8
0
100
AcDbPolyline
90
4
70
1
43
0.0
10
22.241605532298649
20
-104.8031990440131
10
8.2416055322988058
20
-104.8031990440131
10
8.2416055322988058
20
-90.803199044013894
10
22.241605532298649
20
-90.803199044013894
0
SPLINE
5
102
100
AcDbEntity
8
0
100
AcDbSpline
70
0
71
3
72
10
73
6
74
0
42
0.000000001
43
0.0000000001
44
0.0000000001
40
104
40
104
40
104
40
104
40
105
40
105
40
106
40
106
40
106
40
106
10
8.1140947906296645
20
-109.05027213530008
30
0
10
7.5618100407724143
20
-109.05027213530008
30
0
10
7.1140947906033603
20
-109.49798738546981
30
0
10
7.1140947905889362
20
-110.60255688510478
30
0
10
7.5618100407461242
20
-111.05027213528606
30
0
10
8.1140947905769423
20
-111.05027213530013
30
0
0
LWPOLYLINE
5
103
100
AcDbEntity
8
0
100
AcDbPolyline
90
4
70
1
43
0.0
10
31.773580514207822
20
-71.739153889883184
10
31.773580514207822
20
-85.739153889882402
10
17.773580514207836
20
-85.739153889882402
10
17.773580514207836
20
-71.739153889883184
0
LWPOLYLINE
5
104
100
AcDbEntity
8
0
100
AcDbPolyline
90
4
70
1
43
0.0
10
275.75370786794292
20
-52.702964555580024
10
283.43115625161806
20
-52.702964555580024
10
283.43115625161806
20
-68.702877772402701
10
275.75370786794292
20
-68.702877772402701
0
LWPOLYLINE
5
105
100
AcDbEntity
8
0
100
AcDbPolyline
90
4
70
1
43
0.0
10
291.61095553229865
20
-52.693498552009217
10
305.61095553229882
20
-52.693498552009217
10
305.61095553229882
20
-66.693498552008421
10
291.61095553229865
20
-66.693498552008421
0
LWPOLYLINE
5
106
100
AcDbEntity
8
0
100
AcDbPolyline
90
4
70
1
43
0.0
10
305.60859582255364
20
-104.80880807155238
10
291.60859582255375
20
-104.80880807155238
10
291.60859582255375
20
-90.808808071553131
10
305.60859582255364
20
-90.808808071553131
0
LINE
5
107
100
AcDbEntity
8
0
100
AcDbLine
10
17.918715956129532
20
-109.05027217555386
30
0
11
8.1140947906296645
21
-109.05027213530008
31
0
0
LWPOLYLINE
5
108
100
AcDbEntity
8
0
100
AcDbPolyline
90
4
70
1
43
0.0
10
286.56361524204243
20
-71.7391458857484
10
286.56361524204277
20
-85.739145885747604
10
272.5636152420426
20
-85.739145885747604
10
272.5636152420426
20
-71.7391458857484
0
LINE
5
109
100
AcDbEntity
8
0
100
AcDbLine
10
279.66917140200292
20
-109.05027217932385
30
0
11
267.86441523611131
21
-109.05027215734373
31
0
0
LWPOLYLINE
5
110
100
AcDbEntity
8
0
100
AcDbPolyline
90
4
70
1
43
0.0
10
38.91118053229782
20
-28.60328404402987
10
24.911180532297976
20
-28.60328404402987
10
24.911180532297976
20
-14.603284044030659
10
38.91118053229782
20
-14.603284044030659
0
SPLINE
5
111
100
AcDbEntity
8
0
100
AcDbSpline
70
0
71
3
72
8
73
4
74
0
42
0.000000001
43
0.0000000001
44
0.0000000001
40
99
40
99
40
99
40
99
40
100
40
100
40
100
40
100
10
2.8100541400785062
20
-106.10890485879551
30
0
10
2.8100547432057255
20
-106.68880445130486
30
0
10
3.2801548731687546
20
-107.15890645002773
30
0
10
3.8600544656713964
20
-107.15890935838939
30
0
0
LWPOLYLINE
5
112
100
AcDbEntity
8
0
100
AcDbPolyline
90
4
70
1
43
0.0
10
291.61095553229865
20
-71.743498552009399
10
305.61095553229882
20
-71.743498552009399
10
305.61095553229882
20
-85.743498552007964
10
291.61095553229865
20
-85.743498552007964
0
LINE
5
113
100
AcDbEntity
8
0
100
AcDbLine
10
303.36379698288101
20
-109.05027213534758
30
0
11
293.55994239261071
21
-109.05027217559878
31
0
0
LWPOLYLINE
5
114
100
AcDbEntity
8
0
100
AcDbPolyline
90
4
70
1
43
0.0
10
274.6544555326509
20
-52.702911515533302
10
274.6544555326509
20
-66.702911515532506
10
260.65445553265107
20
-66.702911515532506
10
260.65445553265107
20
-52.702911515533302
0
CIRCLE
5
115
100
AcDbEntity
8
0
100
AcDbCircle
10
289.08574719904686
20
-69.20192600193954
30
0
40
1.9999999999999898
210
0
220
0
230
1
0
LINE
5
116
100
AcDbEntity
8
0
100
AcDbLine
10
8.1140947905769423
20
-111.05027213530013
30
0
11
43.61332822697662
21
-111.05027213530013
31
0
0
SPLINE
5
117
100
AcDbEntity
8
0
100
AcDbSpline
70
0
71
3
72
11
73
7
74
0
42
0.000000001
43
0.0000000001
44
0.0000000001
40
110
40
110
40
110
40
110
40
111
40
111
40
111
40
112
40
112
40
112
40
112
10
31.809486971167331
20
-109.05027217927955
30
0
10
31.287661158864708
20
-109.0501128556496
30
0
10
30.864584894949161
20
-108.62730459379731
30
0
10
30.864094910661137
20
-108.10547898721467
30
0
10
30.863604494934833
20
-107.5831939056684
30
0
10
31.286602648362205
20
-107.15940063124734
30
0
10
31.808887729908122
20
-107.15891021552156
30
0
0
LWPOLYLINE
5
118
100
AcDbEntity
8
0
100
AcDbPolyline
90
4
70
1
43
0.0
10
39.198380532300163
20
-66.689584044015703
10
39.198380532300163
20
-52.689584044016478
10
53.198380532300398
20
-52.689584044016478
10
53.198380532300398
20
-66.689584044015703
0
LWPOLYLINE
5
119
100
AcDbEntity
8
0
100
AcDbPolyline
90
4
70
1
43
0.0
10
10.623280532299333
20
-47.639584044016779
10
10.623280532299333
20
-33.639584044018214
10
24.623280532299319
20
-33.639584044018214
10
24.623280532299319
20
-47.639584044016779
0
LINE
5
120
100
AcDbEntity
8
0
100
AcDbLine
10
43.613476526825821
20
-109.05027215729302
30
0
11
31.809486971167331
21
-109.05027217927955
31
0
0
LWPOLYLINE
5
121
100
AcDbEntity
8
0
100
AcDbPolyline
90
4
70
1
43
0.0
10
48.435880532300644
20
-47.639584044016779
10
34.435880532300445
20
-47.639584044016779
10
34.435880532300445
20
-33.639584044017575
10
48.435880532300644
20
-33.639584044017575
0
SPLINE
5
122
100
AcDbEntity
8
0
100
AcDbSpline
70
0
71
3
72
11
73
7
74
0
42
0.000000001
43
0.0000000001
44
0.0000000001
40
30
40
30
40
30
40
30
40
31
40
31
40
31
40
32
40
32
40
32
40
32
10
293.55994239261071
20
-109.05027217559878
30
0
10
293.03808501829781
20
-109.05010538983228
30
0
10
292.61500166413788
20
-108.62724192490504
30
0
10
292.61456358282987
20
-108.10538470781705
30
0
10
292.6141251422265
20
-107.58309948580478
30
0
10
293.03716554368589
20
-107.15934823167598
30
0
10
293.55945076569787
20
-107.15890979107229
30
0
0
SPLINE
5
123
100
AcDbEntity
8
0
100
AcDbSpline
70
0
71
3
72
11
73
7
74
0
42
0.000000001
43
0.0000000001
44
0.0000000001
40
21
40
21
40
21
40
21
40
22
40
22
40
22
40
23
40
23
40
23
40
23
10
279.66951149714657
20
-107.15891006709144
30
0
10
280.19143798524738
20
-107.15925740200939
30
0
10
280.61440366358147
20
-107.58237521878719
30
0
10
280.6145632981345
20
-108.10430179804841
30
0
10
280.61472304239601
20
-108.62658706915707
30
0
10
280.1914566731113
20
-109.05011243506209
30
0
10
279.66917140200292
20
-109.05027217932385
30
0
0
SPLINE
5
124
100
AcDbEntity
8
0
100
AcDbSpline
70
0
71
3
72
10
73
6
74
0
42
0.000000001
43
0.0000000001
44
0.0000000001
40
27
40
27
40
27
40
27
40
28
40
28
40
29
40
29
40
29
40
29
10
303.36379698288289
20
-111.05027213534765
30
0
10
303.91608173271288
20
-111.05027213534765
30
0
10
304.36379698288198
20
-110.60255688517854
30
0
10
304.3637969828813
20
-109.497987385516
30
0
10
303.91608173271197
20
-109.05027213534692
30
0
10
303.36379698288101
20
-109.05027213534758
30
0
0
LWPOLYLINE
5
125
100
AcDbEntity
8
0
100
AcDbPolyline
90
4
70
1
43
0.0
10
16.6743281789158
20
-87.739120146752583
10
8.9968797952407442
20
-87.739120146752583
10
8.9968797952407442
20
-71.739206929930532
10
16.6743281789158
20
-71.739206929930532
0
LINE
5
126
100
AcDbEntity
8
0
100
AcDbLine
10
3.8600544656713964
20
-107.15890935838939
30
0
11
17.919420239793808
21
-107.15891039077469
31
0
0
LWPOLYLINE
5
127
100
AcDbEntity
8
0
100
AcDbPolyline
90
4
70
1
43
0.0
10
286.56125553229822
20
-104.804455405292
10
272.56125553229833
20
-104.804455405292
10
272.56125553229833
20
-90.804455405292799
10
286.56125553229822
20
-90.804455405292799
0
SPLINE
5
128
100
AcDbEntity
8
0
100
AcDbSpline
70
0
71
3
72
11
73
7
74
0
42
0.000000001
43
0.0000000001
44
0.0000000001
40
101
40
101
40
101
40
101
40
102
40
102
40
102
40
103
40
103
40
103
40
103
10
17.919420239793808
20
-107.15891039077469
30
0
10
18.441193964269615
20
-107.15946590766632
30
0
10
18.863927605515087
20
-107.58251449162076
30
0
10
18.86409453804589
20
-108.10428848511438
30
0
10
18.864261634150594
20
-108.62657375482797
30
0
10
18.441001225843152
20
-109.05010507944887
30
0
10
17.918715956129532
20
-109.05027217555386
30
0
0
SPLINE
5
129
100
AcDbEntity
8
0
100
AcDbSpline
70
0
71
3
72
11
73
7
74
0
42
0.000000001
43
0.0000000001
44
0.0000000001
40
107
40
107
40
107
40
107
40
108
40
108
40
108
40
109
40
109
40
109
40
109
10
43.61332822697662
20
-111.05027213530013
30
0
10
44.165612973770791
20
-111.05027213833665
30
0
10
44.61332822393949
20
-110.60255689309072
30
0
10
44.613328226975639
20
-110.05027214629627
30
0
10
44.613328230011646
20
-109.49804530901304
30
0
10
44.165703358036836
20
-109.05035404941452
30
0
10
43.613476526825821
20
-109.05027215729302
30
0
0
LINE
5
130
100
AcDbEntity
8
0
100
AcDbLine
10
293.55945076569787
20
-107.15890979107229
30
0
11
306.61811906426414
21
-107.15890909373218
31
0
0
LWPOLYLINE
5
131
100
AcDbEntity
8
0
100
AcDbPolyline
90
4
70
1
43
0.0
10
158.26088053230009
20
-14.603284044018469
10
172.26088053230029
20
-14.603284044018469
10
172.26088053230029
20
-28.603284044017681
10
158.26088053230009
20
-28.603284044017681
0
SPLINE
5
132
100
AcDbEntity
8
0
100
AcDbSpline
70
0
71
3
72
11
73
7
74
0
42
0.000000001
43
0.0000000001
44
0.0000000001
40
73
40
73
40
73
40
73
40
74
40
74
40
74
40
75
40
75
40
75
40
75
10
96.746573380106355
20
-12.24882823668036
30
0
10
96.224733856509602
20
-12.248357902514673
30
0
10
95.801903897939411
20
-11.825275894893805
30
0
10
95.801744539821954
20
-11.303436183673252
30
0
10
95.801585045632891
20
-10.78115088821276
30
0
10
96.224851637382187
20
-10.35762570529079
30
0
10
96.747136932842324
20
-10.357466211101709
30
0
0
LWPOLYLINE
5
133
100
AcDbEntity
8
0
100
AcDbPolyline
90
8
70
1
43
0.0
10
129.39838053230019
20
-52.689584044016478
10
129.39838053230019
20
-66.689584044015703
10
119.87614433961039
20
-66.689584044015703
10
119.87614433961039
20
-85.73914588575019
10
105.87614433961015
20
-85.73914588575019
10
105.87614433961015
20
-71.739145885750972
10
115.39838053229929
20
-71.739145885750972
10
115.3983805323
20
-52.689584044016478
0
LWPOLYLINE
5
134
100
AcDbEntity
8
0
100
AcDbPolyline
90
4
70
1
43
0.0
10
120.16118053229764
20
-14.603284044030021
10
134.16118053229781
20
-14.603284044030021
10
134.16118053229781
20
-28.60328404402987
10
120.16118053229764
20
-28.60328404402987
0
CIRCLE
5
135
100
AcDbEntity
8
0
100
AcDbCircle
10
193.8363305401727
20
-23.603284044018142
30
0
40
2.0000000000000302
210
0
220
0
230
1
0
SPLINE
5
136
100
AcDbEntity
8
0
100
AcDbSpline
70
0
71
3
72
11
73
7
74
0
42
0.000000001
43
0.0000000001
44
0.0000000001
40
88
40
88
40
88
40
88
40
89
40
89
40
89
40
90
40
90
40
90
40
90
10
43.613476526971127
20
-10.35746623311776
30
0
10
44.165761267692147
20
-10.357384332328202
30
0
10
44.61341011676879
20
-9.9096026958356767
30
0
10
44.613328215979564
20
-9.3573179551149224
30
0
10
44.6132463237781
20
-8.8050911239605725
30
0
10
44.165555064202948
20
-8.357466252074758
30
0
10
43.61332822697662
20
-8.3574662551106407
30
0
0
LWPOLYLINE
5
137
100
AcDbEntity
8
0
100
AcDbPolyline
90
4
70
1
43
0.0
10
101.11118053229738
20
-14.603284044030659
10
115.11118053229758
20
-14.603284044030659
10
115.11118053229758
20
-28.60328404402987
10
101.11118053229738
20
-28.60328404402987
0
LWPOLYLINE
5
138
100
AcDbEntity
8
0
100
AcDbPolyline
90
4
70
1
43
0.0
10
180.80315122283116
20
-88.449417809583537
10
187.80320132155919
20
-88.449417809583537
10
187.8032013215595
20
-104.80341600396568
10
180.80315122283116
20
-104.80341600396568
0
SPLINE
5
139
100
AcDbEntity
8
0
100
AcDbSpline
70
0
71
3
72
11
73
7
74
0
42
0.000000001
43
0.0000000001
44
0.0000000001
40
76
40
76
40
76
40
76
40
77
40
77
40
77
40
78
40
78
40
78
40
78
10
108.55112647982492
20
-10.357466233084391
30
0
10
109.1034112205524
20
-10.357384359419449
30
0
10
109.55106009162196
20
-9.9096027449102486
30
0
10
109.55097821795668
20
-9.3573180041830781
30
0
10
109.55089635287315
20
-8.8050911538451295
30
0
10
109.10320508535193
20
-8.3574662520291945
30
0
10
108.55097822894606
20
-8.3574662550631587
30
0
0
LWPOLYLINE
5
140
100
AcDbEntity
8
0
100
AcDbPolyline
90
4
70
1
43
0.0
10
148.44838053230029
20
-66.689584044015049
10
134.44838053230015
20
-66.689584044015049
10
134.44838053230015
20
-52.689584044016478
10
148.44838053230029
20
-52.689584044016478
0
CIRCLE
5
141
100
AcDbEntity
8
0
100
AcDbCircle
10
117.63603053229851
20
-23.603284044018302
30
0
40
1.9999999999996689
210
0
220
0
230
1
0
LINE
5
142
100
AcDbEntity
8
0
100
AcDbLine
10
161.68478699828
20
-10.357466211120961
30
0
11
173.48877657742707
21
-10.357466233104288
31
0
0
LWPOLYLINE
5
143
100
AcDbEntity
8
0
100
AcDbPolyline
90
4
70
1
43
0.0
10
57.96118053229808
20
-14.6032840440313
10
57.96118053229808
20
-28.60328404402987
10
43.961180532297846
20
-28.60328404402987
10
43.961180532297846
20
-14.6032840440313
0
LWPOLYLINE
5
144
100
AcDbEntity
8
0
100
AcDbPolyline
90
4
70
1
43
0.0
10
139.21088053229991
20
-14.603284044018469
10
153.21088053230011
20
-14.603284044018469
10
153.21088053230011
20
-28.603284044017681
10
139.21088053229991
20
-28.603284044017681
0
LINE
5
145
100
AcDbEntity
8
0
100
AcDbLine
10
108.55097822894606
20
-8.3574662550631587
30
0
11
73.051744792571782
21
-8.3574662550631587
31
0
0
SPLINE
5
146
100
AcDbEntity
8
0
100
AcDbSpline
70
0
71
3
72
11
73
7
74
0
42
0.000000001
43
0.0000000001
44
0.0000000001
40
61
40
61
40
61
40
61
40
62
40
62
40
62
40
63
40
63
40
63
40
63
10
161.68426051279141
20
-12.24882829849266
30
0
10
161.16240645278759
20
-12.248378433039511
30
0
10
160.73955387730564
20
-11.825290378867642
30
0
10
160.73939454176838
20
-11.303436149285236
30
0
10
160.73923507461342
20
-10.781150845793876
30
0
10
161.16250169478838
20
-10.357625678275909
30
0
10
161.68478699828
20
-10.357466211120961
30
0
0
LINE
5
147
100
AcDbEntity
8
0
100
AcDbLine
10
137.98924648120942
20
-10.357466233113911
30
0
11
149.79400262066437
21
-10.357466211120961
31
0
0
LWPOLYLINE
5
148
100
AcDbEntity
8
0
100
AcDbPolyline
90
4
70
1
43
0.0
10
196.36118054010819
20
-14.60328404399216
10
210.36118054010842
20
-14.60328404399216
10
210.36118054010842
20
-28.603284043991369
10
196.36118054010819
20
-28.603284043991369
0
LINE
5
149
100
AcDbEntity
8
0
100
AcDbLine
10
226.62181843574581
20
-107.15891003020658
30
0
11
279.66951149714657
21
-107.15891006709144
31
0
0
CIRCLE
5
150
100
AcDbEntity
8
0
100
AcDbCircle
10
41.436030532298389
20
-23.603284044018142
30
0
40
1.9999999999999503
210
0
220
0
230
1
0
SPLINE
5
151
100
AcDbEntity
8
0
100
AcDbSpline
70
0
71
3
72
11
73
7
74
0
42
0.000000001
43
0.0000000001
44
0.0000000001
40
70
40
70
40
70
40
70
40
71
40
71
40
71
40
72
40
72
40
72
40
72
10
149.79400262066437
20
-10.357466211120961
30
0
10
150.31589528133182
20
-10.357625802045531
30
0
10
150.73899905549698
20
-10.78053855698869
30
0
10
150.73939431916546
20
-11.302431092376853
30
0
10
150.73978988017041
20
-11.82471622105207
30
0
10
150.31671479359289
20
-12.248432638734458
30
0
10
149.79442966491769
20
-12.24882819973967
30
0
0
LWPOLYLINE
5
152
100
AcDbEntity
8
0
100
AcDbPolyline
90
4
70
1
43
0.0
10
215.41088053230069
20
-14.603284044018469
10
229.41088053230089
20
-14.603284044018469
10
229.41088053230089
20
-28.603284044017681
10
215.41088053230069
20
-28.603284044017681
0
SPLINE
5
153
100
AcDbEntity
8
0
100
AcDbSpline
70
0
71
3
72
11
73
7
74
0
42
0.000000001
43
0.0000000001
44
0.0000000001
40
58
40
58
40
58
40
58
40
59
40
59
40
59
40
60
40
60
40
60
40
60
10
214.73152157812677
20
-10.357466211015717
30
0
10
215.25343057528289
20
-10.357625929982357
30
0
10
215.67654102665315
20
-10.780564261068941
30
0
10
215.67691310007817
20
-11.302473150037123
30
0
10
215.67728544174594
20
-11.824758304344369
30
0
10
215.25419151139729
20
-12.248455919813679
30
0
10
214.73190635708983
20
-12.248828261481389
30
0
0
LWPOLYLINE
5
154
100
AcDbEntity
8
0
100
AcDbPolyline
90
4
70
1
43
0.0
10
82.060880532299649
20
-14.603284044018469
10
96.060880532299507
20
-14.603284044018469
10
96.060880532299507
20
-28.603284044017681
10
82.060880532299649
20
-28.603284044017681
0
LINE
5
155
100
AcDbEntity
8
0
100
AcDbLine
10
202.9267654381056
20
-10.357466232974657
30
0
11
214.73152157812677
21
-10.357466211015717
31
0
0
LWPOLYLINE
5
156
100
AcDbEntity
8
0
100
AcDbPolyline
90
4
70
1
43
0.0
10
177.31118054010895
20
-14.60328404399216
10
191.31118054010915
20
-14.60328404399216
10
191.31118054010915
20
-28.603284043992012
10
177.31118054010895
20
-28.603284043992012
0
SPLINE
5
157
100
AcDbEntity
8
0
100
AcDbSpline
70
0
71
3
72
11
73
7
74
0
42
0.000000001
43
0.0000000001
44
0.0000000001
40
67
40
67
40
67
40
67
40
68
40
68
40
68
40
69
40
69
40
69
40
69
10
137.98939479454037
20
-8.3574662551106407
30
0
10
137.4371100477469
20
-8.3574662520741185
30
0
10
136.98939479757809
20
-8.8051814973194489
30
0
10
136.98939479454157
20
-9.3574662441126009
30
0
10
136.98939479150508
20
-9.9096930761313153
30
0
10
137.43701965526409
20
-10.357384333548712
30
0
10
137.98924648120942
20
-10.357466233113911
30
0
0
SPLINE
5
158
100
AcDbEntity
8
0
100
AcDbSpline
70
0
71
3
72
11
73
7
74
0
42
0.000000001
43
0.0000000001
44
0.0000000001
40
82
40
82
40
82
40
82
40
83
40
83
40
83
40
84
40
84
40
84
40
84
10
84.856352682195507
20
-10.35746621110235
30
0
10
85.378229826586889
20
-10.357625823812606
30
0
10
85.801327141879852
20
-10.78051440392967
30
0
10
85.801744286312982
20
-11.302391406013987
30
0
10
85.802161756947655
20
-11.824676509111079
30
0
10
85.37910445236939
20
-12.248410667322549
30
0
10
84.856819349272172
20
-12.248828137956892
30
0
0
LINE
5
159
100
AcDbEntity
8
0
100
AcDbLine
10
173.48862823091457
20
-8.3574662551106407
30
0
11
137.98939479454037
21
-8.3574662551106407
31
0
0
LINE
5
160
100
AcDbEntity
8
0
100
AcDbLine
10
73.051596546070357
20
-10.357466233085679
30
0
11
84.856352682195507
21
-10.35746621110235
31
0
0
LWPOLYLINE
5
161
100
AcDbEntity
8
0
100
AcDbPolyline
90
4
70
1
43
0.0
10
143.97614433961155
20
-71.739145885750972
10
157.97614433961141
20
-71.739145885750972
10
157.97614433961141
20
-85.739145885749537
10
143.97614433961155
20
-85.739145885749537
0
LWPOLYLINE
5
162
100
AcDbEntity
8
0
100
AcDbPolyline
90
4
70
1
43
0.0
10
63.010880532300391
20
-14.603284044018469
10
77.010880532300263
20
-14.603284044018469
10
77.010880532300263
20
-28.603284044017681
10
63.010880532300391
20
-28.603284044017681
0
LINE
5
163
100
AcDbEntity
8
0
100
AcDbLine
10
84.856819349272172
20
-12.248828137956892
30
0
11
31.808887729834296
21
-12.248828174889228
31
0
0
LINE
5
164
100
AcDbEntity
8
0
100
AcDbLine
10
43.61332822697662
20
-8.3574662551106407
30
0
11
8.1140947906023086
21
-8.3574662551100012
31
0
0
SPLINE
5
165
100
AcDbEntity
8
0
100
AcDbSpline
70
0
71
3
72
11
73
7
74
0
42
0.000000001
43
0.0000000001
44
0.0000000001
40
55
40
55
40
55
40
55
40
56
40
56
40
56
40
57
40
57
40
57
40
57
10
202.92691354454018
20
-8.3574662549104275
30
0
10
202.37462879773841
20
-8.3574662518822596
30
0
10
201.9269135475696
20
-8.8051814971410494
30
0
10
201.92691354454141
20
-9.3574662439431897
30
0
10
201.92691354151356
20
-9.9096931567537396
30
0
10
202.37453853135096
20
-10.357384447642799
30
0
10
202.9267654381056
20
-10.357466232974657
30
0
0
LINE
5
166
100
AcDbEntity
8
0
100
AcDbLine
10
96.747136932842324
20
-10.357466211101709
30
0
11
108.55112647982492
21
-10.357466233084391
31
0
0
SPLINE
5
167
100
AcDbEntity
8
0
100
AcDbSpline
70
0
71
3
72
11
73
7
74
0
42
0.000000001
43
0.0000000001
44
0.0000000001
40
64
40
64
40
64
40
64
40
65
40
65
40
65
40
66
40
66
40
66
40
66
10
173.48877657742707
20
-10.357466233104288
30
0
10
174.04106131814279
20
-10.35738430662559
30
0
10
174.48871014638917
20
-9.9096026493125002
30
0
10
174.48862821991082
20
-9.3573179085968796
30
0
10
174.48854630202507
20
-8.8050910956115871
30
0
10
174.0408550499759
20
-8.3574662520728396
30
0
10
173.48862823091457
20
-8.3574662551106407
30
0
0
SPLINE
5
168
100
AcDbEntity
8
0
100
AcDbSpline
70
0
71
3
72
11
73
7
74
0
42
0.000000001
43
0.0000000001
44
0.0000000001
40
79
40
79
40
79
40
79
40
80
40
80
40
80
40
81
40
81
40
81
40
81
10
73.051744792571782
20
-8.3574662550631587
30
0
10
72.499460045775777
20
-8.3574662520291945
30
0
10
72.051744795607107
20
-8.8051814972783795
30
0
10
72.051744792573089
20
-9.357466244074736
30
0
10
72.051744789539356
20
-9.9096931021900758
30
0
10
72.499369694022846
20
-10.357384370419449
30
0
10
73.051596546070357
20
-10.357466233085679
30
0
0
LINE
5
169
100
AcDbEntity
8
0
100
AcDbLine
10
214.73190635708983
20
-12.248828261481389
30
0
11
161.68426051279141
21
-12.24882829849266
31
0
0
LWPOLYLINE
5
170
100
AcDbEntity
8
0
100
AcDbPolyline
90
4
70
1
43
0.0
10
153.49838053230042
20
-66.689584044015049
10
153.49838053230042
20
-52.689584044016478
10
167.49838053230062
20
-52.689584044016478
10
167.49838053230062
20
-66.689584044015049
0
LWPOLYLINE
5
171
100
AcDbEntity
8
0
100
AcDbPolyline
90
9
70
1
43
0.0
10
191.59838053229979
20
-71.739145885750972
10
191.5983805323005
20
-52.689584044016478
10
205.59838053230033
20
-52.689584044016478
10
205.59838053230033
20
-66.689584044015703
10
196.07614433961248
20
-66.689584044015703
10
196.07614433961089
20
-71.739145885750972
10
196.07614433961089
20
-85.73914588575019
10
182.07614433961101
20
-85.73914588575019
10
182.07614433961101
20
-71.739145885750972
0
LWPOLYLINE
5
172
100
AcDbEntity
8
0
100
AcDbPolyline
90
4
70
1
43
0.0
10
72.248380532300445
20
-52.689584044016478
10
72.248380532300445
20
-66.689584044015703
10
58.248380532300352
20
-66.689584044015703
10
58.248380532300352
20
-52.689584044016478
0
SPLINE
5
173
100
AcDbEntity
8
0
100
AcDbSpline
70
0
71
3
72
10
73
6
74
0
42
0.000000001
43
0.0000000001
44
0.0000000001
40
91
40
91
40
91
40
91
40
92
40
92
40
93
40
93
40
93
40
93
10
8.1140947906023086
20
-8.3574662551100012
30
0
10
7.5618100407724143
20
-8.3574662551100012
30
0
10
7.1140947906033603
20
-8.8051815052797178
30
0
10
7.1140947906036445
20
-9.9097510049422688
30
0
10
7.561810040773338
20
-10.35746625511071
30
0
10
8.114094790604014
20
-10.35746625511071
30
0
0
LWPOLYLINE
5
174
100
AcDbEntity
8
0
100
AcDbPolyline
90
4
70
1
43
0.0
10
177.02614433961159
20
-85.739145885749537
10
163.02614433961168
20
-85.739145885749537
10
163.02614433961168
20
-71.739145885750972
10
177.02614433961159
20
-71.739145885750972
0
LINE
5
175
100
AcDbEntity
8
0
100
AcDbLine
10
31.809486971315621
20
-10.357466211131229
30
0
11
43.613476526971127
21
-10.35746623311776
31
0
0
LINE
5
176
100
AcDbEntity
8
0
100
AcDbLine
10
226.6223055408025
20
-10.357466211015078
30
0
11
238.42629510082205
21
-10.357466232970808
31
0
0
SPLINE
5
177
100
AcDbEntity
8
0
100
AcDbSpline
70
0
71
3
72
11
73
7
74
0
42
0.000000001
43
0.0000000001
44
0.0000000001
40
3
40
3
40
3
40
3
40
4
40
4
40
4
40
5
40
5
40
5
40
5
10
173.48862823091457
20
-111.05027213530013
30
0
10
174.04091297770648
20
-111.05027213833793
30
0
10
174.48862822787518
20
-110.60255689309456
30
0
10
174.48862823091306
20
-110.05027214630269
30
0
10
174.48862823395089
20
-109.49804532722962
30
0
10
174.04100339039383
20
-109.05035407517553
30
0
10
173.48877657739666
20
-109.05027215730652
30
0
0
SPLINE
5
178
100
AcDbEntity
8
0
100
AcDbSpline
70
0
71
3
72
8
73
4
74
0
42
0.000000001
43
0.0000000001
44
0.0000000001
40
97
40
97
40
97
40
97
40
98
40
98
40
98
40
98
10
3.8600545742028913
20
-12.248827379268407
30
0
10
3.2801538475174397
20
-12.24882969045467
30
0
10
2.8100526736813691
20
-12.718932804925318
30
0
10
2.8100527563898225
20
-13.298833531615257
30
0
0
SPLINE
5
179
100
AcDbEntity
8
0
100
AcDbSpline
70
0
71
3
72
11
73
7
74
0
42
0.000000001
43
0.0000000001
44
0.0000000001
40
52
40
52
40
52
40
52
40
53
40
53
40
53
40
54
40
54
40
54
40
54
10
238.42629510082205
20
-10.357466232970808
30
0
10
238.9785798415657
20
-10.357384431633051
30
0
10
239.4262287712817
20
-9.9096028757443388
30
0
10
239.42614696994434
20
-9.3573181350011261
30
0
10
239.42606517717351
20
-8.805091233508854
30
0
10
238.97837388846369
20
-8.3574662518816076
30
0
10
238.42614698091438
20
-8.3574662549104275
30
0
0
LWPOLYLINE
5
180
100
AcDbEntity
8
0
100
AcDbPolyline
90
4
70
1
43
0.0
10
91.29838053230074
20
-66.689584044015703
10
77.298380532300655
20
-66.689584044015703
10
77.298380532300655
20
-52.689584044016478
10
91.29838053230074
20
-52.689584044016478
0
LINE
5
181
100
AcDbEntity
8
0
100
AcDbLine
10
8.114094790604014
20
-10.35746625511071
30
0
11
17.918715956041353
21
-10.357466214856929
31
0
0
LINE
5
182
100
AcDbEntity
8
0
100
AcDbLine
10
96.746573380037972
20
-107.15891015373046
30
0
11
149.79442965118696
21
-107.15891019067115
31
0
0
LWPOLYLINE
5
183
100
AcDbEntity
8
0
100
AcDbPolyline
90
4
70
1
43
0.0
10
67.776144339611648
20
-71.739145885750972
10
81.776144339611605
20
-71.739145885750972
10
81.776144339611605
20
-85.73914588575019
10
67.776144339611648
20
-85.73914588575019
0
LINE
5
184
100
AcDbEntity
8
0
100
AcDbLine
10
17.919414307071975
20
-12.248827989830929
30
0
11
3.8600545742028913
21
-12.248827379268407
31
0
0
LWPOLYLINE
5
185
100
AcDbEntity
8
0
100
AcDbPolyline
90
4
70
1
43
0.0
10
254.25846349491309
20
-14.603345078653419
10
261.93591187858823
20
-14.603345078653419
10
261.93591187858823
20
-30.60325829547546
10
254.25846349491309
20
-30.603258295475456
0
SPLINE
5
186
100
AcDbEntity
8
0
100
AcDbSpline
70
0
71
3
72
11
73
7
74
0
42
0.000000001
43
0.0000000001
44
0.0000000001
40
94
40
94
40
94
40
94
40
95
40
95
40
95
40
96
40
96
40
96
40
96
10
17.918715956041353
20
-10.357466214856929
30
0
10
18.440492267620385
20
-10.357633143638264
30
0
10
18.863541815210993
20
-10.780370399791979
30
0
10
18.864094056772842
20
-11.302146445830559
30
0
10
18.864646837004742
20
-11.824431445296462
30
0
10
18.441699306537487
20
-12.248275209598978
30
0
10
17.919414307071975
20
-12.248827989830929
30
0
0
LINE
5
187
100
AcDbEntity
8
0
100
AcDbLine
10
173.48877657739666
20
-109.05027215730652
30
0
11
161.68478699831468
21
-109.05027217928983
31
0
0
SPLINE
5
188
100
AcDbEntity
8
0
100
AcDbSpline
70
0
71
3
72
11
73
7
74
0
42
0.000000001
43
0.0000000001
44
0.0000000001
40
49
40
49
40
49
40
49
40
50
40
50
40
50
40
51
40
51
40
51
40
51
10
226.62181843564917
20
-12.248828360204218
30
0
10
226.09994914745181
20
-12.248400091009676
30
0
10
225.67707275448521
20
-11.82530582508458
30
0
10
225.67691329182978
20
-11.303436385521611
30
0
10
225.6767537021004
20
-10.781151074076389
30
0
10
226.10002022935731
20
-10.357625800744806
30
0
10
226.6223055408025
20
-10.357466211015078
30
0
0
SPLINE
5
189
100
AcDbEntity
8
0
100
AcDbSpline
70
0
71
3
72
11
73
7
74
0
42
0.000000001
43
0.0000000001
44
0.0000000001
40
85
40
85
40
85
40
85
40
86
40
86
40
86
40
87
40
87
40
87
40
87
10
31.808887729834296
20
-12.248828174889228
30
0
10
31.287062123223492
20
-12.248338190560377
30
0
10
30.864253861391973
20
-11.825261926566871
30
0
10
30.864094537843201
20
-11.303436114235641
30
0
10
30.8639350740075
20
-10.781150826787396
30
0
10
31.287201683867707
20
-10.357625674966657
30
0
10
31.809486971315621
20
-10.357466211131229
30
0
0
LINE
5
190
100
AcDbEntity
8
0
100
AcDbLine
10
149.79442966491769
20
-12.24882819973967
30
0
11
96.746573380106355
21
-12.24882823668036
31
0
0
LWPOLYLINE
5
191
100
AcDbEntity
8
0
100
AcDbPolyline
90
4
70
1
43
0.0
10
5.8608805322997881
20
-14.603284044018469
10
19.860880532299632
20
-14.603284044018469
10
19.860880532299632
20
-28.603284044017681
10
5.8608805322997881
20
-28.603284044017681
0
LWPOLYLINE
5
192
100
AcDbEntity
8
0
100
AcDbPolyline
90
4
70
1
43
0.0
10
234.46088053230022
20
-14.603284044018469
10
248.46088053230008
20
-14.603284044018469
10
248.46088053230008
20
-28.603284044017038
10
234.46088053230022
20
-28.603284044017038
0
LWPOLYLINE
5
193
100
AcDbEntity
8
0
100
AcDbPolyline
90
4
70
1
43
0.0
10
186.5483805323008
20
-52.689584044016478
10
186.5483805323008
20
-66.689584044015049
10
172.5483805323006
20
-66.689584044015049
10
172.5483805323006
20
-52.689584044016478
0
SPLINE
5
194
100
AcDbEntity
8
0
100
AcDbSpline
70
0
71
3
72
11
73
7
74
0
42
0.000000001
43
0.0000000001
44
0.0000000001
40
37
40
37
40
37
40
37
40
38
40
38
40
38
40
39
40
39
40
39
40
39
10
293.55940187080137
20
-12.248828586394138
30
0
10
293.03756377035995
20
-12.248363532228259
30
0
10
292.61473008564849
20
-11.825288099882481
30
0
10
292.61456329791611
20
-11.303449818871121
30
0
10
292.61439636728159
20
-10.781164431393551
30
0
10
293.03765700519472
20
-10.35763314544657
30
0
10
293.55994239267164
20
-10.357466214812018
30
0
0
SPLINE
5
195
100
AcDbEntity
8
0
100
AcDbSpline
70
0
71
3
72
11
73
7
74
0
42
0.000000001
43
0.0000000001
44
0.0000000001
40
125
40
125
40
125
40
125
40
126
40
126
40
126
40
127
40
127
40
127
40
127
10
149.79442965118696
20
-107.15891019067115
30
0
10
150.31632219191692
20
-107.15930544676276
30
0
10
150.73923495521282
20
-107.58240922311168
30
0
10
150.73939454617332
20
-108.10430188911448
30
0
10
150.73955425718438
20
-108.62658714315972
30
0
10
150.316287874778
20
-109.05011246827834
30
0
10
149.79400262073241
20
-109.05027217928919
30
0
0
LWPOLYLINE
5
196
100
AcDbEntity
8
0
100
AcDbPolyline
90
4
70
1
43
0.0
10
246.36961524206751
20
-71.7391458857484
10
260.3696152420676
20
-71.7391458857484
10
260.3696152420676
20
-85.739145885746964
10
246.36961524206751
20
-85.739145885746964
0
LWPOLYLINE
5
197
100
AcDbEntity
8
0
100
AcDbPolyline
90
4
70
1
43
0.0
10
291.61095553229865
20
-14.59349855200947
10
305.61095553229882
20
-14.59349855200947
10
305.61095553229882
20
-28.59349855200804
10
291.61095553229899
20
-28.59349855200804
0
SPLINE
5
198
100
AcDbEntity
8
0
100
AcDbSpline
70
0
71
3
72
11
73
7
74
0
42
0.000000001
43
0.0000000001
44
0.0000000001
40
46
40
46
40
46
40
46
40
47
40
47
40
47
40
48
40
48
40
48
40
48
10
279.66917140186723
20
-10.357466211086949
30
0
10
280.19109798115983
20
-10.357625845565558
30
0
10
280.61421579801083
20
-10.780591523887486
30
0
10
280.61456313295992
20
-11.302518012019087
30
0
10
280.61491070661333
20
-11.824803191904461
30
0
10
280.19179667708738
20
-12.248480749665621
30
0
10
279.66951149720239
20
-12.248828323319358
30
0
0
LWPOLYLINE
5
199
100
AcDbEntity
8
0
100
AcDbPolyline
90
4
70
1
43
0.0
10
251.87775481368357
20
-68.702877772402701
10
251.87775481368357
20
-52.702964555580024
10
259.55520319735899
20
-52.702964555580024
10
259.55520319735899
20
-68.702877772402701
0
LWPOLYLINE
5
200
100
AcDbEntity
8
0
100
AcDbPolyline
90
4
70
1
43
0.0
10
124.92614433961137
20
-71.739145885750972
10
138.92614433961117
20
-71.739145885750972
10
138.92614433961117
20
-85.739145885749537
10
124.92614433961137
20
-85.739145885749537
0
LINE
5
201
100
AcDbEntity
8
0
100
AcDbLine
10
267.86441523608471
20
-10.357466233067072
30
0
11
279.66917140186723
21
-10.357466211086949
31
0
0
LWPOLYLINE
5
202
100
AcDbEntity
8
0
100
AcDbPolyline
90
4
70
1
43
0.0
10
243.69838053230126
20
-66.689584044015049
10
229.6983805323012
20
-66.689584044015049
10
229.6983805323012
20
-52.689584044016478
10
243.69838053230126
20
-52.689584044016478
0
LINE
5
203
100
AcDbEntity
8
0
100
AcDbLine
10
161.6842605128322
20
-107.15891009191814
30
0
11
214.73190635423549
21
-107.15891012892941
31
0
0
SPLINE
5
204
100
AcDbEntity
8
0
100
AcDbSpline
70
0
71
3
72
11
73
7
74
0
42
0.000000001
43
0.0000000001
44
0.0000000001
40
43
40
43
40
43
40
43
40
44
40
44
40
44
40
45
40
45
40
45
40
45
10
267.86456354650863
20
-8.3574662550631587
30
0
10
267.31227879971522
20
-8.3574662520266365
30
0
10
266.86456354954652
20
-8.8051814972719598
30
0
10
266.86456354650994
20
-9.3574662440657477
30
0
10
266.86456354347371
20
-9.9096930772189964
30
0
10
267.31218840900419
20
-10.357384335107396
30
0
10
267.86441523608471
20
-10.357466233067072
30
0
0
SPLINE
5
205
100
AcDbEntity
8
0
100
AcDbSpline
70
0
71
3
72
10
73
6
74
0
42
0.000000001
43
0.0000000001
44
0.0000000001
40
40
40
40
40
40
40
40
40
41
40
41
40
42
40
42
40
42
40
42
10
303.36379698285657
20
-10.357466255063228
30
0
10
303.91608173271288
20
-10.357466255063228
30
0
10
304.36379698288198
20
-9.9097510048941508
30
0
10
304.36379698289608
20
-8.8051815052578988
30
0
10
303.91608173273823
20
-8.3574662550772683
30
0
10
303.36379698290762
20
-8.3574662550631587
30
0
0
LINE
5
206
100
AcDbEntity
8
0
100
AcDbLine
10
238.42614698091438
20
-8.3574662549104275
30
0
11
202.92691354454018
21
-8.3574662549104275
31
0
0
LINE
5
207
100
AcDbEntity
8
0
100
AcDbLine
10
303.36379698290762
20
-8.3574662550631587
30
0
11
267.86456354650863
21
-8.3574662550631587
31
0
0
LWPOLYLINE
5
208
100
AcDbEntity
8
0
100
AcDbPolyline
90
4
70
1
43
0.0
10
48.726144339610613
20
-71.739145885750972
10
62.726144339610457
20
-71.739145885750972
10
62.726144339610457
20
-85.73914588575019
10
48.726144339610613
20
-85.73914588575019
0
SPLINE
5
209
100
AcDbEntity
8
0
100
AcDbSpline
70
0
71
3
72
8
73
4
74
0
42
0.000000001
43
0.0000000001
44
0.0000000001
40
35
40
35
40
35
40
35
40
36
40
36
40
36
40
36
10
307.6679702690646
20
-13.298833531615257
30
0
10
307.66797041260753
20
-12.719050413539211
30
0
10
307.19805255390185
20
-12.248996120188567
30
0
10
306.61826946021358
20
-12.248827955549451
30
0
0
LWPOLYLINE
5
210
100
AcDbEntity
8
0
100
AcDbPolyline
90
4
70
1
43
0.0
10
86.826144339610991
20
-85.73914588575019
10
86.826144339610991
20
-71.739145885750972
10
100.82614433961083
20
-71.739145885750972
10
100.82614433961083
20
-85.73914588575019
0
LINE
5
211
100
AcDbEntity
8
0
100
AcDbLine
10
293.55994239267164
20
-10.357466214812018
30
0
11
303.36379698285657
21
-10.357466255063228
31
0
0
LWPOLYLINE
5
212
100
AcDbEntity
8
0
100
AcDbPolyline
90
4
70
1
43
0.0
10
278.1344165491725
20
-14.603345078653419
10
285.81186493284758
20
-14.603345078653419
10
285.81186493284758
20
-30.603258295475456
10
278.1344165491725
20
-30.603258295475456
0
SPLINE
5
213
100
AcDbEntity
8
0
100
AcDbSpline
70
0
71
3
72
11
73
7
74
0
42
0.000000001
43
0.0000000001
44
0.0000000001
40
0
40
0
40
0
40
0
40
1
40
1
40
1
40
2
40
2
40
2
40
2
10
137.98924648123605
20
-109.05027215729689
30
0
10
137.43696174051632
20
-109.05035406543647
30
0
10
136.98931289739946
20
-109.49813570788589
30
0
10
136.98939480553901
20
-110.05042044860537
30
0
10
136.98947670508946
20
-110.60264727456131
30
0
10
137.43716796251138
20
-111.05027213833665
30
0
10
137.98939479454037
20
-111.05027213530013
30
0
0
CIRCLE
5
214
100
AcDbEntity
8
0
100
AcDbCircle
10
289.08570165197125
20
-23.603253528833356
30
0
40
2.0000000000000702
210
0
220
0
230
1
0
LINE
5
215
100
AcDbEntity
8
0
100
AcDbLine
10
137.98939479454037
20
-111.05027213530013
30
0
11
173.48862823091457
21
-111.05027213530013
31
0
0
LWPOLYLINE
5
216
100
AcDbEntity
8
0
100
AcDbPolyline
90
4
70
1
43
0.0
10
96.348380532300766
20
-66.689584044015049
10
96.348380532300766
20
-52.689584044016478
10
110.34838053230101
20
-52.689584044016478
10
110.34838053230101
20
-66.689584044015049
0
LINE
5
217
100
AcDbEntity
8
0
100
AcDbLine
10
279.66951149720239
20
-12.248828323319358
30
0
11
226.62181843564917
21
-12.248828360204218
31
0
0
LWPOLYLINE
5
218
100
AcDbEntity
8
0
100
AcDbPolyline
90
4
70
1
43
0.0
10
263.03516421388031
20
-14.60329203860606
10
277.03516421388042
20
-14.60329203860606
10
277.03516421388042
20
-28.603292038605268
10
263.03516421388031
20
-28.603292038605268
0
LINE
5
219
100
AcDbEntity
8
0
100
AcDbLine
10
306.61826946021358
20
-12.248827955549451
30
0
11
293.55940187080137
21
-12.248828586394138
31
0
0
LINE
5
220
100
AcDbEntity
8
0
100
AcDbLine
10
149.79400262073241
20
-109.05027217928919
30
0
11
137.98924648123605
21
-109.05027215729689
31
0
0
LINE
5
221
100
AcDbEntity
8
0
100
AcDbLine
10
108.55112647975776
20
-109.05027215732642
30
0
11
96.747136932855085
21
-109.05027217930844
31
0
0
LWPOLYLINE
5
222
100
AcDbEntity
8
0
100
AcDbPolyline
90
4
70
1
43
0.0
10
141.30269553229996
20
-104.80292904401317
10
127.30269553229988
20
-104.80292904401317
10
127.30269553229988
20
-90.802929044013965
10
141.30269553229996
20
-90.802929044013965
0
SPLINE
5
223
100
AcDbEntity
8
0
100
AcDbSpline
70
0
71
3
72
11
73
7
74
0
42
0.000000001
43
0.0000000001
44
0.0000000001
40
119
40
119
40
119
40
119
40
120
40
120
40
120
40
121
40
121
40
121
40
121
10
108.55097822894606
20
-111.05027213534765
30
0
10
109.10326297574208
20
-111.05027213838162
30
0
10
109.5509782259106
20
-110.60255689313243
30
0
10
109.55097822894452
20
-110.0502721463367
30
0
10
109.55097823197846
20
-109.49804528990455
30
0
10
109.10335333012182
20
-109.05035402237269
30
0
10
108.55112647975776
20
-109.05027215732642
30
0
0
LINE
5
224
100
AcDbEntity
8
0
100
AcDbLine
10
73.051744792571782
20
-111.05027213534765
30
0
11
108.55097822894606
21
-111.05027213534765
31
0
0
SPLINE
5
225
100
AcDbEntity
8
0
100
AcDbSpline
70
0
71
3
72
11
73
7
74
0
42
0.000000001
43
0.0000000001
44
0.0000000001
40
6
40
6
40
6
40
6
40
7
40
7
40
7
40
8
40
8
40
8
40
8
10
161.68478699831468
20
-109.05027217928983
30
0
10
161.16293276870209
20
-109.05011284377238
30
0
10
160.73984471450299
20
-108.62726026825968
30
0
10
160.73939484907217
20
-108.10540620822636
30
0
10
160.73894461203332
20
-107.58312107445413
30
0
10
161.1619753790599
20
-107.15936032895672
30
0
10
161.6842605128322
20
-107.15891009191814
30
0
0
LWPOLYLINE
5
226
100
AcDbEntity
8
0
100
AcDbPolyline
90
4
70
1
43
0.0
10
224.64838053230119
20
-52.689584044016478
10
224.64838053230119
20
-66.689584044015049
10
210.64838053230102
20
-66.689584044015049
10
210.64838053230102
20
-52.689584044016478
0
LINE
5
227
100
AcDbEntity
8
0
100
AcDbLine
10
31.808887729908122
20
-107.15891021552156
30
0
11
84.856819350194144
21
-107.15891025245391
31
0
0
LINE
5
228
100
AcDbEntity
8
0
100
AcDbLine
10
267.86456354650863
20
-111.05027213534765
30
0
11
303.36379698288289
21
-111.05027213534765
31
0
0
SPLINE
5
229
100
AcDbEntity
8
0
100
AcDbSpline
70
0
71
3
72
11
73
7
74
0
42
0.000000001
43
0.0000000001
44
0.0000000001
40
24
40
24
40
24
40
24
40
25
40
25
40
25
40
26
40
26
40
26
40
26
10
267.86441523611131
20
-109.05027215734373
30
0
10
267.31213049539122
20
-109.05035406387779
30
0
10
266.86448165097295
20
-109.49813570502648
30
0
10
266.86456355750704
20
-110.05042044574657
30
0
10
266.86464545545255
20
-110.60264727283771
30
0
10
267.31233671334451
20
-111.05027213838353
30
0
10
267.86456354650863
20
-111.05027213534765
30
0
0
LWPOLYLINE
5
230
100
AcDbEntity
8
0
100
AcDbPolyline
90
4
70
1
43
0.0
10
55.866305532299094
20
-104.80319904401696
10
55.866305532299094
20
-90.803199044017759
10
69.866305532299293
20
-90.803199044017759
10
69.866305532299293
20
-104.80319904401696
0
SPLINE
5
231
100
AcDbEntity
8
0
100
AcDbSpline
70
0
71
3
72
11
73
7
74
0
42
0.000000001
43
0.0000000001
44
0.0000000001
40
116
40
116
40
116
40
116
40
117
40
117
40
117
40
118
40
118
40
118
40
118
10
73.051596546153448
20
-109.05027215732511
30
0
10
72.499311805425677
20
-109.05035402852721
30
0
10
72.051662932358482
20
-109.49813564103945
30
0
10
72.051744803560638
20
-110.05042038176725
30
0
10
72.051826666181597
20
-110.60264723384742
30
0
10
72.499517934424134
20
-111.05027213838162
30
0
10
73.051744792571782
20
-111.05027213534765
30
0
0
SPLINE
5
232
100
AcDbEntity
8
0
100
AcDbSpline
70
0
71
3
72
11
73
7
74
0
42
0.000000001
43
0.0000000001
44
0.0000000001
40
113
40
113
40
113
40
113
40
114
40
114
40
114
40
115
40
115
40
115
40
115
10
84.856819350194144
20
-107.15891025245391
30
0
10
85.37869635188045
20
-107.15932739739583
30
0
10
85.801584931420649
20
-107.58242471248096
30
0
10
85.80174454418362
20
-108.10430185647445
30
0
10
85.801904281762091
20
-108.6265871019896
30
0
10
85.378637927806864
20
-109.05011244172996
30
0
10
84.856352682291771
20
-109.05027217930844
30
0
0
SPLINE
5
233
100
AcDbEntity
8
0
100
AcDbSpline
70
0
71
3
72
11
73
7
74
0
42
0.000000001
43
0.0000000001
44
0.0000000001
40
12
40
12
40
12
40
12
40
13
40
13
40
13
40
14
40
14
40
14
40
14
10
202.92676543805069
20
-109.05027215743613
30
0
10
202.3744806973059
20
-109.05035395136355
30
0
10
201.9268317615813
20
-109.49813550124595
30
0
10
201.92691355550838
20
-110.05042024199111
30
0
10
201.92699534087069
20
-110.60264714872415
30
0
10
202.3746866317511
20
-111.05027213852856
30
0
10
202.92691354454018
20
-111.05027213550036
30
0
0
SPLINE
5
234
100
AcDbEntity
8
0
100
AcDbSpline
70
0
71
3
72
11
73
7
74
0
42
0.000000001
43
0.0000000001
44
0.0000000001
40
15
40
15
40
15
40
15
40
16
40
16
40
16
40
17
40
17
40
17
40
17
10
238.42614698091438
20
-111.05027213550036
30
0
10
238.97843172771587
20
-111.05027213852919
30
0
10
239.42614697788429
20
-110.60255689327101
30
0
10
239.42614698091319
20
-110.05027214646951
30
0
10
239.42614698394129
20
-109.49804523896647
30
0
10
238.9785220023866
20
-109.05035395027653
30
0
10
238.42629510094093
20
-109.05027215743999
30
0
0
LWPOLYLINE
5
235
100
AcDbEntity
8
0
100
AcDbPolyline
90
4
70
1
43
0.0
10
80.803084574979138
20
-88.449417809583537
10
87.80313467370739
20
-88.449417809583537
10
87.80313467370739
20
-104.80341600396568
10
80.803084574979493
20
-104.80341600396568
0
LWPOLYLINE
5
236
100
AcDbEntity
8
0
100
AcDbPolyline
90
4
70
1
43
0.0
10
220.1761443396114
20
-85.739145885749537
10
220.1761443396114
20
-71.739145885750972
10
234.1761443396112
20
-71.739145885750972
10
234.1761443396112
20
-85.739145885749537
0
LWPOLYLINE
5
237
100
AcDbEntity
8
0
100
AcDbPolyline
90
4
70
1
43
0.0
10
236.5690555325636
20
-90.793498552008316
10
236.5690555325636
20
-104.79349855200752
10
222.56905553256382
20
-104.79349855200752
10
222.56905553256382
20
-90.793498552008316
0
LINE
5
238
100
AcDbEntity
8
0
100
AcDbLine
10
84.856352682291771
20
-109.05027217930844
30
0
11
73.051596546153448
21
-109.05027215732511
31
0
0
LWPOLYLINE
5
239
100
AcDbEntity
8
0
100
AcDbPolyline
90
4
70
1
43
0.0
10
201.12614433961116
20
-85.739145885749537
10
201.12614433961116
20
-71.739145885750972
10
215.12614433961096
20
-71.739145885750972
10
215.12614433961096
20
-85.739145885749537
0
LINE
5
240
100
AcDbEntity
8
0
100
AcDbLine
10
238.42629510094093
20
-109.05027215743999
30
0
11
226.62230554060159
21
-109.05027217939571
31
0
0
LWPOLYLINE
5
241
100
AcDbEntity
8
0
100
AcDbPolyline
90
4
70
1
43
0.0
10
32.872832849499858
20
-71.739206929930532
10
40.55028123317534
20
-71.739206929930532
10
40.55028123317534
20
-87.739120146752583
10
32.872832849499858
20
-87.739120146752583
0
SPLINE
5
242
100
AcDbEntity
8
0
100
AcDbSpline
70
0
71
3
72
11
73
7
74
0
42
0.000000001
43
0.0000000001
44
0.0000000001
40
9
40
9
40
9
40
9
40
10
40
10
40
10
40
11
40
11
40
11
40
11
10
214.73190635423549
20
-107.15891012892941
30
0
10
215.25381524429136
20
-107.15928220077934
30
0
10
215.67675357710542
20
-107.58239265256873
30
0
10
215.67691329611091
20
-108.10430165081122
30
0
10
215.67707313026438
20
-108.62658691338397
30
0
10
215.25380684077106
20
-109.05011234524153
30
0
10
214.73152157819834
20
-109.05027217939507
30
0
0
LINE
5
243
100
AcDbEntity
8
0
100
AcDbLine
10
214.73152157819834
20
-109.05027217939507
30
0
11
202.92676543805069
21
-109.05027215743613
31
0
0
LWPOLYLINE
5
244
100
AcDbEntity
8
0
100
AcDbPolyline
90
4
70
1
43
0.0
10
198.74395553264191
20
-90.802964044012128
10
212.74395553264182
20
-90.802964044012128
10
212.74395553264182
20
-104.80296404401074
10
198.74395553264191
20
-104.80296404401074
0
LWPOLYLINE
5
245
100
AcDbEntity
8
0
100
AcDbPolyline
90
4
70
1
43
0.0
10
267.51095553229953
20
-90.793498552008955
10
267.51095553229953
20
-104.79349855200816
10
253.51095553229928
20
-104.79349855200816
10
253.51095553229928
20
-90.793498552008955
0
LWPOLYLINE
5
246
100
AcDbEntity
8
0
100
AcDbPolyline
90
4
70
1
43
0.0
10
27.002130532299304
20
-52.714584044015922
10
27.002130532299304
20
-66.664584044014973
10
8.2349211085924168
20
-66.664584044014973
10
8.2349211085924168
20
-52.714584044015922
0
LINE
5
247
100
AcDbEntity
8
0
100
AcDbLine
10
202.92691354454018
20
-111.05027213550036
30
0
11
238.42614698091438
21
-111.05027213550036
31
0
0
CIRCLE
5
248
100
AcDbEntity
8
0
100
AcDbCircle
10
28.338705532298505
20
-69.201895487274044
30
0
40
2.0000000000000702
210
0
220
0
230
1
0
SPLINE
5
249
100
AcDbEntity
8
0
100
AcDbSpline
70
0
71
3
72
11
73
7
74
0
42
0.000000001
43
0.0000000001
44
0.0000000001
40
122
40
122
40
122
40
122
40
123
40
123
40
123
40
124
40
124
40
124
40
124
10
96.747136932855085
20
-109.05027217930844
30
0
10
96.225297221656092
20
-109.05011282119804
30
0
10
95.802215214038355
20
-108.62728286266767
30
0
10
95.801744879835198
20
-108.10544333909274
30
0
10
95.801274144026564
20
-107.58315823141646
30
0
10
96.224288272362088
20
-107.15938088953877
30
0
10
96.746573380037972
20
-107.15891015373046
30
0
0
SPLINE
5
250
100
AcDbEntity
8
0
100
AcDbSpline
70
0
71
3
72
11
73
7
74
0
42
0.000000001
43
0.0000000001
44
0.0000000001
40
18
40
18
40
18
40
18
40
19
40
19
40
19
40
20
40
20
40
20
40
20
10
226.62230554060159
20
-109.05027217939571
30
0
10
226.10043610107908
20
-109.05011271662936
30
0
10
225.67734183526051
20
-108.62723632363604
30
0
10
225.67691356611988
20
-108.1053670354794
30
0
10
225.67648495569608
20
-107.58308187552075
30
0
10
226.0995332757868
20
-107.15933864063034
30
0
10
226.62181843574581
20
-107.15891003020658
30
0
0
LWPOLYLINE
5
251
100
AcDbEntity
8
0
100
AcDbPolyline
90
4
70
1
43
0.0
10
243.98588053230156
20
-47.639584044016139
10
243.98588053230156
20
-33.639584044016935
10
257.98588053230151
20
-33.639584044016935
10
257.98588053230151
20
-47.639584044016139
0
LWPOLYLINE
5
252
100
AcDbEntity
8
0
100
AcDbPolyline
90
4
70
1
43
0.0
10
219.88588053230109
20
-33.639584044016935
10
219.88588053230109
20
-47.639584044016139
10
205.88588053230114
20
-47.639584044016139
10
205.88588053230114
20
-33.639584044016935
0
LWPOLYLINE
5
253
100
AcDbEntity
8
0
100
AcDbPolyline
90
4
70
1
43
0.0
10
224.93588053230141
20
-47.639584044016139
10
224.93588053230141
20
-33.639584044016935
10
238.9358805323013
20
-33.639584044016935
10
238.9358805323013
20
-47.639584044016139
0
LWPOLYLINE
5
254
100
AcDbEntity
8
0
100
AcDbPolyline
90
4
70
1
43
0.0
10
291.61095553229865
20
-47.643498552008232
10
291.61095553229865
20
-33.64349855200966
10
305.61095553229882
20
-33.64349855200966
10
305.61095553229882
20
-47.643498552008232
0
LWPOLYLINE
5
255
100
AcDbEntity
8
0
100
AcDbPolyline
90
4
70
1
43
0.0
10
281.79845553237982
20
-47.653284044696136
10
267.79845553237959
20
-47.653284044696136
10
267.79845553237959
20
-33.653284044696932
10
281.79845553237982
20
-33.653284044696932
0
LWPOLYLINE
5
256
100
AcDbEntity
8
0
100
AcDbPolyline
90
4
70
1
43
0.0
10
129.68588053230039
20
-47.639584044016139
10
129.68588053230039
20
-33.639584044016935
10
143.68588053230027
20
-33.639584044016935
10
143.68588053230027
20
-47.639584044016139
0
LWPOLYLINE
5
257
100
AcDbEntity
8
0
100
AcDbPolyline
90
4
70
1
43
0.0
10
148.73588053230156
20
-47.639584044016139
10
148.73588053230156
20
-33.639584044016935
10
162.73588053230139
20
-33.639584044016935
10
162.73588053230139
20
-47.639584044016139
0
LWPOLYLINE
5
258
100
AcDbEntity
8
0
100
AcDbPolyline
90
4
70
1
43
0.0
10
124.63588053230012
20
-33.639584044016935
10
124.63588053230012
20
-47.639584044016139
10
110.63588053230028
20
-47.639584044016139
10
110.63588053230028
20
-33.639584044016935
0
LINE
5
259
100
AcDbEntity
8
0
100
AcDbLine
10
2.8100527563898225
20
-13.298833531615257
30
0
11
2.8100541400785062
21
-106.10890485879553
31
0
0
LWPOLYLINE
5
260
100
AcDbEntity
8
0
100
AcDbPolyline
90
4
70
1
43
0.0
10
105.58588053229994
20
-47.639584044016139
10
91.585880532300081
20
-47.639584044016139
10
91.585880532300081
20
-33.639584044016935
10
105.58588053229994
20
-33.639584044016935
0
LWPOLYLINE
5
261
100
AcDbEntity
8
0
100
AcDbPolyline
90
4
70
1
43
0.0
10
86.535880532300979
20
-33.639584044017575
10
86.535880532300979
20
-47.639584044016779
10
72.535880532300894
20
-47.639584044016779
10
72.535880532300894
20
-33.639584044017575
0
LWPOLYLINE
5
262
100
AcDbEntity
8
0
100
AcDbPolyline
90
4
70
1
43
0.0
10
67.485880532300769
20
-47.639584044016779
10
53.485880532300634
20
-47.639584044016779
10
53.485880532300634
20
-33.639584044017575
10
67.485880532300769
20
-33.639584044017575
0
LINE
5
263
100
AcDbEntity
8
0
100
AcDbLine
10
307.66796888537635
20
-106.10890485879551
30
0
11
307.6679702690646
21
-13.298833531615237
31
0
0
SPLINE
5
264
100
AcDbEntity
8
0
100
AcDbSpline
70
0
71
3
72
8
73
4
74
0
42
0.000000001
43
0.0000000001
44
0.0000000001
40
33
40
33
40
33
40
33
40
34
40
34
40
34
40
34
10
306.61811906426414
20
-107.15890909373218
30
0
10
307.19795985917614
20
-107.15882327184897
30
0
10
307.66796834126308
20
-106.68874566005876
30
0
10
307.66796888537635
20
-106.10890485879551
30
0
0
LWPOLYLINE
5
265
100
AcDbEntity
8
0
100
AcDbPolyline
90
4
70
1
43
0.0
10
181.78588053230069
20
-33.639584044016935
10
181.78588053230069
20
-47.639584044016139
10
167.78588053230081
20
-47.639584044016139
10
167.78588053230081
20
-33.639584044016935
0
LWPOLYLINE
5
266
100
AcDbEntity
8
0
100
AcDbPolyline
90
4
70
1
43
0.0
10
200.83588053230091
20
-47.639584044016139
10
186.83588053230099
20
-47.639584044016139
10
186.83588053230099
20
-33.639584044016935
10
200.83588053230091
20
-33.639584044016935
0
CIRCLE
5
267
100
AcDbEntity
8
0
100
AcDbCircle
10
22.375915241844613
20
-23.611874446291591
30
0
40
1.9999999999999503
210
0
220
0
230
1
0
CIRCLE
5
268
100
AcDbEntity
8
0
100
AcDbCircle
10
231.92531524180362
20
-23.611874446291431
30
0
40
2.0000000000000302
210
0
220
0
230
1
0
CIRCLE
5
269
100
AcDbEntity
8
0
100
AcDbCircle
10
265.88654995135136
20
-80.747733047635805
30
0
40
1.9999999999999898
210
0
220
0
230
1
0
CIRCLE
5
270
100
AcDbEntity
8
0
100
AcDbCircle
10
65.240549951572092
20
-80.747733047635961
30
0
40
2.0000000000000702
210
0
220
0
230
1
0
CIRCLE
5
271
100
AcDbEntity
8
0
100
AcDbCircle
10
150.96281524187771
20
-61.698174446289769
30
0
40
1.9999999999996689
210
0
220
0
230
1
0
ENDSEC
0
SECTION
2
OBJECTS
0
DICTIONARY
5
C
100
AcDbDictionary
3
ACAD_GROUP
350
D
3
ACAD_MLINESTYLE
350
17
0
DICTIONARY
5
D
100
AcDbDictionary
0
DICTIONARY
5
1A
330
C
100
AcDbDictionary
0
DICTIONARY
5
17
100
AcDbDictionary
0
ENDSEC
0
EOF
