0
SECTION
2
HEADER
9
$INSUNITS
70
4
9
$ACADVER
1
AC1014
9
$HANDSEED
5
FFFF
0
ENDSEC
0
SECTION
2
TABLES
0
TABLE
2
VPORT
5
8
100
AcDbSymbolTable
0
ENDTAB
0
TABLE
2
LTYPE
5
5
100
AcDbSymbolTable
0
LTYPE
5
14
100
AcDbSymbolTableRecord
100
AcDbLinetypeTableRecord
2
BYBLOCK
70
0
0
LTYPE
5
15
100
AcDbSymbolTableRecord
100
AcDbLinetypeTableRecord
2
BYLAYER
70
0
0
ENDTAB
0
TABLE
2
LAYER
5
2
100
AcDbSymbolTable
70
2
0
LAYER
5
50
100
AcDbSymbolTableRecord
100
AcDbLayerTableRecord
2
0
70
0
6
CONTINUOUS
0
ENDTAB
0
TABLE
2
STYLE
5
3
100
AcDbSymbolTable
70
1
0
STYLE
5
11
100
AcDbSymbolTableRecord
100
AcDbTextStyleTableRecord
2
STANDARD
70
0
0
ENDTAB
0
TABLE
2
VIEW
5
6
100
AcDbSymbolTable
70
0
0
ENDTAB
0
TABLE
2
UCS
5
7
100
AcDbSymbolTable
70
0
0
ENDTAB
0
TABLE
2
APPID
5
9
100
AcDbSymbolTable
70
2
0
APPID
5
12
100
AcDbSymbolTableRecord
100
AcDbRegAppTableRecord
2
ACAD
70
0
0
ENDTAB
0
TABLE
2
DIMSTYLE
5
A
100
AcDbSymbolTable
70
1
0
ENDTAB
0
TABLE
2
BLOCK_RECORD
5
1
100
AcDbSymbolTable
70
1
0
BLOCK_RECORD
5
1F
100
AcDbSymbolTableRecord
100
AcDbBlockTableRecord
2
*MODEL_SPACE
0
BLOCK_RECORD
5
1B
100
AcDbSymbolTableRecord
100
AcDbBlockTableRecord
2
*PAPER_SPACE
0
ENDTAB
0
ENDSEC
0
SECTION
2
BLOCKS
0
BLOCK
5
20
100
AcDbEntity
100
AcDbBlockBegin
2
*MODEL_SPACE
0
ENDBLK
5
21
100
AcDbEntity
100
AcDbBlockEnd
0
BLOCK
5
1C
100
AcDbEntity
100
AcDbBlockBegin
2
*PAPER_SPACE
0
ENDBLK
5
1D
100
AcDbEntity
100
AcDbBlockEnd
0
ENDSEC
0
SECTION
2
ENTITIES
0
ARC
5
100
100
AcDbEntity
8
0
100
AcDbCircle
10
230.246475
20
-39.315000000000055
30
0
40
0.50000000000000711
210
0
220
0
230
1
100
AcDbArc
50
270
51
329.99999999989024
0
LINE
5
101
100
AcDbEntity
8
0
100
AcDbLine
10
226.05250000000001
20
-39.81500000000004
30
0
11
230.246475
21
-39.815000000000055
31
0
0
LWPOLYLINE
5
102
100
AcDbEntity
8
0
100
AcDbPolyline
90
14
70
1
43
0.0
10
154.94750000000005
20
-58.865000000000038
10
150.75352535094001
20
-58.864999392143467
42
-0.26794919242786103
10
150.32051300000006
20
-58.614999999999981
42
0.26794927230880405
10
149.88750000000005
20
-58.364999741831042
10
145.38750030283825
20
-58.365000174843914
42
0.26794908423784092
10
144.95448770189176
20
-58.615000000000848
42
-0.26794919243061738
10
144.52147500000001
20
-58.865000000000038
10
140.32749999999999
20
-58.865000000000038
42
0.41421356237309503
10
139.82749999999999
20
-59.365000000000038
10
139.82749999999999
20
-73.985000000000042
42
0.41421356237309503
10
140.32749999999999
20
-74.485000000000042
10
154.94750000000005
20
-74.485000000000042
42
0.41421356237309503
10
155.44749999999999
20
-73.985000000000042
10
155.44750000000005
20
-59.365000000000038
42
0.41421356237309503
0
ARC
5
103
100
AcDbEntity
8
0
100
AcDbCircle
10
235.61250000000001
20
-39.815000000000055
30
0
40
0.50000025816900151
210
0
220
-0
230
1
100
AcDbArc
50
29.999982919688343
51
90
0
LINE
5
104
100
AcDbEntity
8
0
100
AcDbLine
10
231.11250000000001
20
-39.315000000000055
30
0
11
235.61250000000001
21
-39.314999871092638
31
0
0
ARC
5
105
100
AcDbEntity
8
0
100
AcDbCircle
10
235.91000000000005
20
-35.885000000000034
30
0
40
0.50000000000004263
210
0
220
0
230
1
100
AcDbArc
50
-90
51
0
0
LINE
5
106
100
AcDbEntity
8
0
100
AcDbLine
10
239.84000000000003
20
-35.885000000000034
30
0
11
239.84000000000006
21
-21.265000000000072
31
0
0
LINE
5
107
100
AcDbEntity
8
0
100
AcDbLine
10
217.36000000000004
20
-21.265000000000036
30
0
11
217.36000000000001
21
-35.885000000000034
31
0
0
LWPOLYLINE
5
108
100
AcDbEntity
8
0
100
AcDbPolyline
90
8
70
1
43
0.0
10
109.80687500000001
20
-85.891250000000028
10
109.80687500000001
20
-80.541250000000019
42
0.41421356237309503
10
109.30687499999999
20
-80.041250000000019
10
97.606875000000002
20
-80.041250000000019
42
0.41421356237309503
10
97.106875000000002
20
-80.541250000000019
10
97.106874999999988
20
-85.891250000000028
42
0.41421356237309503
10
97.606875000000002
20
-86.391250000000014
10
109.30687499999999
20
-86.391250000000042
42
0.41421356237309503
0
LWPOLYLINE
5
109
100
AcDbEntity
8
0
100
AcDbPolyline
90
14
70
1
43
0.0
10
59.697499999999977
20
-58.865000000000038
42
-0.41421356237309503
10
60.197499999999984
20
-59.365000000000038
10
60.197499999999984
20
-73.985000000000042
42
-0.41421356237309503
10
59.697499999999977
20
-74.485000000000042
10
45.077500000000001
20
-74.485000000000014
42
-0.41421356237309503
10
44.577500000000001
20
-73.985000000000014
10
44.577500000000001
20
-59.365000000000023
42
-0.41421356237309503
10
45.077500000000008
20
-58.865000000000016
10
49.271474999999995
20
-58.865000000000038
42
0.2679490842373356
10
49.704487600945988
20
-58.615000174843914
42
-0.26794919243120779
10
50.137500302838298
20
-58.365000174843772
10
54.637500149053999
20
-58.364999741800005
42
-0.26794919243106108
10
55.070513000000048
20
-58.614999999968944
42
0.26794900435945057
10
55.503524999999996
20
-58.864999392112551
0
ARC
5
110
100
AcDbEntity
8
0
100
AcDbCircle
10
183.22500000000002
20
-1.7150000000000531
30
0
40
0.50000025816900151
210
0
220
-0
230
1
100
AcDbArc
50
29.999982919689042
51
90
0
ARC
5
111
100
AcDbEntity
8
0
100
AcDbCircle
10
139.75897500000002
20
-1.215000000000046
30
0
40
0.49999999999997158
210
0
220
0
230
1
100
AcDbArc
50
270
51
329.99997686437996
0
ARC
5
112
100
AcDbEntity
8
0
100
AcDbCircle
10
183.19
20
-21.265000000000036
30
0
40
0.50000000000000711
210
0
220
-0
230
1
100
AcDbArc
50
90
51
180
0
LINE
5
113
100
AcDbEntity
8
0
100
AcDbLine
10
154.11500000000001
20
-16.835000000000022
30
0
11
154.11500000000001
21
-2.2150000000000247
31
0
0
LWPOLYLINE
5
114
100
AcDbEntity
8
0
100
AcDbPolyline
90
14
70
1
43
0.0
10
45.112500149054
20
-39.314999741831045
10
40.612500302838306
20
-39.31500017484376
42
0.26794919243119719
10
40.179487600946032
20
-39.565000174843895
42
-0.26794908423734615
10
39.746475000000004
20
-39.815000000000026
10
35.552500000000002
20
-39.815000000000005
42
0.41421356237309503
10
35.052499999999995
20
-40.315000000000012
10
35.052500000000002
20
-54.935000000000031
42
0.41421356237309503
10
35.552500000000002
20
-55.435000000000016
10
50.172499999999999
20
-55.435000000000052
42
0.41421356237309503
10
50.672500000000007
20
-54.935000000000045
10
50.672499999999999
20
-40.315000000000026
42
0.41421356237309503
10
50.172499999999999
20
-39.81500000000004
10
45.978524999999991
20
-39.814999392143577
42
-0.26794900435944807
10
45.545513000000057
20
-39.564999999999984
42
0.2679491924310588
0
LINE
5
115
100
AcDbEntity
8
0
100
AcDbLine
10
184.09102535094007
20
-1.7149993921434614
30
0
11
188.28500000000003
21
-1.7150000000000531
31
0
0
LWPOLYLINE
5
116
100
AcDbEntity
8
0
100
AcDbPolyline
90
12
70
1
43
0.0
10
33.966149999999985
20
-60.381000000000014
42
-0.41421356237309503
10
34.466149999999999
20
-59.881000000000014
10
35.701349999999991
20
-59.881000000000022
42
-0.41421356237309503
10
36.201349999999984
20
-60.381000000000014
10
36.201349999999991
20
-62.429582000000025
42
0.29455029122111137
10
36.495190540826655
20
-62.885101788146862
42
-0.64506611024140004
10
36.495190171524825
20
-66.147897621008426
42
0.29455007095494029
10
36.201349755525229
20
-66.603417621008077
10
36.201349999999991
20
-68.652000000000015
42
-0.41421356237309503
10
35.701349999999991
20
-69.152000000000015
10
34.466149999999999
20
-69.152000000000015
42
-0.41421356237309503
10
33.966149999999999
20
-68.652000000000015
0
LWPOLYLINE
5
117
100
AcDbEntity
8
0
100
AcDbPolyline
90
14
70
1
43
0.0
10
164.14000000000001
20
-36.385000000000041
42
-0.41421356237309503
10
163.64000000000001
20
-35.885000000000034
10
163.64000000000001
20
-21.265000000000036
42
-0.41421356237309503
10
164.14000000000001
20
-20.765000000000029
10
168.33397500000001
20
-20.765000000000029
42
0.2679491924306257
10
168.76698770189176
20
-20.515000000000818
42
-0.26794908423784913
10
169.20000030283825
20
-20.265000174843877
10
173.69999999999999
20
-20.264999741831016
42
-0.26794927230885607
10
174.13301300000006
20
-20.515000000000043
42
0.26794919242784448
10
174.56602535094004
20
-20.764999392143508
10
178.76000000000002
20
-20.765000000000029
42
-0.41421356237309503
10
179.26000000000002
20
-21.265000000000036
10
179.26000000000002
20
-35.885000000000034
42
-0.41421356237309503
10
178.76000000000002
20
-36.385000000000041
0
LINE
5
118
100
AcDbEntity
8
0
100
AcDbLine
10
116.51500000000001
20
-1.7150000000000176
30
0
11
120.70897500000001
21
-1.7150000000000176
31
0
0
ARC
5
119
100
AcDbEntity
8
0
100
AcDbCircle
10
83.47499999999998
20
-77.91500000000002
30
0
40
0.50000000000000711
210
0
220
-0
230
1
100
AcDbArc
50
90
51
149.99997686494405
0
ARC
5
120
100
AcDbEntity
8
0
100
AcDbCircle
10
168.90250000000003
20
-40.315000000000026
30
0
40
0.50000000000000711
210
0
220
-0
230
1
100
AcDbArc
50
90
51
180
0
LWPOLYLINE
5
121
100
AcDbEntity
8
0
100
AcDbPolyline
90
14
70
1
43
0.0
10
13.621249999999986
20
-59.365000000000023
10
13.621249999999993
20
-73.985000000000014
42
0.41421356237309503
10
14.121249999999993
20
-74.485000000000028
10
28.741249999999987
20
-74.485000000000028
42
0.41421356237309503
10
29.241249999999994
20
-73.985000000000014
10
29.241249999999994
20
-59.365000000000023
42
0.41421356237309503
10
28.741249999999994
20
-58.865000000000016
10
24.547274999999999
20
-58.864999392112523
42
-0.26794900435944807
10
24.114263000000058
20
-58.61499999996893
42
0.26794919243106347
10
23.681250149053994
20
-58.364999741800005
10
19.181250302838304
20
-58.365000174843757
42
0.26794919243120779
10
18.748237600946013
20
-58.6150001748439
42
-0.2679490842373356
10
18.315225000000002
20
-58.865000000000016
10
14.121249999999993
20
-58.865000000000016
42
0.41421356237309503
0
LWPOLYLINE
5
122
100
AcDbEntity
8
0
100
AcDbPolyline
90
14
70
1
43
0.0
10
160.21000000000001
20
-35.885000000000034
42
-0.41421356237309503
10
159.71000000000001
20
-36.385000000000041
10
145.09
20
-36.385000000000041
42
-0.41421356237309503
10
144.59
20
-35.885000000000034
10
144.59
20
-21.265000000000036
42
-0.41421356237309503
10
145.09
20
-20.765000000000029
10
149.28397499999997
20
-20.765000000000065
42
0.267949084235235
10
149.71698760094401
20
-20.515000174847341
42
-0.2679491924333296
10
150.15000030283829
20
-20.26500017484377
10
154.65000014905002
20
-20.264999741831051
42
-0.26794919243320642
10
155.08301300000005
20
-20.515000000000008
42
0.26794900435946356
10
155.51602500000004
20
-20.764999392143615
10
159.71000000000001
20
-20.765000000000029
42
-0.41421356237309503
10
160.21000000000001
20
-21.265000000000036
0
LWPOLYLINE
5
123
100
AcDbEntity
8
0
100
AcDbPolyline
90
14
70
1
43
0.0
10
112.08500000000001
20
-1.7150000000000176
10
107.89102500000001
20
-1.7149993921440332
42
-0.26794900435945879
10
107.45801300000008
20
-1.4650000000004226
42
0.26794919243320642
10
107.02500014905002
20
-1.2149997418314484
10
102.52500000000001
20
-1.2150000000000105
42
0.26794919243335086
10
102.09198729810572
20
-1.4650000000036218
42
-0.26794908423519248
10
101.65897469716171
20
-1.7149998251562693
10
97.465000000000003
20
-1.7150000000000176
42
0.41421356237309503
10
96.965000000000018
20
-2.2150000000000247
10
96.965000000000018
20
-16.835000000000022
42
0.41421356237309503
10
97.465000000000003
20
-17.335000000000029
10
112.08500000000001
20
-17.335000000000029
42
0.41421356237309503
10
112.58500000000001
20
-16.835000000000022
10
112.58500000000001
20
-2.2150000000000247
42
0.41421356237309503
0
LWPOLYLINE
5
124
100
AcDbEntity
8
0
100
AcDbPolyline
90
14
70
1
43
0.0
10
159.41250000000002
20
-39.314999741831052
42
-0.26794927230880405
10
159.84551300000007
20
-39.564999999999984
42
0.26794919242786097
10
160.27852535094001
20
-39.814999392143484
10
164.47250000000003
20
-39.815000000000026
42
-0.41421356237309503
10
164.97250000000005
20
-40.315000000000026
10
164.97250000000005
20
-54.935000000000045
42
-0.41421356237309503
10
164.47250000000003
20
-55.435000000000052
10
149.85250000000002
20
-55.435000000000052
42
-0.41421356237309503
10
149.35249999999999
20
-54.935000000000045
10
149.35250000000002
20
-40.315000000000026
42
-0.41421356237309503
10
149.85250000000005
20
-39.815000000000026
10
154.04647500000004
20
-39.81500000000004
42
0.26794919243061743
10
154.4794877018918
20
-39.56500000000085
42
-0.26794908423784092
10
154.91250030283825
20
-39.315000174843924
0
LINE
5
125
100
AcDbEntity
8
0
100
AcDbLine
10
173.96250000000003
20
-39.315000000000033
30
0
11
178.46250014905002
21
-39.314999741830036
31
0
0
ARC
5
126
100
AcDbEntity
8
0
100
AcDbCircle
10
131.13500000000002
20
-2.2150000000000247
30
0
40
0.50000000000000711
210
-0
220
0
230
1
100
AcDbArc
50
0
51
90
0
LINE
5
127
100
AcDbEntity
8
0
100
AcDbLine
10
116.01500000000001
20
-16.835000000000022
30
0
11
116.01500000000001
21
-2.2150000000000247
31
0
0
LINE
5
128
100
AcDbEntity
8
0
100
AcDbLine
10
168.90250000000003
20
-39.815000000000026
30
0
11
173.096475
21
-39.81500000000004
31
0
0
LINE
5
129
100
AcDbEntity
8
0
100
AcDbLine
10
126.94102535094001
20
-1.7149993921439233
30
0
11
131.13500000000002
21
-1.7150000000000176
31
0
0
LINE
5
130
100
AcDbEntity
8
0
100
AcDbLine
10
169.23500000000001
20
-17.335000000000029
30
0
11
154.61500000000001
21
-17.335000000000029
31
0
0
LINE
5
131
100
AcDbEntity
8
0
100
AcDbLine
10
173.9975
20
-74.485000000000042
30
0
11
159.3775
21
-74.485000000000042
31
0
0
LINE
5
132
100
AcDbEntity
8
0
100
AcDbLine
10
188.25
20
-20.265000000000057
30
0
11
192.75000000000003
21
-20.264999871092613
31
0
0
ARC
5
133
100
AcDbEntity
8
0
100
AcDbCircle
10
183.52250000000001
20
-40.315000000000026
30
0
40
0.50000000000000711
210
-0
220
0
230
1
100
AcDbArc
50
0
51
90
0
LWPOLYLINE
5
134
100
AcDbEntity
8
0
100
AcDbPolyline
90
14
70
1
43
0.0
10
192.21499999999997
20
-2.2150000000000603
10
192.21500000000003
20
-16.835000000000058
42
0.41421356237309503
10
192.715
20
-17.335000000000029
10
207.33499999999998
20
-17.335000000000029
42
0.41421356237309503
10
207.83500000000001
20
-16.835000000000022
10
207.83500000000004
20
-2.2150000000000603
42
0.41421356237309503
10
207.33500000000004
20
-1.7150000000000531
10
203.14102500000001
20
-1.7149993921425635
42
-0.26794900435943286
10
202.70801300000011
20
-1.4649999999990015
42
0.26794919243322546
10
202.27500014905002
20
-1.2149997418300273
10
197.77500030283832
20
-1.2150001748438299
42
0.26794919243331317
10
197.34198760094404
20
-1.4650001748473716
42
-0.26794908423521369
10
196.90897500000003
20
-1.7150000000000531
10
192.715
20
-1.7150000000000531
42
0.41421356237309503
0
LWPOLYLINE
5
135
100
AcDbEntity
8
0
100
AcDbPolyline
90
14
70
1
43
0.0
10
74.553524999999979
20
-58.864999392143588
42
-0.26794900435944569
10
74.120513000000045
20
-58.614999999999995
42
0.26794919243106108
10
73.687500149054003
20
-58.36499974183107
10
69.187500302838288
20
-58.365000174843772
42
0.2679491924312184
10
68.754487600945978
20
-58.615000174843942
42
-0.26794908423732489
10
68.321474999999978
20
-58.865000000000038
10
64.127499999999998
20
-58.865000000000038
42
0.41421356237309503
10
63.627499999999984
20
-59.365000000000038
10
63.627499999999984
20
-73.985000000000042
42
0.41421356237309503
10
64.127499999999998
20
-74.485000000000042
10
78.747499999999988
20
-74.485000000000042
42
0.41421356237309503
10
79.247500000000002
20
-73.985000000000042
10
79.247500000000016
20
-59.365000000000038
42
0.41421356237309503
10
78.747500000000002
20
-58.865000000000038
0
ARC
5
136
100
AcDbEntity
8
0
100
AcDbCircle
10
178.72500000000002
20
-1.7150000000000531
30
0
40
0.50000000000000711
210
0
220
-0
230
1
100
AcDbArc
50
90
51
149.99997686494569
0
LINE
5
137
100
AcDbEntity
8
0
100
AcDbLine
10
177.92750000000001
20
-73.985000000000042
30
0
11
177.92750000000001
21
-59.365000000000038
31
0
0
LINE
5
138
100
AcDbEntity
8
0
100
AcDbLine
10
121.57500000000002
20
-1.215000000000046
30
0
11
126.07500000000003
21
-1.2149998710926013
31
0
0
ARC
5
139
100
AcDbEntity
8
0
100
AcDbCircle
10
192.14647500000001
20
-39.315000000000033
30
0
40
0.50000000000000711
210
0
220
0
230
1
100
AcDbArc
50
270
51
329.99999999989916
0
LINE
5
140
100
AcDbEntity
8
0
100
AcDbLine
10
159.3775
20
-58.865000000000038
30
0
11
163.57147500000002
21
-58.865000000000038
31
0
0
ARC
5
141
100
AcDbEntity
8
0
100
AcDbCircle
10
83.177499999999981
20
-73.985000000000042
30
0
40
0.50000000000000711
210
0
220
0
230
1
100
AcDbArc
50
180
51
270
0
ARC
5
142
100
AcDbEntity
8
0
100
AcDbCircle
10
169.80352500000004
20
-58.365000000000023
30
0
40
0.49999939214357858
210
0
220
0
230
1
100
AcDbArc
50
210.00004021551143
51
270.00004021480891
0
ARC
5
143
100
AcDbEntity
8
0
100
AcDbCircle
10
173.96250000000003
20
-39.81500000000004
30
0
40
0.50000000000000711
210
0
220
-0
230
1
100
AcDbArc
50
90
51
150.00000000047191
0
ARC
5
144
100
AcDbEntity
8
0
100
AcDbCircle
10
93.034999999999997
20
-93.035000000000025
30
0
40
0.50000000000000711
210
0
220
0
230
1
100
AcDbArc
50
-90
51
0
0
LWPOLYLINE
5
145
100
AcDbEntity
8
0
100
AcDbPolyline
90
14
70
1
43
0.0
10
54.602499999999992
20
-55.435000000000045
42
-0.41421356237309503
10
54.102499999999992
20
-54.935000000000045
10
54.102500000000006
20
-40.315000000000026
42
-0.41421356237309503
10
54.602499999999992
20
-39.81500000000004
10
58.796474999999987
20
-39.81500000000004
42
0.26794919243117593
10
59.229487701892261
20
-39.564999999999948
42
-0.26794908423728253
10
59.662500302838225
20
-39.315000174843924
10
64.16249999999998
20
-39.314999741831045
42
-0.26794927230881699
10
64.595513000000025
20
-39.564999999999998
42
0.26794919243106552
10
65.028525350945984
20
-39.814999392143484
10
69.222499999999982
20
-39.815000000000026
42
-0.41421356237309503
10
69.722499999999997
20
-40.315000000000026
10
69.722499999999997
20
-54.935000000000045
42
-0.41421356237309503
10
69.222499999999982
20
-55.435000000000052
0
LINE
5
146
100
AcDbEntity
8
0
100
AcDbLine
10
135.565
20
-1.7150000000000176
30
0
11
139.75897500000002
21
-1.7150000000000176
31
0
0
ARC
5
147
100
AcDbEntity
8
0
100
AcDbCircle
10
82.608975000000001
20
-77.415000000000035
30
0
40
0.49999999999998934
210
0
220
0
230
1
100
AcDbArc
50
270
51
329.99999999989581
0
LINE
5
148
100
AcDbEntity
8
0
100
AcDbLine
10
178.42750000000001
20
-58.865000000000038
30
0
11
182.621475
21
-58.865000000000038
31
0
0
LINE
5
149
100
AcDbEntity
8
0
100
AcDbLine
10
150.185
20
-17.335000000000029
30
0
11
135.565
21
-17.335000000000029
31
0
0
ARC
5
150
100
AcDbEntity
8
0
100
AcDbCircle
10
93.034999999999997
20
-78.415000000000035
30
0
40
0.50000000000000711
210
-0
220
0
230
1
100
AcDbArc
50
0
51
90
0
LINE
5
151
100
AcDbEntity
8
0
100
AcDbLine
10
40.315000000000005
20
-1.7150000000000176
30
0
11
44.508974999999992
21
-1.7150000000000176
31
0
0
LINE
5
152
100
AcDbEntity
8
0
100
AcDbLine
10
182.69
20
-35.885000000000034
30
0
11
182.69000000000003
21
-21.265000000000036
31
0
0
ARC
5
153
100
AcDbEntity
8
0
100
AcDbCircle
10
120.70897500000001
20
-1.215000000000046
30
0
40
0.49999999999997158
210
0
220
0
230
1
100
AcDbArc
50
270
51
329.99999999990405
0
ARC
5
154
100
AcDbEntity
8
0
100
AcDbCircle
10
173.9975
20
-59.365000000000038
30
0
40
0.50000000000000711
210
-0
220
0
230
1
100
AcDbArc
50
0
51
90
0
LWPOLYLINE
5
155
100
AcDbEntity
8
0
100
AcDbPolyline
90
14
70
1
43
0.0
10
97.329487298105747
20
-39.565000000003536
42
-0.26794908423517122
10
96.896474697161764
20
-39.81499982515615
10
92.702500000000015
20
-39.815000000000026
42
0.41421356237309503
10
92.202500000000001
20
-40.315000000000026
10
92.202499999999986
20
-54.935000000000045
42
0.41421356237309503
10
92.702499999999986
20
-55.435000000000031
10
107.32249999999999
20
-55.435000000000052
42
0.41421356237309503
10
107.82249999999999
20
-54.935000000000045
10
107.82250000000002
20
-40.315000000000026
42
0.41421356237309503
10
107.32250000000001
20
-39.81500000000004
10
103.128525
20
-39.814999392143605
42
-0.26794900435945057
10
102.69551300000005
20
-39.564999999999998
42
0.26794919243320298
10
102.26250014905
20
-39.314999741831059
10
97.762499999999989
20
-39.315000000000033
42
0.26794919243328713
0
LINE
5
156
100
AcDbEntity
8
0
100
AcDbLine
10
169.80352535094002
20
-58.864999392143901
30
0
11
173.9975
21
-58.865000000000038
31
0
0
LINE
5
157
100
AcDbEntity
8
0
100
AcDbLine
10
101.72749999999999
20
-73.985000000000042
30
0
11
101.72749999999999
21
-59.365000000000038
31
0
0
LINE
5
158
100
AcDbEntity
8
0
100
AcDbLine
10
145.99102500000001
20
-1.7149993921440299
30
0
11
150.185
21
-1.7150000000000176
31
0
0
LINE
5
159
100
AcDbEntity
8
0
100
AcDbLine
10
238.23765000000006
20
-59.881000000000043
30
0
11
239.47284999999999
21
-59.881000000000043
31
0
0
LINE
5
160
100
AcDbEntity
8
0
100
AcDbLine
10
263.65250000000003
20
-93.035000000000053
30
0
11
263.65250000000003
21
-78.415000000000049
31
0
0
ARC
5
161
100
AcDbEntity
8
0
100
AcDbCircle
10
226.08750000000001
20
-58.865000000000052
30
0
40
0.50000025816900151
210
0
220
-0
230
1
100
AcDbArc
50
29.999982919689042
51
89.999982920135849
0
LINE
5
162
100
AcDbEntity
8
0
100
AcDbLine
10
237.73765000000003
20
-68.652000000000044
30
0
11
237.73765000000003
21
-60.381000000000057
31
0
0
LWPOLYLINE
5
163
100
AcDbEntity
8
0
100
AcDbPolyline
90
14
70
1
43
0.0
10
135.42948760094401
20
-39.565000174847412
42
-0.26794919243334253
10
135.8625003028383
20
-39.315000174843817
10
140.36250014904999
20
-39.3149997418315
42
-0.26794919243319953
10
140.79551300000006
20
-39.56500000000041
42
0.26794900435945879
10
141.22852499999999
20
-39.814999392144031
10
145.42250000000001
20
-39.815000000000026
42
-0.41421356237309503
10
145.92250000000004
20
-40.315000000000026
10
145.92250000000001
20
-54.935000000000045
42
-0.41421356237309503
10
145.42249999999999
20
-55.435000000000052
10
130.80250000000001
20
-55.435000000000052
42
-0.41421356237309503
10
130.30249999999998
20
-54.935000000000045
10
130.30249999999998
20
-40.315000000000026
42
-0.41421356237309503
10
130.80250000000001
20
-39.815000000000026
10
134.99647500000003
20
-39.81500000000004
42
0.26794908423517955
0
LINE
5
164
100
AcDbEntity
8
0
100
AcDbLine
10
269.21250000000003
20
-77.415000000000035
30
0
11
273.71250000000003
21
-77.414999871092618
31
0
0
LWPOLYLINE
5
165
100
AcDbEntity
8
0
100
AcDbPolyline
90
14
70
1
43
0.0
10
135.89750000000004
20
-58.865000000000038
10
131.70352535094
20
-58.864999392143488
42
-0.26794919242784793
10
131.27051300000002
20
-58.614999999999995
42
0.26794927230881699
10
130.83749999999998
20
-58.364999741831056
10
126.33750030283821
20
-58.365000174843914
42
0.26794908423783276
10
125.90448770189172
20
-58.615000000000833
42
-0.2679491924306257
10
125.47147499999997
20
-58.865000000000038
10
121.27749999999999
20
-58.865000000000038
42
0.41421356237309503
10
120.77749999999997
20
-59.365000000000038
10
120.77749999999997
20
-73.985000000000042
42
0.41421356237309503
10
121.27749999999999
20
-74.485000000000042
10
135.89750000000004
20
-74.485000000000042
42
0.41421356237309503
10
136.39750000000004
20
-73.985000000000042
10
136.39750000000004
20
-59.365000000000038
42
0.41421356237309503
0
LWPOLYLINE
5
166
100
AcDbEntity
8
0
100
AcDbPolyline
90
14
70
1
43
0.0
10
207.03750014905
20
-58.364999741831063
42
-0.26794919243321724
10
207.4705130000001
20
-58.615000000000009
42
0.26794900435946001
10
207.90352500000006
20
-58.864999392143588
10
212.09750000000003
20
-58.865000000000052
42
-0.41421356237309503
10
212.59750000000003
20
-59.365000000000059
10
212.59750000000003
20
-73.985000000000056
42
-0.41421356237309503
10
212.09750000000003
20
-74.48500000000007
10
197.47750000000002
20
-74.48500000000007
42
-0.41421356237309503
10
196.97750000000002
20
-73.985000000000056
10
196.97750000000002
20
-59.365000000000059
42
-0.41421356237309503
10
197.47750000000002
20
-58.865000000000052
10
201.67147500000002
20
-58.865000000000052
42
0.26794908423521374
10
202.10448760094405
20
-58.615000174847367
42
-0.2679491924333296
10
202.53750030283834
20
-58.365000174843793
0
ARC
5
167
100
AcDbEntity
8
0
100
AcDbCircle
10
187.98750000000001
20
-58.865000000000038
30
0
40
0.50000025816901039
210
0
220
-0
230
1
100
AcDbArc
50
29.999982919691156
51
90
0
ARC
5
168
100
AcDbEntity
8
0
100
AcDbCircle
10
240.67250000000001
20
-54.935000000000059
30
0
40
0.50000000000000711
210
0
220
0
230
1
100
AcDbArc
50
-90
51
0
0
ARC
5
169
100
AcDbEntity
8
0
100
AcDbCircle
10
216.5275
20
-93.035000000000053
30
0
40
0.50000000000000711
210
0
220
0
230
1
100
AcDbArc
50
180
51
270
0
LINE
5
170
100
AcDbEntity
8
0
100
AcDbLine
10
216.0275
20
-93.035000000000053
30
0
11
216.0275
21
-78.415000000000049
31
0
0
ARC
5
171
100
AcDbEntity
8
0
100
AcDbCircle
10
211.80000000000004
20
-20.765000000000029
30
0
40
0.50000025816898863
210
0
220
-0
230
1
100
AcDbArc
50
29.999982919695825
51
90.000000000003254
0
LINE
5
172
100
AcDbEntity
8
0
100
AcDbLine
10
179.32852500000001
20
-39.814999392144031
30
0
11
183.52250000000001
21
-39.81500000000004
31
0
0
LINE
5
173
100
AcDbEntity
8
0
100
AcDbLine
10
141.16000000000003
20
-21.265000000000036
30
0
11
141.16000000000003
21
-35.885000000000034
31
0
0
LWPOLYLINE
5
174
100
AcDbEntity
8
0
100
AcDbPolyline
90
8
70
1
43
0.0
10
271.36625000000004
20
-58.865000000000052
10
269.86625000000004
20
-58.865000000000052
42
0.41421356237309503
10
269.36625000000004
20
-59.365000000000059
10
269.36625000000004
20
-73.985000000000056
42
0.41421356237309503
10
269.86625000000004
20
-74.48500000000007
10
271.36625000000004
20
-74.48500000000007
42
0.41421356237309503
10
271.86625000000004
20
-73.985000000000056
10
271.86625000000004
20
-59.365000000000059
42
0.41421356237309503
0
LINE
5
175
100
AcDbEntity
8
0
100
AcDbLine
10
198.37852535094001
20
-39.814999392143932
30
0
11
202.57250000000002
21
-39.815000000000055
31
0
0
ARC
5
176
100
AcDbEntity
8
0
100
AcDbCircle
10
240.47284999999999
20
-66.603418000000048
30
0
40
0.50000041599945588
210
0
220
0
230
1
100
AcDbArc
50
114.35063555414217
51
180
0
LINE
5
177
100
AcDbEntity
8
0
100
AcDbLine
10
278.77250000000004
20
-93.535000000000053
30
0
11
264.15250000000003
21
-93.535000000000053
31
0
0
LINE
5
178
100
AcDbEntity
8
0
100
AcDbLine
10
264.15250000000003
20
-77.915000000000049
30
0
11
268.346475
21
-77.915000000000049
31
0
0
ARC
5
179
100
AcDbEntity
8
0
100
AcDbCircle
10
268.346475
20
-77.415000000000049
30
0
40
0.49999999999998934
210
0
220
0
230
1
100
AcDbArc
50
270
51
329.9999999998916
0
LWPOLYLINE
5
180
100
AcDbEntity
8
0
100
AcDbPolyline
90
16
70
1
43
0.0
10
285.74999954247772
20
-92.749999542477823
42
-0.41421361597515782
10
283.24999954247778
20
-95.250000000000057
10
2.5000000000000355
20
-95.250000000000057
42
-0.41421356237309859
10
4.9960036108132044e-15
20
-92.750000000000057
10
0
20
-60.250000000000043
10
3.9750000000000041
20
-60.250000000000043
42
0.99999999999999989
10
3.9750000000000041
20
-54.050000000000026
10
0
20
-54.050000000000026
10
0
20
-2.5
42
-0.41421356237309548
10
2.5
20
0
10
283.25
20
-1.6653345369377348e-15
42
-0.4142135623731073
10
285.75
20
-2.5
10
285.75
20
-53.950000000000017
10
283.57499999999999
20
-53.950000000000017
42
0.99999999999999989
10
283.57499999999999
20
-60.350000000000023
10
285.74999361298978
20
-60.350000000000023
0
LWPOLYLINE
5
181
100
AcDbEntity
8
0
100
AcDbPolyline
90
14
70
1
43
0.0
10
106.98999999999999
20
-36.385000000000005
10
121.61
20
-36.385000000000041
42
0.41421356237309503
10
122.11
20
-35.885000000000034
10
122.11000000000001
20
-21.265000000000036
42
0.41421356237309503
10
121.61000000000001
20
-20.765000000000029
10
117.41602535094
20
-20.764999392143494
42
-0.26794919242784199
10
116.98301300000008
20
-20.515000000000008
42
0.26794927230882054
10
116.55000000000003
20
-20.264999741831033
10
112.05000000000001
20
-20.265000000000057
42
0.26794908423783276
10
111.61698739905356
20
-20.514999825156984
42
-0.26794919243064214
10
111.18397469716179
20
-20.76499982515621
10
106.99000000000001
20
-20.765000000000029
42
0.41421356237309503
10
106.49000000000001
20
-21.265000000000036
10
106.48999999999999
20
-35.884999999999998
42
0.41421356237309503
0
ARC
5
182
100
AcDbEntity
8
0
100
AcDbCircle
10
221.58750000000001
20
-58.865000000000052
30
0
40
0.50000000000000711
210
0
220
-0
230
1
100
AcDbArc
50
90
51
150.00000000046745
0
LINE
5
183
100
AcDbEntity
8
0
100
AcDbLine
10
239.47284999999999
20
-69.152000000000058
30
0
11
238.23765000000006
21
-69.152000000000058
31
0
0
ARC
5
184
100
AcDbEntity
8
0
100
AcDbCircle
10
136.466025
20
-20.265000000000057
30
0
40
0.49999939214353001
210
0
220
0
230
1
100
AcDbArc
50
210.00004021551121
51
270.00004021481215
0
LINE
5
185
100
AcDbEntity
8
0
100
AcDbLine
10
279.27250000000004
20
-78.415000000000049
30
0
11
279.27250000000004
21
-93.035000000000053
31
0
0
ARC
5
186
100
AcDbEntity
8
0
100
AcDbCircle
10
240.34000000000003
20
-93.035000000000053
30
0
40
0.50000000000000711
210
0
220
0
230
1
100
AcDbArc
50
180
51
270
0
LINE
5
187
100
AcDbEntity
8
0
100
AcDbLine
10
221.58750000000001
20
-77.415000000000035
30
0
11
226.08750000000001
21
-77.414999871092618
31
0
0
LINE
5
188
100
AcDbEntity
8
0
100
AcDbLine
10
274.57852535094003
20
-77.914999392143926
30
0
11
278.77250000000004
21
-77.915000000000049
31
0
0
LINE
5
189
100
AcDbEntity
8
0
100
AcDbLine
10
178.72500000000002
20
-1.215000000000046
30
0
11
183.22500000000002
21
-1.2149997418310576
31
0
0
ARC
5
190
100
AcDbEntity
8
0
100
AcDbCircle
10
202.24000000000001
20
-21.265000000000036
30
0
40
0.50000000000000711
210
0
220
-0
230
1
100
AcDbArc
50
90
51
180
0
LINE
5
191
100
AcDbEntity
8
0
100
AcDbLine
10
188.85352535094
20
-58.864999392143901
30
0
11
193.04750000000001
21
-58.865000000000052
31
0
0
LINE
5
192
100
AcDbEntity
8
0
100
AcDbLine
10
231.14750000000004
20
-74.48500000000007
30
0
11
216.5275
21
-74.48500000000007
31
0
0
ARC
5
193
100
AcDbEntity
8
0
100
AcDbCircle
10
206.43397500000003
20
-20.265000000000057
30
0
40
0.49999999999997158
210
0
220
0
230
1
100
AcDbArc
50
270
51
329.99999999989728
0
ARC
5
194
100
AcDbEntity
8
0
100
AcDbCircle
10
197.51250000000002
20
-39.815000000000055
30
0
40
0.50000025816901039
210
0
220
-0
230
1
100
AcDbArc
50
29.999982919690453
51
90.000000000003254
0
ARC
5
195
100
AcDbEntity
8
0
100
AcDbCircle
10
273.71250000000003
20
-77.915000000000049
30
0
40
0.50000025816898863
210
0
220
-0
230
1
100
AcDbArc
50
29.999982919695825
51
90
0
LINE
5
196
100
AcDbEntity
8
0
100
AcDbLine
10
183.48750000000001
20
-58.365000000000023
30
0
11
187.98750000000001
21
-58.364999871092635
31
0
0
LINE
5
197
100
AcDbEntity
8
0
100
AcDbLine
10
112.65352535093999
20
-58.864999392143901
30
0
11
116.84750000000001
21
-58.865000000000038
31
0
0
ARC
5
198
100
AcDbEntity
8
0
100
AcDbCircle
10
231.14750000000004
20
-73.985000000000056
30
0
40
0.50000000000000711
210
0
220
0
230
1
100
AcDbArc
50
-90
51
0
0
LINE
5
199
100
AcDbEntity
8
0
100
AcDbLine
10
207.30000000000001
20
-20.265000000000057
30
0
11
211.80000000000001
21
-20.264999741831033
31
0
0
LWPOLYLINE
5
200
100
AcDbEntity
8
0
100
AcDbPolyline
90
14
70
1
43
0.0
10
251.74625000000003
20
-59.365000000000059
10
251.74625000000003
20
-73.985000000000056
42
0.41421356237309503
10
252.24625000000003
20
-74.48500000000007
10
266.86625000000004
20
-74.48500000000007
42
0.41421356237309503
10
267.36625000000004
20
-73.985000000000056
10
267.36625000000004
20
-59.365000000000059
42
0.41421356237309503
10
266.86625000000004
20
-58.865000000000052
10
262.67227500000001
20
-58.864999392112558
42
-0.26794900435945879
10
262.23926300000005
20
-58.614999999968944
42
0.26794919243319948
10
261.80625014905002
20
-58.364999741800041
10
257.30625030283829
20
-58.365000174843793
42
0.26794919243336385
10
256.87323760094398
20
-58.615000174847431
42
-0.26794908423517955
10
256.440225
20
-58.865000000000052
10
252.24625000000003
20
-58.865000000000052
42
0.41421356237309503
0
LWPOLYLINE
5
201
100
AcDbEntity
8
0
100
AcDbPolyline
90
14
70
1
43
0.0
10
126.87249999999999
20
-54.935000000000045
42
-0.41421356237309503
10
126.37249999999997
20
-55.435000000000052
10
111.75249999999998
20
-55.435000000000052
42
-0.41421356237309503
10
111.25249999999997
20
-54.935000000000045
10
111.25249999999997
20
-40.315000000000026
42
-0.41421356237309503
10
111.75249999999998
20
-39.815000000000026
10
115.94647469716168
20
-39.814999825156256
42
0.26794908423520547
10
116.37948729810572
20
-39.565000000003593
42
-0.26794919243332138
10
116.81249999999999
20
-39.315000000000033
10
121.31250014905
20
-39.314999741831066
42
-0.26794919243319348
10
121.74551300000003
20
-39.564999999999998
42
0.26794900435945529
10
122.17852499999999
20
-39.814999392143605
10
126.37249999999997
20
-39.815000000000026
42
-0.41421356237309503
10
126.87249999999999
20
-40.315000000000026
0
ARC
5
202
100
AcDbEntity
8
0
100
AcDbCircle
10
193.04750000000001
20
-59.365000000000059
30
0
40
0.50000000000000711
210
-0
220
0
230
1
100
AcDbArc
50
0
51
90
0
ARC
5
203
100
AcDbEntity
8
0
100
AcDbCircle
10
278.77250000000004
20
-93.035000000000053
30
0
40
0.50000000000000711
210
0
220
0
230
1
100
AcDbArc
50
-90
51
0
0
ARC
5
204
100
AcDbEntity
8
0
100
AcDbCircle
10
231.14750000000004
20
-93.035000000000053
30
0
40
0.50000000000000711
210
0
220
0
230
1
100
AcDbArc
50
-90
51
0
0
ARC
5
205
100
AcDbEntity
8
0
100
AcDbCircle
10
278.77250000000004
20
-78.415000000000049
30
0
40
0.50000000000000711
210
-0
220
0
230
1
100
AcDbArc
50
0
51
90
0
ARC
5
206
100
AcDbEntity
8
0
100
AcDbCircle
10
254.96000000000006
20
-93.035000000000053
30
0
40
0.50000000000000711
210
0
220
0
230
1
100
AcDbArc
50
-90
51
0
0
ARC
5
207
100
AcDbEntity
8
0
100
AcDbCircle
10
116.84750000000001
20
-59.365000000000038
30
0
40
0.50000000000000711
210
-0
220
0
230
1
100
AcDbArc
50
0
51
90
0
ARC
5
208
100
AcDbEntity
8
0
100
AcDbCircle
10
280.87485000000004
20
-60.381000000000057
30
0
40
0.50000000000000711
210
-0
220
0
230
1
100
AcDbArc
50
0
51
90
0
LWPOLYLINE
5
209
100
AcDbEntity
8
0
100
AcDbPolyline
90
14
70
1
43
0.0
10
211.26499999999999
20
-2.2150000000000603
10
211.26499999999999
20
-16.835000000000022
42
0.41421356237309503
10
211.76500000000001
20
-17.335000000000029
10
226.38500000000005
20
-17.335000000000029
42
0.41421356237309503
10
226.88500000000005
20
-16.835000000000022
10
226.88500000000005
20
-2.2150000000000603
42
0.41421356237309503
10
226.38500000000005
20
-1.7150000000000531
10
222.19102500000002
20
-1.7149993921435891
42
-0.26794900435947522
10
221.75801300000006
20
-1.4649999999999608
42
0.26794919243318299
10
221.32500014905003
20
-1.2149997418310932
10
216.82500030283833
20
-1.2150001748438299
42
0.26794919243331317
10
216.39198760094405
20
-1.4650001748473716
42
-0.26794908423521369
10
215.95897500000004
20
-1.7150000000000531
10
211.76500000000001
20
-1.7150000000000531
42
0.41421356237309503
0
ARC
5
210
100
AcDbEntity
8
0
100
AcDbCircle
10
281.87485000000004
20
-66.603418000000048
30
0
40
0.50000041599946743
210
0
220
0
230
1
100
AcDbArc
50
114.35063555415536
51
180
0
ARC
5
211
100
AcDbEntity
8
0
100
AcDbCircle
10
244.533975
20
-77.415000000000049
30
0
40
0.49999999999998934
210
0
220
0
230
1
100
AcDbArc
50
270
51
329.99997686437882
0
ARC
5
212
100
AcDbEntity
8
0
100
AcDbCircle
10
188.85352500000005
20
-58.365000000000023
30
0
40
0.4999993921435697
210
0
220
0
230
1
100
AcDbArc
50
210.00004021551004
51
270.00004021480561
0
ARC
5
213
100
AcDbEntity
8
0
100
AcDbCircle
10
202.24000000000001
20
-35.885000000000034
30
0
40
0.50000000000000711
210
0
220
0
230
1
100
AcDbArc
50
180
51
270
0
LINE
5
214
100
AcDbEntity
8
0
100
AcDbLine
10
281.37484958400006
20
-66.603418000000033
30
0
11
281.37485000000004
21
-68.652000000000044
31
0
0
ARC
5
215
100
AcDbEntity
8
0
100
AcDbCircle
10
226.05250000000001
20
-54.935000000000059
30
0
40
0.50000000000000711
210
0
220
0
230
1
100
AcDbArc
50
180
51
270
0
LINE
5
216
100
AcDbEntity
8
0
100
AcDbLine
10
202.57250000000002
20
-55.435000000000073
30
0
11
187.95250000000004
21
-55.435000000000031
31
0
0
ARC
5
217
100
AcDbEntity
8
0
100
AcDbCircle
10
220.721475
20
-77.415000000000049
30
0
40
0.49999999999998934
210
0
220
0
230
1
100
AcDbArc
50
270
51
329.9999999998916
0
LINE
5
218
100
AcDbEntity
8
0
100
AcDbLine
10
231.64750000000004
20
-59.365000000000059
30
0
11
231.64750000000004
21
-73.985000000000056
31
0
0
ARC
5
219
100
AcDbEntity
8
0
100
AcDbCircle
10
269.21250000000003
20
-77.915000000000049
30
0
40
0.50000000000000711
210
0
220
-0
230
1
100
AcDbArc
50
90
51
149.9999768649501
0
ARC
5
220
100
AcDbEntity
8
0
100
AcDbCircle
10
264.15250000000003
20
-93.035000000000053
30
0
40
0.50000000000000711
210
0
220
0
230
1
100
AcDbArc
50
180
51
270
0
ARC
5
221
100
AcDbEntity
8
0
100
AcDbCircle
10
250.76602500000004
20
-77.415000000000049
30
0
40
0.49999939214355188
210
0
220
0
230
1
100
AcDbArc
50
210.00004021550725
51
270
0
LINE
5
222
100
AcDbEntity
8
0
100
AcDbLine
10
226.95352535094
20
-77.914999392143926
30
0
11
231.14750000000004
21
-77.915000000000049
31
0
0
ARC
5
223
100
AcDbEntity
8
0
100
AcDbCircle
10
202.57250000000002
20
-40.315000000000047
30
0
40
0.50000000000000711
210
-0
220
0
230
1
100
AcDbArc
50
0
51
90
0
ARC
5
224
100
AcDbEntity
8
0
100
AcDbCircle
10
211.19647500000002
20
-39.315000000000055
30
0
40
0.50000000000000711
210
0
220
0
230
1
100
AcDbArc
50
270
51
329.99997686437854
0
ARC
5
225
100
AcDbEntity
8
0
100
AcDbCircle
10
249.90000000000006
20
-77.915000000000049
30
0
40
0.50000025816898863
210
0
220
-0
230
1
100
AcDbArc
50
29.999982919695825
51
89.999982920139104
0
LWPOLYLINE
5
226
100
AcDbEntity
8
0
100
AcDbPolyline
90
8
70
1
43
0.0
10
249.74625000000003
20
-73.985000000000056
42
-0.41421356237309503
10
249.24625000000003
20
-74.48500000000007
10
247.74625000000003
20
-74.48500000000007
42
-0.41421356237309503
10
247.24625000000003
20
-73.985000000000056
10
247.24625000000003
20
-59.365000000000059
42
-0.41421356237309503
10
247.74625000000003
20
-58.865000000000052
10
249.24625000000003
20
-58.865000000000052
42
-0.41421356237309503
10
249.74625000000003
20
-59.365000000000059
0
ARC
5
227
100
AcDbEntity
8
0
100
AcDbCircle
10
264.15250000000003
20
-78.415000000000049
30
0
40
0.50000000000000711
210
0
220
-0
230
1
100
AcDbArc
50
90
51
180
0
ARC
5
228
100
AcDbEntity
8
0
100
AcDbCircle
10
231.14750000000004
20
-59.365000000000059
30
0
40
0.50000000000000711
210
-0
220
0
230
1
100
AcDbArc
50
0
51
90
0
LINE
5
229
100
AcDbEntity
8
0
100
AcDbLine
10
126.04000000000002
20
-20.765000000000029
30
0
11
130.23397500000002
21
-20.765000000000029
31
0
0
LINE
5
230
100
AcDbEntity
8
0
100
AcDbLine
10
193.04750000000001
20
-74.48500000000007
30
0
11
178.42750000000001
21
-74.485000000000042
31
0
0
LINE
5
231
100
AcDbEntity
8
0
100
AcDbLine
10
255.46000000000006
20
-78.415000000000049
30
0
11
255.46000000000006
21
-93.035000000000053
31
0
0
ARC
5
232
100
AcDbEntity
8
0
100
AcDbCircle
10
245.40000000000003
20
-77.915000000000049
30
0
40
0.50000000000000711
210
0
220
-0
230
1
100
AcDbArc
50
90
51
150.00000000047916
0
ARC
5
233
100
AcDbEntity
8
0
100
AcDbCircle
10
216.5275
20
-59.365000000000059
30
0
40
0.50000000000000711
210
0
220
-0
230
1
100
AcDbArc
50
90
51
180
0
ARC
5
234
100
AcDbEntity
8
0
100
AcDbCircle
10
207.0025
20
-54.935000000000059
30
0
40
0.50000000000000711
210
0
220
0
230
1
100
AcDbArc
50
180
51
270
0
LINE
5
235
100
AcDbEntity
8
0
100
AcDbLine
10
231.14750000000004
20
-93.535000000000053
30
0
11
216.5275
21
-93.535000000000053
31
0
0
ARC
5
236
100
AcDbEntity
8
0
100
AcDbCircle
10
202.57250000000002
20
-54.935000000000059
30
0
40
0.50000000000000711
210
0
220
0
230
1
100
AcDbArc
50
-90
51
0
0
ARC
5
237
100
AcDbEntity
8
0
100
AcDbCircle
10
274.57852500000001
20
-77.415000000000049
30
0
40
0.49999939214355188
210
0
220
0
230
1
100
AcDbArc
50
210.00004021550725
51
270.00004021481215
0
ARC
5
238
100
AcDbEntity
8
0
100
AcDbCircle
10
107.28749999999999
20
-58.865000000000038
30
0
40
0.50000000000000711
210
0
220
-0
230
1
100
AcDbArc
50
90
51
149.99997686495502
0
ARC
5
239
100
AcDbEntity
8
0
100
AcDbCircle
10
254.96000000000006
20
-78.415000000000049
30
0
40
0.50000000000000711
210
-0
220
0
230
1
100
AcDbArc
50
0
51
90
0
ARC
5
240
100
AcDbEntity
8
0
100
AcDbCircle
10
221.58750000000001
20
-77.915000000000049
30
0
40
0.50000000000000711
210
0
220
-0
230
1
100
AcDbArc
50
90
51
149.99997686494848
0
LINE
5
241
100
AcDbEntity
8
0
100
AcDbLine
10
240.34000000000003
20
-77.915000000000049
30
0
11
244.533975
21
-77.915000000000049
31
0
0
ARC
5
242
100
AcDbEntity
8
0
100
AcDbCircle
10
106.421475
20
-58.365000000000023
30
0
40
0.50000000000000711
210
0
220
0
230
1
100
AcDbArc
50
270
51
329.9999999998991
0
ARC
5
243
100
AcDbEntity
8
0
100
AcDbCircle
10
126.04000000000001
20
-35.885000000000034
30
0
40
0.50000000000000711
210
0
220
0
230
1
100
AcDbArc
50
180
51
270
0
ARC
5
244
100
AcDbEntity
8
0
100
AcDbCircle
10
280.87485000000004
20
-68.652000000000044
30
0
40
0.50000000000000711
210
0
220
0
230
1
100
AcDbArc
50
-90
51
0
0
LINE
5
245
100
AcDbEntity
8
0
100
AcDbLine
10
107.28749999999999
20
-58.365000000000023
30
0
11
111.78750000000001
21
-58.364999871092635
31
0
0
LINE
5
246
100
AcDbEntity
8
0
100
AcDbLine
10
216.5275
20
-77.915000000000049
30
0
11
220.721475
21
-77.915000000000049
31
0
0
ARC
5
247
100
AcDbEntity
8
0
100
AcDbCircle
10
87.371475000000004
20
-58.365000000000023
30
0
40
0.50000000000000711
210
0
220
0
230
1
100
AcDbArc
50
270
51
329.99997686438155
0
ARC
5
248
100
AcDbEntity
8
0
100
AcDbCircle
10
197.81000000000003
20
-21.265000000000036
30
0
40
0.50000000000000711
210
-0
220
0
230
1
100
AcDbArc
50
0
51
90
0
LINE
5
249
100
AcDbEntity
8
0
100
AcDbLine
10
193.54750000000001
20
-59.365000000000059
30
0
11
193.54750000000001
21
-73.985000000000056
31
0
0
ARC
5
250
100
AcDbEntity
8
0
100
AcDbCircle
10
279.63965000000002
20
-60.381000000000057
30
0
40
0.50000000000000711
210
0
220
-0
230
1
100
AcDbArc
50
90
51
180
0
ARC
5
251
100
AcDbEntity
8
0
100
AcDbCircle
10
207.30000000000001
20
-20.765000000000029
30
0
40
0.49999999999997158
210
0
220
-0
230
1
100
AcDbArc
50
90
51
149.99997686494405
0
ARC
5
252
100
AcDbEntity
8
0
100
AcDbCircle
10
240.47284999999999
20
-62.429582000000053
30
0
40
0.49999999999997158
210
0
220
0
230
1
100
AcDbArc
50
180
51
245.64941089702972
0
LINE
5
253
100
AcDbEntity
8
0
100
AcDbLine
10
54.935000000000002
20
-17.335000000000029
30
0
11
40.315000000000005
21
-17.335000000000029
31
0
0
ARC
5
254
100
AcDbEntity
8
0
100
AcDbCircle
10
239.52834999999999
20
-64.516500000000036
30
0
40
1.7906996928590004
210
-0
220
0
230
1
100
AcDbArc
50
-65.649388435380487
51
65.649375465259766
0
ARC
5
255
100
AcDbEntity
8
0
100
AcDbCircle
10
97.797499999999999
20
-59.365000000000038
30
0
40
0.50000000000000711
210
-0
220
0
230
1
100
AcDbArc
50
0
51
90
0
ARC
5
256
100
AcDbEntity
8
0
100
AcDbCircle
10
126.04000000000002
20
-21.265000000000036
30
0
40
0.50000000000000711
210
0
220
-0
230
1
100
AcDbArc
50
90
51
180
0
LINE
5
257
100
AcDbEntity
8
0
100
AcDbLine
10
279.13965000000002
20
-68.652000000000044
30
0
11
279.13965000000002
21
-60.381000000000057
31
0
0
ARC
5
258
100
AcDbEntity
8
0
100
AcDbCircle
10
198.37852500000002
20
-39.315000000000055
30
0
40
0.4999993921435697
210
0
220
0
230
1
100
AcDbArc
50
210.00004021551098
51
270.00004021480891
0
ARC
5
259
100
AcDbEntity
8
0
100
AcDbCircle
10
279.63965000000002
20
-68.652000000000044
30
0
40
0.50000000000000711
210
0
220
0
230
1
100
AcDbArc
50
180
51
270
0
ARC
5
260
100
AcDbEntity
8
0
100
AcDbCircle
10
226.95352500000001
20
-77.415000000000049
30
0
40
0.4999993921435697
210
0
220
0
230
1
100
AcDbArc
50
210.00004021551166
51
270.00004021480891
0
ARC
5
261
100
AcDbEntity
8
0
100
AcDbCircle
10
216.5275
20
-73.985000000000056
30
0
40
0.50000000000000711
210
0
220
0
230
1
100
AcDbArc
50
180
51
270
0
ARC
5
262
100
AcDbEntity
8
0
100
AcDbCircle
10
92.737499999999997
20
-58.865000000000038
30
0
40
0.50000025816899507
210
0
220
-0
230
1
100
AcDbArc
50
29.999982919692783
51
89.999982920137455
0
LINE
5
263
100
AcDbEntity
8
0
100
AcDbLine
10
93.603524999999991
20
-58.864999392143602
30
0
11
97.797499999999999
21
-58.865000000000038
31
0
0
ARC
5
264
100
AcDbEntity
8
0
100
AcDbCircle
10
187.95250000000004
20
-54.935000000000045
30
0
40
0.50000000000000711
210
0
220
0
230
1
100
AcDbArc
50
180
51
270
0
LINE
5
265
100
AcDbEntity
8
0
100
AcDbLine
10
239.97284958399999
20
-66.603418000000033
30
0
11
239.97285000000002
21
-68.652000000000044
31
0
0
ARC
5
266
100
AcDbEntity
8
0
100
AcDbCircle
10
130.23397500000002
20
-20.265000000000057
30
0
40
0.49999999999997158
210
0
220
0
230
1
100
AcDbArc
50
270
51
329.99999999989728
0
ARC
5
267
100
AcDbEntity
8
0
100
AcDbCircle
10
112.65352499999999
20
-58.365000000000023
30
0
40
0.49999939214355427
210
0
220
0
230
1
100
AcDbArc
50
210.00004021551166
51
270.0000402148105
0
LINE
5
268
100
AcDbEntity
8
0
100
AcDbLine
10
245.40000000000003
20
-77.415000000000035
30
0
11
249.90000014905004
21
-77.414999741800045
31
0
0
ARC
5
269
100
AcDbEntity
8
0
100
AcDbCircle
10
280.93035000000003
20
-64.516500000000036
30
0
40
1.7906996928590035
210
-0
220
0
230
1
100
AcDbArc
50
-65.649388435384211
51
65.649375465256071
0
ARC
5
270
100
AcDbEntity
8
0
100
AcDbCircle
10
131.10000000000002
20
-20.765000000000029
30
0
40
0.49999999999997158
210
0
220
-0
230
1
100
AcDbArc
50
90
51
149.99997686494569
0
ARC
5
271
100
AcDbEntity
8
0
100
AcDbCircle
10
83.177499999999981
20
-59.365000000000038
30
0
40
0.50000000000000711
210
0
220
-0
230
1
100
AcDbArc
50
90
51
180
0
LINE
5
272
100
AcDbEntity
8
0
100
AcDbLine
10
102.22749999999999
20
-58.865000000000038
30
0
11
106.421475
21
-58.865000000000038
31
0
0
ARC
5
273
100
AcDbEntity
8
0
100
AcDbCircle
10
111.78750000000001
20
-58.865000000000038
30
0
40
0.50000025816899507
210
0
220
-0
230
1
100
AcDbArc
50
29.999982919692783
51
90
0
ARC
5
274
100
AcDbEntity
8
0
100
AcDbCircle
10
240.34000000000003
20
-78.415000000000049
30
0
40
0.50000000000000711
210
0
220
-0
230
1
100
AcDbArc
50
90
51
180
0
LINE
5
275
100
AcDbEntity
8
0
100
AcDbLine
10
45.409999999999982
20
-93.535000000000025
30
0
11
30.789999999999988
21
-93.535000000000025
31
0
0
LINE
5
276
100
AcDbEntity
8
0
100
AcDbLine
10
35.849999999999994
20
-77.415000000000006
30
0
11
40.35000014905399
21
-77.414999741800017
31
0
0
ARC
5
277
100
AcDbEntity
8
0
100
AcDbCircle
10
197.81000000000003
20
-35.885000000000034
30
0
40
0.50000000000004263
210
0
220
0
230
1
100
AcDbArc
50
-90
51
0
0
ARC
5
278
100
AcDbEntity
8
0
100
AcDbCircle
10
102.22749999999999
20
-59.365000000000038
30
0
40
0.50000000000000711
210
0
220
-0
230
1
100
AcDbArc
50
90
51
180
0
ARC
5
279
100
AcDbEntity
8
0
100
AcDbCircle
10
88.237499999999983
20
-58.865000000000038
30
0
40
0.50000000000000711
210
0
220
-0
230
1
100
AcDbArc
50
90
51
150.00000000047166
0
ARC
5
280
100
AcDbEntity
8
0
100
AcDbCircle
10
196.90897500000003
20
-77.415000000000049
30
0
40
0.49999999999998934
210
0
220
0
230
1
100
AcDbArc
50
270
51
329.99997686437706
0
LINE
5
281
100
AcDbEntity
8
0
100
AcDbLine
10
131.10000000000002
20
-20.265000000000057
30
0
11
135.60000000000002
21
-20.264999871092613
31
0
0
ARC
5
282
100
AcDbEntity
8
0
100
AcDbCircle
10
239.47284999999999
20
-68.652000000000044
30
0
40
0.50000000000000711
210
0
220
0
230
1
100
AcDbArc
50
-90
51
0
0
LINE
5
283
100
AcDbEntity
8
0
100
AcDbLine
10
197.81000000000003
20
-36.385000000000076
30
0
11
183.19
21
-36.385000000000005
31
0
0
LINE
5
284
100
AcDbEntity
8
0
100
AcDbLine
10
83.177499999999981
20
-58.865000000000038
30
0
11
87.371475000000004
21
-58.865000000000038
31
0
0
LINE
5
285
100
AcDbEntity
8
0
100
AcDbLine
10
88.237499999999983
20
-58.365000000000023
30
0
11
92.737500149049993
21
-58.364999741831056
31
0
0
LWPOLYLINE
5
286
100
AcDbEntity
8
0
100
AcDbPolyline
90
14
70
1
43
0.0
10
87.939999999999984
20
-36.385000000000005
10
102.56
20
-36.385000000000041
42
0.41421356237309503
10
103.06
20
-35.885000000000034
10
103.06000000000003
20
-21.265000000000036
42
0.41421356237309503
10
102.56000000000002
20
-20.765000000000029
10
98.366025000000008
20
-20.764999392143615
42
-0.26794900435945879
10
97.933013000000074
20
-20.515000000000008
42
0.26794919243320642
10
97.50000014905001
20
-20.264999741831069
10
93.000000302838316
20
-20.265000174843806
42
0.26794919243333443
10
92.566987600944032
20
-20.515000174847387
42
-0.26794908423520891
10
92.133975000000007
20
-20.765000000000065
10
87.939999999999998
20
-20.765000000000029
42
0.41421356237309503
10
87.440000000000012
20
-21.265000000000036
10
87.439999999999984
20
-35.884999999999998
42
0.41421356237309503
0
ARC
5
287
100
AcDbEntity
8
0
100
AcDbCircle
10
150.185
20
-78.415000000000035
30
0
40
0.50000000000000711
210
-0
220
0
230
1
100
AcDbArc
50
0
51
90
0
LWPOLYLINE
5
288
100
AcDbEntity
8
0
100
AcDbPolyline
90
14
70
1
43
0.0
10
88.772500000000008
20
-54.935000000000045
42
-0.41421356237309503
10
88.272499999999994
20
-55.435000000000052
10
73.652500000000003
20
-55.435000000000052
42
-0.41421356237309503
10
73.152499999999989
20
-54.935000000000045
10
73.152500000000003
20
-40.315000000000026
42
-0.41421356237309503
10
73.652500000000003
20
-39.81500000000004
10
77.846474697161753
20
-39.81499982515615
42
0.26794919243061743
10
78.279487399053494
20
-39.56499982515696
42
-0.26794908423784092
10
78.712499999999977
20
-39.315000000000033
10
83.212499999999991
20
-39.314999871092624
42
-0.26794927230881699
10
83.645513000000037
20
-39.565000129261577
42
0.2679491924278527
10
84.078525350939998
20
-39.814999521405063
10
88.272499999999994
20
-39.815000000000026
42
-0.41421356237309503
10
88.772500000000008
20
-40.315000000000026
0
ARC
5
289
100
AcDbEntity
8
0
100
AcDbCircle
10
207.33500000000004
20
-93.035000000000053
30
0
40
0.50000000000000711
210
0
220
0
230
1
100
AcDbArc
50
-90
51
0
0
ARC
5
290
100
AcDbEntity
8
0
100
AcDbCircle
10
212.66602500000002
20
-20.265000000000057
30
0
40
0.49999939214354305
210
0
220
0
230
1
100
AcDbArc
50
210.00004021550438
51
270.00004021480891
0
ARC
5
291
100
AcDbEntity
8
0
100
AcDbCircle
10
135.565
20
-78.415000000000035
30
0
40
0.50000000000000711
210
0
220
-0
230
1
100
AcDbArc
50
90
51
180
0
LWPOLYLINE
5
292
100
AcDbEntity
8
0
100
AcDbPolyline
90
14
70
1
43
0.0
10
30.789999999999999
20
-36.385000000000041
10
45.409999999999997
20
-36.385000000000005
42
0.41421356237309503
10
45.910000000000004
20
-35.884999999999998
10
45.910000000000004
20
-21.265000000000036
42
0.41421356237309503
10
45.409999999999997
20
-20.765000000000029
10
41.216025000000009
20
-20.764999392144023
42
-0.26794900435944236
10
40.783013000000061
20
-20.515000000000434
42
0.26794919243106935
10
40.350000149053997
20
-20.264999741831495
10
35.850000302838289
20
-20.265000174843806
42
0.26794919243119958
10
35.416987600945994
20
-20.515000174843934
42
-0.26794908423732489
10
34.983974999999994
20
-20.765000000000029
10
30.789999999999999
20
-20.765000000000029
42
0.41421356237309503
10
30.289999999999999
20
-21.265000000000036
10
30.289999999999999
20
-35.885000000000034
42
0.41421356237309503
0
ARC
5
293
100
AcDbEntity
8
0
100
AcDbCircle
10
139.75897500000002
20
-77.415000000000035
30
0
40
0.49999999999998934
210
0
220
0
230
1
100
AcDbArc
50
270
51
329.99999999989831
0
ARC
5
294
100
AcDbEntity
8
0
100
AcDbCircle
10
212.0625
20
-39.815000000000055
30
0
40
0.50000000000000711
210
0
220
-0
230
1
100
AcDbArc
50
90
51
150.00000000047609
0
LINE
5
295
100
AcDbEntity
8
0
100
AcDbLine
10
279.63965000000002
20
-59.881000000000043
30
0
11
280.87485000000004
21
-59.881000000000064
31
0
0
ARC
5
296
100
AcDbEntity
8
0
100
AcDbCircle
10
281.87485000000004
20
-62.429582000000053
30
0
40
0.50000000000000711
210
0
220
0
230
1
100
AcDbArc
50
180
51
245.64941089704294
0
LINE
5
297
100
AcDbEntity
8
0
100
AcDbLine
10
125.54000000000001
20
-35.885000000000034
30
0
11
125.54000000000002
21
-21.265000000000036
31
0
0
LINE
5
298
100
AcDbEntity
8
0
100
AcDbLine
10
280.87485000000004
20
-69.152000000000058
30
0
11
279.63965000000002
21
-69.152000000000058
31
0
0
LWPOLYLINE
5
299
100
AcDbEntity
8
0
100
AcDbPolyline
90
8
70
1
43
0.0
10
176.44312500000001
20
-86.391250000000014
10
188.143125
20
-86.391250000000042
42
0.41421356237309503
10
188.643125
20
-85.891250000000028
10
188.643125
20
-80.541250000000019
42
0.41421356237309503
10
188.143125
20
-80.041250000000034
10
176.44312500000001
20
-80.041250000000019
42
0.41421356237309503
10
175.94312500000001
20
-80.541250000000019
10
175.94312500000001
20
-85.891250000000028
42
0.41421356237309503
0
LINE
5
300
100
AcDbEntity
8
0
100
AcDbLine
10
239.97285000000002
20
-60.381000000000057
30
0
11
239.97285000000002
21
-62.429582000000053
31
0
0
LINE
5
301
100
AcDbEntity
8
0
100
AcDbLine
10
193.01250000000005
20
-39.315000000000055
30
0
11
197.51249999999999
21
-39.314999871092638
31
0
0
LINE
5
302
100
AcDbEntity
8
0
100
AcDbLine
10
198.31000000000003
20
-21.265000000000036
30
0
11
198.31
21
-35.885000000000034
31
0
0
ARC
5
303
100
AcDbEntity
8
0
100
AcDbCircle
10
93.603524999999991
20
-58.365000000000023
30
0
40
0.4999993921435697
210
0
220
0
230
1
100
AcDbArc
50
210.00004021551086
51
270
0
ARC
5
304
100
AcDbEntity
8
0
100
AcDbCircle
10
140.625
20
-77.91500000000002
30
0
40
0.50000000000000711
210
0
220
-0
230
1
100
AcDbArc
50
90
51
149.99997686495783
0
LINE
5
305
100
AcDbEntity
8
0
100
AcDbLine
10
207.0025
20
-39.81500000000004
30
0
11
211.19647500000002
21
-39.815000000000055
31
0
0
ARC
5
306
100
AcDbEntity
8
0
100
AcDbCircle
10
202.27500000000003
20
-77.915000000000049
30
0
40
0.50000025816901039
210
0
220
-0
230
1
100
AcDbArc
50
29.999982919691156
51
89.999982920139104
0
LINE
5
307
100
AcDbEntity
8
0
100
AcDbLine
10
197.77500000000001
20
-77.415000000000035
30
0
11
202.27500014905002
21
-77.414999741800045
31
0
0
ARC
5
308
100
AcDbEntity
8
0
100
AcDbCircle
10
197.77500000000001
20
-77.915000000000049
30
0
40
0.50000000000000711
210
0
220
-0
230
1
100
AcDbArc
50
90
51
150.00000000047754
0
ARC
5
309
100
AcDbEntity
8
0
100
AcDbCircle
10
238.23765000000006
20
-60.381000000000057
30
0
40
0.50000000000000711
210
0
220
-0
230
1
100
AcDbArc
50
90
51
180
0
LINE
5
310
100
AcDbEntity
8
0
100
AcDbLine
10
201.74000000000001
20
-35.885000000000034
30
0
11
201.74000000000004
21
-21.265000000000036
31
0
0
LINE
5
311
100
AcDbEntity
8
0
100
AcDbLine
10
202.24000000000001
20
-20.765000000000029
30
0
11
206.43397500000003
21
-20.765000000000029
31
0
0
LINE
5
312
100
AcDbEntity
8
0
100
AcDbLine
10
281.37485000000004
20
-60.381000000000057
30
0
11
281.37485000000004
21
-62.429582000000053
31
0
0
ARC
5
313
100
AcDbEntity
8
0
100
AcDbCircle
10
207.0025
20
-40.315000000000047
30
0
40
0.50000000000000711
210
0
220
-0
230
1
100
AcDbArc
50
90
51
180
0
LINE
5
314
100
AcDbEntity
8
0
100
AcDbLine
10
140.66000000000003
20
-36.385000000000041
30
0
11
126.04000000000001
21
-36.385000000000005
31
0
0
ARC
5
315
100
AcDbEntity
8
0
100
AcDbCircle
10
169.23500000000001
20
-16.835000000000022
30
0
40
0.50000000000000711
210
0
220
0
230
1
100
AcDbArc
50
-90
51
0
0
ARC
5
316
100
AcDbEntity
8
0
100
AcDbCircle
10
88.841024999999988
20
-77.415000000000035
30
0
40
0.49999939214356082
210
0
220
0
230
1
100
AcDbArc
50
210.00004021550944
51
270.00004021481215
0
LINE
5
317
100
AcDbEntity
8
0
100
AcDbLine
10
169.73500000000001
20
-2.2150000000000603
30
0
11
169.73500000000001
21
-16.835000000000022
31
0
0
LINE
5
318
100
AcDbEntity
8
0
100
AcDbLine
10
117.34750000000003
20
-59.365000000000038
30
0
11
117.3475
21
-73.985000000000042
31
0
0
ARC
5
319
100
AcDbEntity
8
0
100
AcDbCircle
10
192.715
20
-78.415000000000049
30
0
40
0.50000000000000711
210
0
220
-0
230
1
100
AcDbArc
50
90
51
180
0
LINE
5
320
100
AcDbEntity
8
0
100
AcDbLine
10
131.13500000000002
20
-17.335000000000029
30
0
11
116.51500000000001
21
-17.335000000000029
31
0
0
ARC
5
321
100
AcDbEntity
8
0
100
AcDbCircle
10
165.04102500000002
20
-1.215000000000046
30
0
40
0.49999939214357858
210
0
220
0
230
1
100
AcDbArc
50
210.00004021551308
51
270
0
LINE
5
322
100
AcDbEntity
8
0
100
AcDbLine
10
93.534999999999997
20
-78.415000000000035
30
0
11
93.534999999999982
21
-93.035000000000025
31
0
0
ARC
5
323
100
AcDbEntity
8
0
100
AcDbCircle
10
203.14102500000001
20
-77.415000000000049
30
0
40
0.49999939214353001
210
0
220
0
230
1
100
AcDbArc
50
210.00004021551192
51
270
0
ARC
5
324
100
AcDbEntity
8
0
100
AcDbCircle
10
97.797499999999999
20
-73.985000000000042
30
0
40
0.50000000000000711
210
0
220
0
230
1
100
AcDbArc
50
-90
51
0
0
LINE
5
325
100
AcDbEntity
8
0
100
AcDbLine
10
193.61602535094008
20
-20.764999392143935
30
0
11
197.81000000000003
21
-20.765000000000029
31
0
0
LINE
5
326
100
AcDbEntity
8
0
100
AcDbLine
10
150.685
20
-78.415000000000035
30
0
11
150.685
21
-93.035000000000025
31
0
0
LINE
5
327
100
AcDbEntity
8
0
100
AcDbLine
10
98.297500000000014
20
-59.365000000000038
30
0
11
98.297499999999985
21
-73.985000000000042
31
0
0
LINE
5
328
100
AcDbEntity
8
0
100
AcDbLine
10
192.715
20
-77.915000000000049
30
0
11
196.90897500000003
21
-77.915000000000049
31
0
0
ARC
5
329
100
AcDbEntity
8
0
100
AcDbCircle
10
145.125
20
-77.91500000000002
30
0
40
0.50000025816900151
210
0
220
-0
230
1
100
AcDbArc
50
29.999982919688343
51
90
0
ARC
5
330
100
AcDbEntity
8
0
100
AcDbCircle
10
102.22749999999999
20
-73.985000000000042
30
0
40
0.50000000000000711
210
0
220
0
230
1
100
AcDbArc
50
180
51
270
0
LINE
5
331
100
AcDbEntity
8
0
100
AcDbLine
10
192.21499999999997
20
-93.035000000000025
30
0
11
192.21500000000003
21
-78.415000000000035
31
0
0
LINE
5
332
100
AcDbEntity
8
0
100
AcDbLine
10
203.14102500000001
20
-77.914999392144054
30
0
11
207.33500000000004
21
-77.915000000000049
31
0
0
LINE
5
333
100
AcDbEntity
8
0
100
AcDbLine
10
135.565
20
-77.91500000000002
30
0
11
139.75897500000002
21
-77.91500000000002
31
0
0
ARC
5
334
100
AcDbEntity
8
0
100
AcDbCircle
10
192.715
20
-93.035000000000053
30
0
40
0.50000000000000711
210
0
220
0
230
1
100
AcDbArc
50
180
51
270
0
ARC
5
335
100
AcDbEntity
8
0
100
AcDbCircle
10
169.23500000000001
20
-2.2150000000000603
30
0
40
0.50000000000000711
210
-0
220
0
230
1
100
AcDbArc
50
0
51
90
0
LINE
5
336
100
AcDbEntity
8
0
100
AcDbLine
10
173.16500000000002
20
-16.835000000000022
30
0
11
173.16500000000002
21
-2.2150000000000603
31
0
0
LINE
5
337
100
AcDbEntity
8
0
100
AcDbLine
10
83.47499999999998
20
-77.41500000000002
30
0
11
87.974999999999994
21
-77.41499987109259
31
0
0
ARC
5
338
100
AcDbEntity
8
0
100
AcDbCircle
10
173.66500000000002
20
-16.835000000000022
30
0
40
0.50000000000000711
210
0
220
0
230
1
100
AcDbArc
50
180
51
270
0
LINE
5
339
100
AcDbEntity
8
0
100
AcDbLine
10
82.677499999999981
20
-73.985000000000042
30
0
11
82.677499999999995
21
-59.365000000000038
31
0
0
ARC
5
340
100
AcDbEntity
8
0
100
AcDbCircle
10
173.66500000000002
20
-2.2150000000000603
30
0
40
0.50000000000000711
210
0
220
-0
230
1
100
AcDbArc
50
90
51
180
0
ARC
5
341
100
AcDbEntity
8
0
100
AcDbCircle
10
207.33500000000004
20
-78.415000000000049
30
0
40
0.50000000000000711
210
-0
220
0
230
1
100
AcDbArc
50
0
51
90
0
ARC
5
342
100
AcDbEntity
8
0
100
AcDbCircle
10
135.565
20
-93.035000000000025
30
0
40
0.50000000000000711
210
0
220
0
230
1
100
AcDbArc
50
180
51
270
0
ARC
5
343
100
AcDbEntity
8
0
100
AcDbCircle
10
164.17500000000001
20
-1.7150000000000531
30
0
40
0.50000025816900151
210
0
220
-0
230
1
100
AcDbArc
50
29.999982919689042
51
89.999982920135835
0
ARC
5
344
100
AcDbEntity
8
0
100
AcDbCircle
10
173.096475
20
-39.315000000000033
30
0
40
0.50000000000000711
210
0
220
0
230
1
100
AcDbArc
50
270
51
329.9999768643853
0
ARC
5
345
100
AcDbEntity
8
0
100
AcDbCircle
10
184.091025
20
-1.215000000000046
30
0
40
0.49999939214354783
210
0
220
0
230
1
100
AcDbArc
50
210.0000402155147
51
270.00004021481863
0
ARC
5
346
100
AcDbEntity
8
0
100
AcDbCircle
10
145.99102500000001
20
-77.415000000000035
30
0
40
0.4999993921435697
210
0
220
0
230
1
100
AcDbArc
50
210.00004021551166
51
270.00004021481215
0
ARC
5
347
100
AcDbEntity
8
0
100
AcDbCircle
10
193.61602500000001
20
-20.265000000000057
30
0
40
0.49999939214354783
210
0
220
0
230
1
100
AcDbArc
50
210.00004021551308
51
270.00004021481863
0
LINE
5
348
100
AcDbEntity
8
0
100
AcDbLine
10
88.841025350940001
20
-77.914999392143912
30
0
11
93.034999999999997
21
-77.91500000000002
31
0
0
ARC
5
349
100
AcDbEntity
8
0
100
AcDbCircle
10
188.28500000000003
20
-2.2150000000000603
30
0
40
0.50000000000000711
210
-0
220
0
230
1
100
AcDbArc
50
0
51
90
0
ARC
5
350
100
AcDbEntity
8
0
100
AcDbCircle
10
116.84750000000001
20
-73.985000000000042
30
0
40
0.50000000000000711
210
0
220
0
230
1
100
AcDbArc
50
-90
51
0
0
ARC
5
351
100
AcDbEntity
8
0
100
AcDbCircle
10
154.61500000000001
20
-16.835000000000022
30
0
40
0.50000000000000711
210
0
220
0
230
1
100
AcDbArc
50
180
51
270
0
LINE
5
352
100
AcDbEntity
8
0
100
AcDbLine
10
150.185
20
-93.535000000000039
30
0
11
135.565
21
-93.535000000000039
31
0
0
ARC
5
353
100
AcDbEntity
8
0
100
AcDbCircle
10
188.25
20
-20.765000000000029
30
0
40
0.49999999999997158
210
0
220
-0
230
1
100
AcDbArc
50
90
51
149.99997686494405
0
LINE
5
354
100
AcDbEntity
8
0
100
AcDbLine
10
188.78500000000003
20
-2.2150000000000603
30
0
11
188.78500000000003
21
-16.835000000000022
31
0
0
LINE
5
355
100
AcDbEntity
8
0
100
AcDbLine
10
135.065
20
-93.035000000000025
30
0
11
135.065
21
-78.415000000000035
31
0
0
ARC
5
356
100
AcDbEntity
8
0
100
AcDbCircle
10
183.19
20
-35.885000000000034
30
0
40
0.50000000000000711
210
0
220
0
230
1
100
AcDbArc
50
180
51
270
0
ARC
5
357
100
AcDbEntity
8
0
100
AcDbCircle
10
158.808975
20
-1.215000000000046
30
0
40
0.50000000000000711
210
0
220
0
230
1
100
AcDbArc
50
270
51
329.99997686438513
0
ARC
5
358
100
AcDbEntity
8
0
100
AcDbCircle
10
150.185
20
-93.035000000000025
30
0
40
0.50000000000000711
210
0
220
0
230
1
100
AcDbArc
50
-90
51
0
0
LINE
5
359
100
AcDbEntity
8
0
100
AcDbLine
10
140.625
20
-1.215000000000046
30
0
11
145.12500014905001
21
-1.2149997418300273
31
0
0
ARC
5
360
100
AcDbEntity
8
0
100
AcDbCircle
10
121.57500000000002
20
-1.7150000000000176
30
0
40
0.49999999999997158
210
0
220
-0
230
1
100
AcDbArc
50
90
51
149.99997686495502
0
ARC
5
361
100
AcDbEntity
8
0
100
AcDbCircle
10
135.565
20
-16.835000000000022
30
0
40
0.50000000000000711
210
0
220
0
230
1
100
AcDbArc
50
180
51
270
0
ARC
5
362
100
AcDbEntity
8
0
100
AcDbCircle
10
178.46250000000001
20
-39.81500000000004
30
0
40
0.50000025816900151
210
0
220
-0
230
1
100
AcDbArc
50
29.999982919689042
51
89.999982920135835
0
ARC
5
363
100
AcDbEntity
8
0
100
AcDbCircle
10
116.51500000000001
20
-2.2150000000000247
30
0
40
0.50000000000000711
210
0
220
-0
230
1
100
AcDbArc
50
90
51
180
0
LINE
5
364
100
AcDbEntity
8
0
100
AcDbLine
10
140.625
20
-77.41500000000002
30
0
11
145.125
21
-77.41499987109259
31
0
0
ARC
5
365
100
AcDbEntity
8
0
100
AcDbCircle
10
193.04750000000001
20
-73.985000000000056
30
0
40
0.50000000000000711
210
0
220
0
230
1
100
AcDbArc
50
-90
51
0
0
ARC
5
366
100
AcDbEntity
8
0
100
AcDbCircle
10
87.974999999999994
20
-77.91500000000002
30
0
40
0.50000025816899507
210
0
220
-0
230
1
100
AcDbArc
50
29.999982919691373
51
90
0
LINE
5
367
100
AcDbEntity
8
0
100
AcDbLine
10
145.99102535094002
20
-77.914999392143912
30
0
11
150.185
21
-77.91500000000002
31
0
0
LINE
5
368
100
AcDbEntity
8
0
100
AcDbLine
10
187.95250000000004
20
-39.815000000000026
30
0
11
192.14647500000001
21
-39.81500000000004
31
0
0
ARC
5
369
100
AcDbEntity
8
0
100
AcDbCircle
10
188.28500000000003
20
-16.835000000000022
30
0
40
0.50000000000000711
210
0
220
0
230
1
100
AcDbArc
50
-90
51
0
0
LINE
5
370
100
AcDbEntity
8
0
100
AcDbLine
10
165.04102500000002
20
-1.7149993921440299
30
0
11
169.23500000000001
21
-1.7150000000000531
31
0
0
LINE
5
371
100
AcDbEntity
8
0
100
AcDbLine
10
183.19
20
-20.765000000000029
30
0
11
187.38397500000002
21
-20.765000000000029
31
0
0
LINE
5
372
100
AcDbEntity
8
0
100
AcDbLine
10
207.83500000000004
20
-78.415000000000049
30
0
11
207.83500000000001
21
-93.035000000000053
31
0
0
LINE
5
373
100
AcDbEntity
8
0
100
AcDbLine
10
207.33500000000004
20
-93.535000000000053
30
0
11
192.715
21
-93.535000000000053
31
0
0
ARC
5
374
100
AcDbEntity
8
0
100
AcDbCircle
10
159.67500000000001
20
-1.7150000000000531
30
0
40
0.50000000000000711
210
0
220
-0
230
1
100
AcDbArc
50
90
51
150.00000000047046
0
ARC
5
375
100
AcDbEntity
8
0
100
AcDbCircle
10
150.185
20
-2.2150000000000247
30
0
40
0.50000000000000711
210
-0
220
0
230
1
100
AcDbArc
50
0
51
90
0
LINE
5
376
100
AcDbEntity
8
0
100
AcDbLine
10
154.61500000000001
20
-1.7150000000000176
30
0
11
158.808975
21
-1.7150000000000531
31
0
0
LINE
5
377
100
AcDbEntity
8
0
100
AcDbLine
10
159.67500000000001
20
-1.215000000000046
30
0
11
164.17500014905002
21
-1.2149997418300273
31
0
0
ARC
5
378
100
AcDbEntity
8
0
100
AcDbCircle
10
140.625
20
-1.7150000000000176
30
0
40
0.49999999999997158
210
0
220
-0
230
1
100
AcDbArc
50
90
51
150.00000000047754
0
ARC
5
379
100
AcDbEntity
8
0
100
AcDbCircle
10
135.565
20
-2.2150000000000247
30
0
40
0.50000000000000711
210
0
220
-0
230
1
100
AcDbArc
50
90
51
180
0
LINE
5
380
100
AcDbEntity
8
0
100
AcDbLine
10
173.66500000000002
20
-1.7150000000000531
30
0
11
177.85897500000002
21
-1.7150000000000531
31
0
0
ARC
5
381
100
AcDbEntity
8
0
100
AcDbCircle
10
177.85897500000002
20
-1.215000000000046
30
0
40
0.50000000000000711
210
0
220
0
230
1
100
AcDbArc
50
270
51
329.9999999998937
0
ARC
5
382
100
AcDbEntity
8
0
100
AcDbCircle
10
154.61500000000001
20
-2.2150000000000247
30
0
40
0.50000000000000711
210
0
220
-0
230
1
100
AcDbArc
50
90
51
180
0
ARC
5
383
100
AcDbEntity
8
0
100
AcDbCircle
10
145.99102500000001
20
-1.215000000000046
30
0
40
0.49999939214357858
210
0
220
0
230
1
100
AcDbArc
50
210.00004021551308
51
270
0
ARC
5
384
100
AcDbEntity
8
0
100
AcDbCircle
10
193.01250000000005
20
-39.815000000000055
30
0
40
0.50000000000000711
210
0
220
-0
230
1
100
AcDbArc
50
90
51
149.99997686495664
0
ARC
5
385
100
AcDbEntity
8
0
100
AcDbCircle
10
126.07500000000002
20
-1.7150000000000176
30
0
40
0.50000025816898619
210
0
220
-0
230
1
100
AcDbArc
50
29.99998291969067
51
89.99999999999838
0
ARC
5
386
100
AcDbEntity
8
0
100
AcDbCircle
10
192.75000000000003
20
-20.765000000000029
30
0
40
0.50000025816898375
210
0
220
-0
230
1
100
AcDbArc
50
29.999982919687149
51
90
0
ARC
5
387
100
AcDbEntity
8
0
100
AcDbCircle
10
187.38397500000002
20
-20.265000000000057
30
0
40
0.49999999999997158
210
0
220
0
230
1
100
AcDbArc
50
270
51
329.99999999989728
0
ARC
5
388
100
AcDbEntity
8
0
100
AcDbCircle
10
178.42750000000001
20
-59.365000000000038
30
0
40
0.50000000000000711
210
0
220
-0
230
1
100
AcDbArc
50
90
51
180
0
LINE
5
389
100
AcDbEntity
8
0
100
AcDbLine
10
97.797499999999999
20
-74.485000000000042
30
0
11
83.177499999999981
21
-74.485000000000042
31
0
0
ARC
5
390
100
AcDbEntity
8
0
100
AcDbCircle
10
226.05250000000001
20
-40.315000000000047
30
0
40
0.50000000000000711
210
0
220
-0
230
1
100
AcDbArc
50
90
51
180
0
ARC
5
391
100
AcDbEntity
8
0
100
AcDbCircle
10
217.42852500000001
20
-39.315000000000055
30
0
40
0.49999939214357858
210
0
220
0
230
1
100
AcDbArc
50
210.00004021551308
51
269.99999999999676
0
ARC
5
392
100
AcDbEntity
8
0
100
AcDbCircle
10
221.6225
20
-40.315000000000047
30
0
40
0.50000000000000711
210
-0
220
0
230
1
100
AcDbArc
50
0
51
90
0
LINE
5
393
100
AcDbEntity
8
0
100
AcDbLine
10
235.91000000000005
20
-36.385000000000076
30
0
11
221.29000000000002
21
-36.385000000000076
31
0
0
ARC
5
394
100
AcDbEntity
8
0
100
AcDbCircle
10
240.34000000000003
20
-35.885000000000034
30
0
40
0.50000000000000711
210
0
220
0
230
1
100
AcDbArc
50
180
51
270
0
ARC
5
395
100
AcDbEntity
8
0
100
AcDbCircle
10
216.86000000000004
20
-35.885000000000034
30
0
40
0.50000000000004263
210
0
220
0
230
1
100
AcDbArc
50
-90
51
0
0
LINE
5
396
100
AcDbEntity
8
0
100
AcDbLine
10
220.79000000000002
20
-35.885000000000034
30
0
11
220.79000000000005
21
-21.265000000000036
31
0
0
ARC
5
397
100
AcDbEntity
8
0
100
AcDbCircle
10
236.47852499999999
20
-39.315000000000055
30
0
40
0.49999939214354783
210
0
220
0
230
1
100
AcDbArc
50
210.0000402155147
51
270.00004021481215
0
LINE
5
398
100
AcDbEntity
8
0
100
AcDbLine
10
236.41000000000005
20
-21.265000000000072
30
0
11
236.41000000000003
21
-35.885000000000034
31
0
0
LINE
5
399
100
AcDbEntity
8
0
100
AcDbLine
10
235.87500000000003
20
-1.215000000000046
30
0
11
240.375
21
-1.2149998710926369
31
0
0
ARC
5
400
100
AcDbEntity
8
0
100
AcDbCircle
10
245.435
20
-2.2150000000000603
30
0
40
0.50000000000000711
210
-0
220
0
230
1
100
AcDbArc
50
0
51
90
0
ARC
5
401
100
AcDbEntity
8
0
100
AcDbCircle
10
245.40000000000003
20
-20.765000000000065
30
0
40
0.50000000000000711
210
0
220
-0
230
1
100
AcDbArc
50
90
51
150.00000000046364
0
ARC
5
402
100
AcDbEntity
8
0
100
AcDbCircle
10
231.71602500000003
20
-20.265000000000057
30
0
40
0.49999939214354783
210
0
220
0
230
1
100
AcDbArc
50
210.00004021551308
51
270
0
ARC
5
403
100
AcDbEntity
8
0
100
AcDbCircle
10
230.85000000000005
20
-20.765000000000065
30
0
40
0.50000025816900151
210
0
220
-0
230
1
100
AcDbArc
50
29.99998291969067
51
89.99998292013909
0
ARC
5
404
100
AcDbEntity
8
0
100
AcDbCircle
10
245.435
20
-16.835000000000058
30
0
40
0.50000000000000711
210
0
220
0
230
1
100
AcDbArc
50
-90
51
0
0
LINE
5
405
100
AcDbEntity
8
0
100
AcDbLine
10
241.24102535093999
20
-1.7149993921439233
30
0
11
245.435
21
-1.7150000000000531
31
0
0
ARC
5
406
100
AcDbEntity
8
0
100
AcDbCircle
10
230.81500000000003
20
-16.835000000000058
30
0
40
0.50000000000000711
210
0
220
0
230
1
100
AcDbArc
50
180
51
270
0
ARC
5
407
100
AcDbEntity
8
0
100
AcDbCircle
10
244.533975
20
-20.265000000000057
30
0
40
0.50000000000000711
210
0
220
0
230
1
100
AcDbArc
50
270
51
329.99997686437735
0
ARC
5
408
100
AcDbEntity
8
0
100
AcDbCircle
10
235.87500000000003
20
-1.7150000000000531
30
0
40
0.50000000000000711
210
0
220
-0
230
1
100
AcDbArc
50
90
51
149.99997686494405
0
LINE
5
409
100
AcDbEntity
8
0
100
AcDbLine
10
230.81500000000003
20
-1.7150000000000531
30
0
11
235.00897500000005
21
-1.7150000000000531
31
0
0
ARC
5
410
100
AcDbEntity
8
0
100
AcDbCircle
10
235.00897500000005
20
-1.215000000000046
30
0
40
0.50000000000000711
210
0
220
0
230
1
100
AcDbArc
50
270
51
329.9999999998937
0
LINE
5
411
100
AcDbEntity
8
0
100
AcDbLine
10
221.29000000000002
20
-20.765000000000029
30
0
11
225.48397500000004
21
-20.765000000000029
31
0
0
ARC
5
412
100
AcDbEntity
8
0
100
AcDbCircle
10
226.35000000000002
20
-20.765000000000029
30
0
40
0.49999999999997158
210
0
220
-0
230
1
100
AcDbArc
50
90
51
150.0000000004724
0
LINE
5
413
100
AcDbEntity
8
0
100
AcDbLine
10
245.435
20
-17.335000000000065
30
0
11
230.81500000000003
21
-17.335000000000065
31
0
0
LINE
5
414
100
AcDbEntity
8
0
100
AcDbLine
10
230.315
20
-16.835000000000058
30
0
11
230.315
21
-2.2150000000000603
31
0
0
ARC
5
415
100
AcDbEntity
8
0
100
AcDbCircle
10
225.48397500000004
20
-20.265000000000057
30
0
40
0.49999999999997158
210
0
220
0
230
1
100
AcDbArc
50
270
51
329.99997686438513
0
ARC
5
416
100
AcDbEntity
8
0
100
AcDbCircle
10
221.29000000000002
20
-21.265000000000036
30
0
40
0.50000000000000711
210
0
220
-0
230
1
100
AcDbArc
50
90
51
180
0
ARC
5
417
100
AcDbEntity
8
0
100
AcDbCircle
10
235.91000000000005
20
-21.265000000000072
30
0
40
0.50000000000000711
210
-0
220
0
230
1
100
AcDbArc
50
0
51
90
0
ARC
5
418
100
AcDbEntity
8
0
100
AcDbCircle
10
240.34000000000003
20
-21.265000000000072
30
0
40
0.50000000000000711
210
0
220
-0
230
1
100
AcDbArc
50
90
51
180
0
ARC
5
419
100
AcDbEntity
8
0
100
AcDbCircle
10
216.86000000000004
20
-21.265000000000036
30
0
40
0.50000000000000711
210
-0
220
0
230
1
100
AcDbArc
50
0
51
90
0
ARC
5
420
100
AcDbEntity
8
0
100
AcDbCircle
10
241.24102500000004
20
-1.215000000000046
30
0
40
0.49999939214357858
210
0
220
0
230
1
100
AcDbArc
50
210.00004021551143
51
270.00004021480561
0
LINE
5
421
100
AcDbEntity
8
0
100
AcDbLine
10
231.71602500000003
20
-20.764999392144077
30
0
11
235.91000000000005
21
-20.765000000000065
31
0
0
LINE
5
422
100
AcDbEntity
8
0
100
AcDbLine
10
245.93500000000003
20
-2.2150000000000603
30
0
11
245.93500000000003
21
-16.835000000000058
31
0
0
LINE
5
423
100
AcDbEntity
8
0
100
AcDbLine
10
226.35000000000002
20
-20.265000000000057
30
0
11
230.85000014905003
21
-20.264999741830039
31
0
0
LINE
5
424
100
AcDbEntity
8
0
100
AcDbLine
10
240.34000000000003
20
-20.765000000000065
30
0
11
244.533975
21
-20.765000000000065
31
0
0
LWPOLYLINE
5
425
100
AcDbEntity
8
0
100
AcDbPolyline
90
14
70
1
43
0.0
10
254.49198770189179
20
-1.4650000000008354
42
-0.26794908423782321
10
254.92500030283824
20
-1.2150001748439365
10
259.42500000000001
20
-1.2149997418310516
42
-0.26794927230883009
10
259.85801300000008
20
-1.4650000000000318
42
0.26794919242783494
10
260.29102535094
20
-1.7149993921434614
10
264.48500000000001
20
-1.7150000000000531
42
-0.41421356237309503
10
264.98500000000001
20
-2.2150000000000603
10
264.98500000000001
20
-16.835000000000058
42
-0.41421356237309503
10
264.48500000000001
20
-17.335000000000065
10
249.86500000000004
20
-17.335000000000065
42
-0.41421356237309503
10
249.36500000000001
20
-16.835000000000058
10
249.36500000000001
20
-2.2150000000000603
42
-0.41421356237309503
10
249.86500000000004
20
-1.7150000000000531
10
254.05897500000006
20
-1.7150000000000531
42
0.2679491924306257
0
ARC
5
426
100
AcDbEntity
8
0
100
AcDbCircle
10
254.96000000000006
20
-21.265000000000072
30
0
40
0.50000000000000711
210
-0
220
0
230
1
100
AcDbArc
50
0
51
90
0
ARC
5
427
100
AcDbEntity
8
0
100
AcDbCircle
10
268.91500000000002
20
-2.2150000000000603
30
0
40
0.50000000000000711
210
0
220
-0
230
1
100
AcDbArc
50
90
51
180
0
LINE
5
428
100
AcDbEntity
8
0
100
AcDbLine
10
250.76602500000001
20
-20.764999392144077
30
0
11
254.96000000000006
21
-20.765000000000065
31
0
0
ARC
5
429
100
AcDbEntity
8
0
100
AcDbCircle
10
249.90000000000006
20
-20.765000000000065
30
0
40
0.5000002581690064
210
0
220
-0
230
1
100
AcDbArc
50
29.999982919699345
51
89.99998292013909
0
ARC
5
430
100
AcDbEntity
8
0
100
AcDbCircle
10
278.47500000000002
20
-1.7150000000000531
30
0
40
0.50000025816900151
210
0
220
-0
230
1
100
AcDbArc
50
29.999982919689042
51
90
0
LINE
5
431
100
AcDbEntity
8
0
100
AcDbLine
10
283.53500000000003
20
-17.335000000000065
30
0
11
268.91500000000002
21
-17.335000000000065
31
0
0
LINE
5
432
100
AcDbEntity
8
0
100
AcDbLine
10
268.91500000000002
20
-1.7150000000000531
30
0
11
273.10897499999999
21
-1.7150000000000531
31
0
0
LINE
5
433
100
AcDbEntity
8
0
100
AcDbLine
10
284.03500000000003
20
-2.2150000000000603
30
0
11
284.03500000000003
21
-16.835000000000058
31
0
0
ARC
5
434
100
AcDbEntity
8
0
100
AcDbCircle
10
283.53500000000003
20
-2.2150000000000603
30
0
40
0.50000000000000711
210
-0
220
0
230
1
100
AcDbArc
50
0
51
90
0
ARC
5
435
100
AcDbEntity
8
0
100
AcDbCircle
10
283.53500000000003
20
-16.835000000000058
30
0
40
0.50000000000000711
210
0
220
0
230
1
100
AcDbArc
50
-90
51
0
0
ARC
5
436
100
AcDbEntity
8
0
100
AcDbCircle
10
250.76602500000004
20
-20.265000000000057
30
0
40
0.49999939214354305
210
0
220
0
230
1
100
AcDbArc
50
210.00004021550438
51
269.99999999999676
0
LINE
5
437
100
AcDbEntity
8
0
100
AcDbLine
10
279.34102535094001
20
-1.7149993921439233
30
0
11
283.53500000000003
21
-1.7150000000000531
31
0
0
ARC
5
438
100
AcDbEntity
8
0
100
AcDbCircle
10
273.97500030283823
20
-1.7150001748439081
30
0
40
0.50000000000000711
210
0
220
-0
230
1
100
AcDbArc
50
90
51
149.99997686494984
0
ARC
5
439
100
AcDbEntity
8
0
100
AcDbCircle
10
273.10897499999999
20
-1.215000000000046
30
0
40
0.50000000000000711
210
0
220
0
230
1
100
AcDbArc
50
270
51
329.9999999998937
0
LINE
5
440
100
AcDbEntity
8
0
100
AcDbLine
10
273.97500030283823
20
-1.215000174843901
30
0
11
278.47500000000002
21
-1.2149998710926369
31
0
0
LINE
5
441
100
AcDbEntity
8
0
100
AcDbLine
10
268.41500000000002
20
-16.835000000000058
30
0
11
268.41500000000002
21
-2.2150000000000603
31
0
0
ARC
5
442
100
AcDbEntity
8
0
100
AcDbCircle
10
268.91500000000002
20
-16.835000000000058
30
0
40
0.50000000000000711
210
0
220
0
230
1
100
AcDbArc
50
180
51
270
0
ARC
5
443
100
AcDbEntity
8
0
100
AcDbCircle
10
279.341025
20
-1.215000000000046
30
0
40
0.49999939214354783
210
0
220
0
230
1
100
AcDbArc
50
210.0000402155147
51
270.00004021481215
0
ARC
5
444
100
AcDbEntity
8
0
100
AcDbCircle
10
254.96000000000006
20
-35.885000000000034
30
0
40
0.50000000000004263
210
0
220
0
230
1
100
AcDbArc
50
-90
51
0
0
LINE
5
445
100
AcDbEntity
8
0
100
AcDbLine
10
245.40000000000003
20
-20.265000000000057
30
0
11
249.90000014905004
21
-20.264999741830039
31
0
0
LINE
5
446
100
AcDbEntity
8
0
100
AcDbLine
10
255.46000000000006
20
-21.265000000000072
30
0
11
255.46000000000004
21
-35.885000000000034
31
0
0
LINE
5
447
100
AcDbEntity
8
0
100
AcDbLine
10
254.96000000000006
20
-36.385000000000076
30
0
11
240.34000000000003
21
-36.385000000000041
31
0
0
LINE
5
448
100
AcDbEntity
8
0
100
AcDbLine
10
216.5275
20
-58.865000000000052
30
0
11
220.721475
21
-58.865000000000052
31
0
0
ARC
5
449
100
AcDbEntity
8
0
100
AcDbCircle
10
221.6225
20
-54.935000000000059
30
0
40
0.50000000000000711
210
0
220
0
230
1
100
AcDbArc
50
-90
51
0
0
LINE
5
450
100
AcDbEntity
8
0
100
AcDbLine
10
93.034999999999997
20
-93.535000000000039
30
0
11
78.414999999999978
21
-93.535000000000039
31
0
0
ARC
5
451
100
AcDbEntity
8
0
100
AcDbCircle
10
226.95352500000001
20
-58.365000000000045
30
0
40
0.49999939214357858
210
0
220
0
230
1
100
AcDbArc
50
210.00004021551308
51
270.00000000000648
0
LINE
5
452
100
AcDbEntity
8
0
100
AcDbLine
10
231.64750000000004
20
-78.415000000000049
30
0
11
231.64750000000004
21
-93.035000000000053
31
0
0
ARC
5
453
100
AcDbEntity
8
0
100
AcDbCircle
10
226.08750000000001
20
-77.915000000000049
30
0
40
0.50000025816900151
210
0
220
-0
230
1
100
AcDbArc
50
29.999982919689753
51
90
0
LWPOLYLINE
5
454
100
AcDbEntity
8
0
100
AcDbPolyline
90
14
70
1
43
0.0
10
68.889999999999986
20
-36.385000000000005
10
83.509999999999977
20
-36.385000000000041
42
0.41421356237309503
10
84.009999999999977
20
-35.885000000000034
10
84.010000000000019
20
-21.265000000000036
42
0.41421356237309503
10
83.510000000000005
20
-20.765000000000029
10
79.316025350940009
20
-20.764999392143441
42
-0.26794919242785614
10
78.883013000000076
20
-20.514999999999972
42
0.26794927230880883
10
78.450000000000017
20
-20.264999741831033
10
73.950000302838234
20
-20.265000174843912
42
0.26794908423730135
10
73.516987701892276
20
-20.514999999999972
42
-0.26794919243115461
10
73.083975000000009
20
-20.765000000000029
10
68.890000000000015
20
-20.765000000000029
42
0.41421356237309503
10
68.390000000000015
20
-21.265000000000036
10
68.389999999999986
20
-35.884999999999998
42
0.41421356237309503
0
LINE
5
455
100
AcDbEntity
8
0
100
AcDbLine
10
78.414999999999978
20
-77.91500000000002
30
0
11
82.608975000000001
21
-77.91500000000002
31
0
0
ARC
5
456
100
AcDbEntity
8
0
100
AcDbCircle
10
220.721475
20
-58.365000000000045
30
0
40
0.50000000000000711
210
0
220
0
230
1
100
AcDbArc
50
270
51
329.99997686438815
0
ARC
5
457
100
AcDbEntity
8
0
100
AcDbCircle
10
216.5275
20
-78.415000000000049
30
0
40
0.50000000000000711
210
0
220
-0
230
1
100
AcDbArc
50
90
51
180
0
LINE
5
458
100
AcDbEntity
8
0
100
AcDbLine
10
226.95352500000007
20
-58.864999696488965
30
0
11
231.14750000000004
21
-58.865000000000052
31
0
0
LINE
5
459
100
AcDbEntity
8
0
100
AcDbLine
10
221.58750000000001
20
-58.365000000000045
30
0
11
226.08750014905002
21
-58.364999741800041
31
0
0
LINE
5
460
100
AcDbEntity
8
0
100
AcDbLine
10
216.0275
20
-73.985000000000056
30
0
11
216.0275
21
-59.365000000000059
31
0
0
ARC
5
461
100
AcDbEntity
8
0
100
AcDbCircle
10
231.14750000000004
20
-78.415000000000049
30
0
40
0.50000000000000711
210
-0
220
0
230
1
100
AcDbArc
50
0
51
90
0
LINE
5
462
100
AcDbEntity
8
0
100
AcDbLine
10
221.6225
20
-55.435000000000073
30
0
11
207.0025
21
-55.435000000000052
31
0
0
LINE
5
463
100
AcDbEntity
8
0
100
AcDbLine
10
184.02250000000004
20
-40.315000000000026
30
0
11
184.02250000000004
21
-54.935000000000045
31
0
0
LWPOLYLINE
5
464
100
AcDbEntity
8
0
100
AcDbPolyline
90
14
70
1
43
0.0
10
23.978749999999998
20
-39.815000000000012
42
-0.41421356237309503
10
24.478749999999998
20
-40.315000000000012
10
24.478750000000005
20
-54.935000000000031
42
-0.41421356237309503
10
23.978749999999998
20
-55.435000000000031
10
9.3587500000000023
20
-55.435000000000024
42
-0.41421356237309503
10
8.8587500000000041
20
-54.935000000000031
10
8.858750000000013
20
-40.315000000000012
42
-0.41421356237309503
10
9.3587500000000023
20
-39.815000000000026
10
13.552724697161761
20
-39.814999825156136
42
0.26794919243116655
10
13.985737399054026
20
-39.564999825156058
42
-0.26794908423729297
10
14.418749999999996
20
-39.315000000000012
10
18.918749999999996
20
-39.314999741831016
42
-0.26794927230881938
10
19.351763000000055
20
-39.564999999999984
42
0.26794919243106313
10
19.784775350945996
20
-39.814999392143463
0
LWPOLYLINE
5
465
100
AcDbEntity
8
0
100
AcDbPolyline
90
14
70
1
43
0.0
10
82.608975000000015
20
-1.7150000000000176
10
78.415000000000006
20
-1.7150000000000176
42
0.41421356237309503
10
77.915000000000006
20
-2.2150000000000247
10
77.914999999999992
20
-16.835000000000022
42
0.41421356237309503
10
78.414999999999992
20
-17.335000000000029
10
93.034999999999997
20
-17.335000000000029
42
0.41421356237309503
10
93.534999999999997
20
-16.835000000000022
10
93.535000000000025
20
-2.2150000000000247
42
0.41421356237309503
10
93.035000000000011
20
-1.7150000000000176
10
88.841025000000002
20
-1.7149993921436069
42
-0.26794900435945879
10
88.408013000000068
20
-1.4649999999999963
42
0.26794919243321597
10
87.97500014904999
20
-1.2149997418310576
10
83.475000302838311
20
-1.2150001748437944
42
0.26794919243335086
10
83.041987600944012
20
-1.4650001748474044
42
-0.26794908423517122
0
LINE
5
466
100
AcDbEntity
8
0
100
AcDbLine
10
206.5025
20
-54.935000000000059
30
0
11
206.5025
21
-40.315000000000047
31
0
0
LINE
5
467
100
AcDbEntity
8
0
100
AcDbLine
10
216.86000000000004
20
-36.385000000000076
30
0
11
202.24000000000001
21
-36.385000000000041
31
0
0
LINE
5
468
100
AcDbEntity
8
0
100
AcDbLine
10
187.45250000000001
20
-54.935000000000045
30
0
11
187.45250000000001
21
-40.315000000000026
31
0
0
LINE
5
469
100
AcDbEntity
8
0
100
AcDbLine
10
212.0625
20
-39.315000000000055
30
0
11
216.56250014905001
21
-39.31499974183005
31
0
0
LINE
5
470
100
AcDbEntity
8
0
100
AcDbLine
10
212.66602535094
20
-20.764999392143935
30
0
11
216.86000000000004
21
-20.765000000000029
31
0
0
LINE
5
471
100
AcDbEntity
8
0
100
AcDbLine
10
222.1225
20
-40.315000000000047
30
0
11
222.1225
21
-54.935000000000059
31
0
0
LINE
5
472
100
AcDbEntity
8
0
100
AcDbLine
10
241.17250000000001
20
-40.315000000000047
30
0
11
241.17250000000001
21
-54.935000000000059
31
0
0
LINE
5
473
100
AcDbEntity
8
0
100
AcDbLine
10
188.28500000000003
20
-17.335000000000029
30
0
11
173.66500000000002
21
-17.335000000000029
31
0
0
LINE
5
474
100
AcDbEntity
8
0
100
AcDbLine
10
239.84000000000003
20
-93.035000000000053
30
0
11
239.84000000000006
21
-78.415000000000049
31
0
0
LINE
5
475
100
AcDbEntity
8
0
100
AcDbLine
10
254.96000000000006
20
-93.535000000000053
30
0
11
240.34000000000003
21
-93.535000000000053
31
0
0
ARC
5
476
100
AcDbEntity
8
0
100
AcDbCircle
10
140.66000000000003
20
-21.265000000000036
30
0
40
0.50000000000000711
210
-0
220
0
230
1
100
AcDbArc
50
0
51
90
0
LINE
5
477
100
AcDbEntity
8
0
100
AcDbLine
10
240.67250000000001
20
-55.435000000000073
30
0
11
226.05250000000001
21
-55.435000000000052
31
0
0
ARC
5
478
100
AcDbEntity
8
0
100
AcDbCircle
10
135.60000000000002
20
-20.765000000000029
30
0
40
0.50000025816900151
210
0
220
-0
230
1
100
AcDbArc
50
29.999982919689042
51
90
0
ARC
5
479
100
AcDbEntity
8
0
100
AcDbCircle
10
239.47284999999999
20
-60.381000000000057
30
0
40
0.50000000000000711
210
-0
220
0
230
1
100
AcDbArc
50
0
51
90
0
LINE
5
480
100
AcDbEntity
8
0
100
AcDbLine
10
116.84750000000001
20
-74.485000000000042
30
0
11
102.22749999999999
21
-74.485000000000042
31
0
0
LINE
5
481
100
AcDbEntity
8
0
100
AcDbLine
10
203.07250000000005
20
-40.315000000000047
30
0
11
203.07250000000005
21
-54.935000000000059
31
0
0
ARC
5
482
100
AcDbEntity
8
0
100
AcDbCircle
10
238.23765000000006
20
-68.652000000000044
30
0
40
0.50000000000000711
210
0
220
0
230
1
100
AcDbArc
50
180
51
270
0
ARC
5
483
100
AcDbEntity
8
0
100
AcDbCircle
10
140.66000000000003
20
-35.885000000000034
30
0
40
0.50000000000000711
210
0
220
0
230
1
100
AcDbArc
50
-90
51
0
0
LINE
5
484
100
AcDbEntity
8
0
100
AcDbLine
10
168.4025
20
-54.935000000000045
30
0
11
168.4025
21
-40.315000000000026
31
0
0
LINE
5
485
100
AcDbEntity
8
0
100
AcDbLine
10
250.76602500000004
20
-77.914999392144054
30
0
11
254.96000000000006
21
-77.915000000000049
31
0
0
LINE
5
486
100
AcDbEntity
8
0
100
AcDbLine
10
136.46602535094001
20
-20.764999392143935
30
0
11
140.66000000000003
21
-20.765000000000029
31
0
0
LINE
5
487
100
AcDbEntity
8
0
100
AcDbLine
10
225.55250000000001
20
-54.935000000000059
30
0
11
225.55250000000001
21
-40.315000000000047
31
0
0
LINE
5
488
100
AcDbEntity
8
0
100
AcDbLine
10
174.4975
20
-59.365000000000038
30
0
11
174.4975
21
-73.985000000000042
31
0
0
ARC
5
489
100
AcDbEntity
8
0
100
AcDbCircle
10
183.48750000000001
20
-58.865000000000038
30
0
40
0.50000000000000711
210
0
220
-0
230
1
100
AcDbArc
50
90
51
149.99997686494569
0
LINE
5
490
100
AcDbEntity
8
0
100
AcDbLine
10
183.52250000000001
20
-55.435000000000052
30
0
11
168.90250000000003
21
-55.435000000000031
31
0
0
ARC
5
491
100
AcDbEntity
8
0
100
AcDbCircle
10
126.94102500000002
20
-1.215000000000046
30
0
40
0.49999939214357614
210
0
220
0
230
1
100
AcDbArc
50
210.00004021550794
51
270.00004021480891
0
ARC
5
492
100
AcDbEntity
8
0
100
AcDbCircle
10
131.13500000000002
20
-16.835000000000022
30
0
40
0.50000000000000711
210
0
220
0
230
1
100
AcDbArc
50
-90
51
0
0
ARC
5
493
100
AcDbEntity
8
0
100
AcDbCircle
10
150.185
20
-16.835000000000022
30
0
40
0.50000000000000711
210
0
220
0
230
1
100
AcDbArc
50
-90
51
0
0
ARC
5
494
100
AcDbEntity
8
0
100
AcDbCircle
10
159.3775
20
-73.985000000000042
30
0
40
0.50000000000000711
210
0
220
0
230
1
100
AcDbArc
50
180
51
270
0
LINE
5
495
100
AcDbEntity
8
0
100
AcDbLine
10
158.8775
20
-73.985000000000042
30
0
11
158.8775
21
-59.365000000000038
31
0
0
ARC
5
496
100
AcDbEntity
8
0
100
AcDbCircle
10
178.42750000000001
20
-73.985000000000042
30
0
40
0.50000000000000711
210
0
220
0
230
1
100
AcDbArc
50
180
51
270
0
ARC
5
497
100
AcDbEntity
8
0
100
AcDbCircle
10
168.9375
20
-58.865000000000038
30
0
40
0.50000025816900151
210
0
220
-0
230
1
100
AcDbArc
50
29.999982919689753
51
90
0
ARC
5
498
100
AcDbEntity
8
0
100
AcDbCircle
10
179.32852500000001
20
-39.315000000000033
30
0
40
0.49999939214357858
210
0
220
0
230
1
100
AcDbArc
50
210.00004021551308
51
270
0
LWPOLYLINE
5
499
100
AcDbEntity
8
0
100
AcDbPolyline
90
14
70
1
43
0.0
10
64.459999999999994
20
-20.765000000000029
10
60.266024999999999
20
-20.764999392143594
42
-0.26794900435943997
10
59.833013000000065
20
-20.515000000000008
42
0.26794919243106452
10
59.400000149054009
20
-20.264999741831033
10
54.900000302838301
20
-20.265000174843806
42
0.26794919243119958
10
54.466987600945998
20
-20.515000174843934
42
-0.26794908423732489
10
54.033975000000005
20
-20.765000000000029
10
49.840000000000011
20
-20.765000000000029
42
0.41421356237309503
10
49.340000000000011
20
-21.265000000000036
10
49.340000000000011
20
-35.885000000000034
42
0.41421356237309503
10
49.840000000000011
20
-36.385000000000041
10
64.45999999999998
20
-36.385000000000041
42
0.41421356237309503
10
64.95999999999998
20
-35.885000000000034
10
64.960000000000008
20
-21.265000000000036
42
0.41421356237309503
0
LINE
5
500
100
AcDbEntity
8
0
100
AcDbLine
10
131.63500000000002
20
-2.2150000000000247
30
0
11
131.63500000000002
21
-16.835000000000022
31
0
0
ARC
5
501
100
AcDbEntity
8
0
100
AcDbCircle
10
145.125
20
-1.7150000000000176
30
0
40
0.50000025816898375
210
0
220
-0
230
1
100
AcDbArc
50
29.999982919685518
51
89.999982920135835
0
LINE
5
502
100
AcDbEntity
8
0
100
AcDbLine
10
135.065
20
-16.835000000000022
30
0
11
135.065
21
-2.2150000000000247
31
0
0
ARC
5
503
100
AcDbEntity
8
0
100
AcDbCircle
10
163.57147500000002
20
-58.365000000000023
30
0
40
0.50000000000000711
210
0
220
0
230
1
100
AcDbArc
50
270
51
329.9999999998916
0
LWPOLYLINE
5
504
100
AcDbEntity
8
0
100
AcDbPolyline
90
14
70
1
43
0.0
10
6.977499999999992
20
-93.534999999999997
42
-0.41421356237309503
10
6.4774999999999938
20
-93.035000000000011
10
6.4774999999999849
20
-78.41500000000002
42
-0.41421356237309503
10
6.977499999999992
20
-77.915000000000006
10
11.171474999999988
20
-77.915000000000006
42
0.26794919243117832
10
11.604487701892252
20
-77.664999999999921
42
-0.26794908423729535
10
12.037500302838229
20
-77.415000174843897
10
16.537499999999987
20
-77.414999741831011
42
-0.26794927230881949
10
16.970513000000047
20
-77.664999999999964
42
0.2679491924310714
10
17.403525350945984
20
-77.914999392143471
10
21.597499999999989
20
-77.91500000000002
42
-0.41421356237309503
10
22.097499999999989
20
-78.41500000000002
10
22.097499999999989
20
-93.035000000000011
42
-0.41421356237309503
10
21.597499999999982
20
-93.535000000000025
0
LINE
5
505
100
AcDbEntity
8
0
100
AcDbLine
10
150.685
20
-2.2150000000000247
30
0
11
150.685
21
-16.835000000000022
31
0
0
ARC
5
506
100
AcDbEntity
8
0
100
AcDbCircle
10
187.95250000000004
20
-40.315000000000026
30
0
40
0.50000000000000711
210
0
220
-0
230
1
100
AcDbArc
50
90
51
180
0
ARC
5
507
100
AcDbEntity
8
0
100
AcDbCircle
10
116.51500000000001
20
-16.835000000000022
30
0
40
0.50000000000000711
210
0
220
0
230
1
100
AcDbArc
50
180
51
270
0
ARC
5
508
100
AcDbEntity
8
0
100
AcDbCircle
10
183.52250000000001
20
-54.935000000000045
30
0
40
0.50000000000000711
210
0
220
0
230
1
100
AcDbArc
50
-90
51
0
0
LINE
5
509
100
AcDbEntity
8
0
100
AcDbLine
10
21.265000000000001
20
-1.7150000000000176
30
0
11
25.458974999999995
21
-1.7150000000000176
31
0
0
ARC
5
510
100
AcDbEntity
8
0
100
AcDbCircle
10
164.4375
20
-58.865000000000038
30
0
40
0.50000000000000711
210
0
220
-0
230
1
100
AcDbArc
50
90
51
149.99997686494544
0
ARC
5
511
100
AcDbEntity
8
0
100
AcDbCircle
10
168.90250000000003
20
-54.935000000000045
30
0
40
0.50000000000000711
210
0
220
0
230
1
100
AcDbArc
50
180
51
270
0
ARC
5
512
100
AcDbEntity
8
0
100
AcDbCircle
10
35.849999999999994
20
-77.915000000000006
30
0
40
0.50000000000000711
210
0
220
-0
230
1
100
AcDbArc
50
90
51
150.00000000001799
0
ARC
5
513
100
AcDbEntity
8
0
100
AcDbCircle
10
34.983974999999987
20
-77.41500000000002
30
0
40
0.49999999999998934
210
0
220
0
230
1
100
AcDbArc
50
270
51
329.99997686483971
0
ARC
5
514
100
AcDbEntity
8
0
100
AcDbCircle
10
173.9975
20
-73.985000000000042
30
0
40
0.50000000000000711
210
0
220
0
230
1
100
AcDbArc
50
-90
51
0
0
LINE
5
515
100
AcDbEntity
8
0
100
AcDbLine
10
35.884999999999998
20
-17.335000000000029
30
0
11
21.265000000000001
21
-17.335000000000029
31
0
0
ARC
5
516
100
AcDbEntity
8
0
100
AcDbCircle
10
182.621475
20
-58.365000000000023
30
0
40
0.50000000000000711
210
0
220
0
230
1
100
AcDbArc
50
270
51
329.99999999989302
0
ARC
5
517
100
AcDbEntity
8
0
100
AcDbCircle
10
30.789999999999988
20
-78.41500000000002
30
0
40
0.50000000000000711
210
0
220
-0
230
1
100
AcDbArc
50
90
51
180
0
LWPOLYLINE
5
518
100
AcDbEntity
8
0
100
AcDbPolyline
90
12
70
1
43
0.0
10
6.6611499999999957
20
-60.381000000000014
42
-0.41421356237309503
10
7.1611500000000028
20
-59.881000000000014
10
8.3963499999999947
20
-59.881000000000022
42
-0.41421356237309503
10
8.8963499999999929
20
-60.381000000000014
10
8.896349828475385
20
-62.429582378991867
42
0.29455015403817225
10
9.190190139298922
20
-62.885102063043689
42
-0.64506616015406437
10
9.190190000000138
20
-66.147898000000339
42
0.29455015403767165
10
8.8963495840005447
20
-66.603418152900019
10
8.8963500000000018
20
-68.652000000000015
42
-0.41421356237309503
10
8.3963499999999947
20
-69.152000000000015
10
7.1611499999999939
20
-69.152000000000015
42
-0.41421356237309503
10
6.6611499999999957
20
-68.652000000000015
0
LWPOLYLINE
5
519
100
AcDbEntity
8
0
100
AcDbPolyline
90
14
70
1
43
0.0
10
63.558974697161787
20
-1.7149998251561627
10
59.364999999999995
20
-1.7150000000000176
42
0.41421356237309503
10
58.864999999999995
20
-2.2150000000000247
10
58.864999999999995
20
-16.835000000000022
42
0.41421356237309503
10
59.365000000000009
20
-17.335000000000029
10
73.985000000000014
20
-17.335000000000029
42
0.41421356237309503
10
74.485000000000014
20
-16.835000000000022
10
74.485000000000028
20
-2.2150000000000247
42
0.41421356237309503
10
73.985000000000014
20
-1.7150000000000176
10
69.791025350946001
20
-1.7149993921434503
42
-0.2679491924310573
10
69.358013000000071
20
-1.4649999999999963
42
0.26794927230883003
10
68.924999999999997
20
-1.2149997418310221
10
64.425000000000011
20
-1.215000000000046
42
0.26794908423729891
10
63.991987399054047
20
-1.4649998251561034
42
-0.26794919243115711
0
LINE
5
520
100
AcDbEntity
8
0
100
AcDbLine
10
45.375000000000007
20
-1.215000000000046
30
0
11
49.875
21
-1.2149997418310221
31
0
0
LINE
5
521
100
AcDbEntity
8
0
100
AcDbLine
10
30.289999999999992
20
-93.035000000000011
30
0
11
30.289999999999992
21
-78.41500000000002
31
0
0
LINE
5
522
100
AcDbEntity
8
0
100
AcDbLine
10
164.4375
20
-58.365000000000023
30
0
11
168.9375
21
-58.364999871092635
31
0
0
ARC
5
523
100
AcDbEntity
8
0
100
AcDbCircle
10
159.3775
20
-59.365000000000038
30
0
40
0.50000000000000711
210
0
220
-0
230
1
100
AcDbArc
50
90
51
180
0
CIRCLE
5
524
100
AcDbEntity
8
0
100
AcDbCircle
10
25.987500000000004
20
-28.575000000000035
30
0
40
3.1499999999999999
210
0
220
0
230
1
0
ARC
5
525
100
AcDbEntity
8
0
100
AcDbCircle
10
44.508974999999992
20
-1.2150000000000105
30
0
40
0.50000000000000711
210
0
220
0
230
1
100
AcDbArc
50
270
51
330.00000000000603
0
ARC
5
526
100
AcDbEntity
8
0
100
AcDbCircle
10
30.789999999999988
20
-93.035000000000011
30
0
40
0.49999999999999822
210
0
220
0
230
1
100
AcDbArc
50
180
51
270
0
LWPOLYLINE
5
527
100
AcDbEntity
8
0
100
AcDbPolyline
90
14
70
1
43
0.0
10
22.097500000000004
20
-35.885000000000034
10
22.097499999999997
20
-21.265000000000036
42
0.41421356237309503
10
21.597499999999997
20
-20.765000000000029
10
17.403525350945994
20
-20.764999521405048
42
-0.26794919243105492
10
16.970513000000054
20
-20.515000129261587
42
0.2679492723088277
10
16.537499999999994
20
-20.264999871092613
10
12.037499999999994
20
-20.265000000000022
42
0.26794908423730135
10
11.604487399054033
20
-20.514999825156085
42
-0.26794919243115223
10
11.171474697161781
20
-20.764999825156139
10
6.977499999999992
20
-20.764999999999993
42
0.41421356237309503
10
6.4774999999999938
20
-21.265000000000001
10
6.4775000000000027
20
-35.884999999999998
42
0.41421356237309503
10
6.9775000000000009
20
-36.385000000000005
10
21.597499999999997
20
-36.385000000000041
42
0.41421356237309503
0
LWPOLYLINE
5
528
100
AcDbEntity
8
0
100
AcDbPolyline
90
14
70
1
43
0.0
10
11.775000000000002
20
-1.2149997418310221
10
7.275000302838226
20
-1.215000174843901
42
0.26794908423730135
10
6.8419877018922577
20
-1.4649999999999626
42
-0.26794919243115461
10
6.4089750000000034
20
-1.7150000000000176
10
2.215000000000007
20
-1.7150000000000176
42
0.41421356237309503
10
1.7150000000000087
20
-2.2150000000000247
10
1.7149999999999999
20
-16.835000000000022
42
0.41421356237309503
10
2.2149999999999981
20
-17.335000000000029
10
16.834999999999994
20
-17.335000000000029
42
0.41421356237309503
10
17.334999999999994
20
-16.835000000000022
10
17.334999999999994
20
-2.2150000000000247
42
0.41421356237309503
10
16.834999999999994
20
-1.7150000000000176
10
12.641025350946
20
-1.7149993921434581
42
-0.26794919243105492
10
12.20801300000006
20
-1.4649999999999963
42
0.2679492723088277
0
ARC
5
529
100
AcDbEntity
8
0
100
AcDbCircle
10
54.935000000000002
20
-16.835000000000022
30
0
40
0.50000000000000711
210
0
220
0
230
1
100
AcDbArc
50
-90
51
0
0
LWPOLYLINE
5
530
100
AcDbEntity
8
0
100
AcDbPolyline
90
14
70
1
43
0.0
10
69.222499999999982
20
-77.91500000000002
42
-0.41421356237309503
10
69.722499999999997
20
-78.415000000000035
10
69.722499999999997
20
-93.035000000000025
42
-0.41421356237309503
10
69.222499999999982
20
-93.535000000000039
10
54.602499999999985
20
-93.535000000000039
42
-0.41421356237309503
10
54.102499999999985
20
-93.035000000000025
10
54.102499999999978
20
-78.415000000000035
42
-0.41421356237309503
10
54.602499999999985
20
-77.91500000000002
10
58.796475000000001
20
-77.91500000000002
42
0.26794919243117354
10
59.229487701892253
20
-77.664999999999949
42
-0.26794908423729069
10
59.662500302838225
20
-77.415000174843911
10
64.16249999999998
20
-77.414999871092618
42
-0.26794927230881699
10
64.595513000000025
20
-77.665000129261571
42
0.26794919243107379
10
65.028525350945984
20
-77.914999521405065
0
ARC
5
531
100
AcDbEntity
8
0
100
AcDbCircle
10
26.324999999999996
20
-1.7150000000000176
30
0
40
0.49999999999997158
210
0
220
-0
230
1
100
AcDbArc
50
90
51
150.0000000000172
0
ARC
5
532
100
AcDbEntity
8
0
100
AcDbCircle
10
21.265000000000001
20
-16.835000000000022
30
0
40
0.49999999999999822
210
0
220
0
230
1
100
AcDbArc
50
180
51
270
0
ARC
5
533
100
AcDbEntity
8
0
100
AcDbCircle
10
35.884999999999998
20
-2.2150000000000247
30
0
40
0.49999999999999822
210
-0
220
0
230
1
100
AcDbArc
50
0
51
90
0
LINE
5
534
100
AcDbEntity
8
0
100
AcDbLine
10
31.691025000000003
20
-1.7149993921440299
30
0
11
35.884999999999998
21
-1.7150000000000176
31
0
0
ARC
5
535
100
AcDbEntity
8
0
100
AcDbCircle
10
78.414999999999978
20
-78.415000000000035
30
0
40
0.50000000000000711
210
0
220
-0
230
1
100
AcDbArc
50
90
51
180
0
LINE
5
536
100
AcDbEntity
8
0
100
AcDbLine
10
39.815000000000005
20
-16.835000000000022
30
0
11
39.814999999999998
21
-2.2150000000000247
31
0
0
ARC
5
537
100
AcDbEntity
8
0
100
AcDbCircle
10
31.691025000000003
20
-1.2150000000000105
30
0
40
0.49999939214357858
210
0
220
0
230
1
100
AcDbArc
50
210.00004021551229
51
270
0
LINE
5
538
100
AcDbEntity
8
0
100
AcDbLine
10
30.789999999999988
20
-77.915000000000006
30
0
11
34.983974999999987
21
-77.915000000000006
31
0
0
ARC
5
539
100
AcDbEntity
8
0
100
AcDbCircle
10
30.824999999999996
20
-1.7150000000000176
30
0
40
0.50000025816899396
210
0
220
-0
230
1
100
AcDbArc
50
29.999982919689856
51
89.999982919678246
0
LINE
5
540
100
AcDbEntity
8
0
100
AcDbLine
10
36.384999999999998
20
-2.2150000000000247
30
0
11
36.384999999999998
21
-16.835000000000022
31
0
0
ARC
5
541
100
AcDbEntity
8
0
100
AcDbCircle
10
49.875
20
-1.7150000000000176
30
0
40
0.50000025816899396
210
0
220
-0
230
1
100
AcDbArc
50
29.999982919689856
51
90
0
LINE
5
542
100
AcDbEntity
8
0
100
AcDbLine
10
50.741025350946003
20
-1.7149993921434614
30
0
11
54.935000000000002
21
-1.7150000000000176
31
0
0
ARC
5
543
100
AcDbEntity
8
0
100
AcDbCircle
10
35.884999999999998
20
-16.835000000000022
30
0
40
0.50000000000000711
210
0
220
0
230
1
100
AcDbArc
50
-90
51
0
0
ARC
5
544
100
AcDbEntity
8
0
100
AcDbCircle
10
40.315000000000005
20
-16.835000000000022
30
0
40
0.49999999999999822
210
0
220
0
230
1
100
AcDbArc
50
180
51
270
0
ARC
5
545
100
AcDbEntity
8
0
100
AcDbCircle
10
25.458974999999995
20
-1.2150000000000105
30
0
40
0.50000000000000711
210
0
220
0
230
1
100
AcDbArc
50
270
51
329.99997686483795
0
ARC
5
546
100
AcDbEntity
8
0
100
AcDbCircle
10
50.741024999999993
20
-1.2150000000000105
30
0
40
0.49999939214357086
210
0
220
0
230
1
100
AcDbArc
50
210.00004021551308
51
270.00004021549933
0
LINE
5
547
100
AcDbEntity
8
0
100
AcDbLine
10
55.435000000000009
20
-2.2150000000000247
30
0
11
55.435000000000016
21
-16.835000000000022
31
0
0
ARC
5
548
100
AcDbEntity
8
0
100
AcDbCircle
10
54.935000000000002
20
-2.2150000000000247
30
0
40
0.50000000000000711
210
-0
220
0
230
1
100
AcDbArc
50
0
51
90
0
ARC
5
549
100
AcDbEntity
8
0
100
AcDbCircle
10
40.315000000000005
20
-2.2150000000000247
30
0
40
0.50000000000000711
210
0
220
-0
230
1
100
AcDbArc
50
90
51
180
0
LINE
5
550
100
AcDbEntity
8
0
100
AcDbLine
10
26.324999999999996
20
-1.215000000000046
30
0
11
30.825000149053999
21
-1.2149997418310576
31
0
0
ARC
5
551
100
AcDbEntity
8
0
100
AcDbCircle
10
21.265000000000001
20
-2.2150000000000247
30
0
40
0.50000000000000711
210
0
220
-0
230
1
100
AcDbArc
50
90
51
180
0
ARC
5
552
100
AcDbEntity
8
0
100
AcDbCircle
10
40.34999999999998
20
-77.915000000000006
30
0
40
0.50000025816900284
210
0
220
-0
230
1
100
AcDbArc
50
29.99998291969197
51
89.99998291967745
0
ARC
5
553
100
AcDbEntity
8
0
100
AcDbCircle
10
45.375000000000007
20
-1.7150000000000176
30
0
40
0.49999999999997158
210
0
220
-0
230
1
100
AcDbArc
50
90
51
149.99997686483377
0
LINE
5
554
100
AcDbEntity
8
0
100
AcDbLine
10
45.909999999999982
20
-78.41500000000002
30
0
11
45.909999999999997
21
-93.035000000000011
31
0
0
ARC
5
555
100
AcDbEntity
8
0
100
AcDbCircle
10
78.414999999999978
20
-93.035000000000025
30
0
40
0.50000000000000711
210
0
220
0
230
1
100
AcDbArc
50
180
51
270
0
ARC
5
556
100
AcDbEntity
8
0
100
AcDbCircle
10
45.409999999999982
20
-78.41500000000002
30
0
40
0.49999999999999822
210
-0
220
0
230
1
100
AcDbArc
50
0
51
90
0
ARC
5
557
100
AcDbEntity
8
0
100
AcDbCircle
10
41.216025000000002
20
-77.41500000000002
30
0
40
0.49999939214356853
210
0
220
0
230
1
100
AcDbArc
50
210.00004021550725
51
270
0
ARC
5
558
100
AcDbEntity
8
0
100
AcDbCircle
10
45.409999999999982
20
-93.035000000000011
30
0
40
0.50000000000000711
210
0
220
0
230
1
100
AcDbArc
50
-90
51
0
0
LINE
5
559
100
AcDbEntity
8
0
100
AcDbLine
10
20.765000000000001
20
-16.835000000000022
30
0
11
20.765000000000001
21
-2.2150000000000247
31
0
0
LINE
5
560
100
AcDbEntity
8
0
100
AcDbLine
10
41.216025000000002
20
-77.914999392144026
30
0
11
45.409999999999982
21
-77.915000000000006
31
0
0
LINE
5
561
100
AcDbEntity
8
0
100
AcDbLine
10
77.914999999999978
20
-93.035000000000025
30
0
11
77.914999999999992
21
-78.415000000000035
31
0
0
ARC
5
562
100
AcDbEntity
8
0
100
AcDbCircle
10
230.81500000000003
20
-2.2150000000000603
30
0
40
0.50000000000000711
210
0
220
-0
230
1
100
AcDbArc
50
90
51
180
0
ARC
5
563
100
AcDbEntity
8
0
100
AcDbCircle
10
240.375
20
-1.7150000000000531
30
0
40
0.50000025816900151
210
0
220
-0
230
1
100
AcDbArc
50
29.999982919689042
51
90
0
ARC
5
564
100
AcDbEntity
8
0
100
AcDbCircle
10
240.67250000000001
20
-40.315000000000047
30
0
40
0.50000000000000711
210
-0
220
0
230
1
100
AcDbArc
50
0
51
90
0
LINE
5
565
100
AcDbEntity
8
0
100
AcDbLine
10
236.47852535094
20
-39.814999392143932
30
0
11
240.67250000000001
21
-39.815000000000055
31
0
0
ARC
5
566
100
AcDbEntity
8
0
100
AcDbCircle
10
221.29000000000002
20
-35.885000000000034
30
0
40
0.50000000000000711
210
0
220
0
230
1
100
AcDbArc
50
180
51
270
0
ARC
5
567
100
AcDbEntity
8
0
100
AcDbCircle
10
216.5625
20
-39.815000000000055
30
0
40
0.50000025816900151
210
0
220
-0
230
1
100
AcDbArc
50
29.999982919688343
51
89.999982920135835
0
ARC
5
568
100
AcDbEntity
8
0
100
AcDbCircle
10
231.11250000000001
20
-39.815000000000055
30
0
40
0.50000000000000711
210
0
220
-0
230
1
100
AcDbArc
50
90
51
149.9999768649499
0
LINE
5
569
100
AcDbEntity
8
0
100
AcDbLine
10
217.42852499999998
20
-39.814999392144053
30
0
11
221.6225
21
-39.815000000000055
31
0
0
CIRCLE
5
570
100
AcDbEntity
8
0
100
AcDbCircle
10
259.76250000000005
20
-28.575000000000035
30
0
40
3.1499999999999999
210
0
220
0
230
1
0
LINE
5
571
100
AcDbEntity
8
0
100
AcDbLine
10
278.77250000000009
20
-36.385000000000076
30
0
11
264.15250000000003
21
-36.385000000000041
31
0
0
ARC
5
572
100
AcDbEntity
8
0
100
AcDbCircle
10
264.15250000000003
20
-21.265000000000072
30
0
40
0.50000000000000711
210
0
220
-0
230
1
100
AcDbArc
50
90
51
180
0
ARC
5
573
100
AcDbEntity
8
0
100
AcDbCircle
10
278.77250000000009
20
-21.265000000000072
30
0
40
0.50000000000000711
210
-0
220
0
230
1
100
AcDbArc
50
0
51
90
0
LINE
5
574
100
AcDbEntity
8
0
100
AcDbLine
10
279.27250000000009
20
-21.265000000000072
30
0
11
279.27250000000004
21
-35.885000000000034
31
0
0
LINE
5
575
100
AcDbEntity
8
0
100
AcDbLine
10
269.21250000000003
20
-20.265000000000057
30
0
11
273.71250014905007
21
-20.264999741830039
31
0
0
LINE
5
576
100
AcDbEntity
8
0
100
AcDbLine
10
274.57852500000001
20
-20.764999392144077
30
0
11
278.77250000000009
21
-20.765000000000065
31
0
0
ARC
5
577
100
AcDbEntity
8
0
100
AcDbCircle
10
264.15250000000003
20
-35.885000000000034
30
0
40
0.50000000000000711
210
0
220
0
230
1
100
AcDbArc
50
180
51
270
0
ARC
5
578
100
AcDbEntity
8
0
100
AcDbCircle
10
268.34647500000005
20
-20.265000000000057
30
0
40
0.50000000000000711
210
0
220
0
230
1
100
AcDbArc
50
270
51
329.9999768643741
0
LINE
5
579
100
AcDbEntity
8
0
100
AcDbLine
10
263.65250000000003
20
-35.885000000000034
30
0
11
263.65250000000009
21
-21.265000000000072
31
0
0
ARC
5
580
100
AcDbEntity
8
0
100
AcDbCircle
10
274.57852500000007
20
-20.265000000000057
30
0
40
0.49999939214354305
210
0
220
0
230
1
100
AcDbArc
50
210.00004021550438
51
269.99999999999346
0
LINE
5
581
100
AcDbEntity
8
0
100
AcDbLine
10
264.15250000000003
20
-20.765000000000065
30
0
11
268.34647500000005
21
-20.765000000000065
31
0
0
ARC
5
582
100
AcDbEntity
8
0
100
AcDbCircle
10
269.21250000000003
20
-20.765000000000065
30
0
40
0.50000000000000711
210
0
220
-0
230
1
100
AcDbArc
50
90
51
150.00000000046364
0
ARC
5
583
100
AcDbEntity
8
0
100
AcDbCircle
10
273.71250000000009
20
-20.765000000000065
30
0
40
0.5000002581690064
210
0
220
-0
230
1
100
AcDbArc
50
29.999982919699345
51
89.99998292013909
0
ARC
5
584
100
AcDbEntity
8
0
100
AcDbCircle
10
278.77250000000009
20
-35.885000000000034
30
0
40
0.50000000000004263
210
0
220
0
230
1
100
AcDbArc
50
-90
51
0
0
LWPOLYLINE
5
585
100
AcDbEntity
8
0
100
AcDbPolyline
90
14
70
1
43
0.0
10
257.00875000000002
20
-55.435000000000024
42
-0.41421356237309503
10
256.50875000000002
20
-54.935000000000016
10
256.50875000000002
20
-40.315000000000019
42
-0.41421356237309503
10
257.00875000000002
20
-39.815000000000012
10
261.20272500000004
20
-39.815000000000012
42
0.26794908423732844
10
261.63573760094602
20
-39.565000174843888
42
-0.26794919243120546
10
262.06875030283834
20
-39.315000174843753
10
266.56875014905404
20
-39.31499974179998
42
-0.26794919243106585
10
267.0017630000001
20
-39.564999999968926
42
0.26794900435945057
10
267.43477500000006
20
-39.814999392112533
10
271.62875000000003
20
-39.815000000000012
42
-0.41421356237309503
10
272.12875000000003
20
-40.315000000000019
10
272.12875000000003
20
-54.935000000000016
42
-0.41421356237309503
10
271.62875000000003
20
-55.435000000000024
0
LWPOLYLINE
5
586
100
AcDbEntity
8
0
100
AcDbPolyline
90
12
70
1
43
0.0
10
277.35365000000002
20
-50.101999999999983
42
-0.41421356237309503
10
276.85365000000002
20
-49.602000000000011
10
276.85365000000002
20
-41.331000000000017
42
-0.41421356237309503
10
277.35365000000002
20
-40.83100000000001
10
278.58884999999998
20
-40.83100000000001
42
-0.41421356237309503
10
279.08885000000004
20
-41.331000000000017
10
279.08885000000004
20
-43.379582000000021
42
0.29455029122111137
10
279.38269054082667
20
-43.835101788146851
42
-0.64506611024140637
10
279.38269017152487
20
-47.097897621008428
42
0.29455007095494029
10
279.08884975552525
20
-47.55341762100808
10
279.08885000000004
20
-49.602000000000011
42
-0.41421356237309503
10
278.58884999999998
20
-50.102000000000018
0
LWPOLYLINE
5
587
100
AcDbEntity
8
0
100
AcDbPolyline
90
12
70
1
43
0.0
10
251.78385000000006
20
-49.602000000000011
10
251.78384958400059
20
-47.553418152900015
42
-0.29455015403766721
10
252.07769000000016
20
-47.097898000000342
42
0.64506616015405638
10
252.07769013929897
20
-43.835102063043685
42
-0.29455015403817225
10
251.78384982847544
20
-43.379582378991863
10
251.78385000000003
20
-41.331000000000017
42
0.41421356237309503
10
251.28385000000003
20
-40.83100000000001
10
250.04865000000001
20
-40.83100000000001
42
0.41421356237309503
10
249.54865000000007
20
-41.331000000000017
10
249.54865000000007
20
-49.602000000000011
42
0.41421356237309503
10
250.04865000000001
20
-50.102000000000018
10
251.28385000000003
20
-50.102000000000018
42
0.41421356237309503
0
ENDSEC
0
SECTION
2
OBJECTS
0
DICTIONARY
5
C
100
AcDbDictionary
3
ACAD_GROUP
350
D
3
ACAD_MLINESTYLE
350
17
0
DICTIONARY
5
D
100
AcDbDictionary
0
DICTIONARY
5
1A
330
C
100
AcDbDictionary
0
DICTIONARY
5
17
100
AcDbDictionary
0
ENDSEC
0
EOF
