0
SECTION
2
HEADER
9
$INSUNITS
70
4
9
$ACADVER
1
AC1014
9
$HANDSEED
5
FFFF
0
ENDSEC
0
SECTION
2
TABLES
0
TABLE
2
VPORT
5
8
100
AcDbSymbolTable
0
ENDTAB
0
TABLE
2
LTYPE
5
5
100
AcDbSymbolTable
0
LTYPE
5
14
100
AcDbSymbolTableRecord
100
AcDbLinetypeTableRecord
2
BYBLOCK
70
0
0
LTYPE
5
15
100
AcDbSymbolTableRecord
100
AcDbLinetypeTableRecord
2
BYLAYER
70
0
0
ENDTAB
0
TABLE
2
LAYER
5
2
100
AcDbSymbolTable
70
2
0
LAYER
5
50
100
AcDbSymbolTableRecord
100
AcDbLayerTableRecord
2
0
70
0
6
CONTINUOUS
0
ENDTAB
0
TABLE
2
STYLE
5
3
100
AcDbSymbolTable
70
1
0
STYLE
5
11
100
AcDbSymbolTableRecord
100
AcDbTextStyleTableRecord
2
STANDARD
70
0
0
ENDTAB
0
TABLE
2
VIEW
5
6
100
AcDbSymbolTable
70
0
0
ENDTAB
0
TABLE
2
UCS
5
7
100
AcDbSymbolTable
70
0
0
ENDTAB
0
TABLE
2
APPID
5
9
100
AcDbSymbolTable
70
2
0
APPID
5
12
100
AcDbSymbolTableRecord
100
AcDbRegAppTableRecord
2
ACAD
70
0
0
ENDTAB
0
TABLE
2
DIMSTYLE
5
A
100
AcDbSymbolTable
70
1
0
ENDTAB
0
TABLE
2
BLOCK_RECORD
5
1
100
AcDbSymbolTable
70
1
0
BLOCK_RECORD
5
1F
100
AcDbSymbolTableRecord
100
AcDbBlockTableRecord
2
*MODEL_SPACE
0
BLOCK_RECORD
5
1B
100
AcDbSymbolTableRecord
100
AcDbBlockTableRecord
2
*PAPER_SPACE
0
ENDTAB
0
ENDSEC
0
SECTION
2
BLOCKS
0
BLOCK
5
20
100
AcDbEntity
100
AcDbBlockBegin
2
*MODEL_SPACE
0
ENDBLK
5
21
100
AcDbEntity
100
AcDbBlockEnd
0
BLOCK
5
1C
100
AcDbEntity
100
AcDbBlockBegin
2
*PAPER_SPACE
0
ENDBLK
5
1D
100
AcDbEntity
100
AcDbBlockEnd
0
ENDSEC
0
SECTION
2
ENTITIES
0
LINE
5
100
100
AcDbEntity
8
0
100
AcDbLine
10
284.76900000000001
20
0.70831099999999991
30
0
11
284.64499999999998
21
0.61047099999999999
31
0
0
LINE
5
101
100
AcDbEntity
8
0
100
AcDbLine
10
1.4758800000000001
20
0.32521700000000009
30
0
11
1.3298099999999999
21
0.381716
31
0
0
LINE
5
102
100
AcDbEntity
8
0
100
AcDbLine
10
1.7818000000000001
20
0.25355900000000003
30
0
11
1.6288400000000003
21
0.28387600000000002
31
0
0
LINE
5
103
100
AcDbEntity
8
0
100
AcDbLine
10
285.47000000000003
20
93.1541
30
0
11
285.47000000000003
21
40.991000000000007
31
0
0
LINE
5
104
100
AcDbEntity
8
0
100
AcDbLine
10
283.471
20
95.154799999999994
30
0
11
283.62599999999998
21
95.147999999999996
31
0
0
LINE
5
105
100
AcDbEntity
8
0
100
AcDbLine
10
285.41500000000002
20
93.621200000000016
30
0
11
285.44599999999997
21
93.468100000000021
31
0
0
LINE
5
106
100
AcDbEntity
8
0
100
AcDbLine
10
285.44599999999997
20
93.468100000000021
30
0
11
285.46499999999997
21
93.31110000000001
31
0
0
LINE
5
107
100
AcDbEntity
8
0
100
AcDbLine
10
1.3298099999999999
20
0.381716
30
0
11
1.18787
21
0.44648600000000005
31
0
0
LINE
5
108
100
AcDbEntity
8
0
100
AcDbLine
10
284.08900000000006
20
0.32521700000000009
30
0
11
283.93599999999998
21
0.28387600000000002
31
0
0
LINE
5
109
100
AcDbEntity
8
0
100
AcDbLine
10
285.09000000000003
20
1.0542000000000002
30
0
11
284.99099999999999
21
0.93017600000000011
31
0
0
LINE
5
110
100
AcDbEntity
8
0
100
AcDbLine
10
284.08900000000006
20
95.057000000000016
30
0
11
284.23599999999999
21
95.00200000000001
31
0
0
LINE
5
111
100
AcDbEntity
8
0
100
AcDbLine
10
284.37700000000001
20
94.937100000000001
30
0
11
284.51400000000001
21
94.86020000000002
31
0
0
LINE
5
112
100
AcDbEntity
8
0
100
AcDbLine
10
283.93599999999998
20
0.28387600000000002
30
0
11
283.78199999999998
21
0.25355900000000003
31
0
0
LINE
5
113
100
AcDbEntity
8
0
100
AcDbLine
10
281.97000000000003
20
40.991000000000007
30
0
11
281.197
21
40.869999999999997
31
0
0
LINE
5
114
100
AcDbEntity
8
0
100
AcDbLine
10
1.9389000000000001
20
0.23564500000000002
30
0
11
1.7818000000000001
21
0.25355900000000003
31
0
0
LINE
5
115
100
AcDbEntity
8
0
100
AcDbLine
10
283.78199999999998
20
95.130099999999999
30
0
11
283.93599999999998
21
95.099700000000013
31
0
0
LINE
5
116
100
AcDbEntity
8
0
100
AcDbLine
10
2.0960000000000001
20
0.22737600000000002
30
0
11
1.9389000000000001
21
0.23564500000000002
31
0
0
LINE
5
117
100
AcDbEntity
8
0
100
AcDbLine
10
283.62599999999998
20
0.23564500000000002
30
0
11
283.471
21
0.230132
31
0
0
LINE
5
118
100
AcDbEntity
8
0
100
AcDbLine
10
1.6288400000000003
20
0.28387600000000002
30
0
11
1.4758800000000001
21
0.32521700000000009
31
0
0
LINE
5
119
100
AcDbEntity
8
0
100
AcDbLine
10
285.46499999999997
20
2.0725700000000002
30
0
11
285.44599999999997
21
1.9168499999999999
31
0
0
LINE
5
120
100
AcDbEntity
8
0
100
AcDbLine
10
285.47000000000003
20
2.2269099999999997
30
0
11
285.46499999999997
21
2.0725700000000002
31
0
0
LINE
5
121
100
AcDbEntity
8
0
100
AcDbLine
10
285.17500000000001
20
94.19980000000001
30
0
11
285.25300000000004
21
94.062200000000018
31
0
0
LINE
5
122
100
AcDbEntity
8
0
100
AcDbLine
10
280.24374999999998
20
36.725603564981967
30
0
11
280.50099999999998
21
36.468400000000003
31
0
0
LINE
5
123
100
AcDbEntity
8
0
100
AcDbLine
10
281.97000000000003
20
35.991399999999999
30
0
11
285.47000000000003
21
35.991399999999999
31
0
0
LINE
5
124
100
AcDbEntity
8
0
100
AcDbLine
10
285.41500000000002
20
1.7625099999999998
30
0
11
285.37300000000005
21
1.6109300000000002
31
0
0
LINE
5
125
100
AcDbEntity
8
0
100
AcDbLine
10
284.88499999999999
20
0.81304300000000007
30
0
11
284.76900000000001
21
0.70831099999999991
31
0
0
LINE
5
126
100
AcDbEntity
8
0
100
AcDbLine
10
285.37300000000005
20
93.774000000000001
30
0
11
285.41500000000002
21
93.621200000000016
31
0
0
LINE
5
127
100
AcDbEntity
8
0
100
AcDbLine
10
285.17500000000001
20
1.1851100000000001
30
0
11
285.09000000000003
21
1.0542000000000002
31
0
0
LINE
5
128
100
AcDbEntity
8
0
100
AcDbLine
10
285.47000000000003
20
40.991000000000007
30
0
11
281.97000000000003
21
40.991000000000007
31
0
0
LINE
5
129
100
AcDbEntity
8
0
100
AcDbLine
10
284.64499999999998
20
0.61047099999999999
30
0
11
284.51400000000001
21
0.52365600000000001
31
0
0
LINE
5
130
100
AcDbEntity
8
0
100
AcDbLine
10
285.44599999999997
20
1.9168499999999999
30
0
11
285.41500000000002
21
1.7625099999999998
31
0
0
LINE
5
131
100
AcDbEntity
8
0
100
AcDbLine
10
284.23599999999999
20
0.381716
30
0
11
284.08900000000006
21
0.32521700000000009
31
0
0
LINE
5
132
100
AcDbEntity
8
0
100
AcDbLine
10
1.6288400000000003
20
95.099700000000013
30
0
11
1.7818000000000001
21
95.130099999999999
31
0
0
LINE
5
133
100
AcDbEntity
8
0
100
AcDbLine
10
1.05006
20
94.86020000000002
30
0
11
1.18787
21
94.937100000000001
31
0
0
LINE
5
134
100
AcDbEntity
8
0
100
AcDbLine
10
1.05006
20
0.52365600000000001
30
0
11
0.91915200000000019
21
0.61047099999999999
31
0
0
LINE
5
135
100
AcDbEntity
8
0
100
AcDbLine
10
0.4768
20
94.331000000000017
30
0
11
0.57464300000000001
21
94.453400000000002
31
0
0
LINE
5
136
100
AcDbEntity
8
0
100
AcDbLine
10
285.31700000000001
20
93.920000000000016
30
0
11
285.37300000000005
21
93.774000000000001
31
0
0
LINE
5
137
100
AcDbEntity
8
0
100
AcDbLine
10
284.37700000000001
20
0.44648600000000005
30
0
11
284.23599999999999
21
0.381716
31
0
0
LINE
5
138
100
AcDbEntity
8
0
100
AcDbLine
10
285.25300000000004
20
1.3215399999999999
30
0
11
285.17500000000001
21
1.1851100000000001
31
0
0
LINE
5
139
100
AcDbEntity
8
0
100
AcDbLine
10
283.62599999999998
20
95.147999999999996
30
0
11
283.78199999999998
21
95.130099999999999
31
0
0
LINE
5
140
100
AcDbEntity
8
0
100
AcDbLine
10
281.197
20
36.1128
30
0
11
281.97000000000003
21
35.991399999999999
31
0
0
LINE
5
141
100
AcDbEntity
8
0
100
AcDbLine
10
1.7818000000000001
20
95.130099999999999
30
0
11
1.9389000000000001
21
95.147999999999996
31
0
0
LINE
5
142
100
AcDbEntity
8
0
100
AcDbLine
10
283.78199999999998
20
0.25355900000000003
30
0
11
283.62599999999998
21
0.23564500000000002
31
0
0
LINE
5
143
100
AcDbEntity
8
0
100
AcDbLine
10
0.24804699999999999
20
93.920000000000016
30
0
11
0.31281500000000007
21
94.062200000000018
31
0
0
LINE
5
144
100
AcDbEntity
8
0
100
AcDbLine
10
285.37300000000005
20
1.6109300000000002
30
0
11
285.31700000000001
21
1.4621
31
0
0
LINE
5
145
100
AcDbEntity
8
0
100
AcDbLine
10
285.09000000000003
20
94.331000000000017
30
0
11
285.17500000000001
21
94.19980000000001
31
0
0
LINE
5
146
100
AcDbEntity
8
0
100
AcDbLine
10
285.47000000000003
20
35.991399999999999
30
0
11
285.47000000000003
21
2.2269099999999997
31
0
0
LINE
5
147
100
AcDbEntity
8
0
100
AcDbLine
10
0.19292500000000004
20
1.6109300000000002
30
0
11
0.15020600000000001
21
1.7625099999999998
31
0
0
LINE
5
148
100
AcDbEntity
8
0
100
AcDbLine
10
0.095084600000000019
20
2.2269099999999997
30
0
11
0.095084600000000019
21
35.991399999999999
31
0
0
LINE
5
149
100
AcDbEntity
8
0
100
AcDbLine
10
285.46499999999997
20
93.31110000000001
30
0
11
285.47000000000003
21
93.1541
31
0
0
LINE
5
150
100
AcDbEntity
8
0
100
AcDbLine
10
284.99099999999999
20
0.93017600000000011
30
0
11
284.88499999999999
21
0.81304300000000007
31
0
0
LINE
5
151
100
AcDbEntity
8
0
100
AcDbLine
10
284.51400000000001
20
0.52365600000000001
30
0
11
284.37700000000001
21
0.44648600000000005
31
0
0
LINE
5
152
100
AcDbEntity
8
0
100
AcDbLine
10
284.76900000000001
20
94.675299999999993
30
0
11
284.88499999999999
21
94.569100000000006
31
0
0
LINE
5
153
100
AcDbEntity
8
0
100
AcDbLine
10
284.99099999999999
20
94.453400000000002
30
0
11
285.09000000000003
21
94.331000000000017
31
0
0
LINE
5
154
100
AcDbEntity
8
0
100
AcDbLine
10
285.25300000000004
20
94.062200000000018
30
0
11
285.31700000000001
21
93.920000000000016
31
0
0
LINE
5
155
100
AcDbEntity
8
0
100
AcDbLine
10
284.51400000000001
20
94.86020000000002
30
0
11
284.64499999999998
21
94.772999999999996
31
0
0
LINE
5
156
100
AcDbEntity
8
0
100
AcDbLine
10
284.88499999999999
20
94.569100000000006
30
0
11
284.99099999999999
21
94.453400000000002
31
0
0
LINE
5
157
100
AcDbEntity
8
0
100
AcDbLine
10
0.57464300000000001
20
0.93017600000000011
30
0
11
0.4768
21
1.0542000000000002
31
0
0
LINE
5
158
100
AcDbEntity
8
0
100
AcDbLine
10
280.50099999999998
20
36.468400000000003
30
0
11
281.197
21
36.1128
31
0
0
LINE
5
159
100
AcDbEntity
8
0
100
AcDbLine
10
284.64499999999998
20
94.772999999999996
30
0
11
284.76900000000001
21
94.675299999999993
31
0
0
LINE
5
160
100
AcDbEntity
8
0
100
AcDbLine
10
280.50099999999998
20
40.514400000000002
30
0
11
280.24374999999998
21
40.257707220216588
31
0
0
LINE
5
161
100
AcDbEntity
8
0
100
AcDbLine
10
281.197
20
40.869999999999997
30
0
11
280.50099999999998
21
40.514400000000002
31
0
0
LINE
5
162
100
AcDbEntity
8
0
100
AcDbLine
10
0.11988900000000002
20
1.9168499999999999
30
0
11
0.101975
21
2.0725700000000002
31
0
0
LINE
5
163
100
AcDbEntity
8
0
100
AcDbLine
10
0.095084600000000019
20
93.1541
30
0
11
0.101975
21
93.31110000000001
31
0
0
LINE
5
164
100
AcDbEntity
8
0
100
AcDbLine
10
285.31700000000001
20
1.4621
30
0
11
285.25300000000004
21
1.3215399999999999
31
0
0
LINE
5
165
100
AcDbEntity
8
0
100
AcDbLine
10
0.68075200000000002
20
94.569100000000006
30
0
11
0.79650500000000013
21
94.675299999999993
31
0
0
LINE
5
166
100
AcDbEntity
8
0
100
AcDbLine
10
283.93599999999998
20
95.099700000000013
30
0
11
284.08900000000006
21
95.057000000000016
31
0
0
LINE
5
167
100
AcDbEntity
8
0
100
AcDbLine
10
284.23599999999999
20
95.00200000000001
30
0
11
284.37700000000001
21
94.937100000000001
31
0
0
LINE
5
168
100
AcDbEntity
8
0
100
AcDbLine
10
283.471
20
0.230132
30
0
11
2.0960000000000001
21
0.22737600000000002
31
0
0
LINE
5
169
100
AcDbEntity
8
0
100
AcDbLine
10
0.31281500000000007
20
1.3215399999999999
30
0
11
0.24804699999999999
21
1.4621
31
0
0
LINE
5
170
100
AcDbEntity
8
0
100
AcDbLine
10
0.57464300000000001
20
94.453400000000002
30
0
11
0.68075200000000002
21
94.569100000000006
31
0
0
LINE
5
171
100
AcDbEntity
8
0
100
AcDbLine
10
0.101975
20
2.0725700000000002
30
0
11
0.095084600000000019
21
2.2269099999999997
31
0
0
LINE
5
172
100
AcDbEntity
8
0
100
AcDbLine
10
0.095084599999999964
20
40.991000000000007
30
0
11
0.095084600000000019
21
93.1541
31
0
0
LINE
5
173
100
AcDbEntity
8
0
100
AcDbLine
10
0.68075200000000002
20
0.81304300000000007
30
0
11
0.57464300000000001
21
0.93017600000000011
31
0
0
LINE
5
174
100
AcDbEntity
8
0
100
AcDbLine
10
0.4768
20
1.0542000000000002
30
0
11
0.38998499999999997
21
1.1851100000000001
31
0
0
LINE
5
175
100
AcDbEntity
8
0
100
AcDbLine
10
1.18787
20
0.44648600000000005
30
0
11
1.05006
21
0.52365600000000001
31
0
0
LINE
5
176
100
AcDbEntity
8
0
100
AcDbLine
10
0.38998499999999997
20
94.19980000000001
30
0
11
0.4768
21
94.331000000000017
31
0
0
LINE
5
177
100
AcDbEntity
8
0
100
AcDbLine
10
0.15020600000000001
20
93.621200000000016
30
0
11
0.19292500000000004
21
93.774000000000001
31
0
0
LINE
5
178
100
AcDbEntity
8
0
100
AcDbLine
10
0.91915200000000019
20
94.772999999999996
30
0
11
1.05006
21
94.86020000000002
31
0
0
LINE
5
179
100
AcDbEntity
8
0
100
AcDbLine
10
0.38998499999999997
20
1.1851100000000001
30
0
11
0.31281500000000007
21
1.3215399999999999
31
0
0
LINE
5
180
100
AcDbEntity
8
0
100
AcDbLine
10
0.31281500000000007
20
94.062200000000018
30
0
11
0.38998499999999997
21
94.19980000000001
31
0
0
LINE
5
181
100
AcDbEntity
8
0
100
AcDbLine
10
0.19292500000000004
20
93.774000000000001
30
0
11
0.24804699999999999
21
93.920000000000016
31
0
0
LINE
5
182
100
AcDbEntity
8
0
100
AcDbLine
10
0.79650500000000013
20
0.70831099999999991
30
0
11
0.68075200000000002
21
0.81304300000000007
31
0
0
LINE
5
183
100
AcDbEntity
8
0
100
AcDbLine
10
1.18787
20
94.937100000000001
30
0
11
1.3298099999999999
21
95.00200000000001
31
0
0
LINE
5
184
100
AcDbEntity
8
0
100
AcDbLine
10
0.24804699999999999
20
1.4621
30
0
11
0.19292500000000004
21
1.6109300000000002
31
0
0
LINE
5
185
100
AcDbEntity
8
0
100
AcDbLine
10
0.79650500000000013
20
94.675299999999993
30
0
11
0.91915200000000019
21
94.772999999999996
31
0
0
LINE
5
186
100
AcDbEntity
8
0
100
AcDbLine
10
2.0960000000000001
20
95.154799999999994
30
0
11
283.471
21
95.154799999999994
31
0
0
LINE
5
187
100
AcDbEntity
8
0
100
AcDbLine
10
0.15020600000000001
20
1.7625099999999998
30
0
11
0.11988900000000002
21
1.9168499999999999
31
0
0
LINE
5
188
100
AcDbEntity
8
0
100
AcDbLine
10
0.11988900000000002
20
93.468100000000021
30
0
11
0.15020600000000001
21
93.621200000000016
31
0
0
LINE
5
189
100
AcDbEntity
8
0
100
AcDbLine
10
0.91915200000000019
20
0.61047099999999999
30
0
11
0.79650500000000013
21
0.70831099999999991
31
0
0
LINE
5
190
100
AcDbEntity
8
0
100
AcDbLine
10
1.3298099999999999
20
95.00200000000001
30
0
11
1.4758800000000001
21
95.057000000000016
31
0
0
LINE
5
191
100
AcDbEntity
8
0
100
AcDbLine
10
0.101975
20
93.31110000000001
30
0
11
0.11988900000000002
21
93.468100000000021
31
0
0
LINE
5
192
100
AcDbEntity
8
0
100
AcDbLine
10
1.4758800000000001
20
95.057000000000016
30
0
11
1.6288400000000003
21
95.099700000000013
31
0
0
LINE
5
193
100
AcDbEntity
8
0
100
AcDbLine
10
1.9389000000000001
20
95.147999999999996
30
0
11
2.0960000000000001
21
95.154799999999994
31
0
0
LWPOLYLINE
5
194
100
AcDbEntity
8
0
100
AcDbPolyline
90
20
70
1
43
0.0
10
27.861200000000004
20
66.319400000000002
10
27.5029
20
65.622299999999996
10
26.953000000000003
20
65.069500000000005
10
26.255800000000001
20
64.713899999999995
10
25.484100000000005
20
64.590100000000007
10
24.709599999999998
20
64.713899999999995
10
24.0137
20
65.069500000000005
10
23.459700000000005
20
65.622299999999996
10
23.105600000000003
20
66.319400000000002
10
22.982900000000001
20
67.091300000000004
10
23.105600000000003
20
67.864199999999997
10
23.459700000000005
20
68.561700000000002
10
24.0137
20
69.114100000000008
10
24.709599999999998
20
69.469700000000003
10
25.484100000000005
20
69.591099999999997
10
26.255800000000001
20
69.469700000000003
10
26.953000000000003
20
69.114100000000008
10
27.5029
20
68.561700000000002
10
27.861200000000004
20
67.864199999999997
10
27.982399999999998
20
67.091300000000004
0
LWPOLYLINE
5
195
100
AcDbEntity
8
0
100
AcDbPolyline
90
20
70
1
43
0.0
10
259.55900000000003
20
64.713899999999995
10
258.863
20
65.069500000000005
10
258.30900000000003
20
65.622299999999996
10
257.95499999999998
20
66.319400000000002
10
257.83199999999999
20
67.091300000000004
10
257.95499999999998
20
67.864199999999997
10
258.30900000000003
20
68.561700000000002
10
258.863
20
69.114100000000008
10
259.55900000000003
20
69.469700000000003
10
260.33199999999999
20
69.591099999999997
10
261.10500000000002
20
69.469700000000003
10
261.80099999999999
20
69.114100000000008
10
262.35500000000002
20
68.561700000000002
10
262.709
20
67.864199999999997
10
262.83199999999999
20
67.091300000000004
10
262.709
20
66.319400000000002
10
262.35500000000002
20
65.622299999999996
10
261.80099999999999
20
65.069500000000005
10
261.10500000000002
20
64.713899999999995
10
260.33199999999999
20
64.590100000000007
0
LINE
5
196
100
AcDbEntity
8
0
100
AcDbLine
10
26.255800000000001
20
69.469700000000003
30
0
11
25.484100000000005
21
69.591099999999997
31
0
0
LINE
5
197
100
AcDbEntity
8
0
100
AcDbLine
10
26.953000000000003
20
69.114100000000008
30
0
11
26.255800000000001
21
69.469700000000003
31
0
0
LINE
5
198
100
AcDbEntity
8
0
100
AcDbLine
10
27.5029
20
68.561700000000002
30
0
11
26.953000000000003
21
69.114100000000008
31
0
0
LINE
5
199
100
AcDbEntity
8
0
100
AcDbLine
10
27.861200000000004
20
67.864199999999997
30
0
11
27.5029
21
68.561700000000002
31
0
0
LINE
5
200
100
AcDbEntity
8
0
100
AcDbLine
10
27.982399999999998
20
67.091300000000004
30
0
11
27.861200000000004
21
67.864199999999997
31
0
0
LINE
5
201
100
AcDbEntity
8
0
100
AcDbLine
10
27.861200000000004
20
66.319400000000002
30
0
11
27.982399999999998
21
67.091300000000004
31
0
0
LINE
5
202
100
AcDbEntity
8
0
100
AcDbLine
10
27.5029
20
65.622299999999996
30
0
11
27.861200000000004
21
66.319400000000002
31
0
0
LINE
5
203
100
AcDbEntity
8
0
100
AcDbLine
10
26.953000000000003
20
65.069500000000005
30
0
11
27.5029
21
65.622299999999996
31
0
0
LINE
5
204
100
AcDbEntity
8
0
100
AcDbLine
10
26.255800000000001
20
64.713899999999995
30
0
11
26.953000000000003
21
65.069500000000005
31
0
0
LINE
5
205
100
AcDbEntity
8
0
100
AcDbLine
10
25.484100000000005
20
64.590100000000007
30
0
11
26.255800000000001
21
64.713899999999995
31
0
0
LINE
5
206
100
AcDbEntity
8
0
100
AcDbLine
10
3.5966800000000005
20
40.991000000000007
30
0
11
0.095084600000000019
21
40.991000000000007
31
0
0
LINE
5
207
100
AcDbEntity
8
0
100
AcDbLine
10
0.095084600000000019
20
35.991399999999999
30
0
11
3.5952999999999999
21
35.991399999999999
31
0
0
LINE
5
208
100
AcDbEntity
8
0
100
AcDbLine
10
4.3683800000000002
20
40.869999999999997
30
0
11
3.5966800000000005
21
40.991000000000007
31
0
0
LINE
5
209
100
AcDbEntity
8
0
100
AcDbLine
10
5.0643000000000002
20
40.514400000000002
30
0
11
4.3683800000000002
21
40.869999999999997
31
0
0
LINE
5
210
100
AcDbEntity
8
0
100
AcDbLine
10
5.6168899999999997
20
39.961599999999997
30
0
11
5.0643000000000002
21
40.514400000000002
31
0
0
LINE
5
211
100
AcDbEntity
8
0
100
AcDbLine
10
5.9724199999999996
20
39.264499999999998
30
0
11
5.6168899999999997
21
39.961599999999997
31
0
0
LINE
5
212
100
AcDbEntity
8
0
100
AcDbLine
10
6.0950499999999996
20
38.491199999999999
30
0
11
5.9724199999999996
21
39.264499999999998
31
0
0
LINE
5
213
100
AcDbEntity
8
0
100
AcDbLine
10
5.9724199999999996
20
37.718299999999999
30
0
11
6.0950499999999996
21
38.491199999999999
31
0
0
LINE
5
214
100
AcDbEntity
8
0
100
AcDbLine
10
5.6168899999999997
20
37.022300000000001
30
0
11
5.9724199999999996
21
37.718299999999999
31
0
0
LINE
5
215
100
AcDbEntity
8
0
100
AcDbLine
10
5.0643000000000002
20
36.468400000000003
30
0
11
5.6168899999999997
21
37.022300000000001
31
0
0
LINE
5
216
100
AcDbEntity
8
0
100
AcDbLine
10
4.3683800000000002
20
36.1128
30
0
11
5.0643000000000002
21
36.468400000000003
31
0
0
LINE
5
217
100
AcDbEntity
8
0
100
AcDbLine
10
3.5952999999999999
20
35.991399999999999
30
0
11
4.3683800000000002
21
36.1128
31
0
0
LWPOLYLINE
5
218
100
AcDbEntity
8
0
100
AcDbPolyline
90
8
70
1
43
0.0
10
54.875000000000007
20
92.555000000000007
10
40.375000000000007
20
92.555000000000007
42
0.41421356237309503
10
39.875000000000007
20
92.055000000000007
10
39.875
20
80.25500000000001
42
0.41421356237309503
10
40.375000000000007
20
79.75500000000001
10
54.875000000000007
20
79.75500000000001
42
0.41421356237309503
10
55.375000000000007
20
80.25500000000001
10
55.375000000000007
20
92.055000000000007
42
0.41421356237309503
0
LWPOLYLINE
5
219
100
AcDbEntity
8
0
100
AcDbPolyline
90
8
70
1
43
0.0
10
36.325000000000003
20
80.25500000000001
10
36.325000000000003
20
92.055000000000007
42
0.41421356237309503
10
35.825000000000003
20
92.555000000000007
10
21.324999999999999
20
92.555000000000007
42
0.41421356237309503
10
20.824999999999999
20
92.055000000000007
10
20.824999999999999
20
80.25500000000001
42
0.41421356237309503
10
21.324999999999999
20
79.75500000000001
10
35.825000000000003
20
79.75500000000001
42
0.41421356237309503
0
LWPOLYLINE
5
220
100
AcDbEntity
8
0
100
AcDbPolyline
90
8
70
1
43
0.0
10
45.850000000000009
20
61.205000000000013
42
-0.41421356237309503
10
45.350000000000001
20
60.705000000000013
10
30.850000000000005
20
60.70500000000002
42
-0.41421356237309503
10
30.350000000000005
20
61.205000000000013
10
30.350000000000005
20
73.00500000000001
42
-0.41421356237309503
10
30.850000000000005
20
73.50500000000001
10
45.350000000000001
20
73.50500000000001
42
-0.41421356237309503
10
45.850000000000001
20
73.00500000000001
0
LWPOLYLINE
5
221
100
AcDbEntity
8
0
100
AcDbPolyline
90
8
70
1
43
0.0
10
255.40000000000003
20
4.0550000000000175
10
255.40000000000003
20
15.854999999999997
42
0.41421356237309503
10
254.90000000000003
20
16.355000000000004
10
240.40000000000003
20
16.355000000000004
42
0.41421356237309503
10
239.90000000000003
20
15.854999999999997
10
239.90000000000003
20
4.0550000000000175
42
0.41421356237309503
10
240.40000000000003
20
3.5550000000000104
10
254.90000000000003
20
3.5550000000000104
42
0.41421356237309503
0
LWPOLYLINE
5
222
100
AcDbEntity
8
0
100
AcDbPolyline
90
8
70
1
43
0.0
10
68.950000000000003
20
60.70500000000002
42
-0.41421356237309503
10
68.450000000000003
20
61.205000000000013
10
68.450000000000003
20
73.00500000000001
42
-0.41421356237309503
10
68.950000000000003
20
73.50500000000001
10
83.450000000000003
20
73.505000000000024
42
-0.41421356237309503
10
83.950000000000017
20
73.00500000000001
10
83.950000000000017
20
61.205000000000013
42
-0.41421356237309503
10
83.450000000000003
20
60.705000000000013
0
LWPOLYLINE
5
223
100
AcDbEntity
8
0
100
AcDbPolyline
90
8
70
1
43
0.0
10
50.112500000000004
20
54.455000000000013
42
-0.41421356237309503
10
50.612500000000004
20
53.955000000000013
10
50.612500000000004
20
42.155000000000015
42
-0.41421356237309503
10
50.112500000000004
20
41.655000000000015
10
35.612499999999997
20
41.655000000000015
42
-0.41421356237309503
10
35.112499999999997
20
42.155000000000015
10
35.112499999999997
20
53.955000000000013
42
-0.41421356237309503
10
35.612499999999997
20
54.455000000000013
0
LWPOLYLINE
5
224
100
AcDbEntity
8
0
100
AcDbPolyline
90
8
70
1
43
0.0
10
64.400000000000006
20
73.50500000000001
42
-0.41421356237309503
10
64.900000000000006
20
73.00500000000001
10
64.90000000000002
20
61.205000000000013
42
-0.41421356237309503
10
64.400000000000006
20
60.705000000000013
10
49.900000000000006
20
60.70500000000002
42
-0.41421356237309503
10
49.400000000000006
20
61.205000000000013
10
49.400000000000006
20
73.00500000000001
42
-0.41421356237309503
10
49.900000000000006
20
73.50500000000001
0
LWPOLYLINE
5
225
100
AcDbEntity
8
0
100
AcDbPolyline
90
8
70
1
43
0.0
10
263.71249999999998
20
15.854999999999997
42
-0.41421356237309503
10
264.21249999999998
20
16.355000000000004
10
278.71249999999998
20
16.355000000000004
42
-0.41421356237309503
10
279.21249999999998
20
15.854999999999997
10
279.21249999999998
20
4.0550000000000175
42
-0.41421356237309503
10
278.71249999999998
20
3.5550000000000104
10
264.21249999999998
20
3.5550000000000104
42
-0.41421356237309503
10
263.71249999999998
20
4.0550000000000175
0
LWPOLYLINE
5
226
100
AcDbEntity
8
0
100
AcDbPolyline
90
8
70
1
43
0.0
10
58.92499999999999
20
92.055000000000007
42
-0.41421356237309503
10
59.424999999999997
20
92.555000000000007
10
73.924999999999997
20
92.555000000000007
42
-0.41421356237309503
10
74.424999999999997
20
92.055000000000007
10
74.424999999999997
20
80.25500000000001
42
-0.41421356237309503
10
73.924999999999997
20
79.75500000000001
10
59.424999999999997
20
79.75500000000001
42
-0.41421356237309503
10
58.924999999999997
20
80.25500000000001
0
LWPOLYLINE
5
227
100
AcDbEntity
8
0
100
AcDbPolyline
90
8
70
1
43
0.0
10
13.68125
20
23.105000000000011
10
13.681250000000002
20
34.905000000000008
42
-0.41421356237309503
10
14.18125
20
35.405000000000008
10
28.681249999999999
20
35.405000000000008
42
-0.41421356237309503
10
29.181249999999999
20
34.905000000000008
10
29.181249999999999
20
23.105000000000011
42
-0.41421356237309503
10
28.681249999999999
20
22.605000000000011
10
14.18125
20
22.605000000000011
42
-0.41421356237309503
0
LWPOLYLINE
5
228
100
AcDbEntity
8
0
100
AcDbPolyline
90
8
70
1
43
0.0
10
21.537500000000001
20
16.355000000000004
10
7.0374999999999996
20
16.355000000000004
42
0.41421356237309503
10
6.5375000000000005
20
15.854999999999997
10
6.5375000000000005
20
4.0550000000000175
42
0.41421356237309503
10
7.0374999999999988
20
3.5550000000000104
10
21.537500000000001
20
3.5550000000000104
42
0.41421356237309503
10
22.037500000000001
20
4.0550000000000175
10
22.037500000000001
20
15.854999999999997
42
0.41421356237309503
0
LWPOLYLINE
5
229
100
AcDbEntity
8
0
100
AcDbPolyline
90
8
70
1
43
0.0
10
54.162500000000009
20
42.155000000000015
10
54.162500000000009
20
53.955000000000013
42
-0.41421356237309503
10
54.662500000000009
20
54.455000000000013
10
69.162499999999994
20
54.455000000000013
42
-0.41421356237309503
10
69.662499999999994
20
53.955000000000013
10
69.662499999999994
20
42.155000000000015
42
-0.41421356237309503
10
69.162499999999994
20
41.655000000000015
10
54.662500000000009
20
41.655000000000015
42
-0.41421356237309503
0
LWPOLYLINE
5
230
100
AcDbEntity
8
0
100
AcDbPolyline
90
8
70
1
43
0.0
10
254.90000000000003
20
35.405000000000015
10
240.40000000000003
20
35.405000000000015
42
0.41421356237309503
10
239.90000000000003
20
34.905000000000008
10
239.90000000000003
20
23.105000000000011
42
0.41421356237309503
10
240.40000000000003
20
22.605000000000011
10
254.90000000000003
20
22.605000000000004
42
0.41421356237309503
10
255.40000000000003
20
23.105000000000011
10
255.40000000000003
20
34.905000000000008
42
0.41421356237309503
0
LWPOLYLINE
5
231
100
AcDbEntity
8
0
100
AcDbPolyline
90
8
70
1
43
0.0
10
259.66250000000002
20
54.455000000000013
10
245.16249999999999
20
54.455000000000013
42
0.41421356237309503
10
244.66250000000002
20
53.955000000000013
10
244.66250000000002
20
42.155000000000015
42
0.41421356237309503
10
245.16249999999999
20
41.655000000000015
10
259.66250000000002
20
41.655000000000015
42
0.41421356237309503
10
260.16250000000002
20
42.155000000000015
10
260.16250000000002
20
53.955000000000013
42
0.41421356237309503
0
LWPOLYLINE
5
232
100
AcDbEntity
8
0
100
AcDbPolyline
90
8
70
1
43
0.0
10
154.17500000000001
20
92.055000000000007
42
-0.41421356237309503
10
154.67500000000001
20
92.555000000000007
10
169.17500000000001
20
92.555000000000007
42
-0.41421356237309503
10
169.67500000000001
20
92.055000000000007
10
169.67500000000001
20
80.25500000000001
42
-0.41421356237309503
10
169.17500000000001
20
79.75500000000001
10
154.67500000000001
20
79.754999999999995
42
-0.41421356237309503
10
154.17500000000001
20
80.25500000000001
0
LWPOLYLINE
5
233
100
AcDbEntity
8
0
100
AcDbPolyline
90
8
70
1
43
0.0
10
173.22499999999997
20
92.055000000000007
42
-0.41421356237309503
10
173.72499999999999
20
92.555000000000007
10
188.22500000000002
20
92.554999999999978
42
-0.41421356237309503
10
188.72499999999999
20
92.055000000000007
10
188.72500000000002
20
80.25500000000001
42
-0.41421356237309503
10
188.22500000000002
20
79.75500000000001
10
173.72499999999999
20
79.754999999999995
42
-0.41421356237309503
10
173.22499999999997
20
80.25500000000001
0
LWPOLYLINE
5
234
100
AcDbEntity
8
0
100
AcDbPolyline
90
8
70
1
43
0.0
10
183.25
20
60.705000000000041
42
-0.41421356237309503
10
182.75000000000003
20
61.205000000000013
10
182.75
20
73.00500000000001
42
-0.41421356237309503
10
183.25
20
73.50500000000001
10
197.75000000000003
20
73.505000000000024
42
-0.41421356237309503
10
198.25000000000003
20
73.00500000000001
10
198.25000000000003
20
61.205000000000013
42
-0.41421356237309503
10
197.75000000000003
20
60.705000000000013
0
LWPOLYLINE
5
235
100
AcDbEntity
8
0
100
AcDbPolyline
90
8
70
1
43
0.0
10
145.15000000000001
20
60.705000000000013
42
-0.41421356237309503
10
144.65000000000001
20
61.205000000000013
10
144.65000000000001
20
73.00500000000001
42
-0.41421356237309503
10
145.15000000000001
20
73.50500000000001
10
159.65000000000001
20
73.504999999999995
42
-0.41421356237309503
10
160.15000000000001
20
73.00500000000001
10
160.15000000000001
20
61.205000000000013
42
-0.41421356237309503
10
159.65000000000001
20
60.705000000000013
0
LWPOLYLINE
5
236
100
AcDbEntity
8
0
100
AcDbPolyline
90
8
70
1
43
0.0
10
164.19999999999999
20
60.705000000000013
42
-0.41421356237309503
10
163.69999999999999
20
61.205000000000013
10
163.69999999999999
20
73.00500000000001
42
-0.41421356237309503
10
164.19999999999999
20
73.50500000000001
10
178.70000000000002
20
73.505000000000024
42
-0.41421356237309503
10
179.20000000000002
20
73.00500000000001
10
179.20000000000002
20
61.205000000000013
42
-0.41421356237309503
10
178.70000000000002
20
60.705000000000013
0
LWPOLYLINE
5
237
100
AcDbEntity
8
0
100
AcDbPolyline
90
8
70
1
43
0.0
10
150.625
20
80.25500000000001
42
-0.41421356237309503
10
150.125
20
79.75500000000001
10
135.625
20
79.754999999999995
42
-0.41421356237309503
10
135.125
20
80.25500000000001
10
135.125
20
92.055000000000007
42
-0.41421356237309503
10
135.625
20
92.555000000000007
10
150.125
20
92.555000000000007
42
-0.41421356237309503
10
150.62500000000003
20
92.055000000000007
0
LWPOLYLINE
5
238
100
AcDbEntity
8
0
100
AcDbPolyline
90
8
70
1
43
0.0
10
183.46250000000001
20
54.455000000000013
10
168.96250000000003
20
54.455000000000013
42
0.41421356237309503
10
168.46250000000001
20
53.955000000000013
10
168.46250000000001
20
42.155000000000015
42
0.41421356237309503
10
168.96250000000003
20
41.655000000000015
10
183.46250000000001
20
41.655000000000015
42
0.41421356237309503
10
183.96250000000003
20
42.155000000000015
10
183.96250000000003
20
53.955000000000013
42
0.41421356237309503
0
LWPOLYLINE
5
239
100
AcDbEntity
8
0
100
AcDbPolyline
90
8
70
1
43
0.0
10
164.41249999999999
20
54.455000000000013
10
149.91250000000002
20
54.455000000000013
42
0.41421356237309503
10
149.41249999999999
20
53.955000000000013
10
149.41249999999999
20
42.155000000000015
42
0.41421356237309503
10
149.91250000000002
20
41.655000000000015
10
164.41249999999999
20
41.655000000000015
42
0.41421356237309503
10
164.91250000000002
20
42.155000000000015
10
164.91250000000002
20
53.955000000000013
42
0.41421356237309503
0
LWPOLYLINE
5
240
100
AcDbEntity
8
0
100
AcDbPolyline
90
8
70
1
43
0.0
10
220.85000000000002
20
61.205000000000013
10
220.85000000000002
20
73.00500000000001
42
-0.41421356237309503
10
221.35000000000002
20
73.50500000000001
10
235.85000000000002
20
73.505000000000024
42
-0.41421356237309503
10
236.35000000000002
20
73.00500000000001
10
236.35000000000002
20
61.205000000000013
42
-0.41421356237309503
10
235.85000000000002
20
60.705000000000013
10
221.35000000000002
20
60.705000000000013
42
-0.41421356237309503
0
LWPOLYLINE
5
241
100
AcDbEntity
8
0
100
AcDbPolyline
90
8
70
1
43
0.0
10
245.87500000000003
20
80.25500000000001
10
245.87500000000003
20
92.055000000000007
42
0.41421356237309503
10
245.375
20
92.555000000000007
10
230.87500000000003
20
92.555000000000007
42
0.41421356237309503
10
230.375
20
92.055000000000007
10
230.375
20
80.25500000000001
42
0.41421356237309503
10
230.87500000000003
20
79.75500000000001
10
245.375
20
79.75500000000001
42
0.41421356237309503
0
LWPOLYLINE
5
242
100
AcDbEntity
8
0
100
AcDbPolyline
90
4
70
1
43
0.0
10
8.766250000000003
20
19.920000000000009
10
8.766250000000003
20
25.130000000000017
10
6.0962500000000013
20
25.130000000000003
10
6.0962500000000013
20
19.920000000000009
0
LWPOLYLINE
5
243
100
AcDbEntity
8
0
100
AcDbPolyline
90
8
70
1
43
0.0
10
121.55000000000001
20
60.705000000000013
10
107.05
20
60.705000000000013
42
-0.41421356237309503
10
106.55
20
61.205000000000013
10
106.55000000000001
20
73.00500000000001
42
-0.41421356237309503
10
107.05
20
73.50500000000001
10
121.55000000000001
20
73.504999999999995
42
-0.41421356237309503
10
122.05
20
73.00500000000001
10
122.05000000000001
20
61.205000000000013
42
-0.41421356237309503
0
LWPOLYLINE
5
244
100
AcDbEntity
8
0
100
AcDbPolyline
90
8
70
1
43
0.0
10
226.82500000000002
20
80.25500000000001
42
-0.41421356237309503
10
226.32499999999999
20
79.75500000000001
10
211.82500000000002
20
79.754999999999995
42
-0.41421356237309503
10
211.32499999999999
20
80.25500000000001
10
211.32499999999999
20
92.055000000000007
42
-0.41421356237309503
10
211.82500000000002
20
92.555000000000007
10
226.32499999999999
20
92.555000000000007
42
-0.41421356237309503
10
226.82500000000002
20
92.055000000000007
0
LWPOLYLINE
5
245
100
AcDbEntity
8
0
100
AcDbPolyline
90
8
70
1
43
0.0
10
112.02500000000001
20
79.75500000000001
10
97.525000000000006
20
79.754999999999995
42
-0.41421356237309503
10
97.025000000000006
20
80.25500000000001
10
97.025000000000006
20
92.055000000000007
42
-0.41421356237309503
10
97.525000000000006
20
92.555000000000007
10
112.02500000000001
20
92.555000000000007
42
-0.41421356237309503
10
112.52500000000001
20
92.055000000000007
10
112.52500000000001
20
80.25500000000001
42
-0.41421356237309503
0
LINE
5
246
100
AcDbEntity
8
0
100
AcDbLine
10
279.74374999999998
20
30.780000000000001
30
0
11
267.94375000000002
21
30.780000000000001
31
0
0
LWPOLYLINE
5
247
100
AcDbEntity
8
0
100
AcDbPolyline
90
8
70
1
43
0.0
10
158.9375
20
34.905000000000008
42
-0.41421356237309503
10
159.4375
20
35.405000000000008
10
173.9375
20
35.405000000000015
42
-0.41421356237309503
10
174.4375
20
34.905000000000008
10
174.4375
20
23.105000000000011
42
-0.41421356237309503
10
173.9375
20
22.605000000000011
10
159.4375
20
22.605000000000004
42
-0.41421356237309503
10
158.9375
20
23.105000000000011
0
LWPOLYLINE
5
248
100
AcDbEntity
8
0
100
AcDbPolyline
90
8
70
1
43
0.0
10
154.88749999999999
20
35.405000000000015
42
-0.41421356237309503
10
155.38749999999999
20
34.905000000000008
10
155.38749999999999
20
23.105000000000011
42
-0.41421356237309503
10
154.88749999999999
20
22.605000000000004
10
140.38749999999999
20
22.605000000000004
42
-0.41421356237309503
10
139.88749999999999
20
23.105000000000011
10
139.88749999999999
20
34.905000000000008
42
-0.41421356237309503
10
140.38749999999999
20
35.405000000000015
0
LWPOLYLINE
5
249
100
AcDbEntity
8
0
100
AcDbPolyline
90
8
70
1
43
0.0
10
178.48750000000001
20
22.605000000000004
42
-0.41421356237309503
10
177.98750000000001
20
23.105000000000011
10
177.98750000000001
20
34.905000000000008
42
-0.41421356237309503
10
178.48750000000001
20
35.405000000000015
10
192.98750000000001
20
35.405000000000015
42
-0.41421356237309503
10
193.48750000000001
20
34.905000000000008
10
193.48750000000001
20
23.105000000000011
42
-0.41421356237309503
10
192.98750000000001
20
22.605000000000004
0
LWPOLYLINE
5
250
100
AcDbEntity
8
0
100
AcDbPolyline
90
8
70
1
43
0.0
10
150.62500000000003
20
4.0550000000000175
42
-0.41421356237309503
10
150.125
20
3.5550000000000104
10
135.625
20
3.5550000000000104
42
-0.41421356237309503
10
135.125
20
4.0550000000000175
10
135.125
20
15.854999999999997
42
-0.41421356237309503
10
135.625
20
16.355000000000004
10
150.125
20
16.355000000000004
42
-0.41421356237309503
10
150.62500000000003
20
15.854999999999997
0
LWPOLYLINE
5
251
100
AcDbEntity
8
0
100
AcDbPolyline
90
8
70
1
43
0.0
10
212.03749999999999
20
35.405000000000015
42
-0.41421356237309503
10
212.53749999999999
20
34.905000000000008
10
212.53749999999999
20
23.105000000000011
42
-0.41421356237309503
10
212.03749999999999
20
22.605000000000011
10
197.53749999999999
20
22.605000000000004
42
-0.41421356237309503
10
197.03749999999999
20
23.105000000000011
10
197.03749999999999
20
34.905000000000008
42
-0.41421356237309503
10
197.53749999999999
20
35.405000000000015
0
LWPOLYLINE
5
252
100
AcDbEntity
8
0
100
AcDbPolyline
90
8
70
1
43
0.0
10
188.01249999999999
20
41.655000000000008
42
-0.41421356237309503
10
187.51249999999999
20
42.155000000000015
10
187.51249999999999
20
53.955000000000013
42
-0.41421356237309503
10
188.01249999999999
20
54.455000000000013
10
202.51249999999999
20
54.45500000000002
42
-0.41421356237309503
10
203.01249999999999
20
53.955000000000013
10
203.01249999999999
20
42.155000000000015
42
-0.41421356237309503
10
202.51249999999999
20
41.655000000000015
0
LWPOLYLINE
5
253
100
AcDbEntity
8
0
100
AcDbPolyline
90
8
70
1
43
0.0
10
207.0625
20
41.655000000000008
42
-0.41421356237309503
10
206.5625
20
42.155000000000015
10
206.5625
20
53.955000000000013
42
-0.41421356237309503
10
207.0625
20
54.455000000000013
10
221.5625
20
54.45500000000002
42
-0.41421356237309503
10
222.0625
20
53.955000000000013
10
222.0625
20
42.155000000000015
42
-0.41421356237309503
10
221.5625
20
41.655000000000015
0
LWPOLYLINE
5
254
100
AcDbEntity
8
0
100
AcDbPolyline
90
20
70
1
43
0.0
10
145.36250000000001
20
54.454999999999998
42
-0.41421356237309503
10
145.86250000000001
20
53.955000000000013
10
145.86250000000004
20
42.155000000000015
42
-0.41421356237309503
10
145.36250000000001
20
41.655000000000015
10
130.86250000000001
20
41.655000000000022
42
-0.41421356237309503
10
130.36250000000001
20
42.155000000000015
10
130.36250000000001
20
46.02943958333838
42
-0.41743879327252165
10
126.8125
20
45.842395623917866
10
126.81250000000003
20
42.155000000000015
42
-0.41421356237309503
10
126.31250000000001
20
41.655000000000015
10
111.8125
20
41.655000000000022
42
-0.41421356237309503
10
111.31250000000001
20
42.155000000000015
10
111.31250000000001
20
53.955000000000013
42
-0.41421356237309503
10
111.8125
20
54.455000000000013
10
126.31250000000001
20
54.454999999999998
42
-0.41421356237309503
10
126.8125
20
53.955000000000013
10
126.8125
20
49.540606104616828
42
-0.41743879327251948
10
130.36250000000001
20
49.353562145196328
10
130.36250000000001
20
53.955000000000013
42
-0.41421356237309503
10
130.86250000000001
20
54.455000000000013
0
LWPOLYLINE
5
255
100
AcDbEntity
8
0
100
AcDbPolyline
90
8
70
1
43
0.0
10
231.08750000000001
20
35.405000000000015
42
-0.41421356237309503
10
231.58750000000001
20
34.905000000000008
10
231.58750000000001
20
23.105000000000011
42
-0.41421356237309503
10
231.08750000000001
20
22.605000000000011
10
216.58750000000001
20
22.605000000000004
42
-0.41421356237309503
10
216.08750000000001
20
23.105000000000011
10
216.08750000000001
20
34.905000000000008
42
-0.41421356237309503
10
216.58750000000001
20
35.405000000000008
0
LWPOLYLINE
5
256
100
AcDbEntity
8
0
100
AcDbPolyline
90
8
70
1
43
0.0
10
226.11250000000001
20
41.655000000000008
42
-0.41421356237309503
10
225.61250000000001
20
42.155000000000015
10
225.61250000000001
20
53.955000000000013
42
-0.41421356237309503
10
226.11250000000001
20
54.455000000000013
10
240.61250000000001
20
54.45500000000002
42
-0.41421356237309503
10
241.11250000000001
20
53.955000000000013
10
241.11250000000001
20
42.155000000000015
42
-0.41421356237309503
10
240.61250000000001
20
41.655000000000015
0
LWPOLYLINE
5
257
100
AcDbEntity
8
0
100
AcDbPolyline
90
8
70
1
43
0.0
10
192.77500000000003
20
79.754999999999995
42
-0.41421356237309503
10
192.27500000000003
20
80.25500000000001
10
192.27500000000003
20
92.055000000000007
42
-0.41421356237309503
10
192.77500000000003
20
92.555000000000007
10
207.27500000000003
20
92.555000000000007
42
-0.41421356237309503
10
207.77500000000003
20
92.055000000000007
10
207.77500000000003
20
80.25500000000001
42
-0.41421356237309503
10
207.27500000000003
20
79.75500000000001
0
LWPOLYLINE
5
258
100
AcDbEntity
8
0
100
AcDbPolyline
90
8
70
1
43
0.0
10
202.30000000000004
20
60.705000000000013
42
-0.41421356237309503
10
201.80000000000004
20
61.205000000000013
10
201.80000000000004
20
73.00500000000001
42
-0.41421356237309503
10
202.30000000000004
20
73.50500000000001
10
216.80000000000004
20
73.505000000000024
42
-0.41421356237309503
10
217.30000000000004
20
73.00500000000001
10
217.30000000000004
20
61.205000000000013
42
-0.41421356237309503
10
216.80000000000004
20
60.705000000000013
0
LINE
5
259
100
AcDbEntity
8
0
100
AcDbLine
10
279.74374999999998
20
46.280000000000008
30
0
11
267.94375000000002
21
46.280000000000008
31
0
0
LWPOLYLINE
5
260
100
AcDbEntity
8
0
100
AcDbPolyline
90
8
70
1
43
0.0
10
240.40000000000003
20
60.705000000000013
42
-0.41421356237309503
10
239.90000000000003
20
61.205000000000013
10
239.90000000000003
20
73.00500000000001
42
-0.41421356237309503
10
240.40000000000003
20
73.50500000000001
10
254.90000000000003
20
73.505000000000024
42
-0.41421356237309503
10
255.40000000000003
20
73.00500000000001
10
255.40000000000003
20
61.205000000000013
42
-0.41421356237309503
10
254.90000000000003
20
60.705000000000013
0
ARC
5
261
100
AcDbEntity
8
0
100
AcDbCircle
10
267.94375000000002
20
45.780000000000015
30
0
40
0.49999999999999822
210
0
220
-0
230
1
100
AcDbArc
50
90
51
180
0
LWPOLYLINE
5
262
100
AcDbEntity
8
0
100
AcDbPolyline
90
8
70
1
43
0.0
10
88.212500000000006
20
54.45500000000002
42
-0.41421356237309503
10
88.71250000000002
20
53.955000000000013
10
88.712500000000006
20
42.155000000000015
42
-0.41421356237309503
10
88.212500000000006
20
41.655000000000015
10
73.712500000000006
20
41.655000000000015
42
-0.41421356237309503
10
73.212500000000006
20
42.155000000000015
10
73.212500000000006
20
53.955000000000013
42
-0.41421356237309503
10
73.712500000000006
20
54.455000000000013
0
LWPOLYLINE
5
263
100
AcDbEntity
8
0
100
AcDbPolyline
90
8
70
1
43
0.0
10
78.474999999999994
20
79.754999999999995
42
-0.41421356237309503
10
77.974999999999994
20
80.25500000000001
10
77.974999999999994
20
92.055000000000007
42
-0.41421356237309503
10
78.474999999999994
20
92.555000000000007
10
92.974999999999994
20
92.555000000000007
42
-0.41421356237309503
10
93.474999999999994
20
92.055000000000007
10
93.474999999999994
20
80.25500000000001
42
-0.41421356237309503
10
92.974999999999994
20
79.75500000000001
0
LWPOLYLINE
5
264
100
AcDbEntity
8
0
100
AcDbPolyline
90
8
70
1
43
0.0
10
30.349999999999998
20
15.854999999999997
42
-0.41421356237309503
10
30.850000000000005
20
16.355000000000004
10
45.350000000000001
20
16.354999999999997
42
-0.41421356237309503
10
45.850000000000001
20
15.854999999999997
10
45.850000000000009
20
4.0550000000000175
42
-0.41421356237309503
10
45.350000000000001
20
3.5550000000000104
10
30.850000000000005
20
3.5550000000000148
42
-0.41421356237309503
10
30.350000000000001
20
4.0550000000000175
0
LWPOLYLINE
5
265
100
AcDbEntity
8
0
100
AcDbPolyline
90
8
70
1
43
0.0
10
103
20
61.205000000000013
10
103
20
73.00500000000001
42
0.41421356237309503
10
102.5
20
73.50500000000001
10
88
20
73.50500000000001
42
0.41421356237309503
10
87.5
20
73.00500000000001
10
87.5
20
61.205000000000013
42
0.41421356237309503
10
88
20
60.705000000000013
10
102.5
20
60.705000000000013
42
0.41421356237309503
0
LWPOLYLINE
5
266
100
AcDbEntity
8
0
100
AcDbPolyline
90
8
70
1
43
0.0
10
107.2625
20
54.455000000000013
10
92.762500000000017
20
54.455000000000013
42
0.41421356237309503
10
92.262500000000003
20
53.955000000000013
10
92.262500000000003
20
42.155000000000015
42
0.41421356237309503
10
92.762500000000017
20
41.655000000000015
10
107.2625
20
41.655000000000015
42
0.41421356237309503
10
107.76250000000002
20
42.155000000000015
10
107.76250000000002
20
53.955000000000013
42
0.41421356237309503
0
LWPOLYLINE
5
267
100
AcDbEntity
8
0
100
AcDbPolyline
90
9
70
1
43
0.0
10
264.85874999999999
20
51.195000000000022
10
269.86875000000003
20
51.195000000000007
10
269.96875
20
51.195000000000007
10
269.96875
20
51.295000000000002
10
269.96875
20
53.865000000000016
10
264.85874999999999
20
53.865000000000016
10
264.75875000000002
20
53.865000000000016
10
264.75875000000002
20
51.294999999999995
10
264.75875000000002
20
51.195000000000022
0
LWPOLYLINE
5
268
100
AcDbEntity
8
0
100
AcDbPolyline
90
8
70
1
43
0.0
10
98.237500000000011
20
23.105000000000011
42
-0.41421356237309503
10
97.737499999999997
20
22.605000000000004
10
83.237500000000011
20
22.605000000000004
42
-0.41421356237309503
10
82.737499999999997
20
23.105000000000011
10
82.737499999999997
20
34.905000000000008
42
-0.41421356237309503
10
83.237500000000011
20
35.405000000000015
10
97.737499999999997
20
35.405000000000015
42
-0.41421356237309503
10
98.237500000000011
20
34.905000000000008
0
LWPOLYLINE
5
269
100
AcDbEntity
8
0
100
AcDbPolyline
90
8
70
1
43
0.0
10
236.35000000000002
20
4.0550000000000175
42
-0.41421356237309503
10
235.85000000000002
20
3.5550000000000104
10
221.35000000000002
20
3.5550000000000104
42
-0.41421356237309503
10
220.85000000000002
20
4.0550000000000175
10
220.85000000000002
20
15.854999999999997
42
-0.41421356237309503
10
221.35000000000002
20
16.355000000000004
10
235.85000000000002
20
16.355000000000004
42
-0.41421356237309503
10
236.35000000000002
20
15.854999999999997
0
LWPOLYLINE
5
270
100
AcDbEntity
8
0
100
AcDbPolyline
90
8
70
1
43
0.0
10
101.78750000000001
20
23.105000000000011
10
101.78750000000001
20
34.905000000000008
42
-0.41421356237309503
10
102.28749999999999
20
35.405000000000008
10
116.78750000000001
20
35.405000000000015
42
-0.41421356237309503
10
117.28750000000002
20
34.905000000000008
10
117.28750000000002
20
23.105000000000011
42
-0.41421356237309503
10
116.78750000000001
20
22.605000000000004
10
102.28749999999999
20
22.605000000000022
42
-0.41421356237309503
0
LWPOLYLINE
5
271
100
AcDbEntity
8
0
100
AcDbPolyline
90
8
70
1
43
0.0
10
126.09999999999999
20
60.705000000000027
42
-0.41421356237309503
10
125.60000000000001
20
61.205000000000013
10
125.59999999999999
20
73.00500000000001
42
-0.41421356237309503
10
126.09999999999999
20
73.50500000000001
10
140.59999999999999
20
73.504999999999995
42
-0.41421356237309503
10
141.09999999999999
20
73.00500000000001
10
141.10000000000002
20
61.205000000000013
42
-0.41421356237309503
10
140.59999999999999
20
60.705000000000013
0
LWPOLYLINE
5
272
100
AcDbEntity
8
0
100
AcDbPolyline
90
8
70
1
43
0.0
10
59.63750000000001
20
35.405000000000015
10
45.13750000000001
20
35.405000000000008
42
0.41421356237309503
10
44.63750000000001
20
34.905000000000008
10
44.637500000000003
20
23.105000000000011
42
0.41421356237309503
10
45.13750000000001
20
22.605000000000011
10
59.63750000000001
20
22.605000000000011
42
0.41421356237309503
10
60.13750000000001
20
23.105000000000011
10
60.13750000000001
20
34.905000000000008
42
0.41421356237309503
0
LWPOLYLINE
5
273
100
AcDbEntity
8
0
100
AcDbPolyline
90
8
70
1
43
0.0
10
79.187500000000014
20
23.105000000000011
42
-0.41421356237309503
10
78.6875
20
22.605000000000004
10
64.1875
20
22.605000000000011
42
-0.41421356237309503
10
63.6875
20
23.105000000000011
10
63.6875
20
34.905000000000008
42
-0.41421356237309503
10
64.1875
20
35.405000000000008
10
78.6875
20
35.405000000000008
42
-0.41421356237309503
10
79.1875
20
34.905000000000008
0
LWPOLYLINE
5
274
100
AcDbEntity
8
0
100
AcDbPolyline
90
8
70
1
43
0.0
10
49.399999999999991
20
15.854999999999997
42
-0.41421356237309503
10
49.900000000000006
20
16.355000000000004
10
64.400000000000006
20
16.354999999999997
42
-0.41421356237309503
10
64.900000000000006
20
15.854999999999997
10
64.90000000000002
20
4.0550000000000175
42
-0.41421356237309503
10
64.400000000000006
20
3.5550000000000104
10
49.900000000000006
20
3.5550000000000193
42
-0.41421356237309503
10
49.400000000000006
20
4.0550000000000175
0
LWPOLYLINE
5
275
100
AcDbEntity
8
0
100
AcDbPolyline
90
8
70
1
43
0.0
10
116.075
20
80.25500000000001
10
116.075
20
92.055000000000007
42
-0.41421356237309503
10
116.575
20
92.555000000000007
10
131.07499999999999
20
92.554999999999993
42
-0.41421356237309503
10
131.57499999999999
20
92.055000000000007
10
131.57499999999999
20
80.25500000000001
42
-0.41421356237309503
10
131.07499999999999
20
79.75500000000001
10
116.575
20
79.754999999999995
42
-0.41421356237309503
0
LWPOLYLINE
5
276
100
AcDbEntity
8
0
100
AcDbPolyline
90
12
70
1
43
0.0
10
34.096249999999998
20
20.420000000000016
10
34.096249999999998
20
24.63000000000001
10
34.096249999999998
20
25.130000000000017
10
34.596249999999998
20
25.130000000000017
10
36.266249999999999
20
25.13000000000001
10
36.766249999999999
20
25.13000000000001
10
36.766249999999999
20
24.63000000000001
10
36.766249999999999
20
20.420000000000016
10
36.766249999999999
20
19.920000000000009
10
36.266249999999999
20
19.920000000000009
10
34.596249999999998
20
19.920000000000009
10
34.096249999999998
20
19.920000000000009
0
LWPOLYLINE
5
277
100
AcDbEntity
8
0
100
AcDbPolyline
90
8
70
1
43
0.0
10
9.4187499999999993
20
41.655000000000015
42
-0.41421356237309503
10
8.9187499999999993
20
42.155000000000015
10
8.9187500000000028
20
53.955000000000013
42
-0.41421356237309503
10
9.4187499999999993
20
54.455000000000013
10
23.918750000000003
20
54.455000000000013
42
-0.41421356237309503
10
24.418749999999999
20
53.955000000000013
10
24.418749999999999
20
42.155000000000015
42
-0.41421356237309503
10
23.918750000000003
20
41.655000000000015
0
LWPOLYLINE
5
278
100
AcDbEntity
8
0
100
AcDbPolyline
90
8
70
1
43
0.0
10
120.83750000000001
20
34.905000000000008
42
-0.41421356237309503
10
121.33750000000001
20
35.405000000000015
10
135.83750000000003
20
35.405000000000015
42
-0.41421356237309503
10
136.33750000000003
20
34.905000000000008
10
136.33750000000003
20
23.105000000000011
42
-0.41421356237309503
10
135.83750000000003
20
22.605000000000004
10
121.33750000000001
20
22.605000000000022
42
-0.41421356237309503
10
120.83750000000002
20
23.105000000000011
0
LWPOLYLINE
5
279
100
AcDbEntity
8
0
100
AcDbPolyline
90
8
70
1
43
0.0
10
21.537500000000001
20
60.705000000000013
10
7.0374999999999996
20
60.70500000000002
42
-0.41421356237309503
10
6.5374999999999996
20
61.205000000000013
10
6.5375000000000014
20
73.00500000000001
42
-0.41421356237309503
10
7.0374999999999988
20
73.50500000000001
10
21.537500000000001
20
73.50500000000001
42
-0.41421356237309503
10
22.037499999999998
20
73.00500000000001
10
22.037500000000009
20
61.205000000000013
42
-0.41421356237309503
0
LWPOLYLINE
5
280
100
AcDbEntity
8
0
100
AcDbPolyline
90
4
70
1
43
0.0
10
282.03500000000008
20
77.070000000000022
10
279.36500000000001
20
77.070000000000022
10
279.36500000000001
20
82.280000000000015
10
282.03500000000008
20
82.280000000000015
0
LWPOLYLINE
5
281
100
AcDbEntity
8
0
100
AcDbPolyline
90
8
70
1
43
0.0
10
17.274999999999999
20
80.25500000000001
42
-0.41421356237309503
10
16.774999999999999
20
79.75500000000001
10
2.2749999999999999
20
79.75500000000001
42
-0.41421356237309503
10
1.7749999999999999
20
80.25500000000001
10
1.774999999999993
20
92.055000000000007
42
-0.41421356237309503
10
2.2750000000000004
20
92.555000000000007
10
16.774999999999999
20
92.555000000000007
42
-0.41421356237309503
10
17.274999999999999
20
92.055000000000007
0
LWPOLYLINE
5
282
100
AcDbEntity
8
0
100
AcDbPolyline
90
8
70
1
43
0.0
10
264.21249999999998
20
60.705000000000013
42
-0.41421356237309503
10
263.71249999999998
20
61.205000000000013
10
263.71249999999998
20
73.00500000000001
42
-0.41421356237309503
10
264.21249999999998
20
73.50500000000001
10
278.71249999999998
20
73.505000000000024
42
-0.41421356237309503
10
279.21249999999998
20
73.00500000000001
10
279.21249999999998
20
61.205000000000013
42
-0.41421356237309503
10
278.71249999999998
20
60.705000000000013
0
LWPOLYLINE
5
283
100
AcDbEntity
8
0
100
AcDbPolyline
90
8
70
1
43
0.0
10
259.44999999999999
20
79.754999999999995
42
-0.41421356237309503
10
258.94999999999999
20
80.25500000000001
10
258.94999999999999
20
92.055000000000007
42
-0.41421356237309503
10
259.44999999999999
20
92.555000000000007
10
273.94999999999999
20
92.555000000000007
42
-0.41421356237309503
10
274.44999999999999
20
92.055000000000007
10
274.44999999999999
20
80.25500000000001
42
-0.41421356237309503
10
273.94999999999999
20
79.75500000000001
0
LWPOLYLINE
5
284
100
AcDbEntity
8
0
100
AcDbPolyline
90
4
70
1
43
0.0
10
254.03500000000003
20
82.280000000000015
10
251.36500000000001
20
82.280000000000015
10
251.36500000000001
20
77.070000000000022
10
254.03500000000003
20
77.070000000000022
0
ARC
5
285
100
AcDbEntity
8
0
100
AcDbCircle
10
279.74374999999998
20
31.280000000000001
30
0
40
0.49999999999999822
210
0
220
0
230
1
100
AcDbArc
50
-90
51
0
0
LINE
5
286
100
AcDbEntity
8
0
100
AcDbLine
10
267.44375000000002
20
45.780000000000015
30
0
11
267.44375000000002
21
31.280000000000001
31
0
0
ARC
5
287
100
AcDbEntity
8
0
100
AcDbCircle
10
267.94375000000002
20
31.280000000000001
30
0
40
0.49999999999997158
210
0
220
0
230
1
100
AcDbArc
50
180
51
270
0
ARC
5
288
100
AcDbEntity
8
0
100
AcDbCircle
10
279.74374999999998
20
45.780000000000015
30
0
40
0.50000000000000711
210
0
220
0
230
1
100
AcDbArc
50
0
51
90
0
LINE
5
289
100
AcDbEntity
8
0
100
AcDbLine
10
280.24374999999998
20
45.780000000000015
30
0
11
280.24374999999998
21
40.257707220216588
31
0
0
LINE
5
290
100
AcDbEntity
8
0
100
AcDbLine
10
280.24374999999998
20
36.725603564981967
30
0
11
280.24374999999998
21
31.280000000000001
31
0
0
LWPOLYLINE
5
291
100
AcDbEntity
8
0
100
AcDbPolyline
90
4
70
1
43
0.0
10
109.94131526382718
20
10.966144099142703
10
112.07491526382718
20
10.966144099142703
10
112.07491526382718
20
8.7817440991426921
10
109.94131526382718
20
8.7817440991426921
0
LWPOLYLINE
5
292
100
AcDbEntity
8
0
100
AcDbPolyline
90
4
70
1
43
0.0
10
99.907997298751127
20
8.7817440991426921
10
97.77439729875114
20
8.7817440991426921
10
97.77439729875114
20
10.966144099142721
10
99.907997298751127
20
10.966144099142721
0
CIRCLE
5
293
100
AcDbEntity
8
0
100
AcDbCircle
10
104.92465628128915
20
9.7739428257477279
30
0
40
3.2385000000000028
210
0
220
0
230
1
0
LWPOLYLINE
5
294
100
AcDbEntity
8
0
100
AcDbPolyline
90
4
70
1
43
0.0
10
175.80868473617329
20
10.966144099142756
10
175.80868473617357
20
8.7817440991427276
10
173.67508473617329
20
8.7817440991427276
10
173.67508473617329
20
10.966144099142721
0
LWPOLYLINE
5
295
100
AcDbEntity
8
0
100
AcDbPolyline
90
4
70
1
43
0.0
10
187.97560270124961
20
8.7817440991427276
10
185.84200270124956
20
8.7817440991427276
10
185.84200270124961
20
10.966144099142738
10
187.97560270124961
20
10.966144099142756
0
CIRCLE
5
296
100
AcDbEntity
8
0
100
AcDbCircle
10
180.82534371871148
20
9.7739428257477456
30
0
40
3.2384999999999668
210
0
220
0
230
1
0
LWPOLYLINE
5
297
100
AcDbEntity
8
0
100
AcDbPolyline
90
4
70
1
43
0.0
10
244.35213974198882
20
39.654941536686373
10
41.213039259977897
20
39.654941536686373
42
0.99999999999999989
10
41.213039259977897
20
37.41970948786156
10
244.35213974198882
20
37.419709487861567
42
0.99999999999999989
0
LWPOLYLINE
5
298
100
AcDbEntity
8
0
100
AcDbPolyline
90
4
70
1
43
0.0
10
96.241500000000002
20
6.0804999999999687
10
98.908500000000004
20
6.0804999999999687
10
98.908500000000004
20
0.87279999999996249
10
96.241500000000002
20
0.87279999999996249
0
LWPOLYLINE
5
299
100
AcDbEntity
8
0
100
AcDbPolyline
90
4
70
1
43
0.0
10
83.658000000000001
20
0.8716499999999705
10
83.658000000000001
20
6.0793499999999767
10
86.325000000000003
20
6.0793499999999767
10
86.325000000000003
20
0.8716499999999705
0
LWPOLYLINE
5
300
100
AcDbEntity
8
0
100
AcDbPolyline
90
4
70
1
43
0.0
10
86.325000000000003
20
19.03934999999997
10
86.325000000000003
20
13.831649999999929
10
83.658000000000001
20
13.831649999999929
10
83.658000000000001
20
19.03934999999997
0
LWPOLYLINE
5
301
100
AcDbEntity
8
0
100
AcDbPolyline
90
4
70
1
43
0.0
10
96.241500000000002
20
19.040499999999962
10
98.908500000000004
20
19.040499999999962
10
98.908500000000004
20
13.832799999999921
10
96.241500000000002
20
13.832799999999921
0
LWPOLYLINE
5
302
100
AcDbEntity
8
0
100
AcDbPolyline
90
4
70
1
43
0.0
10
202.09200000000004
20
19.03934999999997
10
202.09200000000004
20
13.831649999999929
10
199.42500000000001
20
13.831649999999929
10
199.42500000000001
20
19.03934999999997
0
LWPOLYLINE
5
303
100
AcDbEntity
8
0
100
AcDbPolyline
90
4
70
1
43
0.0
10
202.09200000000004
20
6.0793499999999767
10
202.09200000000004
20
0.8716499999999705
10
199.42500000000001
20
0.8716499999999705
10
199.42500000000001
20
6.0793499999999767
0
LWPOLYLINE
5
304
100
AcDbEntity
8
0
100
AcDbPolyline
90
4
70
1
43
0.0
10
186.8415
20
6.0804999999999687
10
189.50850000000003
20
6.0804999999999687
10
189.50850000000003
20
0.87279999999996249
10
186.8415
20
0.87279999999996249
0
LWPOLYLINE
5
305
100
AcDbEntity
8
0
100
AcDbPolyline
90
4
70
1
43
0.0
10
186.8415
20
13.832799999999921
10
186.8415
20
19.040499999999962
10
189.50850000000003
20
19.040499999999962
10
189.50850000000003
20
13.832799999999921
0
LWPOLYLINE
5
306
100
AcDbEntity
8
0
100
AcDbPolyline
90
9
70
1
43
0.0
10
277.81875000000002
20
53.865000000000016
10
282.92875000000004
20
53.865000000000016
10
282.92875000000004
20
51.295000000000002
10
282.92875000000004
20
51.195000000000007
10
282.82875000000001
20
51.195000000000007
10
277.81875000000002
20
51.195000000000022
10
277.71875
20
51.195000000000022
10
277.71875
20
51.294999999999995
10
277.71875
20
53.865000000000016
0
LWPOLYLINE
5
307
100
AcDbEntity
8
0
100
AcDbPolyline
90
9
70
1
43
0.0
10
277.71875
20
23.294999999999995
10
277.71875
20
25.865000000000016
10
277.81875000000002
20
25.865000000000016
10
282.92875000000004
20
25.865000000000016
10
282.92875000000004
20
23.295000000000002
10
282.92875000000004
20
23.195000000000007
10
282.82875000000001
20
23.195000000000007
10
277.81875000000002
20
23.195000000000022
10
277.71875
20
23.195000000000022
0
LWPOLYLINE
5
308
100
AcDbEntity
8
0
100
AcDbPolyline
90
9
70
1
43
0.0
10
269.96875
20
23.195000000000007
10
269.86875000000003
20
23.195000000000007
10
264.85874999999999
20
23.195000000000022
10
264.75875000000002
20
23.195000000000022
10
264.75875000000002
20
23.294999999999995
10
264.75875000000002
20
25.865000000000016
10
264.85874999999999
20
25.865000000000016
10
269.96875
20
25.865000000000016
10
269.96875
20
23.295000000000002
0
ENDSEC
0
SECTION
2
OBJECTS
0
DICTIONARY
5
C
100
AcDbDictionary
3
ACAD_GROUP
350
D
3
ACAD_MLINESTYLE
350
17
0
DICTIONARY
5
D
100
AcDbDictionary
0
DICTIONARY
5
1A
330
C
100
AcDbDictionary
0
DICTIONARY
5
17
100
AcDbDictionary
0
ENDSEC
0
EOF
