0
SECTION
2
HEADER
9
$INSUNITS
70
4
9
$ACADVER
1
AC1014
9
$HANDSEED
5
FFFF
0
ENDSEC
0
SECTION
2
TABLES
0
TABLE
2
VPORT
5
8
100
AcDbSymbolTable
0
ENDTAB
0
TABLE
2
LTYPE
5
5
100
AcDbSymbolTable
0
LTYPE
5
14
100
AcDbSymbolTableRecord
100
AcDbLinetypeTableRecord
2
BYBLOCK
70
0
0
LTYPE
5
15
100
AcDbSymbolTableRecord
100
AcDbLinetypeTableRecord
2
BYLAYER
70
0
0
ENDTAB
0
TABLE
2
LAYER
5
2
100
AcDbSymbolTable
70
2
0
LAYER
5
50
100
AcDbSymbolTableRecord
100
AcDbLayerTableRecord
2
0
70
0
6
CONTINUOUS
0
ENDTAB
0
TABLE
2
STYLE
5
3
100
AcDbSymbolTable
70
1
0
STYLE
5
11
100
AcDbSymbolTableRecord
100
AcDbTextStyleTableRecord
2
STANDARD
70
0
0
ENDTAB
0
TABLE
2
VIEW
5
6
100
AcDbSymbolTable
70
0
0
ENDTAB
0
TABLE
2
UCS
5
7
100
AcDbSymbolTable
70
0
0
ENDTAB
0
TABLE
2
APPID
5
9
100
AcDbSymbolTable
70
2
0
APPID
5
12
100
AcDbSymbolTableRecord
100
AcDbRegAppTableRecord
2
ACAD
70
0
0
ENDTAB
0
TABLE
2
DIMSTYLE
5
A
100
AcDbSymbolTable
70
1
0
ENDTAB
0
TABLE
2
BLOCK_RECORD
5
1
100
AcDbSymbolTable
70
1
0
BLOCK_RECORD
5
1F
100
AcDbSymbolTableRecord
100
AcDbBlockTableRecord
2
*MODEL_SPACE
0
BLOCK_RECORD
5
1B
100
AcDbSymbolTableRecord
100
AcDbBlockTableRecord
2
*PAPER_SPACE
0
ENDTAB
0
ENDSEC
0
SECTION
2
BLOCKS
0
BLOCK
5
20
100
AcDbEntity
100
AcDbBlockBegin
2
*MODEL_SPACE
0
ENDBLK
5
21
100
AcDbEntity
100
AcDbBlockEnd
0
BLOCK
5
1C
100
AcDbEntity
100
AcDbBlockBegin
2
*PAPER_SPACE
0
ENDBLK
5
1D
100
AcDbEntity
100
AcDbBlockEnd
0
ENDSEC
0
SECTION
2
ENTITIES
0
LWPOLYLINE
5
100
100
AcDbEntity
8
0
100
AcDbPolyline
90
8
70
1
43
0.0
10
263.33749999999998
20
-91.100000000000023
10
263.33749999999998
20
-79.30000000000004
42
-0.41421356237309503
10
263.83749999999998
20
-78.800000000000026
10
278.33749999999998
20
-78.800000000000026
42
-0.41421356237309503
10
278.83749999999998
20
-79.30000000000004
10
278.83749999999998
20
-91.100000000000023
42
-0.41421356237309503
10
278.33749999999998
20
-91.599999999999994
10
263.83749999999998
20
-91.600000000000037
42
-0.41421356237309503
0
LWPOLYLINE
5
101
100
AcDbEntity
8
0
100
AcDbPolyline
90
8
70
1
43
0.0
10
240.23750000000001
20
-53.500000000000014
10
225.73750000000001
20
-53.500000000000014
42
-0.41421356237309503
10
225.23750000000001
20
-53.000000000000007
10
225.23750000000004
20
-41.20000000000001
42
-0.41421356237309503
10
225.73750000000001
20
-40.700000000000038
10
240.23750000000001
20
-40.700000000000003
42
-0.41421356237309503
10
240.73750000000001
20
-41.20000000000001
10
240.73750000000001
20
-53.000000000000007
42
-0.41421356237309503
0
LWPOLYLINE
5
102
100
AcDbEntity
8
0
100
AcDbPolyline
90
8
70
1
43
0.0
10
54.500000000000014
20
-15.400000000000027
10
40.000000000000007
20
-15.400000000000027
42
-0.41421356237309503
10
39.5
20
-14.90000000000002
10
39.5
20
-3.1000000000000227
42
-0.41421356237309503
10
40.000000000000007
20
-2.6000000000000156
10
54.500000000000014
20
-2.6000000000000245
42
-0.41421356237309503
10
55.000000000000007
20
-3.1000000000000227
10
55.000000000000014
20
-14.90000000000002
42
-0.41421356237309503
0
LWPOLYLINE
5
103
100
AcDbEntity
8
0
100
AcDbPolyline
90
8
70
1
43
0.0
10
268.10000000000002
20
-60.250000000000021
42
-0.41421356237309503
10
268.60000000000002
20
-59.750000000000014
10
283.10000000000002
20
-59.750000000000014
42
-0.41421356237309503
10
283.60000000000002
20
-60.250000000000021
10
283.60000000000002
20
-72.050000000000011
42
-0.41421356237309503
10
283.10000000000002
20
-72.550000000000026
10
268.60000000000002
20
-72.550000000000026
42
-0.41421356237309503
10
268.10000000000002
20
-72.050000000000011
0
LWPOLYLINE
5
104
100
AcDbEntity
8
0
100
AcDbPolyline
90
8
70
1
43
0.0
10
245.5
20
-14.90000000000002
10
245.5
20
-3.1000000000000227
42
0.41421356237309503
10
245
20
-2.6000000000000156
10
230.5
20
-2.6000000000000156
42
0.41421356237309503
10
230
20
-3.1000000000000227
10
230
20
-14.90000000000002
42
0.41421356237309503
10
230.5
20
-15.400000000000027
10
245
20
-15.400000000000027
42
0.41421356237309503
0
LWPOLYLINE
5
105
100
AcDbEntity
8
0
100
AcDbPolyline
90
8
70
1
43
0.0
10
259.07499999999999
20
-15.400000000000027
42
-0.41421356237309503
10
258.57499999999999
20
-14.90000000000002
10
258.57499999999999
20
-3.1000000000000227
42
-0.41421356237309503
10
259.07499999999999
20
-2.6000000000000156
10
273.57499999999999
20
-2.6000000000000156
42
-0.41421356237309503
10
274.07499999999999
20
-3.1000000000000227
10
274.07499999999999
20
-14.90000000000002
42
-0.41421356237309503
10
273.57499999999999
20
-15.400000000000027
0
LWPOLYLINE
5
106
100
AcDbEntity
8
0
100
AcDbPolyline
90
8
70
1
43
0.0
10
251.49000000000001
20
-18.085000000000022
42
-0.41421356237309503
10
250.99000000000001
20
-17.585000000000015
10
250.99000000000001
20
-13.375000000000021
42
-0.41421356237309503
10
251.49000000000001
20
-12.875000000000014
10
253.16
20
-12.875000000000014
42
-0.41421356237309503
10
253.66
20
-13.375000000000021
10
253.66
20
-17.585000000000015
42
-0.41421356237309503
10
253.16
20
-18.085000000000022
0
LWPOLYLINE
5
107
100
AcDbEntity
8
0
100
AcDbPolyline
90
8
70
1
43
0.0
10
13.306249999999995
20
-60.250000000000021
42
-0.41421356237309503
10
13.806250000000002
20
-59.750000000000014
10
28.306249999999999
20
-59.750000000000021
42
-0.41421356237309503
10
28.806249999999999
20
-60.250000000000021
10
28.806250000000006
20
-72.050000000000011
42
-0.41421356237309503
10
28.306249999999999
20
-72.550000000000026
10
13.806250000000002
20
-72.550000000000026
42
-0.41421356237309503
10
13.306249999999999
20
-72.050000000000011
0
LWPOLYLINE
5
108
100
AcDbEntity
8
0
100
AcDbPolyline
90
8
70
1
43
0.0
10
159.06250000000003
20
-72.550000000000026
42
-0.41421356237309503
10
158.5625
20
-72.050000000000011
10
158.5625
20
-60.250000000000021
42
-0.41421356237309503
10
159.06250000000003
20
-59.750000000000014
10
173.5625
20
-59.750000000000014
42
-0.41421356237309503
10
174.0625
20
-60.250000000000021
10
174.0625
20
-72.050000000000011
42
-0.41421356237309503
10
173.5625
20
-72.550000000000026
0
LWPOLYLINE
5
109
100
AcDbEntity
8
0
100
AcDbPolyline
90
8
70
1
43
0.0
10
35.450000000000003
20
-2.6000000000000245
42
-0.41421356237309503
10
35.950000000000003
20
-3.1000000000000227
10
35.95000000000001
20
-14.90000000000002
42
-0.41421356237309503
10
35.450000000000003
20
-15.400000000000027
10
20.949999999999996
20
-15.400000000000018
42
-0.41421356237309503
10
20.449999999999999
20
-14.90000000000002
10
20.449999999999989
20
-3.1000000000000227
42
-0.41421356237309503
10
20.949999999999996
20
-2.6000000000000156
0
LWPOLYLINE
5
110
100
AcDbEntity
8
0
100
AcDbPolyline
90
8
70
1
43
0.0
10
277.10874999999999
20
-56.185000000000045
42
-0.41421356237309503
10
276.60874999999999
20
-55.685000000000038
10
276.60874999999999
20
-51.475000000000009
42
-0.41421356237309503
10
277.10874999999999
20
-50.975000000000001
10
278.77875
20
-50.975000000000001
42
-0.41421356237309503
10
279.27875
20
-51.475000000000009
10
279.27874999999995
20
-55.685000000000038
42
-0.41421356237309503
10
278.77875
20
-56.185000000000009
0
LWPOLYLINE
5
111
100
AcDbEntity
8
0
100
AcDbPolyline
90
8
70
1
43
0.0
10
155.01250000000002
20
-72.050000000000011
10
155.01250000000002
20
-60.250000000000021
42
0.41421356237309503
10
154.51249999999999
20
-59.750000000000014
10
140.01250000000002
20
-59.750000000000014
42
0.41421356237309503
10
139.51249999999999
20
-60.250000000000021
10
139.51249999999999
20
-72.050000000000011
42
0.41421356237309503
10
140.01250000000002
20
-72.550000000000026
10
154.51249999999999
20
-72.550000000000026
42
0.41421356237309503
0
LWPOLYLINE
5
112
100
AcDbEntity
8
0
100
AcDbPolyline
90
8
70
1
43
0.0
10
1.9000000000000004
20
-15.40000000000002
42
-0.41421356237309503
10
1.4000000000000001
20
-14.90000000000002
10
1.3999999999999932
20
-3.1000000000000227
42
-0.41421356237309503
10
1.8999999999999995
20
-2.6000000000000156
10
16.400000000000002
20
-2.6000000000000245
42
-0.41421356237309503
10
16.899999999999999
20
-3.1000000000000227
10
16.900000000000009
20
-14.90000000000002
42
-0.41421356237309503
10
16.400000000000002
20
-15.400000000000027
0
LWPOLYLINE
5
113
100
AcDbEntity
8
0
100
AcDbPolyline
90
8
70
1
43
0.0
10
6.1625000000000281
20
-22.149999999999999
42
-0.41421356237309503
10
6.6624999999999996
20
-21.650000000000027
10
21.162500000000001
20
-21.649999999999995
42
-0.41421356237309503
10
21.662500000000001
20
-22.149999999999999
10
21.662499999999973
20
-33.950000000000031
42
-0.41421356237309503
10
21.162500000000001
20
-34.450000000000003
10
6.6624999999999996
20
-34.450000000000031
42
-0.41421356237309503
10
6.1624999999999996
20
-33.950000000000031
0
LWPOLYLINE
5
114
100
AcDbEntity
8
0
100
AcDbPolyline
90
8
70
1
43
0.0
10
23.543750000000003
20
-40.70000000000001
42
-0.41421356237309503
10
24.043749999999999
20
-41.20000000000001
10
24.04375000000001
20
-53.000000000000007
42
-0.41421356237309503
10
23.543750000000003
20
-53.500000000000014
10
9.0437500000000011
20
-53.500000000000007
42
-0.41421356237309503
10
8.5437499999999993
20
-53.000000000000007
10
8.5437500000000295
20
-41.20000000000001
42
-0.41421356237309503
10
9.0437499999999993
20
-40.700000000000038
0
LWPOLYLINE
5
115
100
AcDbEntity
8
0
100
AcDbPolyline
90
8
70
1
43
0.0
10
262.49124999999998
20
-70.025000000000048
42
-0.41421356237309503
10
262.99124999999998
20
-70.52500000000002
10
262.99124999999998
20
-74.735000000000014
42
-0.41421356237309503
10
262.49124999999998
20
-75.235000000000014
10
260.82125000000002
20
-75.235000000000014
42
-0.41421356237309503
10
260.32125000000002
20
-74.735000000000014
10
260.32125000000002
20
-70.52500000000002
42
-0.41421356237309503
10
260.82125000000002
20
-70.025000000000006
0
LWPOLYLINE
5
116
100
AcDbEntity
8
0
100
AcDbPolyline
90
8
70
1
43
0.0
10
164.03749999999999
20
-53.500000000000014
10
149.53750000000002
20
-53.500000000000014
42
-0.41421356237309503
10
149.03749999999999
20
-53.000000000000007
10
149.03750000000005
20
-41.20000000000001
42
-0.41421356237309503
10
149.53750000000002
20
-40.700000000000038
10
164.03749999999999
20
-40.700000000000003
42
-0.41421356237309503
10
164.53749999999999
20
-41.20000000000001
10
164.53749999999999
20
-53.000000000000007
42
-0.41421356237309503
0
LWPOLYLINE
5
117
100
AcDbEntity
8
0
100
AcDbPolyline
90
8
70
1
43
0.0
10
235.47499999999999
20
-78.800000000000026
42
-0.41421356237309503
10
235.97499999999999
20
-79.30000000000004
10
235.97499999999997
20
-91.100000000000023
42
-0.41421356237309503
10
235.47499999999999
20
-91.599999999999994
10
220.97499999999999
20
-91.600000000000037
42
-0.41421356237309503
10
220.47499999999999
20
-91.100000000000023
10
220.47499999999999
20
-79.30000000000004
42
-0.41421356237309503
10
220.97499999999999
20
-78.800000000000026
0
LWPOLYLINE
5
118
100
AcDbEntity
8
0
100
AcDbPolyline
90
8
70
1
43
0.0
10
230.71249999999998
20
-72.550000000000026
10
216.21250000000001
20
-72.550000000000026
42
-0.41421356237309503
10
215.71249999999998
20
-72.050000000000011
10
215.71249999999998
20
-60.250000000000021
42
-0.41421356237309503
10
216.21250000000001
20
-59.750000000000014
10
230.71249999999998
20
-59.750000000000014
42
-0.41421356237309503
10
231.21250000000001
20
-60.250000000000021
10
231.21250000000001
20
-72.050000000000011
42
-0.41421356237309503
0
LWPOLYLINE
5
119
100
AcDbEntity
8
0
100
AcDbPolyline
90
8
70
1
43
0.0
10
281.16000000000003
20
-18.085000000000022
10
279.49000000000001
20
-18.085000000000022
42
-0.41421356237309503
10
278.99000000000001
20
-17.585000000000015
10
278.99000000000001
20
-13.375000000000021
42
-0.41421356237309503
10
279.49000000000001
20
-12.875000000000014
10
281.16000000000003
20
-12.875000000000014
42
-0.41421356237309503
10
281.66000000000003
20
-13.375000000000021
10
281.66000000000003
20
-17.585000000000015
42
-0.41421356237309503
0
LWPOLYLINE
5
120
100
AcDbEntity
8
0
100
AcDbPolyline
90
8
70
1
43
0.0
10
256.69375000000002
20
-53.500000000000014
42
-0.41421356237309503
10
256.19375000000002
20
-53.000000000000007
10
256.19375000000002
20
-41.20000000000001
42
-0.41421356237309503
10
256.69375000000002
20
-40.700000000000038
10
271.19375000000002
20
-40.700000000000003
42
-0.41421356237309503
10
271.69375000000002
20
-41.20000000000001
10
271.69375000000002
20
-53.000000000000007
42
-0.41421356237309503
10
271.19375000000002
20
-53.500000000000014
0
LWPOLYLINE
5
121
100
AcDbEntity
8
0
100
AcDbPolyline
90
8
70
1
43
0.0
10
238.99125000000001
20
-74.735000000000014
10
238.99125000000001
20
-70.52500000000002
42
0.41421356237309503
10
238.49125000000001
20
-70.025000000000006
10
236.82124999999999
20
-70.025000000000006
42
0.41421356237309503
10
236.32124999999999
20
-70.52500000000002
10
236.32124999999999
20
-74.735000000000014
42
0.41421356237309503
10
236.82124999999999
20
-75.235000000000014
10
238.49125000000001
20
-75.235000000000014
42
0.41421356237309503
0
LWPOLYLINE
5
122
100
AcDbEntity
8
0
100
AcDbPolyline
90
8
70
1
43
0.0
10
251.27874999999995
20
-55.685000000000038
42
-0.41421356237309503
10
250.77875
20
-56.185000000000009
10
249.10874999999999
20
-56.185000000000009
42
-0.41421356237309503
10
248.60874999999999
20
-55.685000000000038
10
248.60874999999996
20
-51.475000000000009
42
-0.41421356237309503
10
249.10874999999999
20
-50.975000000000001
10
250.77875
20
-50.975000000000001
42
-0.41421356237309503
10
251.27875
20
-51.475000000000009
0
LWPOLYLINE
5
123
100
AcDbEntity
8
0
100
AcDbPolyline
90
8
70
1
43
0.0
10
64.02500000000002
20
-21.650000000000027
10
49.525000000000006
20
-21.650000000000027
42
0.41421356237309503
10
49.025000000000006
20
-22.149999999999999
10
49.025000000000006
20
-33.950000000000031
42
0.41421356237309503
10
49.525000000000006
20
-34.450000000000003
10
64.02500000000002
20
-34.450000000000038
42
0.41421356237309503
10
64.52500000000002
20
-33.950000000000031
10
64.52500000000002
20
-22.149999999999999
42
0.41421356237309503
0
LWPOLYLINE
5
124
100
AcDbEntity
8
0
100
AcDbPolyline
90
8
70
1
43
0.0
10
29.97500000000003
20
-22.149999999999999
42
-0.41421356237309503
10
30.475000000000001
20
-21.650000000000027
10
44.975000000000009
20
-21.649999999999999
42
-0.41421356237309503
10
45.475000000000001
20
-22.149999999999999
10
45.475000000000009
20
-33.950000000000031
42
-0.41421356237309503
10
44.975000000000009
20
-34.450000000000038
10
30.475000000000001
20
-34.450000000000031
42
-0.41421356237309503
10
29.975000000000001
20
-33.950000000000031
0
LWPOLYLINE
5
125
100
AcDbEntity
8
0
100
AcDbPolyline
90
8
70
1
43
0.0
10
53.787500000000037
20
-41.20000000000001
42
-0.41421356237309503
10
54.287500000000009
20
-40.700000000000038
10
68.787499999999994
20
-40.70000000000001
42
-0.41421356237309503
10
69.287499999999994
20
-41.20000000000001
10
69.287500000000009
20
-53.000000000000007
42
-0.41421356237309503
10
68.787499999999994
20
-53.500000000000014
10
54.287500000000009
20
-53.500000000000007
42
-0.41421356237309503
10
53.787500000000009
20
-53.000000000000007
0
LWPOLYLINE
5
126
100
AcDbEntity
8
0
100
AcDbPolyline
90
8
70
1
43
0.0
10
68.575000000000003
20
-34.450000000000031
42
-0.41421356237309503
10
68.075000000000017
20
-33.950000000000031
10
68.075000000000031
20
-22.149999999999999
42
-0.41421356237309503
10
68.575000000000003
20
-21.650000000000027
10
83.075000000000017
20
-21.649999999999991
42
-0.41421356237309503
10
83.575000000000017
20
-22.149999999999999
10
83.574999999999989
20
-33.950000000000031
42
-0.41421356237309503
10
83.075000000000017
20
-34.450000000000003
0
LWPOLYLINE
5
127
100
AcDbEntity
8
0
100
AcDbPolyline
90
8
70
1
43
0.0
10
241.90625
20
-72.050000000000011
10
241.90625
20
-60.250000000000021
42
-0.41421356237309503
10
242.40625
20
-59.750000000000014
10
256.90625
20
-59.750000000000014
42
-0.41421356237309503
10
257.40625
20
-60.250000000000021
10
257.40625
20
-72.050000000000011
42
-0.41421356237309503
10
256.90625
20
-72.550000000000026
10
242.40625
20
-72.550000000000026
42
-0.41421356237309503
0
LWPOLYLINE
5
128
100
AcDbEntity
8
0
100
AcDbPolyline
90
8
70
1
43
0.0
10
144.98750000000004
20
-78.80000000000004
42
-0.41421356237309503
10
145.48750000000001
20
-79.30000000000004
10
145.48750000000001
20
-91.100000000000023
42
-0.41421356237309503
10
144.98750000000004
20
-91.599999999999994
10
130.48750000000001
20
-91.600000000000037
42
-0.41421356237309503
10
129.98750000000001
20
-91.100000000000023
10
129.98750000000001
20
-79.30000000000004
42
-0.41421356237309503
10
130.48750000000001
20
-78.800000000000026
0
LWPOLYLINE
5
129
100
AcDbEntity
8
0
100
AcDbPolyline
90
8
70
1
43
0.0
10
33.721249999999998
20
-74.735000000000014
10
33.721249999999991
20
-70.52500000000002
42
-0.41421356237309503
10
34.221249999999998
20
-70.025000000000006
10
35.891249999999999
20
-70.02500000000002
42
-0.41421356237309503
10
36.391249999999999
20
-70.52500000000002
10
36.391250000000007
20
-74.735000000000014
42
-0.41421356237309503
10
35.891249999999999
20
-75.235000000000014
10
34.221249999999998
20
-75.235000000000014
42
-0.41421356237309503
0
LWPOLYLINE
5
130
100
AcDbEntity
8
0
100
AcDbPolyline
90
8
70
1
43
0.0
10
177.61250000000001
20
-72.050000000000011
10
177.61250000000001
20
-60.250000000000021
42
-0.41421356237309503
10
178.11250000000001
20
-59.750000000000014
10
192.61250000000001
20
-59.750000000000014
42
-0.41421356237309503
10
193.11250000000001
20
-60.250000000000021
10
193.11250000000001
20
-72.050000000000011
42
-0.41421356237309503
10
192.61250000000001
20
-72.550000000000026
10
178.11250000000001
20
-72.550000000000026
42
-0.41421356237309503
0
LWPOLYLINE
5
131
100
AcDbEntity
8
0
100
AcDbPolyline
90
8
70
1
43
0.0
10
35.237499999999997
20
-53.500000000000007
42
-0.41421356237309503
10
34.737499999999997
20
-53.000000000000007
10
34.737500000000026
20
-41.20000000000001
42
-0.41421356237309503
10
35.237499999999997
20
-40.700000000000038
10
49.737500000000011
20
-40.70000000000001
42
-0.41421356237309503
10
50.237500000000004
20
-41.20000000000001
10
50.237500000000011
20
-53.000000000000007
42
-0.41421356237309503
10
49.737500000000011
20
-53.500000000000014
0
LWPOLYLINE
5
132
100
AcDbEntity
8
0
100
AcDbPolyline
90
8
70
1
43
0.0
10
5.7212499999999942
20
-70.52500000000002
42
-0.41421356237309503
10
6.2212500000000013
20
-70.025000000000006
10
7.8912500000000021
20
-70.02500000000002
42
-0.41421356237309503
10
8.391250000000003
20
-70.52500000000002
10
8.3912500000000083
20
-74.735000000000014
42
-0.41421356237309503
10
7.8912500000000021
20
-75.235000000000014
10
6.2212500000000013
20
-75.235000000000014
42
-0.41421356237309503
10
5.7212500000000013
20
-74.735000000000014
0
LWPOLYLINE
5
133
100
AcDbEntity
8
0
100
AcDbPolyline
90
8
70
1
43
0.0
10
255.02499999999998
20
-91.100000000000023
42
-0.41421356237309503
10
254.52500000000001
20
-91.599999999999994
10
240.02500000000001
20
-91.600000000000037
42
-0.41421356237309503
10
239.52500000000001
20
-91.100000000000023
10
239.52500000000001
20
-79.30000000000004
42
-0.41421356237309503
10
240.02500000000001
20
-78.800000000000026
10
254.52500000000001
20
-78.800000000000026
42
-0.41421356237309503
10
255.02500000000001
20
-79.30000000000004
0
LWPOLYLINE
5
134
100
AcDbEntity
8
0
100
AcDbPolyline
90
8
70
1
43
0.0
10
34.73749999999999
20
-79.30000000000004
42
-0.41421356237309503
10
35.237499999999997
20
-78.800000000000026
10
49.737500000000011
20
-78.80000000000004
42
-0.41421356237309503
10
50.237500000000004
20
-79.30000000000004
10
50.237499999999983
20
-91.100000000000023
42
-0.41421356237309503
10
49.737500000000011
20
-91.599999999999994
10
35.237499999999997
20
-91.600000000000037
42
-0.41421356237309503
10
34.737499999999997
20
-91.100000000000023
0
LWPOLYLINE
5
135
100
AcDbEntity
8
0
100
AcDbPolyline
90
8
70
1
43
0.0
10
21.162500000000001
20
-78.800000000000026
10
6.6625000000000076
20
-78.800000000000026
42
0.41421356237309503
10
6.1625000000000005
20
-79.30000000000004
10
6.1624999999999996
20
-91.100000000000023
42
0.41421356237309503
10
6.6624999999999996
20
-91.599999999999994
10
21.162500000000001
20
-91.599999999999994
42
0.41421356237309503
10
21.662500000000001
20
-91.100000000000023
10
21.662500000000001
20
-79.30000000000004
42
0.41421356237309503
0
LWPOLYLINE
5
136
100
AcDbEntity
8
0
100
AcDbPolyline
90
8
70
1
43
0.0
10
255.02500000000001
20
-33.950000000000031
42
-0.41421356237309503
10
254.52500000000001
20
-34.450000000000038
10
240.02500000000001
20
-34.450000000000038
42
-0.41421356237309503
10
239.52500000000001
20
-33.950000000000031
10
239.52500000000003
20
-22.149999999999999
42
-0.41421356237309503
10
240.02500000000001
20
-21.650000000000027
10
254.52500000000001
20
-21.649999999999991
42
-0.41421356237309503
10
255.02500000000001
20
-22.149999999999999
0
LWPOLYLINE
5
137
100
AcDbEntity
8
0
100
AcDbPolyline
90
8
70
1
43
0.0
10
168.79999999999998
20
-15.400000000000027
10
154.30000000000001
20
-15.400000000000009
42
-0.41421356237309503
10
153.80000000000001
20
-14.90000000000002
10
153.80000000000001
20
-3.1000000000000227
42
-0.41421356237309503
10
154.30000000000001
20
-2.6000000000000156
10
168.79999999999998
20
-2.6000000000000156
42
-0.41421356237309503
10
169.30000000000001
20
-3.1000000000000227
10
169.30000000000001
20
-14.90000000000002
42
-0.41421356237309503
0
LWPOLYLINE
5
138
100
AcDbEntity
8
0
100
AcDbPolyline
90
8
70
1
43
0.0
10
173.34999999999997
20
-15.399999999999991
42
-0.41421356237309503
10
172.84999999999999
20
-14.90000000000002
10
172.84999999999997
20
-3.1000000000000227
42
-0.41421356237309503
10
173.34999999999997
20
-2.6000000000000156
10
187.84999999999999
20
-2.6000000000000156
42
-0.41421356237309503
10
188.35000000000002
20
-3.1000000000000227
10
188.35000000000002
20
-14.90000000000002
42
-0.41421356237309503
10
187.84999999999999
20
-15.400000000000027
0
LWPOLYLINE
5
139
100
AcDbEntity
8
0
100
AcDbPolyline
90
8
70
1
43
0.0
10
150.25000000000003
20
-14.90000000000002
42
-0.41421356237309503
10
149.75
20
-15.400000000000027
10
135.25
20
-15.400000000000027
42
-0.41421356237309503
10
134.75
20
-14.90000000000002
10
134.75
20
-3.1000000000000227
42
-0.41421356237309503
10
135.25
20
-2.6000000000000156
10
149.75
20
-2.6000000000000334
42
-0.41421356237309503
10
150.25
20
-3.1000000000000227
0
LWPOLYLINE
5
140
100
AcDbEntity
8
0
100
AcDbPolyline
90
8
70
1
43
0.0
10
202.13749999999999
20
-40.700000000000003
42
-0.41421356237309503
10
202.63749999999999
20
-41.20000000000001
10
202.63749999999999
20
-53.000000000000007
42
-0.41421356237309503
10
202.13749999999999
20
-53.500000000000014
10
187.63749999999999
20
-53.500000000000014
42
-0.41421356237309503
10
187.13749999999999
20
-53.000000000000007
10
187.13750000000002
20
-41.20000000000001
42
-0.41421356237309503
10
187.63749999999999
20
-40.700000000000038
0
LWPOLYLINE
5
141
100
AcDbEntity
8
0
100
AcDbPolyline
90
8
70
1
43
0.0
10
192.40000000000003
20
-15.400000000000027
42
-0.41421356237309503
10
191.90000000000001
20
-14.90000000000002
10
191.90000000000001
20
-3.1000000000000227
42
-0.41421356237309503
10
192.40000000000003
20
-2.6000000000000156
10
206.90000000000001
20
-2.6000000000000156
42
-0.41421356237309503
10
207.40000000000003
20
-3.1000000000000227
10
207.40000000000003
20
-14.90000000000002
42
-0.41421356237309503
10
206.90000000000001
20
-15.400000000000027
0
LWPOLYLINE
5
142
100
AcDbEntity
8
0
100
AcDbPolyline
90
8
70
1
43
0.0
10
197.375
20
-34.450000000000003
10
182.87499999999997
20
-34.450000000000038
42
-0.41421356237309503
10
182.37499999999997
20
-33.950000000000031
10
182.375
20
-22.149999999999999
42
-0.41421356237309503
10
182.87499999999997
20
-21.650000000000027
10
197.375
20
-21.649999999999991
42
-0.41421356237309503
10
197.875
20
-22.149999999999999
10
197.87499999999997
20
-33.950000000000031
42
-0.41421356237309503
0
LWPOLYLINE
5
143
100
AcDbEntity
8
0
100
AcDbPolyline
90
8
70
1
43
0.0
10
211.44999999999999
20
-15.400000000000027
42
-0.41421356237309503
10
210.94999999999999
20
-14.90000000000002
10
210.94999999999999
20
-3.1000000000000227
42
-0.41421356237309503
10
211.44999999999999
20
-2.6000000000000156
10
225.94999999999999
20
-2.6000000000000156
42
-0.41421356237309503
10
226.44999999999999
20
-3.1000000000000227
10
226.44999999999999
20
-14.90000000000002
42
-0.41421356237309503
10
225.94999999999999
20
-15.400000000000027
0
LWPOLYLINE
5
144
100
AcDbEntity
8
0
100
AcDbPolyline
90
8
70
1
43
0.0
10
144.98750000000004
20
-53.500000000000014
10
130.48750000000001
20
-53.5
42
-0.41421356237309503
10
129.98750000000004
20
-53.000000000000007
10
129.98750000000004
20
-41.20000000000001
42
-0.41421356237309503
10
130.48750000000001
20
-40.700000000000038
10
144.98750000000004
20
-40.700000000000017
42
-0.41421356237309503
10
145.48750000000001
20
-41.20000000000001
10
145.48750000000004
20
-53.000000000000007
42
-0.41421356237309503
0
LWPOLYLINE
5
145
100
AcDbEntity
8
0
100
AcDbPolyline
90
8
70
1
43
0.0
10
201.92500000000001
20
-34.450000000000038
42
-0.41421356237309503
10
201.42500000000001
20
-33.950000000000031
10
201.42500000000007
20
-22.149999999999999
42
-0.41421356237309503
10
201.92500000000001
20
-21.650000000000027
10
216.42500000000001
20
-21.649999999999991
42
-0.41421356237309503
10
216.92500000000001
20
-22.149999999999999
10
216.92500000000001
20
-33.950000000000031
42
-0.41421356237309503
10
216.42500000000001
20
-34.450000000000038
0
LWPOLYLINE
5
146
100
AcDbEntity
8
0
100
AcDbPolyline
90
8
70
1
43
0.0
10
206.18750000000003
20
-41.20000000000001
42
-0.41421356237309503
10
206.6875
20
-40.700000000000038
10
221.1875
20
-40.700000000000003
42
-0.41421356237309503
10
221.6875
20
-41.20000000000001
10
221.6875
20
-53.000000000000007
42
-0.41421356237309503
10
221.1875
20
-53.500000000000014
10
206.6875
20
-53.500000000000014
42
-0.41421356237309503
10
206.1875
20
-53.000000000000007
0
LWPOLYLINE
5
147
100
AcDbEntity
8
0
100
AcDbPolyline
90
8
70
1
43
0.0
10
72.837500000000006
20
-53.000000000000007
10
72.837500000000034
20
-41.20000000000001
42
-0.41421356237309503
10
73.337500000000006
20
-40.700000000000038
10
87.837500000000006
20
-40.700000000000038
42
-0.41421356237309503
10
88.33750000000002
20
-41.200000000000045
10
88.33750000000002
20
-53.000000000000007
42
-0.41421356237309503
10
87.837500000000006
20
-53.500000000000014
10
73.337500000000006
20
-53.500000000000007
42
-0.41421356237309503
0
LWPOLYLINE
5
148
100
AcDbEntity
8
0
100
AcDbPolyline
90
8
70
1
43
0.0
10
196.66249999999997
20
-60.250000000000021
42
-0.41421356237309503
10
197.16249999999999
20
-59.750000000000014
10
211.66249999999997
20
-59.750000000000014
42
-0.41421356237309503
10
212.16249999999999
20
-60.250000000000021
10
212.16249999999999
20
-72.050000000000011
42
-0.41421356237309503
10
211.66249999999997
20
-72.550000000000026
10
197.16249999999999
20
-72.550000000000026
42
-0.41421356237309503
10
196.66249999999997
20
-72.050000000000011
0
LWPOLYLINE
5
149
100
AcDbEntity
8
0
100
AcDbPolyline
90
8
70
1
43
0.0
10
91.887500000000003
20
-53.000000000000007
10
91.887500000000045
20
-41.20000000000001
42
-0.41421356237309503
10
92.387500000000017
20
-40.700000000000038
10
106.8875
20
-40.700000000000003
42
-0.41421356237309503
10
107.38750000000002
20
-41.20000000000001
10
107.38750000000002
20
-53.000000000000007
42
-0.41421356237309503
10
106.8875
20
-53.500000000000014
10
92.387500000000017
20
-53.500000000000014
42
-0.41421356237309503
0
LWPOLYLINE
5
150
100
AcDbEntity
8
0
100
AcDbPolyline
90
8
70
1
43
0.0
10
73.550000000000011
20
-2.6000000000000156
10
59.050000000000011
20
-2.6000000000000156
42
0.41421356237309503
10
58.550000000000004
20
-3.1000000000000227
10
58.550000000000004
20
-14.90000000000002
42
0.41421356237309503
10
59.050000000000004
20
-15.400000000000027
10
73.550000000000011
20
-15.400000000000027
42
0.41421356237309503
10
74.049999999999997
20
-14.90000000000002
10
74.049999999999997
20
-3.1000000000000227
42
0.41421356237309503
0
LWPOLYLINE
5
151
100
AcDbEntity
8
0
100
AcDbPolyline
90
8
70
1
43
0.0
10
78.3125
20
-78.800000000000026
10
63.812500000000007
20
-78.800000000000026
42
0.41421356237309503
10
63.312500000000007
20
-79.30000000000004
10
63.312500000000007
20
-91.100000000000023
42
0.41421356237309503
10
63.812500000000007
20
-91.599999999999994
10
78.3125
20
-91.599999999999994
42
0.41421356237309503
10
78.8125
20
-91.100000000000023
10
78.8125
20
-79.30000000000004
42
0.41421356237309503
0
LWPOLYLINE
5
152
100
AcDbEntity
8
0
100
AcDbPolyline
90
8
70
1
43
0.0
10
78.3125
20
-59.750000000000014
10
63.812500000000007
20
-59.750000000000014
42
0.41421356237309503
10
63.312500000000007
20
-60.250000000000021
10
63.312500000000007
20
-72.050000000000011
42
0.41421356237309503
10
63.812500000000007
20
-72.550000000000026
10
78.3125
20
-72.550000000000026
42
0.41421356237309503
10
78.8125
20
-72.050000000000011
10
78.8125
20
-60.250000000000021
42
0.41421356237309503
0
LWPOLYLINE
5
153
100
AcDbEntity
8
0
100
AcDbPolyline
90
8
70
1
43
0.0
10
126.43750000000003
20
-53.000000000000007
10
126.43750000000003
20
-41.20000000000001
42
0.41421356237309503
10
125.93750000000001
20
-40.700000000000038
10
111.4375
20
-40.700000000000038
42
0.41421356237309503
10
110.93750000000001
20
-41.20000000000001
10
110.93750000000001
20
-53.000000000000007
42
0.41421356237309503
10
111.4375
20
-53.500000000000014
10
125.93750000000001
20
-53.500000000000014
42
0.41421356237309503
0
LWPOLYLINE
5
154
100
AcDbEntity
8
0
100
AcDbPolyline
90
8
70
1
43
0.0
10
196.66249999999997
20
-79.30000000000004
42
-0.41421356237309503
10
197.16249999999999
20
-78.800000000000026
10
211.66249999999997
20
-78.800000000000026
42
-0.41421356237309503
10
212.16249999999999
20
-79.30000000000004
10
212.16249999999997
20
-91.100000000000023
42
-0.41421356237309503
10
211.66249999999997
20
-91.599999999999994
10
197.16249999999999
20
-91.600000000000037
42
-0.41421356237309503
10
196.66249999999997
20
-91.100000000000023
0
LWPOLYLINE
5
155
100
AcDbEntity
8
0
100
AcDbPolyline
90
8
70
1
43
0.0
10
131.20000000000002
20
-14.90000000000002
10
131.19999999999999
20
-3.1000000000000227
42
0.41421356237309503
10
130.69999999999999
20
-2.6000000000000512
10
116.20000000000002
20
-2.6000000000000156
42
0.41421356237309503
10
115.7
20
-3.1000000000000227
10
115.70000000000002
20
-14.90000000000002
42
0.41421356237309503
10
116.20000000000002
20
-15.400000000000027
10
130.69999999999999
20
-15.400000000000027
42
0.41421356237309503
0
LWPOLYLINE
5
156
100
AcDbEntity
8
0
100
AcDbPolyline
90
8
70
1
43
0.0
10
96.650000000000006
20
-14.90000000000002
10
96.650000000000006
20
-3.1000000000000227
42
-0.41421356237309503
10
97.15000000000002
20
-2.6000000000000156
10
111.65000000000001
20
-2.6000000000000156
42
-0.41421356237309503
10
112.15000000000002
20
-3.1000000000000227
10
112.15000000000002
20
-14.90000000000002
42
-0.41421356237309503
10
111.65000000000001
20
-15.400000000000027
10
97.15000000000002
20
-15.400000000000027
42
-0.41421356237309503
0
LWPOLYLINE
5
157
100
AcDbEntity
8
0
100
AcDbPolyline
90
8
70
1
43
0.0
10
92.599999999999994
20
-15.400000000000027
10
78.100000000000009
20
-15.400000000000018
42
-0.41421356237309503
10
77.600000000000009
20
-14.90000000000002
10
77.599999999999994
20
-3.1000000000000227
42
-0.41421356237309503
10
78.100000000000009
20
-2.6000000000000156
10
92.599999999999994
20
-2.6000000000000156
42
-0.41421356237309503
10
93.100000000000009
20
-3.1000000000000227
10
93.100000000000009
20
-14.90000000000002
42
-0.41421356237309503
0
LWPOLYLINE
5
158
100
AcDbEntity
8
0
100
AcDbPolyline
90
8
70
1
43
0.0
10
168.08750000000001
20
-53.000000000000007
10
168.08750000000003
20
-41.20000000000001
42
-0.41421356237309503
10
168.58750000000001
20
-40.700000000000038
10
183.08750000000001
20
-40.700000000000003
42
-0.41421356237309503
10
183.58750000000001
20
-41.20000000000001
10
183.58750000000001
20
-53.000000000000007
42
-0.41421356237309503
10
183.08750000000001
20
-53.500000000000014
10
168.58750000000001
20
-53.500000000000014
42
-0.41421356237309503
0
LWPOLYLINE
5
159
100
AcDbEntity
8
0
100
AcDbPolyline
90
8
70
1
43
0.0
10
116.41250000000001
20
-59.750000000000014
10
101.91249999999999
20
-59.750000000000014
42
0.41421356237309503
10
101.41250000000001
20
-60.250000000000021
10
101.41250000000001
20
-72.050000000000011
42
0.41421356237309503
10
101.91249999999999
20
-72.550000000000026
10
116.41250000000001
20
-72.550000000000026
42
0.41421356237309503
10
116.91249999999999
20
-72.050000000000011
10
116.91249999999999
20
-60.250000000000021
42
0.41421356237309503
0
LWPOLYLINE
5
160
100
AcDbEntity
8
0
100
AcDbPolyline
90
8
70
1
43
0.0
10
121.17500000000001
20
-34.450000000000038
10
106.67500000000001
20
-34.450000000000017
42
-0.41421356237309503
10
106.17500000000001
20
-33.950000000000031
10
106.17500000000004
20
-22.149999999999999
42
-0.41421356237309503
10
106.67500000000001
20
-21.650000000000027
10
121.17500000000001
20
-21.650000000000009
42
-0.41421356237309503
10
121.67500000000001
20
-22.149999999999999
10
121.67500000000003
20
-33.950000000000031
42
-0.41421356237309503
0
LWPOLYLINE
5
161
100
AcDbEntity
8
0
100
AcDbPolyline
90
8
70
1
43
0.0
10
140.22500000000002
20
-21.649999999999991
10
125.72499999999999
20
-21.650000000000027
42
0.41421356237309503
10
125.22500000000001
20
-22.149999999999999
10
125.22499999999999
20
-33.950000000000031
42
0.41421356237309503
10
125.72499999999999
20
-34.450000000000038
10
140.22500000000002
20
-34.450000000000038
42
0.41421356237309503
10
140.72499999999999
20
-33.950000000000031
10
140.72500000000002
20
-22.149999999999999
42
0.41421356237309503
0
LWPOLYLINE
5
162
100
AcDbEntity
8
0
100
AcDbPolyline
90
8
70
1
43
0.0
10
102.125
20
-34.450000000000003
10
87.625000000000014
20
-34.450000000000038
42
-0.41421356237309503
10
87.125
20
-33.950000000000031
10
87.125000000000043
20
-22.149999999999999
42
-0.41421356237309503
10
87.625000000000014
20
-21.650000000000027
10
102.125
20
-21.649999999999991
42
-0.41421356237309503
10
102.62500000000001
20
-22.149999999999999
10
102.62499999999997
20
-33.950000000000031
42
-0.41421356237309503
0
LWPOLYLINE
5
163
100
AcDbEntity
8
0
100
AcDbPolyline
90
8
70
1
43
0.0
10
220.97499999999999
20
-34.450000000000038
42
-0.41421356237309503
10
220.47499999999999
20
-33.950000000000031
10
220.47500000000002
20
-22.149999999999999
42
-0.41421356237309503
10
220.97499999999999
20
-21.650000000000027
10
235.47499999999999
20
-21.649999999999991
42
-0.41421356237309503
10
235.97499999999999
20
-22.149999999999999
10
235.97499999999999
20
-33.950000000000031
42
-0.41421356237309503
10
235.47499999999999
20
-34.450000000000038
0
LWPOLYLINE
5
164
100
AcDbEntity
8
0
100
AcDbPolyline
90
8
70
1
43
0.0
10
97.362499999999997
20
-59.750000000000014
10
82.862500000000011
20
-59.750000000000014
42
0.41421356237309503
10
82.362499999999997
20
-60.250000000000021
10
82.362499999999997
20
-72.050000000000011
42
0.41421356237309503
10
82.862500000000011
20
-72.550000000000026
10
97.362499999999997
20
-72.550000000000026
42
0.41421356237309503
10
97.862500000000011
20
-72.050000000000011
10
97.862500000000011
20
-60.250000000000021
42
0.41421356237309503
0
LWPOLYLINE
5
165
100
AcDbEntity
8
0
100
AcDbPolyline
90
8
70
1
43
0.0
10
135.46250000000003
20
-59.750000000000028
42
-0.41421356237309503
10
135.96250000000001
20
-60.250000000000021
10
135.96250000000003
20
-72.050000000000011
42
-0.41421356237309503
10
135.46250000000003
20
-72.550000000000026
10
120.96250000000001
20
-72.550000000000026
42
-0.41421356237309503
10
120.46250000000001
20
-72.050000000000011
10
120.46250000000001
20
-60.250000000000021
42
-0.41421356237309503
10
120.96250000000001
20
-59.750000000000014
0
LWPOLYLINE
5
166
100
AcDbEntity
8
0
100
AcDbPolyline
90
8
70
1
43
0.0
10
59.762500000000017
20
-72.050000000000011
42
-0.41421356237309503
10
59.262500000000017
20
-72.550000000000026
10
44.76250000000001
20
-72.550000000000026
42
-0.41421356237309503
10
44.262500000000003
20
-72.050000000000011
10
44.262500000000003
20
-60.250000000000021
42
-0.41421356237309503
10
44.76250000000001
20
-59.750000000000014
10
59.262500000000017
20
-59.750000000000021
42
-0.41421356237309503
10
59.76250000000001
20
-60.250000000000021
0
LWPOLYLINE
5
167
100
AcDbEntity
8
0
100
AcDbPolyline
90
8
70
1
43
0.0
10
144.27500000000003
20
-22.149999999999999
42
-0.41421356237309503
10
144.77500000000001
20
-21.650000000000027
10
159.27500000000003
20
-21.650000000000009
42
-0.41421356237309503
10
159.77500000000001
20
-22.149999999999999
10
159.77500000000003
20
-33.950000000000031
42
-0.41421356237309503
10
159.27500000000003
20
-34.450000000000038
10
144.77500000000001
20
-34.45000000000006
42
-0.41421356237309503
10
144.27500000000003
20
-33.950000000000067
0
LWPOLYLINE
5
168
100
AcDbEntity
8
0
100
AcDbPolyline
90
8
70
1
43
0.0
10
178.32499999999999
20
-21.650000000000027
10
163.82499999999996
20
-21.650000000000027
42
0.41421356237309503
10
163.32499999999996
20
-22.149999999999999
10
163.32499999999996
20
-33.950000000000031
42
0.41421356237309503
10
163.82499999999996
20
-34.450000000000003
10
178.32499999999999
20
-34.450000000000038
42
0.41421356237309503
10
178.82499999999999
20
-33.950000000000031
10
178.82499999999999
20
-22.149999999999999
42
0.41421356237309503
0
LWPOLYLINE
5
169
100
AcDbEntity
8
0
100
AcDbPolyline
90
16
70
1
43
0.0
10
282.50000000000006
20
0
10
2.5
20
0
42
0.41421356237309503
10
0
20
-2.5
10
0
20
-53.925000000000011
10
3.6000000000000032
20
-53.924999999999976
42
-0.99999999999999989
10
3.6000000000000032
20
-59.325000000000017
10
0
20
-59.325000000000017
10
0
20
-92.500000000000014
42
0.41421356237309503
10
2.5
20
-95.000000000000014
10
282.50000000000006
20
-95.000000000000014
42
0.41421356237309503
10
285.00000000000006
20
-92.500000000000014
10
284.99999362975359
20
-59.424999999999997
10
283.19999999999999
20
-59.424999999999997
42
-0.99999999999999989
10
283.19999999999999
20
-53.824999999999996
10
284.99999362975359
20
-53.824999999999996
10
285.00000000000006
20
-2.5
42
0.41421356237309503
0
CIRCLE
5
170
100
AcDbEntity
8
0
100
AcDbCircle
10
259.38750000000005
20
-28.050000000000015
30
0
40
3.1499999999999999
210
0
220
0
230
1
0
CIRCLE
5
171
100
AcDbEntity
8
0
100
AcDbCircle
10
190.30000000000004
20
-85.200000000000017
30
0
40
3.1499999999999999
210
0
220
0
230
1
0
CIRCLE
5
172
100
AcDbEntity
8
0
100
AcDbCircle
10
25.612500000000004
20
-28.050000000000015
30
0
40
3.1499999999999999
210
0
220
0
230
1
0
LWPOLYLINE
5
173
100
AcDbEntity
8
0
100
AcDbPolyline
90
4
70
1
43
0.0
10
97.987500000000011
20
-89.100000000000037
10
97.987500000000011
20
-94.200000000000017
10
100.58750000000001
20
-94.200000000000017
10
100.58750000000001
20
-89.100000000000037
0
LWPOLYLINE
5
174
100
AcDbEntity
8
0
100
AcDbPolyline
90
4
70
1
43
0.0
10
117.08750000000002
20
-86.400000000000034
10
119.48750000000001
20
-86.400000000000034
10
119.48750000000001
20
-84.000000000000028
10
117.08750000000002
20
-84.000000000000028
0
LWPOLYLINE
5
175
100
AcDbEntity
8
0
100
AcDbPolyline
90
4
70
1
43
0.0
10
177.48750000000001
20
-89.100000000000037
10
177.48750000000001
20
-94.200000000000017
10
174.88750000000005
20
-94.200000000000017
10
174.88750000000005
20
-89.100000000000037
0
LWPOLYLINE
5
176
100
AcDbEntity
8
0
100
AcDbPolyline
90
4
70
1
43
0.0
10
174.88750000000005
20
-81.300000000000026
10
177.48750000000001
20
-81.300000000000026
10
177.48750000000001
20
-76.200000000000045
10
174.88750000000005
20
-76.200000000000045
0
LWPOLYLINE
5
177
100
AcDbEntity
8
0
100
AcDbPolyline
90
4
70
1
43
0.0
10
100.58750000000001
20
-81.300000000000026
10
97.987500000000011
20
-81.300000000000026
10
97.987500000000011
20
-76.200000000000045
10
100.58750000000001
20
-76.200000000000045
0
LWPOLYLINE
5
178
100
AcDbEntity
8
0
100
AcDbPolyline
90
4
70
1
43
0.0
10
104.98750000000001
20
-84.000000000000028
10
104.98750000000001
20
-86.400000000000034
10
107.38749999999999
20
-86.400000000000034
10
107.38749999999999
20
-84.000000000000028
0
CIRCLE
5
179
100
AcDbEntity
8
0
100
AcDbCircle
10
112.23750000000003
20
-85.200000000000031
30
0
40
3.1499999999999999
210
0
220
0
230
1
0
LWPOLYLINE
5
180
100
AcDbEntity
8
0
100
AcDbPolyline
90
4
70
1
43
0.0
10
274.64999999999998
20
-20.800000000000011
10
277.05000000000001
20
-20.800000000000011
10
277.05000000000001
20
-23.199999999999996
10
274.64999999999998
20
-23.199999999999996
0
LWPOLYLINE
5
181
100
AcDbEntity
8
0
100
AcDbPolyline
90
4
70
1
43
0.0
10
274.64999999999998
20
-35.300000000000004
10
274.64999999999998
20
-32.90000000000002
10
277.05000000000001
20
-32.90000000000002
10
277.05000000000001
20
-35.300000000000004
0
CIRCLE
5
182
100
AcDbEntity
8
0
100
AcDbCircle
10
275.85000000000002
20
-28.050000000000026
30
0
40
3.1500000000000004
210
0
220
0
230
1
0
ENDSEC
0
SECTION
2
OBJECTS
0
DICTIONARY
5
C
100
AcDbDictionary
3
ACAD_GROUP
350
D
3
ACAD_MLINESTYLE
350
17
0
DICTIONARY
5
D
100
AcDbDictionary
0
DICTIONARY
5
1A
330
C
100
AcDbDictionary
0
DICTIONARY
5
17
100
AcDbDictionary
0
ENDSEC
0
EOF
