0
SECTION
2
HEADER
9
$INSUNITS
70
4
9
$ACADVER
1
AC1014
9
$HANDSEED
5
FFFF
0
ENDSEC
0
SECTION
2
TABLES
0
TABLE
2
VPORT
5
8
100
AcDbSymbolTable
0
ENDTAB
0
TABLE
2
LTYPE
5
5
100
AcDbSymbolTable
0
LTYPE
5
14
100
AcDbSymbolTableRecord
100
AcDbLinetypeTableRecord
2
BYBLOCK
70
0
0
LTYPE
5
15
100
AcDbSymbolTableRecord
100
AcDbLinetypeTableRecord
2
BYLAYER
70
0
0
ENDTAB
0
TABLE
2
LAYER
5
2
100
AcDbSymbolTable
70
2
0
LAYER
5
50
100
AcDbSymbolTableRecord
100
AcDbLayerTableRecord
2
0
70
0
6
CONTINUOUS
0
ENDTAB
0
TABLE
2
STYLE
5
3
100
AcDbSymbolTable
70
1
0
STYLE
5
11
100
AcDbSymbolTableRecord
100
AcDbTextStyleTableRecord
2
STANDARD
70
0
0
ENDTAB
0
TABLE
2
VIEW
5
6
100
AcDbSymbolTable
70
0
0
ENDTAB
0
TABLE
2
UCS
5
7
100
AcDbSymbolTable
70
0
0
ENDTAB
0
TABLE
2
APPID
5
9
100
AcDbSymbolTable
70
2
0
APPID
5
12
100
AcDbSymbolTableRecord
100
AcDbRegAppTableRecord
2
ACAD
70
0
0
ENDTAB
0
TABLE
2
DIMSTYLE
5
A
100
AcDbSymbolTable
70
1
0
ENDTAB
0
TABLE
2
BLOCK_RECORD
5
1
100
AcDbSymbolTable
70
1
0
BLOCK_RECORD
5
1F
100
AcDbSymbolTableRecord
100
AcDbBlockTableRecord
2
*MODEL_SPACE
0
BLOCK_RECORD
5
1B
100
AcDbSymbolTableRecord
100
AcDbBlockTableRecord
2
*PAPER_SPACE
0
ENDTAB
0
ENDSEC
0
SECTION
2
BLOCKS
0
BLOCK
5
20
100
AcDbEntity
100
AcDbBlockBegin
2
*MODEL_SPACE
0
ENDBLK
5
21
100
AcDbEntity
100
AcDbBlockEnd
0
BLOCK
5
1C
100
AcDbEntity
100
AcDbBlockBegin
2
*PAPER_SPACE
0
ENDBLK
5
1D
100
AcDbEntity
100
AcDbBlockEnd
0
ENDSEC
0
SECTION
2
ENTITIES
0
LWPOLYLINE
5
100
100
AcDbEntity
8
0
100
AcDbPolyline
90
48
70
1
43
0.0
10
5.9508460000000074
20
2.5769299999999999
42
-0.41421356237309548
10
0.95084600000000008
20
7.5769299999999973
10
0.95084600000000907
20
44.201833500000014
10
-3.0491539999999944
20
48.201833499999999
10
-3.0491539999999944
20
50.201833500000006
10
-3.0491539999999944
20
52.201833500000021
10
0.95084600000000907
20
56.201833500000021
10
0.95084599999999964
20
92.82673699999998
42
-0.41421356237309426
10
5.9508459999999852
20
97.82673699999998
10
41.950845999999999
20
97.826736999999866
10
45.950845999999991
20
101.82673699999987
10
47.950845999999991
20
101.82673699999987
10
49.950846000000013
20
101.82673699999987
10
53.950846000000006
20
97.826736999999866
10
137.82578002690886
20
97.831602442504661
10
141.82578002690886
20
101.83160244250466
10
143.82578002690886
20
101.83160244250466
10
145.82578002690889
20
101.83160244250466
10
149.82578002690886
20
97.831602442504661
10
233.70071405381768
20
97.836467885009512
10
237.70071405381771
20
101.83646788500951
10
241.70071405381771
20
101.83646788500951
10
245.70071405381759
20
97.836467885009512
10
281.70076140000003
20
97.82673699999998
10
281.70211290998009
20
97.826736634684124
42
-0.41413439496629573
10
286.70076140000003
20
92.826736817342038
10
286.70076140000003
20
56.201833408671
10
290.70076140000003
20
52.201833408671014
10
290.70076140000003
20
50.201833408671
10
290.70076140000003
20
48.201833408670993
10
286.70076140000003
20
44.201833408671007
10
286.70076140000003
20
7.5769299999999955
42
-0.41421356237309503
10
281.70076140000003
20
2.5769299999999964
10
245.7007614
20
2.5769300000000173
10
241.70076140000003
20
-1.4230699999999821
10
239.70076140000003
20
-1.4230699999999821
10
237.7007614
20
-1.4230699999999818
10
233.70076140000003
20
2.5769300000000173
10
149.82580369999999
20
2.5769300000000066
10
145.82580370000002
20
-1.4230699999999925
10
143.82580369999999
20
-1.4230699999999925
10
141.82580369999999
20
-1.4230699999999925
10
137.82580369999999
20
2.5769300000000066
10
53.950845999999999
20
2.5769299999999991
10
49.950846000000013
20
-1.4230699999999998
10
47.950845999999999
20
-1.4230699999999998
10
45.950845999999999
20
-1.4230699999999996
10
41.950845999999999
20
2.5769299999999995
0
CIRCLE
5
101
100
AcDbEntity
8
0
100
AcDbCircle
10
47.95084599999997
20
99.826736999999866
30
0
40
1.5000000000000002
210
0
220
0
230
1
0
CIRCLE
5
102
100
AcDbEntity
8
0
100
AcDbCircle
10
47.950845999999999
20
0.57693000000000083
30
0
40
1.5000000000000002
210
0
220
0
230
1
0
CIRCLE
5
103
100
AcDbEntity
8
0
100
AcDbCircle
10
239.70076140000003
20
0.57693000000001415
30
0
40
1.5000000000000002
210
0
220
0
230
1
0
CIRCLE
5
104
100
AcDbEntity
8
0
100
AcDbCircle
10
239.70071405381771
20
99.836467885009512
30
0
40
1.5000000000000002
210
0
220
0
230
1
0
CIRCLE
5
105
100
AcDbEntity
8
0
100
AcDbCircle
10
143.82580369999999
20
0.57693000000000827
30
0
40
1.5000000000000002
210
0
220
0
230
1
0
CIRCLE
5
106
100
AcDbEntity
8
0
100
AcDbCircle
10
143.82578002690883
20
99.831602442504675
30
0
40
1.5000000000000002
210
0
220
0
230
1
0
CIRCLE
5
107
100
AcDbEntity
8
0
100
AcDbCircle
10
-1.0491540000000015
20
50.201833499999992
30
0
40
1.5000000000000004
210
0
220
0
230
1
0
CIRCLE
5
108
100
AcDbEntity
8
0
100
AcDbCircle
10
288.70076140000003
20
50.201833408671021
30
0
40
1.5000000000000004
210
0
220
0
230
1
0
LWPOLYLINE
5
109
100
AcDbEntity
8
0
100
AcDbPolyline
90
8
70
1
43
0.0
10
240.85018640000004
20
25.252686999999998
10
240.85018640000001
20
37.052686999999992
42
-0.41421356237311585
10
241.35018640000004
20
37.552687000000006
10
255.85018640000004
20
37.552687000000006
42
-0.41421356237309503
10
256.35018640000004
20
37.052686999999992
10
256.35018640000004
20
25.252686999999998
42
-0.41421356237314705
10
255.85018640000004
20
24.752686999999991
10
241.35018640000004
20
24.752687000000009
42
-0.41421356237312623
0
LWPOLYLINE
5
110
100
AcDbEntity
8
0
100
AcDbPolyline
90
8
70
1
43
0.0
10
232.53768640000001
20
25.252686999999998
10
232.53768640000004
20
37.052686999999992
42
0.41421356237311585
10
232.03768639999998
20
37.552687000000006
10
217.53768640000001
20
37.552687000000006
42
0.41421356237309503
10
217.03768639999998
20
37.052686999999992
10
217.03768639999998
20
25.252686999999998
42
0.41421356237314705
10
217.53768640000001
20
24.752686999999991
10
232.03768639999998
20
24.752687000000009
42
0.41421356237312623
0
LWPOLYLINE
5
111
100
AcDbEntity
8
0
100
AcDbPolyline
90
8
70
1
43
0.0
10
281.19393639999998
20
33.427686999999992
42
-0.41421356237309503
10
280.69393639999998
20
32.927686999999978
10
268.89393640000003
20
32.92768700000002
42
-0.41421356237309503
10
268.39393640000003
20
33.427686999999992
10
268.39393640000003
20
47.92768700000002
42
-0.41421356237309503
10
268.89393640000003
20
48.427686999999992
10
280.69393639999998
20
48.42768700000002
42
-0.41421356237309503
10
281.19393639999998
20
47.92768700000002
0
LWPOLYLINE
5
112
100
AcDbEntity
8
0
100
AcDbPolyline
90
9
70
1
43
0.0
10
283.77893640000002
20
25.342687000000002
10
283.8789364000001
20
25.342687000000002
10
283.8789364000001
20
25.442686999999982
10
283.8789364000001
20
28.012686999999996
10
278.76893640000003
20
28.012686999999996
10
278.66893640000001
20
28.012686999999996
10
278.66893640000001
20
25.442686999999982
10
278.66893640000001
20
25.342687000000019
10
278.76893640000003
20
25.342687000000019
0
LWPOLYLINE
5
113
100
AcDbEntity
8
0
100
AcDbPolyline
90
9
70
1
43
0.0
10
270.91893640000001
20
25.442686999999982
10
270.91893640000001
20
28.012686999999996
10
265.80893639999999
20
28.012686999999996
10
265.70893640000003
20
28.012686999999996
10
265.70893640000003
20
25.442686999999982
10
265.70893640000003
20
25.342687000000019
10
265.80893639999999
20
25.342687000000019
10
270.81893640000004
20
25.342687000000002
10
270.91893640000001
20
25.342687000000002
0
LWPOLYLINE
5
114
100
AcDbEntity
8
0
100
AcDbPolyline
90
8
70
1
43
0.0
10
151.07518640000001
20
94.702686999999997
10
136.57518640000001
20
94.702686999999997
42
0.41421356237312623
10
136.07518640000001
20
94.202686999999997
10
136.07518639999998
20
82.402687
42
0.4142135623730846
10
136.57518640000001
20
81.902686999999958
10
151.07518640000001
20
81.902687000000029
42
0.41421356237310542
10
151.57518640000001
20
82.402687
10
151.57518640000004
20
94.202686999999997
42
0.4142135623730534
0
LWPOLYLINE
5
115
100
AcDbEntity
8
0
100
AcDbPolyline
90
8
70
1
43
0.0
10
279.66268639999998
20
18.502686999999991
10
265.16268639999998
20
18.502686999999973
42
0.41421356237312623
10
264.66268639999998
20
18.002686999999984
10
264.66268640000004
20
6.2026870000000045
42
0.41421356237310542
10
265.16268639999998
20
5.7026869999999974
10
279.66268639999998
20
5.7026869999999974
42
0.41421356237309503
10
280.16268639999998
20
6.2026870000000045
10
280.16268639999998
20
18.002686999999984
42
0.41421356237314705
0
LWPOLYLINE
5
116
100
AcDbEntity
8
0
100
AcDbPolyline
90
8
70
1
43
0.0
10
155.8376864
20
37.552687000000006
10
141.33768640000002
20
37.552687000000006
42
0.41421356237309503
10
140.8376864
20
37.052686999999992
10
140.8376864
20
25.252686999999998
42
0.41421356237309503
10
141.33768640000002
20
24.752686999999991
10
155.8376864
20
24.752686999999991
42
0.41421356237309503
10
156.33768640000002
20
25.252686999999998
10
156.33768640000002
20
37.052686999999992
42
0.41421356237309503
0
LWPOLYLINE
5
117
100
AcDbEntity
8
0
100
AcDbPolyline
90
4
70
1
43
0.0
10
42.16322565997789
20
41.802628536686356
10
245.30232614198883
20
41.802628536686356
42
-0.99999999999999989
10
245.30232614198883
20
39.567396487861558
10
42.163225659977883
20
39.567396487861558
42
-0.99999999999999989
0
LWPOLYLINE
5
118
100
AcDbEntity
8
0
100
AcDbPolyline
90
8
70
1
43
0.0
10
136.57518640000001
20
5.7026869999999974
10
151.07518640000001
20
5.7026869999999974
42
0.41421356237310542
10
151.57518640000004
20
6.2026870000000045
10
151.57518640000004
20
18.002686999999984
42
0.4142135623730534
10
151.07518640000001
20
18.502686999999991
10
136.57518640000001
20
18.502686999999973
42
0.41421356237311585
10
136.07518640000001
20
18.002686999999984
10
136.07518640000001
20
6.2026870000000045
42
0.41421356237306384
0
LWPOLYLINE
5
119
100
AcDbEntity
8
0
100
AcDbPolyline
90
8
70
1
43
0.0
10
146.31268640000005
20
56.602686999999975
10
131.81268640000002
20
56.602687000000032
42
0.41421356237311585
10
131.31268640000005
20
56.102687000000003
10
131.31268640000005
20
44.302687000000006
42
0.41421356237310542
10
131.81268640000002
20
43.802687000000006
10
146.31268640000005
20
43.802687000000006
42
0.41421356237310542
10
146.81268640000008
20
44.302687000000006
10
146.81268640000002
20
56.102687000000003
42
0.41421356237306384
0
LWPOLYLINE
5
120
100
AcDbEntity
8
0
100
AcDbPolyline
90
8
70
1
43
0.0
10
260.61268640000003
20
43.802687000000006
10
246.11268639999997
20
43.802686999999963
42
-0.4142135623730534
10
245.61268640000003
20
44.302687000000006
10
245.61268640000006
20
56.102687000000003
42
-0.41421356237309503
10
246.11268639999997
20
56.602687000000017
10
260.61268640000003
20
56.602687000000017
42
-0.41421356237313667
10
261.11268640000003
20
56.102687000000003
10
261.11268640000003
20
44.302687000000006
42
-0.41421356237312623
0
LWPOLYLINE
5
121
100
AcDbEntity
8
0
100
AcDbPolyline
90
8
70
1
43
0.0
10
222.51268640000001
20
43.80268700000002
42
0.41421356237312623
10
223.01268640000001
20
44.302687000000006
10
223.01268640000001
20
56.102687000000003
42
0.41421356237313667
10
222.51268640000001
20
56.602687000000017
10
208.01268640000001
20
56.602687000000017
42
0.41421356237309503
10
207.51268640000001
20
56.102687000000003
10
207.51268640000004
20
44.302687000000006
42
0.41421356237315748
10
208.01268640000001
20
43.802687000000006
0
LWPOLYLINE
5
122
100
AcDbEntity
8
0
100
AcDbPolyline
90
8
70
1
43
0.0
10
227.06268640000002
20
43.802687000000006
10
241.56268640000002
20
43.80268700000002
42
0.41421356237312623
10
242.06268640000002
20
44.302687000000006
10
242.06268640000002
20
56.102687000000003
42
0.41421356237313667
10
241.56268640000002
20
56.602687000000017
10
227.06268640000002
20
56.602687000000017
42
0.41421356237309503
10
226.56268640000002
20
56.102687000000003
10
226.56268640000005
20
44.302687000000006
42
0.41421356237315748
0
LWPOLYLINE
5
123
100
AcDbEntity
8
0
100
AcDbPolyline
90
8
70
1
43
0.0
10
236.8001864
20
5.7026869999999796
42
0.41421356237310542
10
237.3001864
20
6.2026870000000045
10
237.30018640000003
20
18.002686999999984
42
0.41421356237312623
10
236.8001864
20
18.502686999999991
10
222.3001864
20
18.502686999999991
42
0.41421356237309503
10
221.8001864
20
18.002686999999984
10
221.8001864
20
6.2026870000000045
42
0.41421356237314705
10
222.3001864
20
5.7026869999999974
0
LWPOLYLINE
5
124
100
AcDbEntity
8
0
100
AcDbPolyline
90
8
70
1
43
0.0
10
241.35018640000004
20
5.7026869999999796
42
-0.41421356237310542
10
240.85018640000004
20
6.2026870000000045
10
240.85018640000001
20
18.002686999999984
42
-0.41421356237312623
10
241.35018640000004
20
18.502686999999991
10
255.85018640000004
20
18.502686999999991
42
-0.41421356237309503
10
256.35018640000004
20
18.002686999999984
10
256.35018640000004
20
6.2026870000000045
42
-0.41421356237314705
10
255.85018640000004
20
5.7026869999999974
0
LWPOLYLINE
5
125
100
AcDbEntity
8
0
100
AcDbPolyline
90
8
70
1
43
0.0
10
74.87518639999999
20
94.702686999999997
10
60.375186400000004
20
94.702686999999997
42
0.41421356237309503
10
59.87518639999999
20
94.202686999999997
10
59.875186400000004
20
82.402687000000014
42
0.414213562373069
10
60.375186400000004
20
81.902687000000029
10
74.87518639999999
20
81.902687000000029
42
0.41421356237311585
10
75.37518639999999
20
82.402687
10
75.375186400000004
20
94.202686999999969
42
0.41421356237310025
0
LWPOLYLINE
5
126
100
AcDbEntity
8
0
100
AcDbPolyline
90
8
70
1
43
0.0
10
188.4626864
20
56.102687000000003
10
188.46268640000002
20
44.302687000000006
42
0.41421356237315748
10
188.9626864
20
43.802687000000006
10
203.4626864
20
43.80268700000002
42
0.41421356237312623
10
203.9626864
20
44.302687000000006
10
203.9626864
20
56.102687000000003
42
0.41421356237313667
10
203.4626864
20
56.602687000000017
10
188.9626864
20
56.602687000000017
42
0.41421356237309503
0
LWPOLYLINE
5
127
100
AcDbEntity
8
0
100
AcDbPolyline
90
8
70
1
43
0.0
10
65.350186400000013
20
75.652687000000029
10
50.85018640000002
20
75.652687000000029
42
0.41421356237313667
10
50.350186400000013
20
75.152687000000014
10
50.350186400000005
20
63.352686999999989
42
0.41421356237307944
10
50.85018640000002
20
62.852687000000017
10
65.350186400000013
20
62.852687000000017
42
0.41421356237311585
10
65.850186400000027
20
63.352686999999989
10
65.850186400000027
20
75.152687000000014
42
0.41421356237310025
0
LWPOLYLINE
5
128
100
AcDbEntity
8
0
100
AcDbPolyline
90
8
70
1
43
0.0
10
25.368936400000006
20
44.302687000000006
10
25.368936400000024
20
56.102687000000003
42
0.41421356237310025
10
24.86893640000001
20
56.602687000000017
10
10.368936400000004
20
56.602686999999996
42
0.41421356237310025
10
9.8689364000000062
20
56.102687000000003
10
9.8689363999999919
20
44.302686999999992
42
0.41421356237308721
10
10.368936400000004
20
43.802687000000006
10
24.86893640000001
20
43.802687000000013
42
0.41421356237309503
0
LWPOLYLINE
5
129
100
AcDbEntity
8
0
100
AcDbPolyline
90
8
70
1
43
0.0
10
65.350186400000013
20
5.7026870000000063
42
0.41421356237310025
10
65.850186400000027
20
6.2026870000000045
10
65.850186400000027
20
18.002686999999984
42
0.41421356237309503
10
65.350186400000013
20
18.502686999999991
10
50.85018640000002
20
18.502686999999991
42
0.41421356237310542
10
50.350186399999998
20
18.002686999999984
10
50.350186400000013
20
6.2026870000000045
42
0.41421356237310542
10
50.85018640000002
20
5.7026870000000152
0
LWPOLYLINE
5
130
100
AcDbEntity
8
0
100
AcDbPolyline
90
8
70
1
43
0.0
10
212.7751864
20
81.902686999999958
10
227.2751864
20
81.902687000000029
42
0.41421356237311585
10
227.7751864
20
82.402687
10
227.7751864
20
94.202686999999997
42
0.41421356237309503
10
227.2751864
20
94.702686999999997
10
212.7751864
20
94.702686999999997
42
0.41421356237313667
10
212.2751864
20
94.202686999999997
10
212.27518639999997
20
82.402687
42
0.41421356237309503
0
LWPOLYLINE
5
131
100
AcDbEntity
8
0
100
AcDbPolyline
90
8
70
1
43
0.0
10
165.86268640000003
20
56.102687000000003
10
165.86268640000003
20
44.302687000000006
42
-0.41421356237311585
10
165.3626864
20
43.802687000000006
10
150.86268640000006
20
43.802687000000006
42
-0.41421356237309503
10
150.3626864
20
44.302687000000006
10
150.3626864
20
56.102687000000003
42
-0.41421356237312623
10
150.86268640000009
20
56.602687000000017
10
165.3626864
20
56.602686999999975
42
-0.41421356237309503
0
LWPOLYLINE
5
132
100
AcDbEntity
8
0
100
AcDbPolyline
90
8
70
1
43
0.0
10
70.112686400000001
20
56.602687000000017
10
55.612686400000015
20
56.602687000000003
42
0.41421356237309503
10
55.112686400000015
20
56.102687000000003
10
55.112686400000008
20
44.302687000000006
42
0.41421356237309503
10
55.612686400000015
20
43.802687000000006
10
70.112686400000001
20
43.802687000000006
42
0.41421356237308982
10
70.612686400000001
20
44.302687000000006
10
70.612686400000015
20
56.102687000000003
42
0.41421356237310025
0
LWPOLYLINE
5
133
100
AcDbEntity
8
0
100
AcDbPolyline
90
8
70
1
43
0.0
10
184.91268640000004
20
56.102687000000003
10
184.91268640000004
20
44.302687000000006
42
-0.41421356237311585
10
184.41268640000001
20
43.802687000000006
10
169.91268640000004
20
43.802687000000006
42
-0.41421356237307422
10
169.41268640000001
20
44.302687000000006
10
169.41268639999998
20
56.102687000000003
42
-0.41421356237309503
10
169.91268640000004
20
56.602687000000017
10
184.41268640000001
20
56.602686999999975
42
-0.41421356237309503
0
LWPOLYLINE
5
134
100
AcDbEntity
8
0
100
AcDbPolyline
90
8
70
1
43
0.0
10
51.062686400000004
20
43.802687000000006
42
0.41421356237308982
10
51.562686400000004
20
44.302687000000006
10
51.562686400000018
20
56.102687000000003
42
0.41421356237310025
10
51.062686400000004
20
56.602687000000017
10
36.562686400000004
20
56.602686999999996
42
0.41421356237310025
10
36.062686400000004
20
56.102687000000003
10
36.062686400000004
20
44.302687000000006
42
0.41421356237311063
10
36.562686400000004
20
43.802687000000006
0
LWPOLYLINE
5
135
100
AcDbEntity
8
0
100
AcDbPolyline
90
4
70
1
43
0.0
10
110.89150166382721
20
10.929431099142679
10
113.0251016638272
20
10.929431099142679
10
113.0251016638272
20
13.11383109914269
10
110.89150166382721
20
13.11383109914269
0
LWPOLYLINE
5
136
100
AcDbEntity
8
0
100
AcDbPolyline
90
8
70
1
43
0.0
10
117.73768640000002
20
24.752686999999991
42
0.4142135623730846
10
118.23768640000004
20
25.252686999999998
10
118.23768640000004
20
37.052686999999992
42
0.41421356237310542
10
117.73768640000002
20
37.552687000000006
10
103.2376864
20
37.552687000000006
42
0.4142135623730846
10
102.73768640000002
20
37.052686999999992
10
102.73768640000002
20
25.252686999999998
42
0.41421356237311585
10
103.2376864
20
24.752687000000009
0
LWPOLYLINE
5
137
100
AcDbEntity
8
0
100
AcDbPolyline
90
8
70
1
43
0.0
10
212.98768639999997
20
37.552687000000006
10
198.4876864
20
37.552687000000006
42
0.41421356237309503
10
197.98768639999997
20
37.052686999999992
10
197.98768639999997
20
25.252686999999998
42
0.41421356237314705
10
198.4876864
20
24.752686999999991
10
212.98768639999997
20
24.752687000000009
42
0.41421356237312623
10
213.4876864
20
25.252686999999998
10
213.48768640000003
20
37.052686999999992
42
0.41421356237311585
0
LWPOLYLINE
5
138
100
AcDbEntity
8
0
100
AcDbPolyline
90
8
70
1
43
0.0
10
122.2876864
20
37.552687000000006
42
0.41421356237307422
10
121.78768640000003
20
37.052686999999992
10
121.78768640000003
20
25.252686999999998
42
0.41421356237311585
10
122.28768640000001
20
24.752687000000009
10
136.78768640000004
20
24.752686999999991
42
0.41421356237307422
10
137.28768640000004
20
25.252686999999998
10
137.28768640000004
20
37.052686999999992
42
0.41421356237307422
10
136.78768640000004
20
37.552687000000006
0
LWPOLYLINE
5
139
100
AcDbEntity
8
0
100
AcDbPolyline
90
8
70
1
43
0.0
10
107.50018640000002
20
75.152687000000014
10
107.50018640000005
20
63.352686999999989
42
0.41421356237309503
10
108.00018640000002
20
62.852687000000017
10
122.50018640000002
20
62.852686999999996
42
0.41421356237313667
10
123.00018640000002
20
63.352686999999989
10
123.00018640000002
20
75.152687000000014
42
0.4142135623730846
10
122.50018640000002
20
75.652686999999958
10
108.00018640000002
20
75.652687000000043
42
0.41421356237311585
0
LWPOLYLINE
5
140
100
AcDbEntity
8
0
100
AcDbPolyline
90
8
70
1
43
0.0
10
30.131436399999998
20
37.052686999999992
42
0.41421356237308982
10
29.631436400000002
20
37.552687000000006
10
15.131436400000005
20
37.552686999999985
42
0.41421356237309892
10
14.631436400000005
20
37.052686999999992
10
14.631436399999998
20
25.252686999999998
42
0.41421356237309503
10
15.131436400000005
20
24.752686999999991
10
29.631436400000002
20
24.752687000000002
42
0.41421356237309503
10
30.131436399999998
20
25.252686999999998
0
LWPOLYLINE
5
141
100
AcDbEntity
8
0
100
AcDbPolyline
90
4
70
1
43
0.0
10
97.191686400000009
20
15.980486999999908
10
99.858686400000011
20
15.980486999999908
10
99.858686400000011
20
21.188186999999949
10
97.191686400000009
20
21.188186999999949
0
LWPOLYLINE
5
142
100
AcDbEntity
8
0
100
AcDbPolyline
90
8
70
1
43
0.0
10
141.55018640000003
20
62.852687000000017
42
0.41421356237309503
10
142.05018640000009
20
63.352686999999989
10
142.0501864
20
75.152687000000014
42
0.4142135623730846
10
141.55018640000003
20
75.652686999999958
10
127.0501864
20
75.652687000000014
42
0.41421356237313667
10
126.55018640000002
20
75.152687000000014
10
126.55018640000002
20
63.352686999999989
42
0.41421356237310542
10
127.0501864
20
62.852687000000017
0
LWPOLYLINE
5
143
100
AcDbEntity
8
0
100
AcDbPolyline
90
8
70
1
43
0.0
10
179.43768640000002
20
24.752686999999991
10
193.93768640000002
20
24.752686999999991
42
0.41421356237309503
10
194.43768640000002
20
25.252686999999998
10
194.43768640000002
20
37.052686999999992
42
0.41421356237314705
10
193.93768640000002
20
37.552687000000006
10
179.43768640000002
20
37.552686999999963
42
0.41421356237311585
10
178.93768640000002
20
37.052686999999992
10
178.93768640000002
20
25.252686999999998
42
0.41421356237309503
0
LWPOLYLINE
5
144
100
AcDbEntity
8
0
100
AcDbPolyline
90
8
70
1
43
0.0
10
93.712686400000024
20
56.602687000000017
10
108.21268640000001
20
56.602686999999996
42
-0.41421356237311585
10
108.71268640000004
20
56.102687000000003
10
108.71268640000004
20
44.302687000000006
42
-0.41421356237310542
10
108.21268640000001
20
43.802687000000006
10
93.712686400000024
20
43.802687000000006
42
-0.41421356237309503
10
93.21268640000001
20
44.302687000000006
10
93.212686399999996
20
56.102687000000003
42
-0.41421356237310542
0
LWPOLYLINE
5
145
100
AcDbEntity
8
0
100
AcDbPolyline
90
4
70
1
43
0.0
10
87.27518640000001
20
8.2270369999999637
10
84.608186400000008
20
8.2270369999999637
10
84.608186400000008
20
3.0193369999999575
10
87.27518640000001
20
3.0193369999999575
0
LWPOLYLINE
5
146
100
AcDbEntity
8
0
100
AcDbPolyline
90
8
70
1
43
0.0
10
98.475186400000027
20
81.902686999999958
10
112.97518640000001
20
81.902687000000014
42
0.41421356237310542
10
113.47518640000003
20
82.402687
10
113.47518640000003
20
94.202686999999997
42
0.41421356237309503
10
112.97518640000001
20
94.702686999999997
10
98.475186400000027
20
94.702686999999997
42
0.41421356237309503
10
97.975186400000013
20
94.202686999999997
10
97.975186399999984
20
82.402687
42
0.41421356237309503
0
LWPOLYLINE
5
147
100
AcDbEntity
8
0
100
AcDbPolyline
90
8
70
1
43
0.0
10
174.67518639999997
20
81.902686999999958
10
189.1751864
20
81.902687000000029
42
0.41421356237309503
10
189.67518639999997
20
82.402687
10
189.67518640000003
20
94.202686999999997
42
0.41421356237311585
10
189.1751864
20
94.702686999999969
10
174.67518639999997
20
94.702686999999997
42
0.41421356237313667
10
174.17518639999997
20
94.202686999999997
10
174.17518639999994
20
82.402687
42
0.41421356237309503
0
LWPOLYLINE
5
148
100
AcDbEntity
8
0
100
AcDbPolyline
90
4
70
1
43
0.0
10
87.27518640000001
20
21.187036999999957
10
84.608186400000008
20
21.187036999999957
10
84.608186400000008
20
15.979336999999916
10
87.27518640000001
20
15.979336999999916
0
LWPOLYLINE
5
149
100
AcDbEntity
8
0
100
AcDbPolyline
90
8
70
1
43
0.0
10
88.950186400000021
20
75.652687000000029
10
103.45018640000001
20
75.652687000000043
42
-0.41421356237312623
10
103.95018640000002
20
75.152687000000014
10
103.95018640000001
20
63.352686999999989
42
-0.41421356237310542
10
103.45018640000001
20
62.852687000000017
10
88.950186400000021
20
62.852686999999996
42
-0.41421356237310542
10
88.450186400000007
20
63.352686999999989
10
88.450186399999993
20
75.152687000000014
42
-0.41421356237310542
0
LWPOLYLINE
5
150
100
AcDbEntity
8
0
100
AcDbPolyline
90
8
70
1
43
0.0
10
84.900186400000024
20
63.352686999999989
10
84.900186400000038
20
75.152687000000014
42
0.41421356237306384
10
84.400186400000024
20
75.652687000000029
10
69.90018640000001
20
75.652687000000014
42
0.41421356237309503
10
69.40018640000001
20
75.152687000000014
10
69.40018640000001
20
63.352686999999989
42
0.414213562373069
10
69.90018640000001
20
62.852687000000017
10
84.400186400000024
20
62.852686999999975
42
0.41421356237309503
0
LWPOLYLINE
5
151
100
AcDbEntity
8
0
100
AcDbPolyline
90
8
70
1
43
0.0
10
45.587686400000003
20
37.052686999999992
42
-0.41421356237307422
10
46.08768640000001
20
37.552687000000006
10
60.58768640000001
20
37.552686999999985
42
-0.41421356237310542
10
61.087686400000017
20
37.052686999999992
10
61.087686400000038
20
25.252686999999998
42
-0.4142135623730846
10
60.58768640000001
20
24.752686999999991
10
46.087686400000003
20
24.752687000000009
42
-0.41421356237307944
10
45.587686400000003
20
25.252686999999998
0
LWPOLYLINE
5
152
100
AcDbEntity
8
0
100
AcDbPolyline
90
8
70
1
43
0.0
10
217.75018640000008
20
62.852686999999975
42
0.41421356237307422
10
218.25018640000002
20
63.352686999999989
10
218.25018639999999
20
75.152687000000014
42
0.41421356237309503
10
217.75018640000008
20
75.652687000000029
10
203.25018640000002
20
75.652687000000029
42
0.41421356237307422
10
202.75018640000008
20
75.152687000000014
10
202.7501864000001
20
63.352686999999989
42
0.41421356237307422
10
203.25018640000002
20
62.852687000000017
0
LWPOLYLINE
5
153
100
AcDbEntity
8
0
100
AcDbPolyline
90
8
70
1
43
0.0
10
89.662686400000013
20
56.102687000000003
42
0.4142135623730846
10
89.162686400000013
20
56.602687000000017
10
74.662686400000013
20
56.602687000000003
42
0.41421356237309503
10
74.162686400000013
20
56.102687000000003
10
74.162686399999998
20
44.302687000000006
42
0.41421356237309503
10
74.662686400000013
20
43.802687000000006
10
89.162686400000041
20
43.802687000000006
42
0.41421356237306384
10
89.662686400000027
20
44.302687000000006
0
CIRCLE
5
154
100
AcDbEntity
8
0
100
AcDbCircle
10
105.87484268128918
20
11.921629825747715
30
0
40
3.2385000000000028
210
0
220
0
230
1
0
LWPOLYLINE
5
155
100
AcDbEntity
8
0
100
AcDbPolyline
90
8
70
1
43
0.0
10
46.300186400000001
20
75.652687000000029
10
31.800186400000008
20
75.652687000000014
42
0.41421356237309503
10
31.300186400000012
20
75.152687000000014
10
31.30018640000003
20
63.352686999999989
42
0.41421356237310025
10
31.800186400000008
20
62.852687000000017
10
46.300186400000001
20
62.852687000000017
42
0.41421356237311585
10
46.800186400000008
20
63.352686999999989
10
46.800186400000015
20
75.152687000000014
42
0.41421356237310025
0
LWPOLYLINE
5
156
100
AcDbEntity
8
0
100
AcDbPolyline
90
8
70
1
43
0.0
10
184.20018639999998
20
62.852687000000017
10
198.70018640000006
20
62.852686999999975
42
0.41421356237307422
10
199.20018640000001
20
63.352686999999989
10
199.20018639999998
20
75.152687000000014
42
0.41421356237309503
10
198.70018640000006
20
75.652687000000029
10
184.20018639999998
20
75.652686999999986
42
0.41421356237309503
10
183.70018640000001
20
75.152687000000014
10
183.70018639999998
20
63.352686999999989
42
0.41421356237311585
0
LWPOLYLINE
5
157
100
AcDbEntity
8
0
100
AcDbPolyline
90
8
70
1
43
0.0
10
246.32518640000001
20
81.902687000000029
10
231.82518640000006
20
81.902687000000029
42
-0.41421356237309503
10
231.32518640000001
20
82.402687
10
231.32518640000001
20
94.202686999999997
42
-0.41421356237307422
10
231.82518640000006
20
94.702686999999997
10
246.32518640000001
20
94.70268700000004
42
-0.41421356237309503
10
246.82518640000006
20
94.202686999999997
10
246.82518640000006
20
82.402687
42
-0.41421356237309503
0
CIRCLE
5
158
100
AcDbEntity
8
0
100
AcDbCircle
10
181.77553011871146
20
11.921629825747733
30
0
40
3.2384999999999668
210
0
220
0
230
1
0
LWPOLYLINE
5
159
100
AcDbEntity
8
0
100
AcDbPolyline
90
8
70
1
43
0.0
10
221.8001864
20
75.152687000000014
10
221.80018640000003
20
63.352686999999989
42
0.41421356237313667
10
222.3001864
20
62.852687000000017
10
236.8001864
20
62.852687000000017
42
0.41421356237311585
10
237.3001864
20
63.352686999999989
10
237.30018639999997
20
75.152687000000014
42
0.41421356237303258
10
236.8001864
20
75.652687000000029
10
222.3001864
20
75.652687000000029
42
0.41421356237309503
0
LWPOLYLINE
5
160
100
AcDbEntity
8
0
100
AcDbPolyline
90
8
70
1
43
0.0
10
127.26268640000002
20
43.80268700000002
42
0.4142135623730846
10
127.76268640000006
20
44.302687000000006
10
127.76268640000001
20
56.102687000000003
42
0.41421356237306384
10
127.26268640000002
20
56.602686999999975
10
112.76268640000001
20
56.602687000000032
42
0.41421356237311585
10
112.26268640000002
20
56.102687000000003
10
112.26268640000002
20
44.302687000000006
42
0.41421356237310542
10
112.76268640000001
20
43.802687000000006
0
LWPOLYLINE
5
161
100
AcDbEntity
8
0
100
AcDbPolyline
90
4
70
1
43
0.0
10
99.858686400000011
20
3.0204869999999495
10
99.858686400000011
20
8.2281869999999557
10
97.191686400000009
20
8.2281869999999557
10
97.191686400000009
20
3.0204869999999495
0
LWPOLYLINE
5
162
100
AcDbEntity
8
0
100
AcDbPolyline
90
8
70
1
43
0.0
10
170.12518639999999
20
94.702686999999997
10
155.62518640000002
20
94.702686999999997
42
0.41421356237312623
10
155.12518640000002
20
94.202686999999997
10
155.12518639999999
20
82.402687
42
0.4142135623730846
10
155.62518640000002
20
81.902686999999958
10
170.12518639999999
20
81.902686999999986
42
0.41421356237309503
10
170.62518640000002
20
82.402687
10
170.62518639999996
20
94.202686999999997
42
0.41421356237315748
0
LWPOLYLINE
5
163
100
AcDbEntity
8
0
100
AcDbPolyline
90
8
70
1
43
0.0
10
99.187686400000018
20
37.052686999999992
42
0.41421356237309503
10
98.687686400000004
20
37.552687000000006
10
84.187686400000032
20
37.552687000000006
42
0.41421356237309503
10
83.68768639999999
20
37.052686999999992
10
83.68768639999999
20
25.252686999999998
42
0.41421356237307422
10
84.187686400000032
20
24.752686999999991
10
98.687686400000004
20
24.752686999999991
42
0.41421356237309503
10
99.187686400000018
20
25.252686999999998
0
LWPOLYLINE
5
164
100
AcDbEntity
8
0
100
AcDbPolyline
90
4
70
1
43
0.0
10
98.724583698751161
20
10.929431099142679
10
100.85818369875115
20
10.929431099142679
10
100.85818369875115
20
13.113831099142708
10
98.724583698751161
20
13.113831099142708
0
LWPOLYLINE
5
165
100
AcDbEntity
8
0
100
AcDbPolyline
90
8
70
1
43
0.0
10
256.35018640000004
20
75.152687000000014
42
0.41421356237313667
10
255.85018640000004
20
75.652687000000029
10
241.35018640000004
20
75.652687000000029
42
0.41421356237313667
10
240.85018640000004
20
75.152687000000014
10
240.8501864000001
20
63.352686999999989
42
0.41421356237301177
10
241.35018640000004
20
62.852687000000017
10
255.85018640000004
20
62.852686999999975
42
0.41421356237309503
10
256.35018640000004
20
63.352686999999989
0
LWPOLYLINE
5
166
100
AcDbEntity
8
0
100
AcDbPolyline
90
8
70
1
43
0.0
10
208.22518640000004
20
81.902686999999986
42
0.41421356237307422
10
208.72518640000004
20
82.402687
10
208.72518640000004
20
94.202686999999997
42
0.41421356237307422
10
208.22518640000004
20
94.702686999999997
10
193.72518640000004
20
94.702686999999997
42
0.41421356237307422
10
193.22518640000004
20
94.202686999999997
10
193.22518640000004
20
82.402687
42
0.4142135623730534
10
193.72518640000004
20
81.902686999999958
0
LWPOLYLINE
5
167
100
AcDbEntity
8
0
100
AcDbPolyline
90
4
70
1
43
0.0
10
200.37518640000002
20
15.979336999999916
10
203.04218640000005
20
15.979336999999916
10
203.04218640000005
20
21.187036999999957
10
200.37518640000002
20
21.187036999999957
0
LWPOLYLINE
5
168
100
AcDbEntity
8
0
100
AcDbPolyline
90
8
70
1
43
0.0
10
79.637686400000007
20
24.752686999999991
42
0.41421356237310025
10
80.137686400000021
20
25.252686999999998
10
80.137686400000007
20
37.052686999999992
42
0.41421356237308982
10
79.637686400000007
20
37.552687000000006
10
65.137686400000007
20
37.552686999999992
42
0.41421356237309503
10
64.637686400000007
20
37.052686999999992
10
64.637686399999993
20
25.252686999999998
42
0.41421356237307944
10
65.137686400000007
20
24.752686999999991
0
LWPOLYLINE
5
169
100
AcDbEntity
8
0
100
AcDbPolyline
90
8
70
1
43
0.0
10
180.15018640000005
20
63.352686999999989
10
180.1501864
20
75.152687000000014
42
0.41421356237303258
10
179.65018640000005
20
75.652687000000029
10
165.15018639999997
20
75.652686999999986
42
0.41421356237309503
10
164.6501864
20
75.152687000000014
10
164.6501864
20
63.352686999999989
42
0.41421356237309503
10
165.15018639999997
20
62.852687000000017
10
179.65018640000005
20
62.852687000000017
42
0.41421356237311585
0
LWPOLYLINE
5
170
100
AcDbEntity
8
0
100
AcDbPolyline
90
4
70
1
43
0.0
10
187.79168639999997
20
3.0204869999999495
10
190.45868640000003
20
3.0204869999999495
10
190.45868640000003
20
8.2281869999999557
10
187.79168639999997
20
8.2281869999999557
0
LWPOLYLINE
5
171
100
AcDbEntity
8
0
100
AcDbPolyline
90
8
70
1
43
0.0
10
264.66268640000004
20
63.352686999999989
42
0.41421356237301177
10
265.16268639999998
20
62.852687000000017
10
279.66268639999998
20
62.852686999999975
42
0.41421356237309503
10
280.16268639999998
20
63.352686999999989
10
280.16268639999998
20
75.152687000000014
42
0.41421356237313667
10
279.66268639999998
20
75.652687000000029
10
265.16268639999998
20
75.652687000000029
42
0.41421356237313667
10
264.66268639999998
20
75.152687000000014
0
LWPOLYLINE
5
172
100
AcDbEntity
8
0
100
AcDbPolyline
90
8
70
1
43
0.0
10
56.325186400000014
20
94.202686999999997
10
56.325186400000007
20
82.402687000000014
42
-0.414213562373069
10
55.825186400000007
20
81.902687000000029
10
41.325186400000007
20
81.902687000000043
42
-0.41421356237307422
10
40.825186400000007
20
82.402687
10
40.8251864
20
94.202686999999997
42
-0.41421356237309503
10
41.325186400000007
20
94.702686999999997
10
55.825186400000007
20
94.702686999999983
42
-0.41421356237310025
0
LWPOLYLINE
5
173
100
AcDbEntity
8
0
100
AcDbPolyline
90
9
70
1
43
0.0
10
265.70893640000003
20
53.342687000000012
10
265.70893640000003
20
53.442686999999992
10
265.70893640000003
20
56.012687
10
265.80893639999999
20
56.012687
10
270.91893640000001
20
56.012687
10
270.91893640000001
20
53.442686999999992
10
270.91893640000001
20
53.342687000000012
10
270.81893640000004
20
53.342687000000012
10
265.80893639999999
20
53.342687000000012
0
LWPOLYLINE
5
174
100
AcDbEntity
8
0
100
AcDbPolyline
90
12
70
1
43
0.0
10
35.046436400000005
20
22.567687000000003
10
35.046436400000005
20
22.067686999999996
10
35.546436400000005
20
22.067686999999996
10
37.216436400000006
20
22.067686999999996
10
37.716436400000006
20
22.067686999999996
10
37.716436400000006
20
22.567687000000003
10
37.716436400000006
20
26.777686999999997
10
37.716436400000006
20
27.277687000000004
10
37.216436400000006
20
27.277687000000004
10
35.546436400000005
20
27.277687000000004
10
35.046436400000005
20
27.277687000000004
10
35.046436400000005
20
26.777686999999997
0
LWPOLYLINE
5
175
100
AcDbEntity
8
0
100
AcDbPolyline
90
8
70
1
43
0.0
10
36.775186400000017
20
81.902687000000029
10
22.275186400000003
20
81.902687000000014
42
-0.41421356237309503
10
21.775186400000006
20
82.402687
10
21.775186399999988
20
94.202686999999969
42
-0.41421356237310025
10
22.275186400000003
20
94.702686999999997
10
36.775186400000017
20
94.702686999999983
42
-0.41421356237309503
10
37.275186400000003
20
94.202686999999997
10
37.275186399999981
20
82.402687000000014
42
-0.41421356237308982
0
LWPOLYLINE
5
176
100
AcDbEntity
8
0
100
AcDbPolyline
90
8
70
1
43
0.0
10
31.800186400000008
20
18.502687000000002
42
0.41421356237308982
10
31.300186400000001
20
18.002686999999984
10
31.300186400000012
20
6.2026870000000045
42
0.41421356237308982
10
31.800186400000008
20
5.7026869999999974
10
46.300186400000001
20
5.7026870000000063
42
0.41421356237310025
10
46.800186400000008
20
6.2026870000000045
10
46.800186400000008
20
18.002686999999984
42
0.41421356237309503
10
46.300186400000001
20
18.502686999999991
0
LWPOLYLINE
5
177
100
AcDbEntity
8
0
100
AcDbPolyline
90
4
70
1
43
0.0
10
186.79218910124959
20
10.929431099142715
10
188.92578910124956
20
10.929431099142715
10
188.92578910124956
20
13.113831099142743
10
186.79218910124959
20
13.113831099142725
0
LWPOLYLINE
5
178
100
AcDbEntity
8
0
100
AcDbPolyline
90
4
70
1
43
0.0
10
187.79168639999997
20
21.188186999999949
10
187.79168639999997
20
15.980486999999908
10
190.45868640000003
20
15.980486999999908
10
190.45868640000003
20
21.188186999999949
0
LWPOLYLINE
5
179
100
AcDbEntity
8
0
100
AcDbPolyline
90
4
70
1
43
0.0
10
9.7164364000000063
20
22.067686999999996
10
7.0464364000000046
20
22.067686999999996
10
7.0464364000000046
20
27.277687000000004
10
9.7164364000000063
20
27.277687000000004
0
LWPOLYLINE
5
180
100
AcDbEntity
8
0
100
AcDbPolyline
90
4
70
1
43
0.0
10
200.37518640000002
20
8.2270369999999637
10
200.37518640000002
20
3.0193369999999575
10
203.04218640000005
20
3.0193369999999575
10
203.04218640000005
20
8.2270369999999637
0
LWPOLYLINE
5
181
100
AcDbEntity
8
0
100
AcDbPolyline
90
8
70
1
43
0.0
10
93.925186400000001
20
81.902687000000014
42
0.41421356237310542
10
94.425186400000015
20
82.402687
10
94.425186400000015
20
94.202686999999997
42
0.41421356237309503
10
93.925186400000001
20
94.702686999999997
10
79.425186399999987
20
94.702686999999983
42
0.41421356237309503
10
78.925186399999987
20
94.202686999999997
10
78.925186399999944
20
82.402687000000014
42
0.41421356237308982
10
79.425186399999987
20
81.902686999999958
0
LWPOLYLINE
5
182
100
AcDbEntity
8
0
100
AcDbPolyline
90
8
70
1
43
0.0
10
117.52518640000002
20
94.702686999999983
42
0.41421356237309503
10
117.02518640000002
20
94.202686999999997
10
117.02518640000001
20
82.402687
42
0.41421356237311585
10
117.52518640000002
20
81.902686999999958
10
132.0251864
20
81.902687000000029
42
0.41421356237310542
10
132.5251864
20
82.402687
10
132.52518640000002
20
94.202686999999997
42
0.41421356237309503
10
132.0251864
20
94.702686999999997
0
LWPOLYLINE
5
183
100
AcDbEntity
8
0
100
AcDbPolyline
90
8
70
1
43
0.0
10
161.10018639999996
20
75.152687000000014
42
0.41421356237313667
10
160.60018640000004
20
75.652686999999958
10
146.10018640000001
20
75.652687000000014
42
0.41421356237313667
10
145.60018640000004
20
75.152687000000014
10
145.60018640000001
20
63.352686999999989
42
0.41421356237303258
10
146.10018640000001
20
62.852687000000017
10
160.60018640000004
20
62.852687000000017
42
0.41421356237309503
10
161.10018639999998
20
63.352686999999989
0
LWPOLYLINE
5
184
100
AcDbEntity
8
0
100
AcDbPolyline
90
9
70
1
43
0.0
10
278.76893640000003
20
53.342687000000012
10
283.77893640000002
20
53.342687000000012
10
283.8789364000001
20
53.342687000000012
10
283.8789364000001
20
53.442686999999992
10
283.8789364000001
20
56.012687
10
278.76893640000003
20
56.012687
10
278.66893640000001
20
56.012687
10
278.66893640000001
20
53.442686999999992
10
278.66893640000001
20
53.342687000000012
0
LWPOLYLINE
5
185
100
AcDbEntity
8
0
100
AcDbPolyline
90
8
70
1
43
0.0
10
175.38768640000001
20
37.052686999999992
42
0.41421356237314705
10
174.88768640000001
20
37.552687000000006
10
160.38768640000001
20
37.552686999999985
42
0.41421356237309503
10
159.88768640000001
20
37.052686999999992
10
159.88768640000001
20
25.252686999999998
42
0.41421356237309503
10
160.38768640000001
20
24.752686999999991
10
174.88768640000001
20
24.752686999999991
42
0.41421356237309503
10
175.38768640000001
20
25.252686999999998
0
LWPOLYLINE
5
186
100
AcDbEntity
8
0
100
AcDbPolyline
90
4
70
1
43
0.0
10
174.6252711361733
20
13.113831099142708
10
174.6252711361733
20
10.929431099142715
10
176.75887113617352
20
10.929431099142715
10
176.7588711361733
20
13.113831099142743
0
LWPOLYLINE
5
187
100
AcDbEntity
8
0
100
AcDbPolyline
90
8
70
1
43
0.0
10
17.725186400000005
20
94.702686999999997
10
3.2251864000000041
20
94.702686999999997
42
0.41421356237309437
10
2.725186399999997
20
94.202686999999997
10
2.7251863999999983
20
82.402687
42
0.41421356237307355
10
3.2251864000000041
20
81.902687000000029
10
17.725186400000005
20
81.902687000000029
42
0.41421356237307294
10
18.225186400000005
20
82.402687
10
18.225186400000013
20
94.202686999999997
42
0.41421356237309631
0
LWPOLYLINE
5
188
100
AcDbEntity
8
0
100
AcDbPolyline
90
8
70
1
43
0.0
10
22.487686400000008
20
5.7026869999999974
10
7.987686400000003
20
5.7026870000000009
42
-0.41421356237309176
10
7.4876864000000047
20
6.2026870000000045
10
7.4876863999999985
20
18.002686999999984
42
-0.4142135623730937
10
7.9876864000000047
20
18.502686999999991
10
22.487686400000008
20
18.50268699999998
42
-0.41421356237309503
10
22.987686400000005
20
18.002686999999984
10
22.987686400000005
20
6.2026870000000045
42
-0.41421356237308982
0
LWPOLYLINE
5
189
100
AcDbEntity
8
0
100
AcDbPolyline
90
8
70
1
43
0.0
10
22.987686400000015
20
63.352686999999989
10
22.987686400000015
20
75.152687000000014
42
0.41421356237309503
10
22.487686400000008
20
75.652687000000029
10
7.987686400000003
20
75.652687000000014
42
0.41421356237310025
10
7.4876864000000056
20
75.152687000000014
10
7.4876863999999994
20
63.352686999999989
42
0.41421356237307227
10
7.9876864000000047
20
62.852687000000017
10
22.487686400000008
20
62.852687000000024
42
0.41421356237307944
0
LWPOLYLINE
5
190
100
AcDbEntity
8
0
100
AcDbPolyline
90
8
70
1
43
0.0
10
284.42518640000003
20
94.70268700000004
42
-0.41421356237309503
10
284.92518640000009
20
94.202686999999997
10
284.92518640000009
20
82.402687
42
-0.41421356237309503
10
284.42518640000003
20
81.902687000000029
10
269.92518640000009
20
81.902687000000029
42
-0.41421356237309503
10
269.42518640000003
20
82.402687
10
269.42518640000003
20
94.202686999999997
42
-0.41421356237307422
10
269.92518640000009
20
94.702686999999997
0
LWPOLYLINE
5
191
100
AcDbEntity
8
0
100
AcDbPolyline
90
8
70
1
43
0.0
10
250.87518640000002
20
81.902686999999958
10
265.37518640000002
20
81.902687000000029
42
0.41421356237311585
10
265.87518640000002
20
82.402687
10
265.87518640000002
20
94.202686999999997
42
0.41421356237309503
10
265.37518640000002
20
94.702686999999997
10
250.87518640000002
20
94.702686999999997
42
0.41421356237313667
10
250.37518640000002
20
94.202686999999997
10
250.37518639999999
20
82.402687
42
0.41421356237309503
0
LWPOLYLINE
5
192
100
AcDbEntity
8
0
100
AcDbPolyline
90
8
70
1
43
0.0
10
129.42549504999999
20
3.5398085000000017
10
158.22549505000001
20
3.5398084999999924
42
0.41421356237309725
10
158.82549505
20
4.1398085000000018
10
158.22549505000001
20
4.7398085000000103
42
-0.41421356237309692
10
129.42549504999999
20
4.7398085000000014
10
128.82549505
20
4.1398085000000018
42
-0.41421356237309692
10
128.82549605
20
4.1398085000000018
10
128.82549505
20
4.1398085000000018
42
0.41421356237309692
0
LWPOLYLINE
5
193
100
AcDbEntity
8
0
100
AcDbPolyline
90
4
70
1
43
0.0
10
23.113225659977886
20
77.667396487861566
42
-0.99999999999999989
10
23.113225659977878
20
79.902628536686365
10
264.35232614198884
20
79.902628536686365
42
-0.99999999999999989
10
264.35232614198884
20
77.667396487861566
0
LWPOLYLINE
5
194
100
AcDbEntity
8
0
100
AcDbPolyline
90
4
70
1
43
0.0
10
42.163225659977883
20
58.617396487861562
42
-0.99999999999999989
10
42.16322565997789
20
60.852628536686353
10
245.30232614198883
20
60.852628536686353
42
-0.99999999999999989
10
245.30232614198883
20
58.617396487861562
0
LWPOLYLINE
5
195
100
AcDbEntity
8
0
100
AcDbPolyline
90
4
70
1
43
0.0
10
108.83822565997789
20
20.517396487861561
42
-0.99999999999999989
10
108.83822565997789
20
22.752628536686352
10
178.62732614198882
20
22.752628536686355
42
-0.99999999999999989
10
178.62732614198882
20
20.517396487861554
0
ENDSEC
0
SECTION
2
OBJECTS
0
DICTIONARY
5
C
100
AcDbDictionary
3
ACAD_GROUP
350
D
3
ACAD_MLINESTYLE
350
17
0
DICTIONARY
5
D
100
AcDbDictionary
0
DICTIONARY
5
1A
330
C
100
AcDbDictionary
0
DICTIONARY
5
17
100
AcDbDictionary
0
ENDSEC
0
EOF
